<?xml version="1.0" standalone="no"?>
<!DOCTYPE svg PUBLIC "-//W3C//DTD SVG 1.1//EN" "http://www.w3.org/Graphics/SVG/1.1/DTD/svg11.dtd" >
<svg>
<metadata>
Created by FontForge 20090914 at Mon Dec 26 02:43:20 2022
 By www-data
Copyright 1997,1998 Autodesk Inc. All rights reserved.
</metadata>
<defs>
<font id="Italic" horiz-adv-x="1452" >
  <font-face 
    font-family="ГОСТ тип В"
    font-weight="400"
    font-style="italic"
    font-stretch="normal"
    units-per-em="2048"
    panose-1="2 11 6 9 2 2 2 2 2 4"
    ascent="1638"
    descent="-410"
    x-height="923.999"
    cap-height="1320"
    bbox="-114.001 -528 1566 1980"
    underline-thickness="132"
    underline-position="-198"
    slope="-15"
    unicode-range="U+0020-U+25C1"
  />
<missing-glyph 
d="M182 0v1320h1089v-1320h-1089zM363 182h726v957h-726v-957z" />
    <glyph glyph-name=".notdef" 
d="M182 0v1320h1089v-1320h-1089zM363 182h726v957h-726v-957z" />
    <glyph glyph-name="space" unicode=" " 
 />
    <glyph glyph-name="exclam" unicode="!" 
d="M822 1271c8.66699 32.667 29.667 49 63 49c44 0 66 -21.667 66 -65c0 -8 -0.666992 -14.333 -2 -19l-212 -791c-8.66699 -32.667 -29.667 -49 -63 -49c-44 0 -66 21.667 -66 65c0 8 0.666992 14.333 2 19zM503 84l18 65c9.33301 32.667 30.333 49 63 49
c44 0 66 -21.667 66 -65c0 -8 -0.666992 -14.333 -2 -19l-18 -65c-9.33301 -32.667 -30.333 -49 -63 -49c-44 0 -66 21.667 -66 65c0 8 0.666992 14.333 2 19z" />
    <glyph glyph-name="quotedbl" unicode="&#x22;" 
d="M566 1284c12.667 24 31.667 36 57 36c18.667 0 34.667 -6.5 48 -19.5s20 -28.833 20 -47.5c0 -10.667 -2.66699 -21 -8 -31l-139 -264c-12 -22.667 -30.667 -34 -56 -34c-46 0 -69 21.667 -69 65c0 10.667 2.66699 21 8 31zM908 1284c12.667 24 31.667 36 57 36
c18.667 0 34.667 -6.5 48 -19.5s20 -28.833 20 -47.5c0 -10.667 -2.66699 -21 -8 -31l-139 -264c-12 -22.667 -30.667 -34 -56 -34c-46 0 -69 21.667 -69 65c0 10.667 2.66699 21 8 31z" />
    <glyph glyph-name="numbersign" unicode="#" 
d="M792 396h-274l-93 -347c-9.33301 -32.667 -30.333 -49 -63 -49c-17.333 0 -32.833 6.5 -46.5 19.5s-20.5 27.833 -20.5 44.5c0 6 1 12.667 3 20l84 312h-119c-44 0 -66 22 -66 66s22 66 66 66h154l71 264h-119c-44 0 -66 22 -66 66s22 66 66 66h155l93 347
c8.66699 32.667 29.667 49 63 49c44 0 66 -21.667 66 -65c0 -8 -0.666992 -14.333 -2 -19l-84 -312h274l93 347c8.66699 32.667 29.667 49 63 49c44 0 66 -21.667 66 -65c0 -8 -0.666992 -14.333 -2 -19l-84 -312h120c44 0 66 -22 66 -66s-22 -66 -66 -66h-155l-71 -264h120
c44 0 66 -22 66 -66s-22 -66 -66 -66h-156l-93 -347c-9.33301 -32.667 -30.333 -49 -63 -49c-17.333 0 -32.833 6.5 -46.5 19.5s-20.5 27.833 -20.5 44.5c0 6 1 12.667 3 20zM827 528l71 264h-273l-71 -264h273z" />
    <glyph glyph-name="dollar" unicode="$" 
d="M653 132l-18.002 -65.999c-12 -44 -40.667 -66 -86 -66s-62 22 -50 66l18 69c-85.333 9.33301 -158 34.333 -218 75c-20 13.333 -26.333 32.666 -19 57.999c12 44.667 41 67 87 67c10.667 0 21 -2.66699 31 -8c54 -30.667 106 -49.667 156 -57l94 351l-114 73
c-80 50.667 -106 127.334 -78 230.001c27.333 102 93.333 178.333 198 229c48 23.333 96.667 35 146 35l17 66c10.667 44 39.667 66 87 66c44.667 0 61.334 -22 50.001 -66l-19 -70c84 -10 157.333 -35.667 220 -77c18.667 -12.667 24.667 -31.334 18 -56.001
c-13.333 -44 -41.666 -66 -84.999 -66c-13.333 0 -24.333 3 -33 9c-45.333 30 -97 49 -155 57l-95 -352l115 -72c79.333 -50 105.333 -127 78 -231c-26.667 -100.667 -93 -177 -199 -229c-47.333 -23.333 -96 -35 -146 -35zM688.998 264.001
c37.333 0 72.833 12.832 106.5 38.499s55.5 56.834 65.5 93.501c13.333 51.333 1.33301 89 -36 113l-60 38zM688.998 773l75.999 282.999c-39.333 0 -75.333 -12.667 -108 -38s-54 -56.666 -64 -93.999c-7.33301 -25.333 -7.66602 -47.333 -0.999023 -66
c6.66699 -21.333 19 -37.333 37 -48z" />
    <glyph glyph-name="percent" unicode="%" 
d="M998 396c-93.333 0 -151 -44 -173 -132c-4.66699 -17.333 -7 -33 -7 -47c0 -56.667 36 -85 108 -85c90.667 0 148 44 172 132c4.66699 18.667 7 35 7 49c0 55.333 -35.667 83 -107 83zM1033 528c44 0 83.8311 -12.835 119.498 -38.502s61.167 -59.167 76.5 -100.5
s17.333 -83 6 -125c-34 -124 -93.333 -203 -178 -237c-45.333 -18 -100.666 -27 -165.999 -27c-97.333 0 -163 46.333 -197 139c-15.333 40.667 -17.333 82.334 -6 125.001c24.667 94.667 63.834 162.334 117.501 203.001s129.5 61 227.5 61zM526.998 1188
c-93.333 0 -151 -44 -173 -132c-4.66699 -17.333 -7 -33 -7 -47c0 -56.667 36 -85 108 -85c90.667 0 148 44 172 132c4.66699 18.667 7 35 7 49c0 55.333 -35.667 83 -107 83zM561.998 1320c44 0 83.8311 -12.835 119.498 -38.502s61.167 -59.167 76.5 -100.5
s17.333 -83 6 -125c-34 -124 -93.333 -203 -178 -237c-45.333 -18 -100.666 -27 -165.999 -27c-97.333 0 -163 46.333 -197 139c-15.333 40.667 -17.333 82.334 -6 125.001c24.667 94.667 63.834 162.334 117.501 203.001s129.5 61 227.5 61zM90.9961 64.9961
c0 18.667 6.00098 34.333 18.001 47l1139 1188c12.667 13.333 28.667 20 48 20c17.333 0 32.666 -6.33301 45.999 -19s20 -27.667 20 -45c0 -18.667 -6.33301 -34.667 -19 -48l-1139 -1188c-13.333 -13.333 -29.333 -20 -48 -20c-43.333 0 -65 21.667 -65 65z" />
    <glyph glyph-name="ampersand" unicode="&#x26;" 
d="M761 295l-111 284l-242 -246c-35.333 -36 -53 -72.333 -53 -109c0 -26 9.66699 -47.833 29 -65.5s42.333 -26.5 69 -26.5c25.333 0 52 8.33301 80 25zM810 170l-208 -126.001c-48.667 -29.333 -97.667 -44 -147 -44c-88.667 0 -156 37.667 -202 113
c-20.667 33.333 -31 71 -31 113c-1.33301 70.667 29 137.334 91 200.001l284 288l-84 214c-8 20.667 -12 45.334 -12 74.001c0 100 33.333 178.667 100 236c63.333 54.667 145.666 82 246.999 82c72 0 130 -38.333 174 -115c20.667 -35.333 31 -73 31 -113
c0 -68 -29.333 -132 -88 -192l-214 -218l125 -318l254 154c10.667 6.66699 22.334 10 35.001 10c18 0 33.5 -6.66699 46.5 -20s19.5 -29 19.5 -47c0 -24.667 -10.667 -43.334 -32 -56.001l-274 -166l58 -149c3.33301 -8.66699 5 -16.667 5 -24c0 -44 -22.333 -66 -67 -66
c-30 0 -50.333 14 -61 42zM698 817.999l173.001 175c33.333 34 50 67.667 50 101c0 28.667 -11.333 52 -34 70c-20 16 -44.667 24 -74 24c-46.667 0 -88.834 -17.833 -126.501 -53.5s-56.5 -76.5 -56.5 -122.5c0 -14 2 -26 6 -36z" />
    <glyph glyph-name="quotesingle" unicode="'" 
d="M737 1284c12.667 24 31.667 36 57 36c18.667 0 34.667 -6.5 48 -19.5s20 -28.833 20 -47.5c0 -10.667 -2.66699 -21 -8 -31l-139 -264c-12 -22.667 -30.667 -34 -56 -34c-46 0 -69 21.667 -69 65c0 10.667 2.66699 21 8 31z" />
    <glyph glyph-name="parenleft" unicode="(" 
d="M982 1351c-105.333 -151.333 -186.666 -303.663 -243.999 -456.996c-28 -76.667 -52.667 -154.667 -74 -234c-48.667 -184.667 -73 -358.334 -73 -521.001c0 -65.333 4 -130 12 -194c0.666992 -2.66699 1 -6.33398 1 -11.001c0 -18 -6.5 -33.5 -19.5 -46.5
s-28.5 -19.5 -46.5 -19.5c-38.667 0 -60.334 19 -65.001 57c-9.33301 72 -14 146.667 -14 224c0 175.333 23 345.666 69 510.999c43.333 155.333 82.333 274 117 356c50.667 120.667 127 257 229 409c12 18 29.667 27 53 27c44 0 66 -22 66 -66
c0 -12.667 -3.66699 -24.334 -11 -35.001z" />
    <glyph glyph-name="parenright" unicode=")" 
d="M470 -31c105.333 151.333 186.666 303.998 243.999 457.998c28 76 52.667 153.667 74 233c48.667 184.667 73 358.334 73 521.001c0 65.333 -4 130 -12 194c-0.666992 2.66699 -1 6.33398 -1 11.001c0 18 6.5 33.5 19.5 46.5s28.5 19.5 46.5 19.5
c38.667 0 60.334 -19 65.001 -57c9.33301 -72 14 -146.667 14 -224c0 -170.667 -23 -341 -69 -511c-42.667 -157.333 -88.334 -290 -137.001 -398c-50 -112 -119.667 -234.333 -209 -367c-12 -18 -29.667 -27 -53 -27c-17.333 0 -32.666 6.66699 -45.999 20
s-20 28.666 -20 45.999c0 12.667 3.66699 24.334 11 35.001z" />
    <glyph glyph-name="asterisk" unicode="*" 
d="M559 1064l-202.004 74.001c-25.333 9.33301 -38 31.333 -38 66c0 23.333 9.33301 40.333 28 51s39.334 12 62.001 4l233 -83l73 248c12.667 44 36.667 66 72 66c41.333 0 62 -22 62 -66c0 -8 -1.33301 -16.667 -4 -26l-62 -217l262 86
c20 6.66699 39.833 5.16699 59.5 -4.5s29.5 -25.167 29.5 -46.5c0 -38.667 -13.667 -62.667 -41 -72l-301 -100l95 -180c6 -11.333 9 -23 9 -35c0 -18 -6.66699 -33.333 -20 -46s-28.666 -19 -45.999 -19c-27.333 0 -47.666 13.333 -60.999 40l-98 188l-198 -206
c-14.667 -14.667 -36.667 -22 -66 -22c-15.333 0 -28.166 6.66699 -38.499 20s-15.5 27.666 -15.5 42.999c0 18 6.33301 33.333 19 46z" />
    <glyph glyph-name="plus" unicode="+" 
d="M640 396h-186.999c-44 0 -66 22 -66 66s22 66 66 66h223l57 215c8.66699 32.667 29.667 49 63 49c44.667 0 67 -22 67 -66c0 -6 -0.666992 -11.667 -2 -17l-48 -181h186c44 0 66 -22 66 -66s-22 -66 -66 -66h-222l-57 -215c-8.66699 -32.667 -29.334 -49 -62.001 -49
c-45.333 0 -68 21.667 -68 65c0 6.66699 0.666992 12.667 2 18z" />
    <glyph glyph-name="comma" unicode="," 
d="M737 96c12.667 24 31.667 36 57 36c18.667 0 34.667 -6.5 48 -19.5s20 -28.833 20 -47.5c0 -10.667 -2.66699 -21 -8 -31l-139 -264c-12 -22.667 -30.667 -34 -56 -34c-46 0 -69 21.667 -69 65c0 10.667 2.66699 21 8 31z" />
    <glyph glyph-name="hyphen" unicode="-" 
d="M999 330h-546c-44 0 -66 22 -66 66s22 66 66 66h546c44 0 66 -22 66 -66s-22 -66 -66 -66z" />
    <glyph glyph-name="hyphen" unicode="&#x2010;" 
d="M999 330h-546c-44 0 -66 22 -66 66s22 66 66 66h546c44 0 66 -22 66 -66s-22 -66 -66 -66z" />
    <glyph glyph-name="period" unicode="." 
d="M654 84l18 65c8.66699 32.667 29.667 49 63 49c44 0 66 -21.667 66 -65c0 -8 -0.666992 -14.333 -2 -19l-18 -65c-9.33301 -32.667 -30.333 -49 -63 -49c-44 0 -66 21.667 -66 65c0 8 0.666992 14.333 2 19z" />
    <glyph glyph-name="slash" unicode="/" 
d="M228 66c0 16 3.66699 29 11 39l866 1188c13.333 18 30.666 27 51.999 27c44.667 0 67 -22 67 -66c0 -14 -4.33301 -27 -13 -39l-866 -1188c-13.333 -18 -30.666 -27 -51.999 -27c-43.333 0 -65 22 -65 66z" />
    <glyph glyph-name="zero" unicode="0" 
d="M931 660c36.667 136.667 55 249.334 55 338.001c0 126.667 -39.333 190 -118 190c-86 0 -174 -101 -264 -303c-37.333 -82.667 -65 -157.667 -83 -225c-36.667 -136.667 -55 -249.334 -55 -338.001c0 -126.667 39.333 -190 118 -190c86 0 174.333 101 265 303
c36.667 82.667 64 157.667 82 225zM952 336c-104.667 -224 -239 -336 -403 -336c-143.333 0 -215 106.667 -215 320c0 203.333 55.667 424.333 167 663c104.667 224.667 238.667 337 402 337c143.333 0 215 -107 215 -321c0 -204 -55.333 -425 -166 -663z" />
    <glyph glyph-name="one" unicode="1" 
d="M784 1083l-189.001 -145.002c-15.333 -11.333 -31.666 -15.666 -48.999 -12.999c-18.667 2.66699 -33.5 10.834 -44.5 24.501s-15.167 30.167 -12.5 49.5c1.33301 17.333 10 32 26 44l344 263c12 9.33301 25 14 39 14c44 0 66 -21.667 66 -65
c0 -8 -0.666992 -14.333 -2 -19l-319 -1187c-9.33301 -32.667 -30.333 -49 -63 -49c-17.333 0 -32.833 6.5 -46.5 19.5s-20.5 27.833 -20.5 44.5c0 6 1 12.667 3 20z" />
    <glyph glyph-name="two" unicode="2" 
d="M638 1014c-12.667 -16 -29.001 -23.998 -49.001 -23.998c-18 0 -33.5 6.66699 -46.5 20s-19.5 28.666 -19.5 45.999c0 15.333 5.33301 29.666 16 42.999c59.333 74.667 116 128.667 170 162c64.667 39.333 139.667 59 225 59c99.333 0 174.333 -42.667 225 -128
c24 -40 36 -84.333 36 -133c0 -90 -39.333 -178.333 -118 -265l-603 -662h396c44 0 66 -22 66 -66s-22 -66 -66 -66h-546c-44 0 -66 22 -66 66c0 17.333 5.66699 32.333 17 45l707 775c54 59.333 81 116 81 170c0 88 -55 132 -165 132
c-51.333 0 -111.666 -30.333 -180.999 -91c-30 -25.333 -56.333 -53 -79 -83z" />
    <glyph glyph-name="three" unicode="3" 
d="M973 711c54.667 -24 82 -81.667 82 -173c0 -25.333 -3.33301 -50.666 -10 -75.999l-35 -132c-38.667 -146.667 -115.667 -244.334 -231 -293.001c-58 -24.667 -124.667 -37 -200 -37h-255c-44 0 -66 22 -66 66s22 66 66 66h290c57.333 0 111.166 19.167 161.499 57.5
s82.833 85.166 97.5 140.499l35 132c7.33301 27.333 11 52.333 11 75c0 82 -54.333 123 -163 123h-119c-44 0 -66 22 -66 66s22 66 66 66h155c80 0 148.333 32.667 205 98c26.667 30.667 44.334 64 53.001 100c5.33301 22.667 8 42.334 8 59.001
c0 92.667 -53.333 139 -160 139h-256c-44 0 -66 22 -66 66s22 66 66 66h292c102.667 0 178.667 -46 228 -138c21.333 -41.333 32 -84.333 32 -129c0 -21.333 -2.66699 -42.333 -8 -63c-37.333 -144 -108.333 -237 -213 -279z" />
    <glyph glyph-name="four" unicode="4" 
d="M950 396h118.001c44 0 66 -22 66 -66s-22 -66 -66 -66h-153l-57 -215c-8.66699 -32.667 -29.667 -49 -63 -49c-45.333 -0 -68 22.333 -68 67c0 6 0.666992 11.333 2 16l49 181h-393c-18.667 0 -34.334 6.5 -47.001 19.5s-19 28.5 -19 46.5c0 11.333 3 22.333 9 33
l521 924c12 22 31 33 57 33c44.667 0 67 -21.667 67 -65c0 -11.333 -3 -22.333 -9 -33l-466 -826h315l58 216c8 32 29 48 63 48c44.667 0 67 -21.333 67 -64c0 -7.33301 -0.666992 -13.333 -2 -18z" />
    <glyph glyph-name="five" unicode="5" 
d="M583 0l-255.002 0.000976562c-44 0 -66 22 -66 66s22 66 66 66h290c136.667 0 223 66 259 198l36 132c7.33301 26.667 11 51.334 11 74.001c0 82.667 -54.667 124 -164 124h-255c-17.333 0 -32.666 6.66699 -45.999 20s-20 28.666 -20 45.999
c0 6.66699 0.666992 12.334 2 17.001l141 527c8.66699 33.333 30 50 64 50h478c44 0 66 -22 66 -66s-22 -66 -66 -66h-427l-106 -396h205c76.667 0 139.5 -23.833 188.5 -71.5s73.5 -109.834 73.5 -186.501c0 -26 -3 -50 -9 -72l-36 -132
c-42 -154.667 -116 -253.334 -222 -296.001c-55.333 -22.667 -124.666 -34 -207.999 -34z" />
    <glyph glyph-name="six" unicode="6" 
d="M621 132c136.667 0 223.001 65.999 259.001 197.999l36 132c7.33301 26.667 11 51.334 11 74.001c0 82.667 -54.667 124 -164 124h-205l-88 -330c-5.33301 -20 -8 -36.333 -8 -49c0 -44.667 15.167 -80.667 45.5 -108s68.166 -41 113.499 -41zM586.001 -0.000976562
c-93.333 0 -167.334 48.332 -222.001 144.999c-24.667 42.667 -37 86 -37 130c0 18 2.33301 35.667 7 53l106 398c39.333 147.333 105 270 197 368c104 110.667 239 185.334 405 224.001c6 1.33301 11.667 2 17 2c44 0 66 -22 66 -66c0 -37.333 -14.667 -58 -44 -62
c-73.333 -10 -147.333 -37.667 -222 -83c-133.333 -81.333 -219 -187 -257 -317h197c76.667 0 139.667 -24 189 -72s74 -110 74 -186c0 -26 -3 -50 -9 -72l-36 -132c-42 -154 -116.333 -252.667 -223 -296c-55.333 -22.667 -124.666 -34 -207.999 -34z" />
    <glyph glyph-name="seven" unicode="7" 
d="M911 1188h-441c-44 0 -66 22 -66 66s22 66 66 66h546c44 0 66 -22 66 -66c0 -12 -2 -22 -6 -30l-592 -1188c-8 -16.667 -20.667 -27.667 -38 -33c-42.667 -13.333 -70.667 1 -84 43c-5.33301 16.667 -4 33 4 49z" />
    <glyph glyph-name="eight" unicode="8" 
d="M958 708c44.667 -46 66.999 -103.998 66.999 -173.998c0 -26 -3 -50 -9 -72l-36 -132c-32.667 -118.667 -82.5 -203.334 -149.5 -254.001s-160.5 -76 -280.5 -76c-76 0 -138.833 24.5 -188.5 73.5s-74.5 110.5 -74.5 184.5c0 26 3 50 9 72l36 132
c38.667 142 104.667 235.667 198 281c-44 48 -66 106.333 -66 175c0 27.333 3 51.333 9 72c34 117.333 83.833 201.666 149.5 252.999s158.834 77 279.501 77c76.667 0 139.667 -24 189 -72s74 -110 74 -186c0 -26.667 -3 -50.667 -9 -72
c-40 -140.667 -106 -234.667 -198 -282zM727.999 660.002c-136.667 0 -223 -66 -259 -198l-36 -132c-7.33301 -26.667 -11 -51.334 -11 -74.001c0 -82.667 54.667 -124 164 -124c135.333 0 221 66 257 198l36 132c7.33301 26.667 11 51.334 11 74.001
c0 82.667 -54 124 -162 124zM865.999 1188c-136.667 0 -222 -66 -256 -198c-7.33301 -28.667 -11 -53.334 -11 -74.001c0 -82.667 54 -124 162 -124c138 0 224 66 258 198c7.33301 28.667 11 53.334 11 74.001c0 82.667 -54.667 124 -164 124z" />
    <glyph glyph-name="nine" unicode="9" 
d="M831 1188c-136.667 0 -223.001 -65.999 -259.001 -197.999l-36 -132c-7.33301 -26.667 -11 -51.334 -11 -74.001c0 -82.667 54.667 -124 164 -124h205l88 330c5.33301 20 8 36.333 8 49c0 44.667 -15.167 80.667 -45.5 108s-68.166 41 -113.499 41zM865.999 1320
c68 0 128.166 -28.667 180.499 -86s78.5 -120.333 78.5 -189c0 -18 -2.33301 -35.667 -7 -53l-106 -398c-85.333 -320.667 -286 -518 -602 -592c-6 -1.33301 -11.667 -2 -17 -2c-17.333 0 -32.666 6.66699 -45.999 20s-20 28.666 -20 45.999c0 38 14.667 58.667 44 62
c78.667 10 153.667 37.333 225 82c131.333 82.667 216 188.667 254 318h-197c-76 0 -138.833 24.5 -188.5 73.5s-74.5 110.5 -74.5 184.5c0 26 3 50 9 72l36 132c21.333 78.667 50.333 142.334 87 191.001c69.333 92.667 184 139 344 139z" />
    <glyph glyph-name="colon" unicode=":" 
d="M583 150l18 65c9.33301 32.667 30.333 49 63 49c44 0 66 -21.667 66 -65c0 -8 -0.666992 -14.333 -2 -19l-18 -65c-9.33301 -32.667 -30.333 -49 -63 -49c-44 0 -66 21.667 -66 65c0 8 0.666992 14.333 2 19zM724 678l18 65c9.33301 32.667 30.333 49 63 49
c44 0 66 -21.667 66 -65c0 -8 -0.666992 -14.333 -2 -19l-18 -65c-9.33301 -32.667 -30.333 -49 -63 -49c-44 0 -66 21.667 -66 65c0 8 0.666992 14.333 2 19z" />
    <glyph glyph-name="semicolon" unicode=";" 
d="M785 546l18 65c9.33301 32.667 30.333 49 63 49c44 0 66 -21.667 66 -65c0 -8 -0.666992 -14.333 -2 -19l-18 -65c-9.33301 -32.667 -30.333 -49 -63 -49c-44 0 -66 21.667 -66 65c0 8 0.666992 14.333 2 19zM667 96c12.667 24 31.667 36 57 36
c18.667 0 34.667 -6.5 48 -19.5s20 -28.833 20 -47.5c0 -10.667 -2.66699 -21 -8 -31l-139 -264c-12 -22.667 -30.667 -34 -56 -34c-46 0 -69 21.667 -69 65c0 10.667 2.66699 21 8 31z" />
    <glyph glyph-name="less" unicode="&#x3c;" 
d="M620 456l324 -130c28 -11.333 42 -31.666 42 -60.999c0 -44.667 -22.333 -67 -67 -67c-8 0 -16 1.66699 -24 5l-492 198c-28 11.333 -42 31.666 -42 60.999c0 31.333 15 52 45 62l598 199c6 2 13.333 3 22 3c43.333 0 65 -22 65 -66c0 -31.333 -15 -52 -45 -62z" />
    <glyph glyph-name="equal" unicode="=" 
d="M946 198h-546c-44 0 -66 22 -66 66s22 66 66 66h546c44 0 66 -22 66 -66s-22 -66 -66 -66zM1052 594h-546c-44 0 -66 22 -66 66s22 66 66 66h546c44 0 66 -22 66 -66s-22 -66 -66 -66z" />
    <glyph glyph-name="greater" unicode="&#x3e;" 
d="M833 468l-323.999 130c-28 11.333 -42 31.666 -42 60.999c0 44.667 22.333 67 67 67c7.33301 0 15.333 -1.66699 24 -5l492 -198c28 -11.333 42 -31.666 42 -60.999c0 -31.333 -15 -52 -45 -62l-598 -199c-6.66699 -2 -14 -3 -22 -3c-18.667 0 -34.334 6.5 -47.001 19.5
s-19 28.5 -19 46.5c0 31.333 15.333 52 46 62z" />
    <glyph glyph-name="question" unicode="?" 
d="M508 1128c-8.66699 -4 -17.335 -5.99902 -26.002 -5.99902c-17.333 0 -32.666 6.66699 -45.999 20s-20 28.666 -20 45.999c0 26.667 13 46.667 39 60c95.333 48 230.333 72 405 72c44 0 83.833 -12.833 119.5 -38.5s61.167 -59 76.5 -100s17.333 -82.833 6 -125.5
c-13.333 -51.333 -27.666 -89 -42.999 -113c-16.667 -26 -45.667 -53.667 -87 -83l-214 -154c-19.333 -14 -31.333 -29.333 -36 -46l-57 -215c-8.66699 -32.667 -29.667 -49 -63 -49c-44 0 -66 21.667 -66 65c0 8 0.666992 14.333 2 19l48 180
c18.667 70 53.667 123.333 105 160l212 152c34 24 55 52 63 84c4.66699 18 7 34 7 48c0 56 -36.333 84 -109 84c-124 0 -229.333 -20 -316 -60zM391.999 84.001l17 65c8.66699 32.667 29.667 49 63 49c44 0 66 -21.667 66 -65c0 -7.33301 -0.666992 -13.666 -2 -18.999
l-17 -65c-8.66699 -32.667 -29.667 -49 -63 -49c-44 0 -66 21.667 -66 65c0 7.33301 0.666992 13.666 2 18.999z" />
    <glyph glyph-name="at" unicode="@" 
d="M515 -396c-138 0 -253.667 41.0039 -347 123.004c-97.333 86 -146 195.667 -146 329c0 47.333 6.33301 94.666 19 141.999l142 528c106.667 396 365 594 775 594c133.333 0 245.333 -44.333 336 -133s136 -198.667 136 -330c0 -44.667 -5.66699 -88.334 -17 -131.001
l-123 -462c-19.333 -72 -56.666 -133.333 -111.999 -184c-59.333 -53.333 -125 -80 -197 -80c-30 0 -59.333 9 -88 27c-31.333 20 -48.333 44 -51 72c-25.333 -29.333 -61.666 -53.333 -108.999 -72c-44.667 -18 -88 -27 -130 -27c-57.333 0 -106.333 20.667 -147 62
s-61 90.666 -61 147.999c0 18.667 2.33301 36.667 7 54l105 396c24.667 94 64 161.5 118 202.5s129.667 61.5 227 61.5h205c34.667 0 52 -16.333 52 -49c0 -6.66699 -0.666992 -12.334 -2 -17.001l-159 -594c-5.33301 -20 -8 -38.333 -8 -55c0 -51.333 24.667 -77 74 -77
c69.333 0 115.666 44 138.999 132l123 462c10.667 40 16 79 16 117c0 110.667 -35 196.667 -105 258c-66.667 58 -155 87 -265 87c-148.667 0 -276.667 -41.5 -384 -124.5s-180 -195.5 -218 -337.5l-142 -528c-11.333 -42 -17 -83.333 -17 -124c0 -104 33.667 -187 101 -249
c65.333 -59.333 149.666 -89 252.999 -89c44 0 66 -22 66 -66c0 -18 -6.5 -33.5 -19.5 -46.5s-28.5 -19.5 -46.5 -19.5zM953 792.004l-136 -0.000976562c-92 0 -149.667 -44 -173 -132l-106 -396c-4.66699 -17.333 -7 -33.333 -7 -48c0 -56 36 -84 108 -84
c38 0 73.667 12.833 107 38.5s55 56.834 65 93.501z" />
    <glyph glyph-name="A" unicode="A" 
d="M1039 462l-45 585l-358 -585h403zM1049 330l-494 -0.000976562l-183 -298c-13.333 -21.333 -32 -32 -56 -32c-18 0 -33.5 6.5 -46.5 19.5s-19.5 28.5 -19.5 46.5c0 12.667 3.33301 24.334 10 35.001l727 1188c12.667 20.667 31.667 31 57 31
c40.667 0 62.667 -20.333 66 -61l92 -1195c0 -42.667 -22.333 -64 -67 -64c-40 -0 -61.667 20.333 -65 61z" />
    <glyph glyph-name="B" unicode="B" 
d="M1014 727c86.667 -60.667 130 -143.667 130 -249c0 -28 -3.66699 -55.333 -11 -82c-73.333 -264 -245.666 -396 -516.999 -396h-342c-35.333 0 -53 16.667 -53 50c0 6 0.666992 11.333 2 16l319 1188c12 44 41 66 87 66h342c73.333 0 135 -26.167 185 -78.5
s75 -114.833 75 -187.5c0 -23.333 -2.66699 -44.666 -8 -63.999c-38.667 -140.667 -108.334 -228.334 -209.001 -263.001zM661 1188l-105 -395.999h273c55.333 0 109.5 19.667 162.5 59s84.833 85.666 95.5 138.999c4.66699 23.333 7 42 7 56c0 94.667 -53 142 -159 142
h-274zM520 660.001l-142 -528h273c92.667 0 175 34.5 247 103.5s108 149.5 108 241.5c0 122 -71 183 -213 183h-273z" />
    <glyph glyph-name="C" unicode="C" 
d="M809 132c44 0 66 -22.002 66 -66.002s-22 -66 -66 -66h-291c-67.333 0 -127.333 29.167 -180 87.5s-79 121.5 -79 189.5c0 18 2.33301 35.667 7 53l176 660c58.667 220 202.334 330 431.001 330h254c44 0 66 -22 66 -66s-22 -66 -66 -66h-290
c-57.333 0 -111 -19.167 -161 -57.5s-82.333 -85.166 -97 -140.499l-177 -660c-4.66699 -17.333 -7 -33.666 -7 -48.999c0 -44.667 15.167 -80.667 45.5 -108s68.166 -41 113.499 -41h255z" />
    <glyph glyph-name="D" unicode="D" 
d="M507 1254c12 44 41.001 65.998 87.001 65.998h410c68.667 0 129.667 -29.333 183 -88c51.333 -57.333 77 -120.666 77 -189.999c0 -17.333 -2.33301 -34.666 -7 -51.999l-177 -660c-58.667 -220 -202.334 -330 -431.001 -330h-410c-18.667 0 -33 6.5 -43 19.5
s-12.667 28.5 -8 46.5zM626.001 1188l-283 -1056h341c57.333 0 111.166 19.167 161.499 57.5s82.833 85.166 97.5 140.499l177 660c4.66699 17.333 7 33.666 7 48.999c0 44.667 -15.167 80.667 -45.5 108s-68.166 41 -113.499 41h-342z" />
    <glyph glyph-name="E" unicode="E" 
d="M883 660h-359l-142 -528h460c44 0 66 -22 66 -66s-22 -66 -66 -66h-564c-19.333 0 -34 6.5 -44 19.5s-12.333 28.5 -7 46.5l319 1188c11.333 44 40.333 66 87 66h527c44 0 66 -22 66 -66s-22 -66 -66 -66h-495l-106 -396h324c44 0 66 -22 66 -66s-22 -66 -66 -66z" />
    <glyph glyph-name="F" unicode="F" 
d="M231 84l314 1170c11.333 44 40.333 66 87 66h527c44 0 66 -22 66 -66s-22 -66 -66 -66h-495l-106 -396h460c44 0 66 -22 66 -66s-22 -66 -66 -66h-496l-164 -611c-9.33301 -32.667 -30.333 -49 -63 -49c-17.333 0 -32.833 6.5 -46.5 19.5s-20.5 27.833 -20.5 44.5
c0 6 1 12.667 3 20z" />
    <glyph glyph-name="G" unicode="G" 
d="M1196 1188l-427.999 -0.00195312c-80 0 -147.667 -32.667 -203 -98c-26.667 -31.333 -44.667 -64.666 -54 -99.999l-178 -660c-4.66699 -17.333 -7 -33.666 -7 -48.999c0 -44.667 15.167 -80.667 45.5 -108s68.166 -41 113.499 -41h342l142 528h-121c-44 0 -66 22 -66 66
s22 66 66 66h224c34.667 0 52 -16 52 -48c0 -9.33301 -0.333008 -15.333 -1 -18l-177 -660c-12 -44 -41 -66 -87 -66h-410c-92.667 -0 -166.667 48.333 -222 145c-24.667 42.667 -37 86 -37 130c0 19.333 2.33301 37.666 7 54.999l177 660
c38.667 144.667 117 242.334 235 293.001c58 24.667 123 37 195 37h392c44 0 66 -22 66 -66s-22 -66 -66 -66z" />
    <glyph glyph-name="H" unicode="H" 
d="M1291 1236l-318 -1187c-8.66699 -32.667 -29.667 -49 -63 -49c-16.667 0 -32 6.5 -46 19.5s-21 27.833 -21 44.5c0 6 1 12.667 3 20l154 576h-547l-164 -611c-8.66699 -32.667 -29.667 -49 -63 -49c-16.667 0 -32 6.5 -46 19.5s-21 27.833 -21 44.5c0 6 1 12.667 3 20
l319 1187c8.66699 32.667 29.667 49 63 49c43.333 0 65 -21.667 65 -65c0 -7.33301 -0.666992 -13.666 -2 -18.999l-118 -444h547l128 479c8.66699 32.667 29.667 49 63 49c44 0 66 -21.667 66 -65c0 -8 -0.666992 -14.333 -2 -19z" />
    <glyph glyph-name="I" unicode="I" 
d="M949 1236l-318 -1187c-8.66699 -32.667 -29.667 -49 -63 -49c-16.667 0 -32 6.5 -46 19.5s-21 27.833 -21 44.5c0 6 1 12.667 3 20l319 1187c8.66699 32.667 29.667 49 63 49c43.333 0 65 -21.667 65 -65c0 -8 -0.666992 -14.333 -2 -19z" />
    <glyph glyph-name="J" unicode="J" 
d="M362 132l154 0.000976562c57.333 0 111.166 19.167 161.499 57.5s82.833 85.166 97.5 140.499l252 941c8.66699 32.667 29.667 49 63 49c44 0 66 -21.667 66 -65c0 -8 -0.666992 -14.333 -2 -19l-243 -906c-59.333 -220 -202.666 -330 -429.999 -330h-119
c-44 0 -66 22 -66 66s22 66 66 66z" />
    <glyph glyph-name="K" unicode="K" 
d="M648 689l-240 -198l-119 -442c-8.66699 -32.667 -29.667 -49 -63 -49c-16.667 0 -32 6.5 -46 19.5s-21 27.833 -21 44.5c0 6 1 12.667 3 20l319 1187c8.66699 32.667 29.667 49 63 49c44 0 66 -21.667 66 -65c0 -8 -0.666992 -14.333 -2 -19l-141 -526l718 594
c12.667 10.667 26.667 16 42 16c44 0 66 -22 66 -66c0 -20.667 -8 -37.667 -24 -51l-510 -422l213 -695c2 -6.66699 3 -13.667 3 -21c0 -43.333 -22 -65 -66 -65c-32.667 0 -53.667 15.667 -63 47z" />
    <glyph glyph-name="L" unicode="L" 
d="M1001 132c44 0 66 -22.001 66 -66.001s-22 -66 -66 -66h-564c-19.333 0 -34 6.33301 -44 19s-12.333 28.334 -7 47.001l324 1205c8.66699 32.667 29.667 49 63 49c44 0 66 -21.667 66 -65c0 -8 -0.666992 -14.333 -2 -19l-296 -1104h460z" />
    <glyph glyph-name="M" unicode="M" 
d="M490 1052l-269 -1003c-9.33301 -32.667 -30.333 -49 -63 -49c-17.333 0 -32.833 6.5 -46.5 19.5s-20.5 27.833 -20.5 44.5c0 6 1 12.667 3 20l319 1187c8.66699 32.667 29.667 49 63 49c30 0 50.667 -13.333 62 -40l212 -501l499 520c13.333 14 29 21 47 21
c44 0 66 -21.667 66 -65c0 -8 -0.666992 -14.333 -2 -19l-319 -1187c-9.33301 -32.667 -30.333 -49 -63 -49c-17.333 0 -32.833 6.5 -46.5 19.5s-20.5 27.833 -20.5 44.5c0 6 1 12.667 3 20l252 939l-392 -409c-13.333 -13.333 -29 -20 -47 -20
c-29.333 0 -49.333 13.333 -60 40z" />
    <glyph glyph-name="N" unicode="N" 
d="M607 1274l296.999 -970l260 967c8.66699 32.667 29.667 49 63 49c44 0 66 -21.667 66 -65c0 -8 -0.666992 -14.333 -2 -19l-319 -1187c-8.66699 -32.667 -29.667 -49 -63 -49s-54.666 15.667 -63.999 47l-296 968l-260 -966c-8.66699 -32.667 -29.667 -49 -63 -49
c-16.667 0 -32 6.5 -46 19.5s-21 27.833 -21 44.5c0 6 1 12.667 3 20l319 1187c8.66699 32.667 29.667 49 63 49c32.667 0 53.667 -15.333 63 -46z" />
    <glyph glyph-name="O" unicode="O" 
d="M928 396l142 528.001c6 22 9 43.333 9 64c0 78.667 -34.667 136.667 -104 174c-33.333 17.333 -69.333 26 -108 26c-102.667 0 -192.667 -44 -270 -132c-36 -40.667 -60.333 -84.667 -73 -132l-142 -528c-6 -22 -9 -43.333 -9 -64c0 -58.667 20.167 -106.667 60.5 -144
s90.5 -56 150.5 -56c102 0 192.333 44.667 271 134c36 41.333 60.333 84.666 73 129.999zM1065 396.001c-45.333 -167.333 -140.667 -283.333 -286 -348c-71.333 -32 -148.333 -48 -231 -48c-54 0 -106 17 -156 51c-46.667 32 -84.167 73.167 -112.5 123.5
s-42.5 102.5 -42.5 156.5c0 23.333 2.66699 45 8 65l142 528c44.667 167.333 139.667 283.666 285 348.999c70.667 31.333 147.667 47 231 47c112 0 201.333 -57.667 268 -173c30 -51.333 45 -103.666 45 -156.999c0 -22 -3 -44 -9 -66z" />
    <glyph glyph-name="P" unicode="P" 
d="M730 528h-273.001l-129 -479c-9.33301 -32.667 -30.333 -49 -63 -49c-17.333 0 -32.833 6.5 -46.5 19.5s-20.5 27.833 -20.5 44.5c0 6 1 12.667 3 20l314 1170c11.333 44 40.333 66 87 66h342c112 0 201 -57.667 267 -173c29.333 -51.333 44 -104 44 -158
c0 -24 -2.66699 -45.667 -8 -65c-46 -166.667 -141 -282.667 -285 -348c-71.333 -32 -148.666 -48 -231.999 -48zM765.999 660c102 0 192.333 44.667 271 134c54.667 62 82 127 82 195c0 78 -34.667 135.667 -104 173c-33.333 17.333 -69.333 26 -108 26h-273l-142 -528h274
z" />
    <glyph glyph-name="Q" unicode="Q" 
d="M828 238l-39.9971 50.998c-12 14.667 -16.333 31.334 -13 50.001c6 42 30.667 60.667 74 56c17.333 -2 31.666 -10.333 42.999 -25l17 -23c6.66699 12.667 13 29 19 49l142 528c6 22 9 43.333 9 64c0 78.667 -34.667 136.667 -104 174c-33.333 17.333 -69.333 26 -108 26
c-74.667 0 -145.834 -26 -213.501 -78s-110.834 -114 -129.501 -186l-142 -528c-6 -22 -9 -43 -9 -63c0 -59.333 20.167 -107.666 60.5 -144.999s90.5 -56 150.5 -56c90 0 171.333 35.333 244 106zM909.003 132.998c-97.333 -88.667 -217.668 -132.998 -361.001 -132.998
c-54 0 -106 17 -156 51c-46.667 32 -84.167 73.167 -112.5 123.5s-42.5 102.5 -42.5 156.5c0 23.333 2.66699 45 8 65l142 528c44.667 167.333 139.667 283.666 285 348.999c70.667 31.333 147.667 47 231 47c112 0 201.333 -58 268 -174c30 -52 45 -104 45 -156
c0 -22 -3 -44 -9 -66l-142 -528c-16 -58 -39 -111.333 -69 -160l101 -130c10.667 -14.667 15.334 -30.334 14.001 -47.001c-2 -18.667 -10.167 -33.667 -24.5 -45s-30.5 -16 -48.5 -14c-19.333 2 -34.333 10.333 -45 25z" />
    <glyph glyph-name="R" unicode="R" 
d="M894 551l118.001 -469.002c1.33301 -5.33301 2 -10.666 2 -15.999c0 -44 -22.333 -66 -67 -66c-34.667 0 -56 16.667 -64 50l-120 479c-6.66699 -0.666992 -17.667 -1 -33 -1h-273l-129 -479c-9.33301 -32.667 -30.333 -49 -63 -49c-17.333 0 -32.833 6.5 -46.5 19.5
s-20.5 27.833 -20.5 44.5c0 6 1 12.667 3 20l314 1170c11.333 44 40.333 66 87 66h342c112 0 201 -57.667 267 -173c29.333 -51.333 44 -103.666 44 -156.999c0 -24.667 -2.66699 -46.667 -8 -66c-34.667 -126.667 -99.667 -225 -195 -295
c-46.667 -34.667 -99.334 -60.667 -158.001 -78zM766.001 659.998c102 0 192.333 44.667 271 134c54.667 62 82 127 82 195c0 78 -34.667 135.667 -104 173c-33.333 17.333 -69.333 26 -108 26h-273l-142 -528h274z" />
    <glyph glyph-name="S" unicode="S" 
d="M1197 1246c23.333 -12 34.9951 -31.333 34.9951 -58c0 -18 -6.5 -33.5 -19.5 -46.5s-28.5 -19.5 -46.5 -19.5c-9.33301 0 -19 2.33301 -29 7c-82 39.333 -186 59 -312 59c-93.333 0 -168.666 -42 -225.999 -126c-27.333 -40 -41 -84.667 -41 -134
c0 -54 23.667 -94.333 71 -121l334 -190c79.333 -45.333 119 -117 119 -215c0 -84.667 -30 -167.334 -90 -248.001c-77.333 -102.667 -193.666 -154 -348.999 -154c-97.333 0 -185.666 20.667 -264.999 62c-40.667 21.333 -85 49.666 -133 84.999
c-16.667 12.667 -25 29.667 -25 51c0 18 6.5 33.5 19.5 46.5s28.5 19.5 46.5 19.5c14 0 27 -4.33301 39 -13c112 -79.333 229.667 -119 353 -119c91.333 0 166.333 40.333 225 121c29.333 40.667 44 89.667 44 147c0 50.667 -25 90.334 -75 119.001l-333 189
c-35.333 20 -63.666 51.333 -84.999 94c-20.667 40.667 -31 82.334 -31 125.001c0 92.667 36.333 179 109 259c80.667 89.333 190.334 134 329.001 134c85.333 0 165.666 -11.667 240.999 -35c34.667 -10.667 66.334 -23.667 95.001 -39z" />
    <glyph glyph-name="T" unicode="T" 
d="M777 1188l-306 -1139c-8.66699 -32.667 -29.667 -49 -63 -49c-16.667 0 -32 6.5 -46 19.5s-21 27.833 -21 44.5c0 6 1 12.667 3 20l296 1104h-256c-44 0 -66 22 -66 66s22 66 66 66h684c44 0 66 -22 66 -66s-22 -66 -66 -66h-291z" />
    <glyph glyph-name="U" unicode="U" 
d="M1027 396c-33.333 -123.333 -96.332 -220.168 -188.999 -290.501s-202 -105.5 -328 -105.5c-81.333 0 -154 35 -218 105c-62 68 -93 143.333 -93 226c0 23.333 2.66699 45 8 65l235 875c8.66699 32.667 29.667 49 63 49c44 0 66 -21.667 66 -65
c0 -8 -0.666992 -14.333 -2 -19l-225 -840c-6 -22.667 -9 -43.667 -9 -63c0 -59.333 20.167 -107.666 60.5 -144.999s90.5 -56 150.5 -56c74 0 145.167 26 213.5 78s112.166 114 131.499 186l234 875c8.66699 32.667 29.667 49 63 49c44 0 66 -21.667 66 -65
c0 -8 -0.666992 -14.333 -2 -19z" />
    <glyph glyph-name="V" unicode="V" 
d="M458 274l621.001 1014c13.333 21.333 32.333 32 57 32c44 0 66 -22 66 -66c0 -12.667 -3.33301 -24.334 -10 -35.001l-728 -1188c-12.667 -20.667 -31.334 -31 -56.001 -31c-40.667 -0 -62.667 20.333 -66 61l-92 1196c0 18 7 33 21 45s30 18 48 18
c38.667 0 59.667 -20.333 63 -61z" />
    <glyph glyph-name="W" unicode="W" 
d="M594 651l-381.001 -620.001c-13.333 -20.667 -32.333 -31 -57 -31c-18 0 -33.5 6.83301 -46.5 20.5s-19.167 29.5 -18.5 47.5l44 1188c1.33301 42.667 23.333 64 66 64c46.667 0 69.334 -23 68.001 -69l-39 -939l356 580c12.667 21.333 30.667 32 54 32
c42.667 0 65.667 -20.333 69 -61l44 -560l484 980c12 24.667 31.333 37 58 37c44.667 0 67 -21.333 67 -64c0 -11.333 -2.33301 -21.666 -7 -30.999l-590 -1189c-12 -24 -31 -36 -57 -36c-43.333 -0 -66.333 20.333 -69 61z" />
    <glyph glyph-name="X" unicode="X" 
d="M804 645l234 -553c3.33301 -8 5 -16.667 5 -26c0 -44 -22 -66 -66 -66c-30 -0 -50.333 13.333 -61 40l-212 501l-499 -521c-13.333 -13.333 -29.666 -20 -48.999 -20c-43.333 0 -65 21.667 -65 65c0 18 6.33301 33.667 19 47l538 561l-234 555
c-3.33301 8 -5 16.667 -5 26c0 44 22 66 66 66c29.333 0 49.666 -13.333 60.999 -40l212 -502l500 521c13.333 14 29 21 47 21c44.667 0 67 -22.333 67 -67c0 -17.333 -6 -32.333 -18 -45z" />
    <glyph glyph-name="Y" unicode="Y" 
d="M472 49c-9.33301 -32.667 -29.666 -48.999 -60.999 -48.999c-18 0 -34.167 6.33301 -48.5 19s-21.5 27.667 -21.5 45c0 5.33301 1 11.666 3 18.999l153 571l-242 574c-3.33301 8 -5 16.667 -5 26c0 44 22 66 66 66c28.667 0 49 -13.667 61 -41l211 -502l501 522
c13.333 14 28.666 21 45.999 21c18 0 33.833 -6.33301 47.5 -19s20.5 -28 20.5 -46s-6.33301 -33.667 -19 -47l-557 -580z" />
    <glyph glyph-name="Z" unicode="Z" 
d="M1085 1188h-541c-44 0 -66 22 -66 66s22 66 66 66h682c18 0 33.667 -6.33301 47 -19s20 -28 20 -46c0 -16.667 -5.33301 -31.334 -16 -44.001l-908 -1079h540c44 0 66 -22 66 -66s-22 -66 -66 -66h-685c-18 0 -33.167 6.66699 -45.5 20s-18.5 29 -18.5 47
c0 14.667 5.33301 28.334 16 41.001z" />
    <glyph glyph-name="bracketleft" unicode="[" 
d="M990 1452c44 0 66 -22 66 -66s-22 -66 -66 -66h-85l-355 -1320h51c44 0 66 -22 66 -66s-22 -66 -66 -66h-154c-46 0 -63 22 -51 66l390 1452c12 44 40.667 66 86 66h118z" />
    <glyph glyph-name="backslash" unicode="\" 
d="M547 1241c-0.666992 3.33301 -1 7.99902 -1 13.999c0 17.333 6 32.5 18 45.5s26.667 19.5 44 19.5c39.333 0 62.333 -18 69 -54l228 -1187c0.666992 -3.33301 1 -7.66602 1 -12.999c0 -44 -22.667 -66 -68 -66c-35.333 0 -56.333 18 -63 54z" />
    <glyph glyph-name="bracketright" unicode="]" 
d="M463 -132c-44 0 -66 22 -66 66s22 66 66 66h84l354 1320h-51c-44 0 -66 22 -66 66s22 66 66 66h155c45.333 0 62 -22 50 -66l-389 -1452c-12 -44 -40.667 -66 -86 -66h-117z" />
    <glyph glyph-name="asciicircum" unicode="^" 
d="M766 1624l-204 -157.999c-12 -9.33301 -25.667 -14 -41 -14c-44 0 -66 22.333 -66 67c0 21.333 8.66699 38.666 26 51.999l257 198c11.333 8.66699 25 13 41 13c21.333 0 38.333 -8.33301 51 -25l153 -198c9.33301 -12 14 -25.667 14 -41c0 -18 -6.66699 -33.5 -20 -46.5
s-29 -19.5 -47 -19.5c-20.667 0 -37.667 8.66699 -51 26z" />
    <glyph glyph-name="underscore" unicode="_" 
d="M1478 -396h-1504c-44 0 -66 22 -66 66s22 66 66 66h1504c44 0 66 -22 66 -66s-22 -66 -66 -66z" />
    <glyph glyph-name="grave" unicode="`" 
d="M572 1667c-14.667 13.333 -22 29.666 -22 48.999c0 44 22 66 66 66c16.667 0 31.334 -5.66699 44.001 -17l220 -198c14.667 -13.333 22 -29.666 22 -48.999c0 -44 -22 -66 -66 -66c-16.667 0 -31.334 5.66699 -44.001 17z" />
    <glyph glyph-name="a" unicode="a" 
d="M892 0l-359 0.00195312c-57.333 0 -106.333 20.667 -147 62s-61 90.666 -61 147.999c0 102 33.333 181.333 100 238c62.667 53.333 146 80 250 80h274l35 132c4.66699 17.333 7 33.333 7 48c0 56 -36 84 -108 84h-257c-44 0 -66 22 -66 66s22 66 66 66h293
c58.667 0 108 -20.333 148 -61s60 -90.334 60 -149.001c0 -18.667 -2.33301 -36.667 -7 -54l-164 -610c-8.66699 -33.333 -30 -50 -64 -50zM913 396.002l-273 -0.000976562c-53.333 0 -96.5 -16.667 -129.5 -50s-49.5 -76.666 -49.5 -129.999c0 -56 36 -84 108 -84h273z" />
    <glyph glyph-name="b" unicode="b" 
d="M369 0c-18 0 -33.498 6.66602 -46.498 19.999s-19.5 28.666 -19.5 45.999c0 6.66699 0.666992 12.334 2 17.001l319 1188c8.66699 32.667 29.667 49 63 49c44 0 66 -21.667 66 -65c0 -7.33301 -0.666992 -13.666 -2 -18.999l-83 -312h273c58 0 107.333 -20.5 148 -61.5
s61 -90.5 61 -148.5c0 -18.667 -2.33301 -36.667 -7 -54l-107 -396c-26.667 -96 -66.334 -164 -119.001 -204s-127.334 -60 -224.001 -60h-324zM906.002 791.999h-274l-177 -660h274c90.667 0 148 44 172 132l106 396c4.66699 17.333 7 33.333 7 48c0 56 -36 84 -108 84z
" />
    <glyph glyph-name="c" unicode="c" 
d="M803 0l-222.999 0.000976562c-57.333 0 -106.5 20.667 -147.5 62s-61.5 90.666 -61.5 147.999c0 18.667 2.33301 36.667 7 54l106 396c32.667 123.333 92 202.333 178 237c44.667 18 100 27 166 27h188c44 0 66 -22 66 -66s-22 -66 -66 -66h-223
c-92.667 0 -150.334 -44 -173.001 -132l-105 -396c-5.33301 -20 -8 -34 -8 -42c0 -60 36 -90 108 -90h188c44 0 66 -22 66 -66s-22 -66 -66 -66z" />
    <glyph glyph-name="d" unicode="d" 
d="M818 0h-359.002c-58.667 0 -108.167 20.667 -148.5 62s-60.5 91 -60.5 149c0 18 2.33301 35.667 7 53l106 396c25.333 95.333 65.333 163.333 120 204c52.667 40 127.334 60 224.001 60h274l92 347c8 32.667 29.333 49 64 49c44 0 66 -21.667 66 -65
c0 -8 -0.666992 -14.333 -2 -19l-319 -1186c-9.33301 -33.333 -30.666 -50 -63.999 -50zM671.998 792c-92 0 -149.667 -44 -173 -132l-106 -396c-4.66699 -17.333 -7 -33 -7 -47c0 -56.667 36 -85 108 -85h274l177 660h-273z" />
    <glyph glyph-name="e" unicode="e" 
d="M974 594c7.33301 28.667 11 53 11 73c0 83.333 -54 125 -162 125c-136 0 -222 -66 -258 -198l-18 -66h410zM1111 594l-53 -198h-546l-35 -132c-4.66699 -17.333 -7 -33.333 -7 -48c0 -56 35.667 -84 107 -84h324c44 0 66 -22 66 -66s-22 -66 -66 -66h-359
c-57.333 0 -106.5 20.667 -147.5 62s-61.5 90.666 -61.5 147.999c0 18.667 2.33301 36.667 7 54l88 330c31.333 118.667 80.333 203.334 147 254.001s161.334 76 284.001 76c117.333 0 197.666 -52.667 240.999 -158c13.333 -32.667 20 -66 20 -100
c0 -25.333 -3 -49.333 -9 -72z" />
    <glyph glyph-name="f" unicode="f" 
d="M1022 1188h-86.001c-91.333 0 -148.666 -44 -171.999 -132l-35 -132h187c44 0 66 -22 66 -66s-22 -66 -66 -66h-222l-200 -743c-8.66699 -32.667 -29.667 -49 -63 -49c-16.667 0 -32 6.5 -46 19.5s-21 27.833 -21 44.5c0 6 1 12.667 3 20l190 708h-51
c-44 0 -66 22 -66 66s22 66 66 66h87l35 132c32.667 124.667 92 204 178 238c44.667 17.333 100 26 166 26h50c44 0 66 -22 66 -66s-22 -66 -66 -66z" />
    <glyph glyph-name="g" unicode="g" 
d="M1125 924c44 0 65.998 -21.998 65.998 -65.998c0 -6.66699 -0.666992 -12.334 -2 -17.001l-261 -973c-33.333 -123.333 -93 -202.333 -179 -237c-45.333 -18 -100.666 -27 -165.999 -27h-255c-44 0 -66 22 -66 66s22 66 66 66h290c92 0 149.667 44 173 132l35 132h-273
c-57.333 0 -106.5 20.5 -147.5 61.5s-61.5 90.167 -61.5 147.5c0 19.333 2.33301 37.666 7 54.999l106 395c32.667 124 91.667 203.333 177 238c44.667 18 100.334 27 167.001 27h324zM1039 792.002h-272.999c-92.667 0 -150.334 -44 -173.001 -132l-105 -396
c-4.66699 -17.333 -7 -33.333 -7 -48c0 -56 35.667 -84 107 -84h273z" />
    <glyph glyph-name="h" unicode="h" 
d="M624 1271c8.66699 32.667 29.667 48.998 63 48.998c44 0 66 -21.667 66 -65c0 -7.33301 -0.666992 -13.666 -2 -18.999l-83 -312h273c58 0 107.333 -20.333 148 -61s61 -90 61 -148c0 -19.333 -2.33301 -37.666 -7 -54.999l-165 -611
c-8.66699 -32.667 -29.667 -49 -63 -49c-16.667 0 -32 6.5 -46 19.5s-21 27.833 -21 44.5c0 6 1 12.667 3 20l155 576c4.66699 17.333 7 33.333 7 48c0 56 -35.667 84 -107 84h-274l-200 -743c-8.66699 -32.667 -29.667 -49 -63 -49c-16.667 0 -32 6.5 -46 19.5
s-21 27.833 -21 44.5c0 6 1 12.667 3 20z" />
    <glyph glyph-name="i" unicode="i" 
d="M716 875c8.66699 32.667 29.666 49 62.999 49c18 0 33.667 -6.33301 47 -19s20 -28 20 -46c0 -8 -0.666992 -14.333 -2 -19l-212 -791c-9.33301 -32.667 -30.666 -49 -63.999 -49c-17.333 0 -32.833 6.5 -46.5 19.5s-20.5 27.833 -20.5 44.5c0 6 1 12.667 3 20z
M804.999 1206l18 65c8.66699 32.667 29.667 49 63 49c44 0 66 -21.667 66 -65c0 -8 -0.666992 -14.333 -2 -19l-18 -65c-9.33301 -32.667 -30.333 -49 -63 -49c-44 0 -66 21.667 -66 65c0 8 0.666992 14.333 2 19z" />
    <glyph glyph-name="j" unicode="j" 
d="M377 -264h86c90.667 0 148 44 172 132l271 1007c8.66699 32.667 29.667 49 63 49c44 0 66 -21.667 66 -65c0 -8 -0.666992 -14.333 -2 -19l-261 -972c-33.333 -123.333 -93 -202.333 -179 -237c-44.667 -18 -100 -27 -166 -27h-50c-44 0 -66 22 -66 66s22 66 66 66z
M994 1206l18 65c9.33301 32.667 30.333 49 63 49c44 0 66 -21.667 66 -65c0 -8 -0.666992 -14.333 -2 -19l-18 -65c-9.33301 -32.667 -30.333 -49 -63 -49c-44 0 -66 21.667 -66 65c0 8 0.666992 14.333 2 19z" />
    <glyph glyph-name="k" unicode="k" 
d="M511 420l-99.998 -371c-8.66699 -32.667 -30.334 -49 -65.001 -49c-43.333 0 -65 22 -65 66c0 5.33301 0.666992 11 2 17l318 1187c9.33301 33.333 30.666 50 63.999 50c24 0 42.167 -8.16699 54.5 -24.5s15.5 -36.166 9.5 -59.499l-169 -632l510 310
c11.333 6.66699 22.666 10 33.999 10c44.667 0 67 -22 67 -66c0 -25.333 -10.667 -44.333 -32 -57l-332 -201l149 -515c2 -6.66699 3 -12.334 3 -17.001c0 -45.333 -22 -68 -66 -68c-33.333 0 -54.666 16 -63.999 48l-140 482z" />
    <glyph glyph-name="l" unicode="l" 
d="M690 132c44 0 66 -21.999 66 -65.999s-22 -66 -66 -66c-47.333 0 -88.5 15.167 -123.5 45.5s-52.5 67.833 -52.5 112.5c0 13.333 2 26.666 6 39.999l288 1073c8.66699 32.667 30 49 64 49c44 0 66 -21.667 66 -65c0 -8 -0.666992 -14.333 -2 -19l-279 -1038
c-3.33301 -11.333 -5 -21.333 -5 -30c0 -24 12.667 -36 38 -36z" />
    <glyph glyph-name="m" unicode="m" 
d="M381 874c8.66699 33.333 30 50.001 64 50.001h633c59.333 0 109 -20.333 149 -61s60 -90.667 60 -150c0 -18 -2.33301 -35.667 -7 -53l-164 -611c-9.33301 -32.667 -30.333 -49 -63 -49c-17.333 0 -32.833 6.5 -46.5 19.5s-20.5 27.833 -20.5 44.5c0 6 1 12.667 3 20
l154 576c4.66699 17.333 7 33.666 7 48.999c0 55.333 -35.667 83 -107 83h-137l-200 -743c-9.33301 -32.667 -30.333 -49 -63 -49c-17.333 0 -32.833 6.5 -46.5 19.5s-20.5 27.833 -20.5 44.5c0 6 1 12.667 3 20l191 708h-274l-200 -743
c-9.33301 -32.667 -30.333 -49 -63 -49c-17.333 0 -32.833 6.5 -46.5 19.5s-20.5 27.833 -20.5 44.5c0 6 1 12.667 3 20z" />
    <glyph glyph-name="n" unicode="n" 
d="M517 874c8.66699 33.333 30 50.001 64 50.001h360c60 0 109.833 -19.833 149.5 -59.5s59.5 -89.834 59.5 -150.501c0 -18.667 -2.33301 -36.667 -7 -54l-164 -611c-8.66699 -32.667 -29.667 -49 -63 -49c-16.667 0 -32 6.5 -46 19.5s-21 27.833 -21 44.5
c0 6 1 12.667 3 20l154 576c4.66699 17.333 7 33.333 7 48c0 56 -35.667 84 -107 84h-274l-200 -743c-8.66699 -32.667 -29.667 -49 -63 -49c-16.667 0 -32 6.5 -46 19.5s-21 27.833 -21 44.5c0 6 1 12.667 3 20z" />
    <glyph glyph-name="o" unicode="o" 
d="M350 330l69.999 263.999c31.333 118 80.333 202.5 147 253.5s161.334 76.5 284.001 76.5c117.333 0 197.666 -52.667 240.999 -158c13.333 -32.667 20 -66 20 -100c0 -25.333 -3 -49.333 -9 -72l-70 -264c-41.333 -154.667 -116 -253.667 -224 -297
c-56 -22 -125 -33 -207 -33c-73.333 0 -135.166 24.833 -185.499 74.5s-75.5 110.834 -75.5 183.501c0 25.333 3 49.333 9 72zM895.999 329.999l70.001 264c7.33301 27.333 11 52 11 74c0 82.667 -54 124 -162 124c-136.667 0 -222.667 -66 -258 -198l-71 -264
c-7.33301 -27.333 -11 -52 -11 -74c0 -82.667 54 -124 162 -124c137.333 0 223.666 66 258.999 198z" />
    <glyph glyph-name="p" unicode="p" 
d="M570 874c8.66699 33.333 30.001 50 64.001 50h360c58 0 107.333 -20.5 148 -61.5s61 -90.5 61 -148.5c0 -18.667 -2.33301 -36.667 -7 -54l-106 -396c-32.667 -123.333 -92.334 -202.333 -179.001 -237c-44.667 -18 -100 -27 -166 -27h-273l-93 -347
c-8.66699 -32.667 -29.667 -49 -63 -49c-16.667 0 -32 6.5 -46 19.5s-21 27.833 -21 44.5c0 6 1 12.667 3 20zM685.001 792l-178 -660h274c92 0 149.667 44 173 132l105 396c4.66699 17.333 7 33.333 7 48c0 56 -35.667 84 -107 84h-274z" />
    <glyph glyph-name="q" unicode="q" 
d="M1147 841l-319.001 -1188c-8.66699 -32.667 -29.667 -49 -63 -49c-16.667 0 -32 6.5 -46 19.5s-21 27.833 -21 44.5c0 3.33301 1.33301 10 4 20l84 312h-274c-57.333 0 -106.5 20.667 -147.5 62s-61.5 90.666 -61.5 147.999c0 21.333 2 39.333 6 54l106 396
c32.667 123.333 92.334 202.333 179.001 237c44.667 18 100 27 166 27h324c43.333 0 65 -22 65 -66c0 -6.66699 -0.666992 -12.334 -2 -17.001zM997.999 792.002l-273 -0.000976562c-92 0 -149.667 -44 -173 -132l-105 -396c-4.66699 -17.333 -7 -33.666 -7 -48.999
c0 -55.333 35.667 -83 107 -83h273z" />
    <glyph glyph-name="r" unicode="r" 
d="M564 874c8.66699 33.333 30.001 50 64.001 50h410c43.333 0 65 -22 65 -66c0 -6 -0.666992 -11.667 -2 -17l-35 -132c-8.66699 -32.667 -29.334 -49 -62.001 -49c-16.667 0 -32.167 6.5 -46.5 19.5s-21.5 27.833 -21.5 44.5c0 6 1 12.667 3 20l13 48h-273l-200 -743
c-8.66699 -32.667 -29.667 -49 -63 -49c-16.667 0 -32 6.5 -46 19.5s-21 27.833 -21 44.5c0 6 1 12.667 3 20z" />
    <glyph glyph-name="s" unicode="s" 
d="M1013 740c-64 34.667 -152.667 52 -266 52c-36 0 -67.167 -12.5 -93.5 -37.5s-39.5 -55.5 -39.5 -91.5c0 -33.333 12 -56.333 36 -69l281 -150c77.333 -41.333 116 -95.666 116 -162.999c0 -102.667 -48.333 -182.667 -145 -240c-46.667 -27.333 -101 -41 -163 -41
c-116 0 -241 25 -375 75c-21.333 8 -32 27 -32 57c0 18 6.5 33.5 19.5 46.5s28.5 19.5 46.5 19.5c9.33301 0 19.333 -2.33301 30 -7c87.333 -39.333 202.666 -59 345.999 -59c34 0 64.833 13.333 92.5 40s41.5 57 41.5 91c0 30.667 -20.333 57 -61 79l-255 136
c-77.333 41.333 -116 100.666 -116 177.999c0 99.333 48.667 176 146 230c46.667 25.333 100 38 160 38c114.667 0 219.334 -27 314.001 -81c16 -9.33301 24 -26.333 24 -51c0 -18 -6.5 -33.5 -19.5 -46.5s-28.5 -19.5 -46.5 -19.5c-10 0 -23.667 4.66699 -41 14z" />
    <glyph glyph-name="t" unicode="t" 
d="M969 792h-223l-199 -743c-8.66699 -32.667 -29.667 -49 -63 -49c-16.667 0 -32 6.5 -46 19.5s-21 27.833 -21 44.5c0 6 1 12.667 3 20l190 708h-51c-44 0 -66 22 -66 66s22 66 66 66h86l93 347c8.66699 32.667 29.667 49 63 49c44 0 66 -21.667 66 -65
c0 -8 -0.666992 -14.333 -2 -19l-84 -312h188c44 0 66 -22 66 -66s-22 -66 -66 -66z" />
    <glyph glyph-name="u" unicode="u" 
d="M1021 875c8.66699 32.667 29.667 49.001 63 49.001c44 0 66 -21.667 66 -65c0 -8 -0.666992 -14.333 -2 -19l-209 -774c-12 -44 -40.667 -66 -86 -66h-341c-57.333 0 -106.5 20.667 -147.5 62s-61.5 90.666 -61.5 147.999c0 18.667 2.33301 36.667 7 54l163 611
c8.66699 32.667 30 49 64 49c44 0 66 -21.667 66 -65c0 -8 -0.666992 -14.333 -2 -19l-154 -576c-4.66699 -17.333 -7 -33.333 -7 -48c0 -56 35.667 -84 107 -84h274z" />
    <glyph glyph-name="v" unicode="v" 
d="M579 46c-18.667 -30.667 -40.332 -45.999 -64.999 -45.999c-40 0 -61.667 20.333 -65 61l-62 799c0 17.333 6.5 32.333 19.5 45s28.167 19 45.5 19c41.333 0 63.666 -20.667 66.999 -62l46 -586l377 616c13.333 21.333 32 32 56 32c44.667 0 67 -22 67 -66
c0 -12.667 -3.33301 -24.334 -10 -35.001z" />
    <glyph glyph-name="w" unicode="w" 
d="M725 602l38 -320l319 606c12 24 31.667 36 59 36c44 0 66 -21.667 66 -65c0 -11.333 -2.66699 -22 -8 -32l-418 -792c-12.667 -23.333 -31.667 -35 -57 -35c-40.667 -0 -63 19.333 -67 58l-42 350l-247 -377c-14 -20.667 -33 -31 -57 -31c-44 0 -65.667 22 -65 66l8 793
c0 43.333 22.333 65 67 65c43.333 0 65 -22.333 65 -67l-6 -566l223 339c12 18.667 30 28.667 54 30c40 2 62.667 -17.333 68 -58z" />
    <glyph glyph-name="x" unicode="x" 
d="M804 447l149.999 -355.001c3.33301 -8 5 -17.333 5 -28c0 -42.667 -21.667 -64 -65 -64c-30 0 -50.333 13.333 -61 40l-128 303l-310 -323c-13.333 -13.333 -29.666 -20 -48.999 -20c-43.333 0 -65 22.333 -65 67c0 16.667 6 31.334 18 44.001l350 365l-151 356
c-3.33301 8 -5 16.667 -5 26c0 18 6.33301 33.5 19 46.5s28.334 19.5 47.001 19.5c28.667 0 48.667 -13.333 60 -40l129 -305l311 324c13.333 14 28.666 21 45.999 21c44.667 0 67 -21.333 67 -64c0 -19.333 -6 -35.333 -18 -48z" />
    <glyph glyph-name="y" unicode="y" 
d="M424 -396h-129.999c-44 0 -66 22 -66 66s22 66 66 66h101l212 347l-60 775c0 44 21.667 66 65 66c41.333 0 63.666 -20.333 66.999 -61l47 -589l376 618c12.667 21.333 32 32 58 32c17.333 0 32.5 -6.5 45.5 -19.5s19.5 -28.167 19.5 -45.5
c0 -13.333 -3.33301 -25.333 -10 -36l-728 -1188c-12.667 -20.667 -33.667 -31 -63 -31z" />
    <glyph glyph-name="z" unicode="z" 
d="M1105 924c44 0 65.999 -21.999 65.999 -65.999c0 -16.667 -5.33301 -30.667 -16 -42l-652 -684h390c44 0 66 -22 66 -66s-22 -66 -66 -66h-546c-17.333 0 -32.666 6.66699 -45.999 20s-20 28.666 -20 45.999c0 16.667 5.33301 30.667 16 42l654 684h-392
c-44 0 -66 22 -66 66s22 66 66 66h546z" />
    <glyph glyph-name="braceleft" unicode="{" 
d="M526 726c44.667 0 73.001 22 85.001 66l124 462c35.333 132 115.333 198 240 198c44 0 66 -22 66 -66s-22 -66 -66 -66h-17c-46.667 0 -75.667 -22 -87 -66l-123 -462c-20.667 -76 -58.334 -120 -113.001 -132c22 -20.667 36.333 -48.667 43 -84
c3.33301 -19.333 3.33301 -35.333 0 -48l-125 -462c-12 -44 4.66699 -66 50 -66c33.333 0 50 -22 50 -66s-22 -66 -66 -66h-18c-50 0 -91 20.667 -123 62c-23.333 30 -35 61.667 -35 95c0 13.333 2 27 6 41l124 462c4 14.667 3.33301 28.667 -2 42c-6 16 -16.333 24 -31 24
c-44 0 -66 22 -66 66s22 66 66 66h18z" />
    <glyph glyph-name="bar" unicode="|" 
d="M726 -528c-44 0 -66 22 -66 66v2376c0 44 22 66 66 66s66 -22 66 -66v-2376c0 -44 -22 -66 -66 -66z" />
    <glyph glyph-name="braceright" unicode="}" 
d="M929 594c-44.667 0 -72.999 -21.999 -84.999 -65.999l-124 -462c-35.333 -132 -115.333 -198 -240 -198c-44 0 -66 22 -66 66s22 66 66 66h17c46 0 75 22 87 66l123 462c21.333 79.333 59 123.333 113 132c-16 14.667 -28.5 35.167 -37.5 61.5s-10.833 49.833 -5.5 70.5
l125 462c12 44 -4.66699 66 -50 66c-14 0 -26.333 7.66699 -37 23c-8.66699 13.333 -13 27.666 -13 42.999c0 44 22 66 66 66h18c72 0 121.333 -34.667 148 -104c11.333 -30 12.666 -61.333 3.99902 -94l-123 -462c-4 -14 -3.33301 -28 2 -42c5.33301 -16 15.333 -24 30 -24
c44 0 66 -22 66 -66s-22 -66 -66 -66h-18z" />
    <glyph glyph-name="asciitilde" unicode="~" 
d="M1040 344l-55 -39.999c-36.667 -26.667 -77.667 -40 -123 -40c-44 0 -84.667 13.333 -122 40l-110 79c-12 8.66699 -25.333 13 -40 13s-28 -4.33301 -40 -13l-57 -41c-11.333 -8 -24.333 -12 -39 -12c-17.333 0 -33 6.66699 -47 20s-21 28.666 -21 45.999
c0 22 9.33301 39.667 28 53l57 41c35.333 25.333 75 38 119 38s85.667 -14 125 -42l109 -78c11.333 -8 24 -12 38 -12c14.667 0 27.667 4 39 12l58 41c12 8.66699 25 13 39 13c45.333 0 68 -22 68 -66c0 -22 -8.66699 -39.333 -26 -52z" />
    <glyph glyph-name="c128" 
d="M298 462c12 -138.667 81.333 -235.334 208 -290.001c61.333 -26.667 133.666 -40 216.999 -40c114 0 218.667 31.667 314 95c14 9.33301 28.333 14 43 14c17.333 0 32.166 -6.5 44.499 -19.5s18.5 -28.167 18.5 -45.5c0 -26 -8.66699 -44 -26 -54
c-138 -81.333 -281 -122 -429 -122c-203.333 0 -353.666 74.667 -450.999 224c-46.667 70.667 -72.334 150 -77.001 238h-81c-44 0 -66 22 -66 66s22 66 66 66h89c2.66699 19.333 7.33398 41.333 14.001 66c4 14 10.667 36 20 66h-53c-44 0 -66 22 -66 66s22 66 66 66h110
c76 148 182.5 262 319.5 342s291.833 120 464.5 120c136 0 260.333 -49.333 373 -148c15.333 -13.333 23 -28.666 23 -45.999c0 -18 -6.33301 -34.167 -19 -48.5s-28 -21.5 -46 -21.5c-17.333 0 -32.666 6 -45.999 18c-84 76 -191 114 -321 114
c-117.333 0 -230.333 -30.667 -339 -92c-104.667 -58.667 -191 -138 -259 -238h736c44 0 66 -22 66 -66s-22 -66 -66 -66h-805c-18 -43.333 -30 -87.333 -36 -132h665c44 0 66 -22 66 -66s-22 -66 -66 -66h-671z" />
    <glyph glyph-name="nonbreakingspace" unicode="&#xa0;" 
 />
    <glyph glyph-name="exclamdown" unicode="&#xa1;" 
d="M630 49c-8.66699 -32.667 -29.667 -49 -63 -49c-44 0 -66 21.667 -66 65c0 8 0.666992 14.333 2 19l212 791c8.66699 32.667 29.667 49 63 49c44 0 66 -21.667 66 -65c0 -8 -0.666992 -14.333 -2 -19zM949 1236l-18 -65c-9.33301 -32.667 -30.333 -49 -63 -49
c-44 0 -66 21.667 -66 65c0 8 0.666992 14.333 2 19l18 65c9.33301 32.667 30.333 49 63 49c44 0 66 -21.667 66 -65c0 -8 -0.666992 -14.333 -2 -19z" />
    <glyph glyph-name="cent" unicode="&#xa2;" 
d="M580 0l-68.002 0.000976562c-57.333 0 -106.5 20.667 -147.5 62s-61.5 90.666 -61.5 147.999c0 18.667 2.33301 36.667 7 54l106 396c32.667 123.333 92 202.333 178 237c44.667 18 100 27 166 27h68l40 149c8.66699 32.667 30.334 49 65.001 49
c43.333 0 65 -21.667 65 -65c0 -7.33301 -0.666992 -13.333 -2 -18l-31 -115h119c44 0 66 -22 66 -66s-22 -66 -66 -66h-154l-177 -660h118c44 0 66 -22 66 -66s-22 -66 -66 -66h-153l-40 -149c-9.33301 -32.667 -30.666 -49 -63.999 -49c-18 0 -33.667 6.33301 -47 19
s-20 28 -20 46c0 7.33301 0.666992 13.333 2 18zM614.998 132.001l178.001 660h-68c-92.667 0 -150.334 -44 -173.001 -132l-105 -396c-4.66699 -17.333 -7 -33.333 -7 -48c0 -56 35.667 -84 107 -84h68z" />
    <glyph glyph-name="sterling" unicode="&#xa3;" 
d="M1033 281c8 32.667 29.001 49 63.001 49c44 0 66 -21.667 66 -65c0 -8 -0.666992 -14.333 -2 -19c-32 -112.667 -90.333 -185.667 -175 -219c-45.333 -18 -100 -27 -164 -27h-597c-44 0 -66 22 -66 66s22 66 66 66c42 0 81.333 12.167 118 36.5s60.667 56.166 72 95.499
l89 330h-119c-44 0 -66 22 -66 66s22 66 66 66h154l71 264c38.667 144.667 116.667 242.334 234 293.001c58.667 24.667 124 37 196 37c95.333 0 168.666 -45 219.999 -135c24 -42 36 -88 36 -138c0 -23.333 -3 -48 -9 -74c-8 -32.667 -29 -49 -63 -49
c-17.333 0 -32.833 6.5 -46.5 19.5s-20.5 27.833 -20.5 44.5c0 -8 1 -2.66699 3 16s3 31 3 37c0 98 -53 147 -159 147c-80 0 -148 -32.667 -204 -98c-26.667 -30 -44.667 -63.333 -54 -100l-71 -264h186c44 0 66 -22 66 -66s-22 -66 -66 -66h-221l-88 -330
c-18 -66.667 -43.667 -110.667 -77 -132h382c92 0 151 49.667 177 149z" />
    <glyph glyph-name="currency" unicode="&#xa4;" 
d="M726 990c-92 0 -169.999 -32.167 -233.999 -96.5s-96 -142.166 -96 -233.499c0 -92 32.167 -170 96.5 -234s142.166 -96 233.499 -96c92 0 170 32.167 234 96.5s96 142.166 96 233.499c0 92 -32 170 -96 234s-142 96 -234 96zM450.001 290l-73 -73
c-12.667 -12.667 -28.334 -19 -47.001 -19c-44 0 -66 22 -66 66c0 18.667 6.33301 34.334 19 47.001l73 73c-61.333 80.667 -92 172.667 -92 276c0 102 30.667 194.333 92 277l-73 72c-12.667 12.667 -19 28.334 -19 47.001c0 44 22 66 66 66
c18.667 0 34.334 -6.33301 47.001 -19l73 -73c80.667 61.333 172.667 92 276 92c100.667 0 193 -30.333 277 -91l72 72c12.667 12.667 28.334 19 47.001 19c44 0 66 -22 66 -66c0 -18.667 -6.33301 -34.334 -19 -47.001l-73 -73c61.333 -80.667 92 -172.667 92 -276
c0 -100.667 -30.333 -192.667 -91 -276l72 -73c12.667 -12.667 19 -28.334 19 -47.001c0 -44 -22 -66 -66 -66c-18.667 0 -34.334 6.33301 -47.001 19l-73 73c-80.667 -61.333 -172.667 -92 -276 -92c-102.667 0 -194.667 30.667 -276 92z" />
    <glyph glyph-name="yen" unicode="&#xa5;" 
d="M524 330l-322.998 0.000976562c-44 0 -66 22 -66 66s22 66 66 66h359l52 198h-323c-44 0 -66 22 -66 66s22 66 66 66h264l-184 436c-3.33301 8 -5 16.667 -5 26c0 44 22 66 66 66c29.333 0 49.666 -13.667 60.999 -41l205 -487h20l487 507c13.333 14 28.666 21 45.999 21
c18 0 33.833 -6.33301 47.5 -19s20.5 -28 20.5 -46s-6.33301 -33.667 -19 -47l-400 -416h211c44 0 66 -22 66 -66s-22 -66 -66 -66h-360l-52 -198h324c44 0 66 -22 66 -66s-22 -66 -66 -66h-360l-75 -281c-4.66699 -16 -12 -27.667 -22 -35
c-11.333 -9.33301 -24.333 -14 -39 -14c-17.333 0 -33.333 6.33301 -48 19s-22 27.667 -22 45c0 5.33301 1 11.666 3 18.999z" />
    <glyph glyph-name="brokenbar" unicode="&#xa6;" 
d="M699 810l123 461c8.66699 32.667 29.667 49 63 49c44 0 66 -21.667 66 -65c0 -8 -0.666992 -14.333 -2 -19l-123 -461c-8.66699 -32.667 -29.667 -49 -63 -49c-16.667 0 -32 6.5 -46 19.5s-21 27.833 -21 44.5c0 6 1 12.667 3 20zM628 545
c8.66699 32.667 29.667 49 63 49c44 0 66 -21.667 66 -65c0 -8 -0.666992 -14.333 -2 -19l-124 -461c-8.66699 -32.667 -29.667 -49 -63 -49c-16.667 0 -32 6.5 -46 19.5s-21 27.833 -21 44.5c0 6 1 12.667 3 20z" />
    <glyph glyph-name="section" unicode="&#xa7;" 
d="M862 660c4.66699 17.333 7 33.334 7 48.001c0 56 -36 84 -108 84c-90 0 -147.333 -44 -172 -132c-4.66699 -16.667 -7 -32.334 -7 -47.001c0 -56.667 36.333 -85 109 -85c90 0 147 44 171 132zM999 660.001c-11.333 -44.667 -30.999 -86.6689 -58.999 -126.002
c-32 -45.333 -67 -74.333 -105 -87c42.667 -33.333 64 -80.333 64 -141c0 -16 -1.66699 -30 -5 -42c-34 -124 -93.667 -203 -179 -237c-44.667 -18 -100 -27 -166 -27c-70 0 -129 31 -177 93c-27.333 35.333 -41 70.333 -41 105c0 18 6.5 33.5 19.5 46.5
s28.5 19.5 46.5 19.5c36 0 57.667 -17.667 65 -53c11.333 -52.667 52 -79 122 -79c92.667 0 150.334 44 173.001 132c3.33301 13.333 5 24.333 5 33c0 66 -35.667 99 -107 99c-80.667 0 -141 35.333 -181 106c-18.667 32 -28 66.667 -28 104c0 18.667 2.33301 36.667 7 54
c12 44.667 31.667 86.667 59 126c32.667 46 67.667 75 105 87c-42.667 38 -64 85 -64 141c0 16 1.66699 30 5 42c26 94 65.667 161.5 119 202.5s128.666 61.5 225.999 61.5c71.333 0 130.333 -31 177 -93c27.333 -36.667 41 -71.667 41 -105c0 -18 -6.5 -33.5 -19.5 -46.5
s-28.5 -19.5 -46.5 -19.5c-35.333 0 -57 17.667 -65 53c-12.667 52.667 -53.334 79 -122.001 79c-91.333 0 -149 -44 -173 -132c-3.33301 -12 -5 -23 -5 -33c0 -29.333 10.333 -53.166 31 -71.499s46 -27.5 76 -27.5c59.333 0 109 -20.167 149 -60.5s60 -90.166 60 -149.499
c0 -18 -2.33301 -36 -7 -54z" />
    <glyph glyph-name="dieresis" unicode="&#xa8;" 
d="M449 1602l18 65c8.66699 32.667 29.667 49 63 49c44 0 66 -21.667 66 -65c0 -8 -0.666992 -14.333 -2 -19l-18 -65c-9.33301 -32.667 -30.333 -49 -63 -49c-44 0 -66 21.667 -66 65c0 8 0.666992 14.333 2 19zM859 1602l18 65c8.66699 32.667 29.667 49 63 49
c44 0 66 -21.667 66 -65c0 -8 -0.666992 -14.333 -2 -19l-18 -65c-9.33301 -32.667 -30.333 -49 -63 -49c-44 0 -66 21.667 -66 65c0 8 0.666992 14.333 2 19z" />
    <glyph glyph-name="copyright" unicode="&#xa9;" 
d="M858 924l-131.998 0.00195312c-36.667 0 -67.834 -12.833 -93.501 -38.5s-38.5 -56.834 -38.5 -93.501v-132c0 -36 13 -67 39 -93s57 -39 93 -39h132c44 0 66 -22 66 -66s-22 -66 -66 -66h-132c-74 0 -136.5 25.667 -187.5 77s-76.5 113.666 -76.5 186.999v132
c0 74 25.667 136.5 77 187.5s113.666 76.5 186.999 76.5h132c44 0 66 -22 66 -66s-22 -66 -66 -66zM726.002 1320c164.667 0 304.832 -57.8311 420.499 -173.498s173.5 -255.834 173.5 -420.501c0 -164 -58 -304 -174 -420s-256 -174 -420 -174
c-163.333 0 -303.166 58.167 -419.499 174.5s-174.5 256.166 -174.5 419.499c0 164 58 304 174 420s256 174 420 174zM726 1188c-128 0 -237.001 -44.999 -327.001 -134.999s-135 -199 -135 -327c0 -126.667 45.333 -235.334 136 -326.001s199.334 -136 326.001 -136
c128 0 237 45 327 135s135 199 135 327s-45 237 -135 327s-199 135 -327 135z" />
    <glyph glyph-name="ordfeminine" unicode="&#xaa;" 
d="M674 1320h293c80 0 140.333 -35 181 -105c18.667 -32.667 28 -67.667 28 -105c0 -18.667 -2.33301 -36.667 -7 -54l-124 -462c-12 -44 -40.667 -66 -86 -66h-341c-57.333 0 -107 16.333 -149 49c-45.333 36 -68 81.667 -68 137c0 14.667 2 29.667 6 45
c40 154 151.667 231 335 231h273l18 66c4.66699 17.333 7 32.333 7 45c0 58 -36.333 87 -109 87h-257c-44 0 -66 22 -66 66s22 66 66 66zM980 858h-273c-91.333 0 -146 -33 -164 -99c-2.66699 -10 -4 -19.667 -4 -29c0 -46.667 38 -70 114 -70h273zM888 198h-546
c-44 0 -66 22 -66 66s22 66 66 66h546c44 0 66 -22 66 -66s-22 -66 -66 -66z" />
    <glyph glyph-name="guillemotleft" unicode="&#xab;" 
d="M274 461c0 19.333 7.66699 35.999 23 49.999l361 330c12 11.333 27 17 45 17c44 0 66 -21.333 66 -64c0 -20.667 -7.33301 -37.667 -22 -51l-323 -295l160 -284c6 -10.667 9 -21.667 9 -33c0 -43.333 -22.333 -65 -67 -65c-26 0 -45 11 -57 33l-186 330
c-6 10.667 -9 21.334 -9 32.001zM684 460.999c0 19.333 7.66699 35.999 23 49.999l361 330c12 11.333 27 17 45 17c44 0 66 -21.333 66 -64c0 -20.667 -7.33301 -37.667 -22 -51l-323 -295l160 -284c6 -10.667 9 -21.667 9 -33c0 -43.333 -22.333 -65 -67 -65
c-26 0 -45 11 -57 33l-186 330c-6 10.667 -9 21.334 -9 32.001z" />
    <glyph glyph-name="logicalnot" unicode="&#xac;" 
d="M383 659c-44 0 -66 22.002 -66 66.002s22 66 66 66h701c18.667 0 33 -6.33301 43 -19s12.667 -28.334 8 -47.001l-110 -412c-8.66699 -32.667 -29.667 -49 -63 -49c-44 0 -66 21.667 -66 65c0 7.33301 0.666992 13.666 2 18.999l82 311h-597z" />
    <glyph glyph-name="sfthyphen" unicode="&#xad;" 
d="M999 660h-546c-44 0 -66 22 -66 66s22 66 66 66h546c44 0 66 -22 66 -66s-22 -66 -66 -66z" />
    <glyph glyph-name="registered" unicode="&#xae;" 
d="M726 1320c164.667 0 304.832 -57.8311 420.499 -173.498s173.5 -255.834 173.5 -420.501c0 -164 -58 -304 -174 -420s-256 -174 -420 -174c-163.333 0 -303.166 58.167 -419.499 174.5s-174.5 256.166 -174.5 419.499c0 164 58 304 174 420s256 174 420 174z
M725.998 1188c-128 0 -237.001 -44.999 -327.001 -134.999s-135 -199 -135 -327c0 -126.667 45.333 -235.334 136 -326.001s199.334 -136 326.001 -136c128 0 237 45 327 135s135 199 135 327s-45 237 -135 327s-199 135 -327 135zM593.997 1056l131.998 0.000976562
c54.667 0 101.334 -19.333 140.001 -58s58 -85.334 58 -140.001c0 -37.333 -9.33301 -72 -28 -104c-19.333 -34 -45.666 -57.333 -78.999 -70l101 -195c4 -8 6 -17 6 -27c0 -44 -22 -66 -66 -66c-27.333 0 -47.333 13 -60 39l-112 225h-26v-198c0 -44 -22 -66 -66 -66
s-66 22 -66 66v528c0 44 22 66 66 66zM659.995 924.004v-132h66c44 0 66 22 66 66s-22 66 -66 66h-66z" />
    <glyph glyph-name="overscore" unicode="&#xaf;" 
d="M1157 1584h-862c-44 0 -66 22 -66 66s22 66 66 66h862c44 0 66 -22 66 -66s-22 -66 -66 -66z" />
    <glyph glyph-name="degree" unicode="&#xb0;" 
d="M726 1320c64 0 118.5 -22.5 163.5 -67.5s67.5 -99.5 67.5 -163.5s-22.5 -118.5 -67.5 -163.5s-99.5 -67.5 -163.5 -67.5s-118.5 22.5 -163.5 67.5s-67.5 99.5 -67.5 163.5s22.5 118.5 67.5 163.5s99.5 67.5 163.5 67.5zM726 1188c-27.333 0 -50.666 -9.66699 -69.999 -29
s-29 -42.666 -29 -69.999s9.66699 -50.666 29 -69.999s42.666 -29 69.999 -29s50.666 9.66699 69.999 29s29 42.666 29 69.999s-9.66699 50.666 -29 69.999s-42.666 29 -69.999 29z" />
    <glyph glyph-name="plusminus" unicode="&#xb1;" 
d="M711 528h-186.999c-44 0 -66 22 -66 66s22 66 66 66h223l57 215c8 32.667 29 49 63 49c44.667 0 67 -22 67 -66c0 -6 -0.666992 -11.667 -2 -17l-48 -181h186c44 0 66 -22 66 -66s-22 -66 -66 -66h-222l-57 -215c-8.66699 -32.667 -29.334 -49 -62.001 -49
c-45.333 0 -68 21.667 -68 65c0 6.66699 0.666992 12.667 2 18zM929.001 0h-546c-44 0 -66 22 -66 66s22 66 66 66h546c44 0 66 -22 66 -66s-22 -66 -66 -66z" />
    <glyph glyph-name="twosuperior" unicode="&#xb2;" 
d="M653 1056l210.999 -0.000976562c44 0 66 -22 66 -66s-22 -66 -66 -66h-410c-44 0 -66 22 -66 66c0 22 6.66699 38 20 48l420 307c24.667 18 41 30.667 49 38c16 14.667 28.333 31.5 37 50.5s13 41.167 13 66.5c0 56 -36.333 84 -109 84
c-28.667 0 -60.167 -11.167 -94.5 -33.5s-59.833 -46.5 -76.5 -72.5c-10.667 -17.333 -28 -26 -52 -26c-17.333 0 -32.666 6.66699 -45.999 20s-20 28.666 -20 45.999c0 14.667 4.66699 28.334 14 41.001c78.667 104.667 182 157 310 157c58.667 0 108.5 -20.333 149.5 -61
s61.5 -90 61.5 -148c0 -42.667 -14.833 -89.167 -44.5 -139.5s-68.5 -93.166 -116.5 -128.499z" />
    <glyph glyph-name="threesuperior" unicode="&#xb3;" 
d="M759 1320l-68 -0.000976562c-44 0 -66 22 -66 66s22 66 66 66h68c28 0 53 7.66699 75 23c25.333 17.333 38 39.333 38 66c0 28.667 -19.667 43 -59 43h-121c-44 0 -66 22 -66 66s22 66 66 66h156c42 0 78.5 -16.833 109.5 -50.5s46.5 -71.5 46.5 -113.5
c0 -32 -10.333 -63 -31 -93s-45.667 -51 -75 -63c57.333 -35.333 86 -90.666 86 -165.999c0 -104 -43.667 -187.333 -131 -250c-52 -37.333 -124.333 -56 -217 -56h-121c-44 0 -66 22 -66 66s22 66 66 66h156c50.667 0 93 16.5 127 49.5s51 74.833 51 125.5
c0 59.333 -30 89 -90 89z" />
    <glyph glyph-name="acute" unicode="&#xb4;" 
d="M855 1773c9.33301 6 20.999 9.00098 34.999 9.00098c44 0 66 -21.667 66 -65c0 -25.333 -10.667 -44.333 -32 -57l-326 -198c-11.333 -6.66699 -22.666 -10 -33.999 -10c-17.333 0 -32.833 6.66699 -46.5 20s-20.5 28.666 -20.5 45.999c0 24.667 11 43.667 33 57z" />
    <glyph glyph-name="mu1" unicode="&#xb5;" 
d="M358 -347c-8.66699 -32.667 -30 -49 -64 -49c-16.667 0 -32 6.5 -46 19.5s-21 27.833 -21 44.5c0 6 1 12.667 3 20l318 1187c8.66699 32.667 30 49 64 49c44 0 66 -21.667 66 -65c0 -8 -0.666992 -14.333 -2 -19l-137 -510c-4 -15.333 -7.66699 -40 -11 -74
c0 -82.667 54 -124 162 -124c137.333 0 223.666 66 258.999 198l146 545c8.66699 32.667 30 49 64 49c44 0 66 -21.667 66 -65c0 -8 -0.666992 -14.333 -2 -19l-137 -510c-32 -119.333 -82.333 -204.333 -151 -255c-66 -50 -159.333 -75 -280 -75
c-71.333 -0 -132.666 24.333 -183.999 73z" />
    <glyph glyph-name="paragraph" unicode="&#xb6;" 
d="M541 1177c-43.333 -6 -83 -28.332 -119 -66.999c-33.333 -34.667 -56 -74.667 -68 -120c-4.66699 -16.667 -7 -33.334 -7 -50.001c0 -67.333 31 -113 93 -137zM784 49.001c-9.33301 -32.667 -30.333 -49.001 -63 -49.001c-17.333 0 -32.833 6.5 -46.5 19.5
s-20.5 27.833 -20.5 44.5c0 6 1 12.667 3 20l297 1104h-274l-306 -1139c-9.33301 -32.667 -30.333 -49 -63 -49c-17.333 0 -32.833 6.5 -46.5 19.5s-20.5 27.833 -20.5 44.5c0 6 1 12.667 3 20l157 583c-54 16.667 -99.667 51.334 -137 104.001s-56 107.334 -56 164.001
c0 19.333 2.33301 37.666 7 54.999c58 220 201.333 330 430 330h528c44 0 66 -22 66 -66s-22 -66 -66 -66h-86z" />
    <glyph glyph-name="middot" unicode="&#xb7;" 
d="M761 396h-70c-44 0 -66 22 -66 66s22 66 66 66h70c44 0 66 -22 66 -66s-22 -66 -66 -66z" />
    <glyph glyph-name="cedilla" unicode="&#xb8;" 
d="M737 96c12.667 24 31.667 36 57 36c18.667 0 34.667 -6.5 48 -19.5s20 -28.833 20 -47.5c0 -10.667 -2.66699 -21 -8 -31l-139 -264c-12 -22.667 -30.667 -34 -56 -34c-46 0 -69 21.667 -69 65c0 10.667 2.66699 21 8 31z" />
    <glyph glyph-name="onesuperior" unicode="&#xb9;" 
d="M1317 528c44 0 65.999 -21.999 65.999 -65.999c0 -18 -6.5 -33.5 -19.5 -46.5s-28.5 -19.5 -46.5 -19.5h-345c-18 0 -33.5 6.66699 -46.5 20s-19.5 28.666 -19.5 45.999c0 18 6.33301 33.5 19 46.5s28.334 19.5 47.001 19.5h345zM1362 891.001l36.9971 132
c2.66699 9.33301 4 19 4 29c0 46.667 -27 70 -81 70c-29.333 0 -56.166 -9.5 -80.499 -28.5s-40.166 -42.5 -47.499 -70.5l-37 -132c-3.33301 -10.667 -5 -19.334 -5 -26.001c0 -48.667 27.333 -73 82 -73c38.667 0 72.334 16.333 101.001 49
c12.667 14.667 21.667 31.334 27 50.001zM1499 891.001c-27.333 -99.333 -80.6689 -167.001 -160.002 -203.001c-42 -18.667 -89 -28 -141 -28c-49.333 0 -92.166 17.833 -128.499 53.5s-54.5 78.167 -54.5 127.5c0 18.667 2 35.334 6 50.001l36 132
c26.667 100 82.667 168.333 168 205c39.333 17.333 83.333 26 132 26s91.334 -18.833 128.001 -56.5s55 -81.167 55 -130.5c0 -17.333 -1.66699 -32 -5 -44zM295.993 991l-253.001 -942c-9.33301 -32.667 -30.666 -49 -63.999 -49c-16 0 -31.167 6.5 -45.5 19.5
s-21.5 27.833 -21.5 44.5c0 6 1 12.667 3 20l320 1187c8.66699 32.667 29.667 49 63 49c34 0 55.333 -16.667 64 -50l234 -943l254 944c8.66699 32.667 29.667 49 63 49c44 0 66 -21.667 66 -65c0 -8 -0.666992 -14.333 -2 -19l-319 -1187
c-9.33301 -32.667 -30.333 -49 -63 -49c-35.333 -0 -57 16.333 -65 49z" />
    <glyph glyph-name="ordmasculine" unicode="&#xba;" 
d="M442 858l36.001 131.999c39.333 144.667 117.333 242.334 234 293.001c58.667 24.667 124 37 196 37c94 0 168.333 -48 223 -144c24.667 -43.333 37 -87.333 37 -132c0 -18.667 -2.33301 -36.667 -7 -54l-35 -132c-58.667 -220 -202.334 -330 -431.001 -330
c-96.667 0 -172 42.333 -226 127c-24.667 39.333 -37 83 -37 131c0 23.333 3.33301 47.333 10 72zM989.001 857.999l34.998 132.001c4.66699 17.333 7 33.666 7 48.999c0 44.667 -15.167 80.667 -45.5 108s-68.166 41 -113.499 41c-81.333 0 -149.666 -32.667 -204.999 -98
c-26 -31.333 -43.667 -64.666 -53 -99.999l-35 -132c-4.66699 -17.333 -7 -34 -7 -50c0 -44.667 14.833 -80.5 44.5 -107.5s67.5 -40.5 113.5 -40.5c57.333 0 111 19.167 161 57.5s82.667 85.166 98 140.499zM896.999 198h-546c-44 0 -66 22 -66 66s22 66 66 66h546
c44 0 66 -22 66 -66s-22 -66 -66 -66z" />
    <glyph glyph-name="guillemotright" unicode="&#xbb;" 
d="M769 463c0 -19.333 -7.66699 -35.999 -23 -49.999l-361 -330c-12.667 -11.333 -27.667 -17 -45 -17c-18 0 -33.5 6.33301 -46.5 19s-19.5 27.667 -19.5 45c0 20.667 7.33301 37.667 22 51l323 295l-160 284c-6 10.667 -9 21.667 -9 33c0 18 6.5 33.333 19.5 46
s28.833 19 47.5 19c25.333 0 44.333 -11 57 -33l186 -330c6 -10.667 9 -21.334 9 -32.001zM1179 463.001c0 -19.333 -7.66699 -35.999 -23 -49.999l-361 -330c-12.667 -11.333 -27.667 -17 -45 -17c-18 0 -33.5 6.33301 -46.5 19s-19.5 27.667 -19.5 45
c0 20.667 7.33301 37.667 22 51l323 295l-160 284c-6 10.667 -9 21.667 -9 33c0 18 6.5 33.333 19.5 46s28.833 19 47.5 19c25.333 0 44.333 -11 57 -33l186 -330c6 -10.667 9 -21.334 9 -32.001z" />
    <glyph glyph-name="onequarter" unicode="&#xbc;" 
d="M522 1174l-103 -98.999c-13.333 -12.667 -29.333 -19 -48 -19c-44 0 -66 22 -66 66c0 18 7 33.667 21 47l277 266c12 11.333 27.667 17 47 17c42.667 0 64 -21 64 -63c0 -8.66699 -0.666992 -15.334 -2 -20.001l-177 -659c-8.66699 -32.667 -30 -49 -64 -49
c-44 0 -66 21.667 -66 65c0 7.33301 0.666992 13.333 2 18zM976 66.001h-256c-44 0 -66 22 -66 66c0 14 4 26.667 12 38l330 462c13.333 18.667 31.333 28 54 28c18 0 33.5 -6.5 46.5 -19.5s19.5 -28.5 19.5 -46.5c0 -14 -4.33301 -27 -13 -39l-254 -357h163l22 83
c8.66699 32.667 29.667 49 63 49c44 0 66 -21.667 66 -65c0 -6.66699 -0.666992 -12.667 -2 -18l-13 -49h51c44 0 66 -22 66 -66s-22 -66 -66 -66h-86l-40 -149c-8.66699 -32.667 -30 -49 -64 -49c-43.333 0 -65 21.667 -65 65c0 8.66699 0.333008 14.667 1 18zM1176 1296
c13.333 16 30.667 24 52 24c18 0 33.333 -6.5 46 -19.5s19 -28.5 19 -46.5c0 -16 -5.33301 -30.333 -16 -43l-1001 -1187c-13.333 -16 -30.333 -24 -51 -24c-18 0 -33.5 6.66699 -46.5 20s-19.5 29 -19.5 47c0 15.333 5.33301 29.333 16 42z" />
    <glyph glyph-name="onehalf" unicode="&#xbd;" 
d="M496 1174l-103.001 -98.999c-13.333 -12.667 -29.333 -19 -48 -19c-44 0 -66 22 -66 66c0 18 7 33.667 21 47l277 266c11.333 11.333 27 17 47 17c42.667 0 64 -21 64 -63c0 -8.66699 -0.666992 -15.334 -2 -20.001l-177 -659c-9.33301 -32.667 -30.666 -49 -63.999 -49
c-44 0 -66 21.667 -66 65c0 7.33301 0.666992 13.333 2 18zM1150 1296c13.333 16 30.667 24 52 24c17.333 0 32.5 -6.5 45.5 -19.5s19.5 -28.5 19.5 -46.5c0 -16 -5.33301 -30.333 -16 -43l-1001 -1187c-14 -16 -31 -24 -51 -24c-18 0 -33.5 6.66699 -46.5 20
s-19.5 29 -19.5 47c0 15.333 5.33301 29.333 16 42zM909 0.000976562l210.998 -0.000976562c44 0 66 -22 66 -66s-22 -66 -66 -66h-410c-44 0 -66 22 -66 66c0 22 6.66699 38 20 48l420 307c24.667 18 41 30.667 49 38c15.333 14.667 27.5 31.5 36.5 50.5
s13.5 41.167 13.5 66.5c0 56 -36.333 84 -109 84c-29.333 0 -61.166 -11.167 -95.499 -33.5s-59.5 -46.5 -75.5 -72.5c-11.333 -17.333 -28.666 -26 -51.999 -26c-18 0 -33.5 6.66699 -46.5 20s-19.5 28.666 -19.5 45.999c0 14.667 4.66699 28.334 14 41.001
c78 104.667 181.333 157 310 157c58 0 107.667 -20.333 149 -61s62 -90 62 -148c0 -42.667 -14.833 -89.167 -44.5 -139.5s-68.5 -93.166 -116.5 -128.499z" />
    <glyph glyph-name="threequarters" unicode="&#xbe;" 
d="M1176 1296c13.333 16 30.667 24 52 24c18 0 33.333 -6.5 46 -19.5s19 -28.5 19 -46.5c0 -16 -5.33301 -30.333 -16 -43l-1001 -1187c-13.333 -16 -30.333 -24 -51 -24c-18 0 -33.5 6.66699 -46.5 20s-19.5 29 -19.5 47c0 15.333 5.33301 29.333 16 42zM976.001 66h-256
c-44 0 -66 22 -66 66c0 14 4 26.667 12 38l330 462c13.333 18.667 31.333 28 54 28c18 0 33.5 -6.5 46.5 -19.5s19.5 -28.5 19.5 -46.5c0 -14 -4.33301 -27 -13 -39l-254 -357h163l22 83c8.66699 32.667 29.667 49 63 49c44 0 66 -21.667 66 -65
c0 -6.66699 -0.666992 -12.667 -2 -18l-13 -49h51c43.333 0 65 -22 65 -66s-21.667 -66 -65 -66h-86l-40 -149c-8.66699 -32.667 -30 -49 -64 -49c-43.333 0 -65 21.667 -65 65c0 8.66699 0.333008 14.667 1 18zM436.001 1056l-30 -0.000976562c-44 0 -66 22 -66 66
s22 66 66 66h30c28 0 53.833 8.16699 77.5 24.5s35.5 37.833 35.5 64.5c0 28.667 -19.667 43 -59 43h-48c-44 0 -66 22 -66 66s22 66 66 66h83c28.667 0 54.667 -7.66699 78 -23c52 -34 78 -81 78 -141c0 -32 -10.167 -63 -30.5 -93s-45.5 -51 -75.5 -63
c57.333 -35.333 86 -90.666 86 -165.999c0 -97.333 -35 -174 -105 -230c-63.333 -50.667 -144.333 -76 -243 -76h-48c-44 0 -66 22 -66 66s22 66 66 66h83c50 0 92.167 16.667 126.5 50s51.5 75 51.5 125c0 59.333 -30 89 -90 89z" />
    <glyph glyph-name="questiondown" unicode="&#xbf;" 
d="M944 192c9.33301 4 17.998 5.99902 25.998 5.99902c44 0 66 -22 66 -66c0 -26.667 -13 -46.667 -39 -60c-93.333 -48 -228.333 -72 -405 -72c-44 0 -83.833 12.833 -119.5 38.5s-61.167 59.167 -76.5 100.5s-17.333 83 -6 125c18.667 68 40.334 115 65.001 141
c14.667 16 36.334 34.333 65.001 55l214 154c19.333 14 31.333 29.333 36 46l57 215c8.66699 32.667 29.667 49 63 49c44 0 66 -21.667 66 -65c0 -7.33301 -0.666992 -13.666 -2 -18.999l-48 -180c-18.667 -70 -53.667 -123.333 -105 -160l-212 -152
c-34 -24 -55 -52 -63 -84c-4.66699 -18 -7 -34 -7 -48c0 -56 36.333 -84 109 -84c120 0 225.333 20 316 60zM1060 1236l-17 -65c-8.66699 -32.667 -29.667 -49 -63 -49c-44 0 -66 21.667 -66 65c0 7.33301 0.666992 13.666 2 18.999l17 65c8.66699 32.667 29.667 49 63 49
c44 0 66 -21.667 66 -65c0 -7.33301 -0.666992 -13.666 -2 -18.999z" />
    <glyph glyph-name="Agrave" unicode="&#xc0;" 
d="M1039 462l-45 585l-358 -585h403zM1049 330l-494 -0.000976562l-183 -298c-13.333 -21.333 -32 -32 -56 -32c-18 0 -33.5 6.5 -46.5 19.5s-19.5 28.5 -19.5 46.5c0 12.667 3.33301 24.334 10 35.001l727 1188c12.667 20.667 31.667 31 57 31
c40.667 0 62.667 -20.333 66 -61l92 -1195c0 -42.667 -22.333 -64 -67 -64c-40 -0 -61.667 20.333 -65 61z" />
    <glyph glyph-name="Aacute" unicode="&#xc1;" 
d="M1160 1188l-495 -0.000976562l-105 -396h273c92 0 167 -31.5 225 -94.5s87 -140.833 87 -233.5c0 -26 -2.66699 -48.667 -8 -68c-47.333 -171.333 -140 -287.666 -278 -348.999c-70 -31.333 -149.667 -47 -239 -47h-342c-34.667 0 -52 16.667 -52 50
c0 6 0.666992 11.333 2 16l319 1188c12 44 40.667 66 86 66h527c44 0 66 -22 66 -66s-22 -66 -66 -66zM524 659.999l-141 -528h272c103.333 0 192.333 41 267 123c58.667 64.667 88 138.667 88 222c0 122 -71 183 -213 183h-273z" />
    <glyph glyph-name="Acircumflex" unicode="&#xc2;" 
d="M1014 727c53.333 -37.333 91.334 -87.668 114.001 -151.001c10.667 -31.333 16 -64 16 -98c0 -28 -3.66699 -55.333 -11 -82c-47.333 -171.333 -140 -287.666 -278 -348.999c-70 -31.333 -149.667 -47 -239 -47h-342c-35.333 0 -53 16.667 -53 50
c0 6 0.666992 11.333 2 16l319 1188c12 44 41 66 87 66h342c104 0 180 -46 228 -138c21.333 -41.333 32 -84 32 -128c0 -23.333 -2.66699 -44.666 -8 -63.999c-38.667 -140.667 -108.334 -228.334 -209.001 -263.001zM661.001 1188l-105 -396h273c80.667 0 150 34 208 102
c38 44 57 94.667 57 152c0 94.667 -53 142 -159 142h-274zM519.001 659.998l-141 -528h273c103.333 0 192.333 41 267 123c58.667 64.667 88 138.667 88 222c0 122 -71 183 -213 183h-274z" />
    <glyph glyph-name="Atilde" unicode="&#xc3;" 
d="M664 1188l-306 -1139c-9.33301 -32.667 -30.333 -49 -63 -49c-17.333 0 -32.833 6.5 -46.5 19.5s-20.5 27.833 -20.5 44.5c0 6 1 12.667 3 20l314 1170c11.333 44 40.333 66 87 66h527c44 0 66 -22 66 -66s-22 -66 -66 -66h-495z" />
    <glyph glyph-name="Adieresis" unicode="&#xc4;" 
d="M134 -114l48 180c12 44 40.667 66 86 66h66l445 1126c16.667 41.333 44 62 82 62h410c16 0 29.333 -7 40 -21s14 -29 10 -45l-301 -1122h68c18.667 0 33 -6.5 43 -19.5s12.667 -28.5 8 -46.5l-58 -215c-8.66699 -32.667 -29.667 -49 -63 -49c-16.667 0 -32 6.5 -46 19.5
s-21 27.833 -21 44.5c0 6 1 12.667 3 20l30 114h-683l-40 -149c-8.66699 -32.667 -29.667 -49 -63 -49c-16.667 0 -32 6.5 -46 19.5s-21 27.833 -21 44.5c0 6 1 12.667 3 20zM883 132l284 1056h-274l-417 -1056h407z" />
    <glyph glyph-name="Aring" unicode="&#xc5;" 
d="M883 660h-360l-141 -528h460c44 0 66 -22 66 -66s-22 -66 -66 -66h-564c-19.333 0 -34 6.5 -44 19.5s-12.333 28.5 -7 46.5l319 1188c11.333 44 40.333 66 87 66h527c44 0 66 -22 66 -66s-22 -66 -66 -66h-495l-105 -396h323c44 0 66 -22 66 -66s-22 -66 -66 -66z" />
    <glyph glyph-name="AE" unicode="&#xc6;" 
d="M580 673l-234.001 554.999c-3.33301 8 -5 16.667 -5 26c0 44 22.333 66 67 66c28 0 48 -13.667 60 -41l217 -516l137 508c8.66699 32.667 29.667 49 63 49c44 0 66 -21.667 66 -65c0 -8 -0.666992 -14.333 -2 -19l-119 -442l485 505c13.333 14 29 21 47 21
c17.333 0 32.833 -6.16699 46.5 -18.5s20.5 -27.5 20.5 -45.5c0 -18.667 -6.33301 -34.667 -19 -48l-539 -561l234 -555c4 -9.33301 6 -18.333 6 -27c0 -18 -7 -33.333 -21 -46s-30 -19 -48 -19c-27.333 0 -46.666 13.667 -57.999 41l-218 515l-136 -507
c-9.33301 -32.667 -30.333 -49 -63 -49c-17.333 0 -32.833 6.5 -46.5 19.5s-20.5 27.833 -20.5 44.5c0 6 1 12.667 3 20l119 442l-485 -505c-14 -14 -29 -21 -45 -21c-45.333 0 -68 22.667 -68 68c0 16.667 6 31.334 18 44.001z" />
    <glyph glyph-name="Ccedilla" unicode="&#xc7;" 
d="M614 1130c-10.667 -5.33301 -21.3359 -8 -32.0029 -8c-17.333 0 -32.666 6.66699 -45.999 20s-20 28.666 -20 45.999c0 28.667 12 48.334 36 59.001c107.333 48.667 220.333 73 339 73h68c102.667 0 178.667 -46 228 -138c21.333 -41.333 32 -84.333 32 -129
c0 -21.333 -2.66699 -42.333 -8 -63c-37.333 -144 -108.333 -237 -213 -279c54.667 -24 82 -81.667 82 -173c0 -25.333 -3.33301 -50.666 -10 -75.999l-35 -132c-38.667 -146.667 -115.667 -244.334 -231 -293.001c-58 -24.667 -124.667 -37 -200 -37h-68
c-104 0 -195.333 25.667 -274 77c-19.333 12.667 -29 31 -29 55c0 18 6.5 33.5 19.5 46.5s28.5 19.5 46.5 19.5c10.667 0 22.334 -3.66699 35.001 -11c63.333 -36.667 142.333 -55 237 -55h69c57.333 0 111 19.167 161 57.5s82.333 85.166 97 140.499l35 132
c7.33301 27.333 11 52.333 11 75c0 82 -54.333 123 -163 123h-119c-44 0 -66 22 -66 66s22 66 66 66h155c80 0 148.333 32.667 205 98c26.667 30.667 44.334 64 53.001 100c5.33301 22.667 8 42.334 8 59.001c0 92.667 -53.333 139 -160 139h-68
c-82.667 0 -163 -19.333 -241 -58z" />
    <glyph glyph-name="Egrave" unicode="&#xc8;" 
d="M311 126l-21.001 -77c-9.33301 -32.667 -30.333 -49 -63 -49c-17.333 0 -32.833 6.5 -46.5 19.5s-20.5 27.833 -20.5 44.5c0 6 1 12.667 3 20l318 1187c8.66699 32.667 30 49 64 49c44 0 66 -21.667 66 -65c0 -8 -0.666992 -14.333 -2 -19l-227 -848l758 796l24 87
c8.66699 32.667 29.667 49 63 49c44 0 66 -21.667 66 -65c0 -10 -0.333008 -16.333 -1 -19l-319 -1187c-9.33301 -32.667 -30.666 -49 -63.999 -49c-17.333 0 -32.833 6.5 -46.5 19.5s-20.5 27.833 -20.5 44.5c0 6 1 12.667 3 20l226 837z" />
    <glyph glyph-name="Eacute" unicode="&#xc9;" 
d="M1094 1452h-274c-44 0 -66 22 -66 66s22 66 66 66h274c44 0 66 -22 66 -66s-22 -66 -66 -66zM311 126l-21.001 -77c-9.33301 -32.667 -30.333 -49 -63 -49c-17.333 0 -32.833 6.5 -46.5 19.5s-20.5 27.833 -20.5 44.5c0 6 1 12.667 3 20l318 1187
c8.66699 32.667 30 49 64 49c44 0 66 -21.667 66 -65c0 -8 -0.666992 -14.333 -2 -19l-227 -848l758 796l24 87c8.66699 32.667 29.667 49 63 49c44 0 66 -21.667 66 -65c0 -10 -0.333008 -16.333 -1 -19l-319 -1187c-9.33301 -32.667 -30.666 -49 -63.999 -49
c-17.333 0 -32.833 6.5 -46.5 19.5s-20.5 27.833 -20.5 44.5c0 6 1 12.667 3 20l226 837z" />
    <glyph glyph-name="Ecircumflex" unicode="&#xca;" 
d="M648 689l-240 -198l-119 -442c-8.66699 -32.667 -29.667 -49 -63 -49c-16.667 0 -32 6.5 -46 19.5s-21 27.833 -21 44.5c0 6 1 12.667 3 20l319 1187c8.66699 32.667 29.667 49 63 49c44 0 66 -21.667 66 -65c0 -8 -0.666992 -14.333 -2 -19l-141 -526l718 594
c12.667 10.667 26.667 16 42 16c44 0 66 -22 66 -66c0 -20.667 -8 -37.667 -24 -51l-510 -422l213 -695c2 -6.66699 3 -13.667 3 -21c0 -43.333 -22 -65 -66 -65c-32.667 0 -53.667 15.667 -63 47z" />
    <glyph glyph-name="Edieresis" unicode="&#xcb;" 
d="M925 1188l-641.999 -1154c-12.667 -22.667 -31.334 -34 -56.001 -34c-44.667 0 -67 22.333 -67 67c0 11.333 2.66699 21.666 8 30.999l661 1188c12 22.667 30.667 34 56 34h342c44 0 66 -21.667 66 -65c0 -8 -0.666992 -14.333 -2 -19l-318 -1187
c-9.33301 -32.667 -30.333 -49 -63 -49c-17.333 0 -32.833 6.5 -46.5 19.5s-20.5 27.833 -20.5 44.5c0 6 1 12.667 3 20l296 1104h-217z" />
    <glyph glyph-name="Igrave" unicode="&#xcc;" 
d="M490 1052l-269 -1003c-9.33301 -32.667 -30.333 -49 -63 -49c-17.333 0 -32.833 6.5 -46.5 19.5s-20.5 27.833 -20.5 44.5c0 6 1 12.667 3 20l319 1187c8.66699 32.667 29.667 49 63 49c30 0 50.667 -13.333 62 -40l212 -501l499 520c13.333 14 29 21 47 21
c44 0 66 -21.667 66 -65c0 -8 -0.666992 -14.333 -2 -19l-319 -1187c-9.33301 -32.667 -30.333 -49 -63 -49c-17.333 0 -32.833 6.5 -46.5 19.5s-20.5 27.833 -20.5 44.5c0 6 1 12.667 3 20l252 939l-392 -409c-13.333 -13.333 -29 -20 -47 -20
c-29.333 0 -49.333 13.333 -60 40z" />
    <glyph glyph-name="Iacute" unicode="&#xcd;" 
d="M1291 1236l-318 -1187c-8.66699 -32.667 -29.667 -49 -63 -49c-16.667 0 -32 6.5 -46 19.5s-21 27.833 -21 44.5c0 6 1 12.667 3 20l154 576h-547l-164 -611c-8.66699 -32.667 -29.667 -49 -63 -49c-16.667 0 -32 6.5 -46 19.5s-21 27.833 -21 44.5c0 6 1 12.667 3 20
l319 1187c8.66699 32.667 29.667 49 63 49c43.333 0 65 -21.667 65 -65c0 -7.33301 -0.666992 -13.666 -2 -18.999l-118 -444h547l128 479c8.66699 32.667 29.667 49 63 49c44 0 66 -21.667 66 -65c0 -8 -0.666992 -14.333 -2 -19z" />
    <glyph glyph-name="Icircumflex" unicode="&#xce;" 
d="M928 396l142 528.001c6 22 9 43.333 9 64c0 78.667 -34.667 136.667 -104 174c-33.333 17.333 -69.333 26 -108 26c-102.667 0 -192.667 -44 -270 -132c-36 -40.667 -60.333 -84.667 -73 -132l-142 -528c-6 -22 -9 -43.333 -9 -64c0 -58.667 20.167 -106.667 60.5 -144
s90.5 -56 150.5 -56c102 0 192.333 44.667 271 134c36 41.333 60.333 84.666 73 129.999zM1065 396.001c-45.333 -167.333 -140.667 -283.333 -286 -348c-71.333 -32 -148.333 -48 -231 -48c-54 0 -106 17 -156 51c-46.667 32 -84.167 73.167 -112.5 123.5
s-42.5 102.5 -42.5 156.5c0 23.333 2.66699 45 8 65l142 528c44.667 167.333 139.667 283.666 285 348.999c70.667 31.333 147.667 47 231 47c112 0 201.333 -57.667 268 -173c30 -51.333 45 -103.666 45 -156.999c0 -22 -3 -44 -9 -66z" />
    <glyph glyph-name="Idieresis" unicode="&#xcf;" 
d="M1142 1188h-547l-306 -1139c-8.66699 -32.667 -29.667 -49 -63 -49c-16.667 0 -32 6.5 -46 19.5s-21 27.833 -21 44.5c0 6 1 12.667 3 20l319 1187c8.66699 32.667 29.667 49 63 49h683c44 0 66 -21.667 66 -65c0 -8 -0.666992 -14.333 -2 -19l-318 -1187
c-8.66699 -32.667 -29.667 -49 -63 -49c-16.667 0 -32 6.5 -46 19.5s-21 27.833 -21 44.5c0 6 1 12.667 3 20z" />
    <glyph glyph-name="Eth" unicode="&#xd0;" 
d="M729 528h-272.999l-129 -479c-8.66699 -32.667 -29.667 -49 -63 -49c-16.667 0 -32 6.5 -46 19.5s-21 27.833 -21 44.5c0 6 1 12.667 3 20l314 1170c12 44 41 66 87 66h342c93.333 0 173.666 -43.667 240.999 -131c47.333 -62.667 71 -128.667 71 -198
c0 -22.667 -3 -45 -9 -67c-45.333 -166.667 -140.333 -282.667 -285 -348c-70.667 -32 -148 -48 -232 -48zM765.001 660c102.667 0 193.334 44.667 272.001 134c35.333 40.667 59.333 84 72 130c27.333 98 1.66602 173.667 -77.001 227c-36.667 24.667 -78.667 37 -126 37
h-273l-142 -528h274z" />
    <glyph glyph-name="Ntilde" unicode="&#xd1;" 
d="M809 132c44 0 66 -22.001 66 -66.001s-22 -66 -66 -66h-291c-94 0 -168 48.667 -222 146c-24.667 43.333 -37 87 -37 131c0 18 2.33301 35.667 7 53l176 660c58.667 220 202.334 330 431.001 330h254c44 0 66 -22 66 -66s-22 -66 -66 -66h-290
c-79.333 0 -147.333 -32.667 -204 -98c-26 -30 -44 -63.333 -54 -100l-177 -660c-4.66699 -17.333 -7 -33.666 -7 -48.999c0 -44.667 15.167 -80.667 45.5 -108s68.166 -41 113.499 -41h255z" />
    <glyph glyph-name="Ograve" unicode="&#xd2;" 
d="M777 1188l-306 -1139c-8.66699 -32.667 -29.667 -49 -63 -49c-16.667 0 -32 6.5 -46 19.5s-21 27.833 -21 44.5c0 6 1 12.667 3 20l296 1104h-256c-44 0 -66 22 -66 66s22 66 66 66h684c44 0 66 -22 66 -66s-22 -66 -66 -66h-291z" />
    <glyph glyph-name="Oacute" unicode="&#xd3;" 
d="M294 0c-44 0 -65.999 22 -65.999 66s22 66 66 66h358c38 0 73.833 12.833 107.5 38.5s55.5 56.834 65.5 93.501l71 264h-343c-92.667 0 -166.667 48.333 -222 145c-24.667 42.667 -37 86 -37 130c0 19.333 2.33301 37.666 7 54.999l111 413
c8.66699 32.667 29.667 49 63 49c44 0 66 -21.667 66 -65c0 -8 -0.666992 -14.333 -2 -19l-101 -378c-5.33301 -20 -8 -36.333 -8 -49c0 -44.667 15.167 -80.667 45.5 -108s68.166 -41 113.499 -41h342l164 611c8.66699 32.667 29.667 49 63 49c44 0 66 -21.667 66 -65
c0 -8 -0.666992 -14.333 -2 -19l-260 -972c-27.333 -102.667 -93.333 -179 -198 -229c-48.667 -23.333 -97.667 -35 -147 -35h-323z" />
    <glyph glyph-name="Ocircumflex" unicode="&#xd4;" 
d="M578 396l159 593.999h-69c-74 0 -145 -26 -213 -78s-111.667 -114 -131 -186l-18 -66c-5.33301 -19.333 -8 -40.666 -8 -63.999c0 -58.667 20.333 -106.667 61 -144s90.667 -56 150 -56h69zM679 263.999l-57.999 -215.002c-8.66699 -32.667 -29.667 -49 -63 -49
c-16.667 0 -32 6.5 -46 19.5s-21 27.833 -21 44.5c0 6 1 12.667 3 20l48 180h-68c-82 0 -154.667 35 -218 105c-62.667 68 -94 143.333 -94 226c0 22.667 2.66699 44.334 8 65.001l17 66c32 124 94.333 221 187 291s202.667 105 330 105h69l40 149
c8.66699 32.667 29.667 49 63 49c44 0 66 -21.667 66 -65c0 -8 -0.666992 -14.333 -2 -19l-31 -114h68c81.333 0 153.833 -34.5 217.5 -103.5s95.5 -144.5 95.5 -226.5c0 -22 -3 -44 -9 -66l-18 -66c-34 -123.333 -96.833 -220.166 -188.5 -290.499
s-200.834 -105.5 -327.501 -105.5h-68zM714.001 395.997l68 0.000976562c74 0 145 26.167 213 78.5s111.667 114.166 131 185.499l18 66c6 22 9 43.333 9 64c0 58.667 -20.5 106.667 -61.5 144s-90.833 56 -149.5 56h-68z" />
    <glyph glyph-name="Otilde" unicode="&#xd5;" 
d="M804 645l234 -553c3.33301 -8 5 -16.667 5 -26c0 -44 -22 -66 -66 -66c-30 -0 -50.333 13.333 -61 40l-212 501l-499 -521c-13.333 -13.333 -29.666 -20 -48.999 -20c-43.333 0 -65 21.667 -65 65c0 18 6.33301 33.667 19 47l538 561l-234 555
c-3.33301 8 -5 16.667 -5 26c0 44 22 66 66 66c29.333 0 49.666 -13.333 60.999 -40l212 -502l500 521c13.333 14 29 21 47 21c44.667 0 67 -22.333 67 -67c0 -17.333 -6 -32.333 -18 -45z" />
    <glyph glyph-name="Odieresis" unicode="&#xd6;" 
d="M958 0l-733 0.00195312c-44 0 -66 21.667 -66 65c0 8 0.666992 14.333 2 19l318 1187c8.66699 32.667 29.667 49 63 49c17.333 0 32.833 -6.33301 46.5 -19s20.5 -27.667 20.5 -45c0 -8.66699 -0.666992 -15.334 -2 -20.001l-296 -1104h546l306 1139
c8.66699 32.667 29.667 49 63 49c17.333 0 32.833 -6.33301 46.5 -19s20.5 -27.667 20.5 -45c0 -6 -1 -12.667 -3 -20l-297 -1104h69c17.333 0 31.333 -6.83301 42 -20.5s13.667 -28.834 9 -45.501l-75 -281c-8.66699 -32.667 -29.667 -49 -63 -49
c-16.667 0 -32 6.5 -46 19.5s-21 27.833 -21 44.5c0 6 1 12.667 3 20z" />
    <glyph glyph-name="multiply" unicode="&#xd7;" 
d="M870 49c-8.66699 -32.667 -29.667 -48.999 -63 -48.999c-16.667 0 -32 6.5 -46 19.5s-21 27.833 -21 44.5c0 6 1 12.667 3 20l120 444h-342c-93.333 0 -167.666 48.333 -222.999 145c-24.667 42.667 -37 86 -37 130c0 19.333 2.33301 37.666 7 54.999l111 413
c8.66699 32.667 29.667 49 63 49c44 0 66 -21.667 66 -65c0 -8 -0.666992 -14.333 -2 -19l-101 -378c-5.33301 -20 -8 -36.333 -8 -49c0 -44.667 15.167 -80.667 45.5 -108s68.166 -41 113.499 -41h342l164 611c8.66699 32.667 29.667 49 63 49c44 0 66 -21.667 66 -65
c0 -8 -0.666992 -14.333 -2 -19z" />
    <glyph glyph-name="Oslash" unicode="&#xd8;" 
d="M652 132l342 0.000976562l306 1139c8.66699 32.667 29.667 49 63 49c17.333 0 32.833 -6.33301 46.5 -19s20.5 -27.667 20.5 -45c0 -6 -1 -12.667 -3 -20l-319 -1187c-8.66699 -32.667 -29.667 -49 -63 -49h-957c-44 0 -66 21.667 -66 65c0 8 0.666992 14.333 2 19
l318 1187c8.66699 32.667 29.667 49 63 49c17.333 0 32.833 -6.33301 46.5 -19s20.5 -27.667 20.5 -45c0 -8.66699 -0.666992 -15.334 -2 -20.001l-296 -1104h342l306 1139c8.66699 32.667 29.667 49 63 49c44 0 66 -21.667 66 -65c0 -8 -0.666992 -14.333 -2 -19z" />
    <glyph glyph-name="Ugrave" unicode="&#xd9;" 
d="M1130 132l69 0.00195312c17.333 0 31.333 -6.83301 42 -20.5s13.667 -28.834 9 -45.501l-75 -281c-8.66699 -32.667 -29.667 -49 -63 -49c-16.667 0 -32 6.5 -46 19.5s-21 27.833 -21 44.5c0 6 1 12.667 3 20l47 180h-1007c-44 0 -66 21.667 -66 65
c0 8 0.666992 14.333 2 19l318 1187c8.66699 32.667 29.667 49 63 49c17.333 0 32.833 -6.33301 46.5 -19s20.5 -27.667 20.5 -45c0 -8.66699 -0.666992 -15.334 -2 -20.001l-296 -1104h342l306 1139c8.66699 32.667 29.667 49 63 49c44 0 66 -21.667 66 -65
c0 -8 -0.666992 -14.333 -2 -19l-297 -1104h342l306 1139c8.66699 32.667 29.667 49 63 49c17.333 0 32.833 -6.33301 46.5 -19s20.5 -27.667 20.5 -45c0 -6 -1 -12.667 -3 -20z" />
    <glyph glyph-name="Uacute" unicode="&#xda;" 
d="M382 1188c-44 0 -65.999 21.998 -65.999 65.998s22 66 66 66h273c44 0 66 -21.667 66 -65c0 -7.33301 -0.666992 -13.666 -2 -18.999l-118 -444h273c91.333 0 166.166 -31.5 224.499 -94.5s87.5 -140.833 87.5 -233.5c0 -26 -2.66699 -48.667 -8 -68
c-48 -171.333 -141 -287.666 -279 -348.999c-70 -31.333 -149.333 -47 -238 -47h-342c-34.667 0 -52 16.667 -52 50c0 6 0.666992 11.333 2 16l301 1122h-188zM564.001 659.998l-141.001 -528h273c102.667 0 191.334 41 266.001 123c59.333 64.667 89 138.667 89 222
c0 122 -71 183 -213 183h-274z" />
    <glyph glyph-name="Ucircumflex" unicode="&#xdb;" 
d="M541 1236l-118 -444.002h136c92 0 167 -31.5 225 -94.5s87 -140.833 87 -233.5c0 -26 -2.66699 -48.667 -8 -68c-47.333 -171.333 -140 -287.666 -278 -348.999c-70 -31.333 -149.667 -47 -239 -47h-205c-34.667 0 -52 16.667 -52 50c0 6 0.666992 11.333 2 16l323 1205
c8.66699 32.667 29.667 49 63 49c44 0 66 -21.667 66 -65c0 -7.33301 -0.666992 -13.666 -2 -18.999zM386 659.998l-141 -528h136c103.333 0 192.333 41 267 123c58.667 64.667 88 138.667 88 222c0 122 -71 183 -213 183h-137zM1361 1236l-319 -1187
c-8.66699 -32.667 -29.667 -49 -63 -49c-16.667 0 -32 6.5 -46 19.5s-21 27.833 -21 44.5c0 6 1 12.667 3 20l319 1187c8.66699 32.667 29.667 49 63 49c44 0 66 -21.667 66 -65c0 -8 -0.666992 -14.333 -2 -19z" />
    <glyph glyph-name="Udieresis" unicode="&#xdc;" 
d="M719 1236l-117.999 -444.002h273c91.333 0 166.166 -31.5 224.499 -94.5s87.5 -140.833 87.5 -233.5c0 -26 -2.66699 -48.667 -8 -68c-48 -171.333 -141 -287.666 -279 -348.999c-70 -31.333 -149.333 -47 -238 -47h-342c-34.667 0 -52 16.667 -52 50
c0 6 0.666992 11.333 2 16l323 1205c8.66699 32.667 29.667 49 63 49c44 0 66 -21.667 66 -65c0 -7.33301 -0.666992 -13.666 -2 -18.999zM564.001 659.998l-141.001 -528h273c102.667 0 191.334 41 266.001 123c59.333 64.667 89 138.667 89 222c0 122 -71 183 -213 183
h-274z" />
    <glyph glyph-name="Yacute" unicode="&#xdd;" 
d="M1002 1320c95.333 0 170.667 -49.998 226 -149.998c22.667 -41.333 34 -83.333 34 -126c0 -18.667 -2.33301 -36.667 -7 -54l-177 -660c-38.667 -144 -117 -241.333 -235 -292c-58 -25.333 -123.333 -38 -196 -38h-391c-44 0 -66 22 -66 66s22 66 66 66h426
c57.333 0 111.166 19.167 161.499 57.5s82.833 85.166 97.5 140.499l89 330h-324c-44 0 -66 22 -66 66s22 66 66 66h359l53 198c4.66699 17.333 7 33.666 7 48.999c0 44.667 -15.167 80.667 -45.5 108s-68.166 41 -113.499 41h-393c-44 0 -66 22 -66 66s22 66 66 66h429z
" />
    <glyph glyph-name="Thorn" unicode="&#xde;" 
d="M787 132c57.333 0 110.832 19.168 160.499 57.501s82.167 85.166 97.5 140.499l177 660c4.66699 17.333 7 33.666 7 48.999c0 44.667 -15.167 80.667 -45.5 108s-68.166 41 -113.499 41c-80 0 -148 -32.667 -204 -98c-26.667 -30 -44.667 -63.333 -54 -100l-177 -660
c-4.66699 -17.333 -7 -33.666 -7 -48.999c0 -44.667 15 -80.667 45 -108s68 -41 114 -41zM586.999 660.001l-206.001 -0.000976562l-164 -611c-9.33301 -32.667 -30.333 -49 -63 -49c-17.333 0 -32.833 6.5 -46.5 19.5s-20.5 27.833 -20.5 44.5c0 6 1 12.667 3 20l319 1187
c8.66699 32.667 29.667 49 63 49c44 0 66 -21.667 66 -65c0 -7.33301 -0.666992 -13.666 -2 -18.999l-118 -444h204l53 198c58.667 220 202.334 330 431.001 330c94.667 0 170 -50 226 -150c22.667 -41.333 34 -83.333 34 -126c0 -18.667 -2.33301 -36.667 -7 -54l-177 -660
c-38.667 -144 -117 -241.333 -235 -292c-58 -25.333 -123.333 -38 -196 -38c-94 0 -168.333 48.667 -223 146c-24 43.333 -36 87 -36 131c0 18 2.33301 35.667 7 53z" />
    <glyph glyph-name="germandbls" unicode="&#xdf;" 
d="M672 529l-394.001 -502.998c-14 -17.333 -31.333 -26 -52 -26c-17.333 0 -32.666 6.66699 -45.999 20s-20 28.666 -20 45.999c0 15.333 4.66699 29 14 41l364 465c-106 65.333 -159 159 -159 281c0 25.333 3 49 9 71c33.333 123.333 96 220.166 188 290.499
s201.333 105.5 328 105.5h323c44 0 66 -21.667 66 -65c0 -8 -0.666992 -14.333 -2 -19l-318 -1187c-9.33301 -32.667 -30.333 -49 -63 -49c-17.333 0 -32.833 6.5 -46.5 19.5s-20.5 27.833 -20.5 44.5c0 6 1 12.667 3 20l119 444h-268c-12 0 -20.333 0.333008 -25 1z
M524.999 924.002c-6.66699 -24.667 -10 -47.668 -10 -69.001c0 -60 20.333 -108 61 -144c38.667 -34 88.667 -51 150 -51h274l142 528h-274c-74 0 -144.833 -26.167 -212.5 -78.5s-111.167 -114.166 -130.5 -185.499z" />
    <glyph glyph-name="agrave" unicode="&#xe0;" 
d="M545 132h137.002c35.333 0 70.666 13.5 105.999 40.5s57.666 57.5 66.999 91.5l141 528h-273c-92 0 -149.667 -44 -173 -132l-105 -396c-4.66699 -17.333 -7 -33 -7 -47c0 -56.667 35.667 -85 107 -85zM510.002 0c-57.333 0 -106.5 20.335 -147.5 61.002
s-61.5 89.667 -61.5 147c0 20 2.33301 38.667 7 56l106 396c25.333 95.333 65 163.166 119 203.499s129 60.5 225 60.5h342c19.333 0 33.833 -6.33301 43.5 -19s12.167 -28.334 7.5 -47.001l-178 -660c-1.33301 -6 -2 -12 -2 -18c0 -32 17.333 -48 52 -48
c44 0 61 -22 51 -66s-38.667 -66 -86 -66c-72.667 0 -118 25 -136 75c-38 -50 -106.667 -75 -206 -75h-136z" />
    <glyph glyph-name="aacute" unicode="&#xe1;" 
d="M1129 1320c44 0 66 -22 66 -66s-22 -66 -66 -66h-419l270 -370c32.667 -44.667 49 -95.334 49 -152.001c0 -25.333 -3 -49.333 -9 -72l-70 -264c-20.667 -76.667 -49.667 -140 -87 -190c-68.667 -93.333 -183.334 -140 -344.001 -140
c-73.333 0 -135.166 24.833 -185.499 74.5s-75.5 110.834 -75.5 183.501c0 25.333 3 49.333 9 72l70 264c58 220 192.667 330 404 330l-204 284c-13.333 18.667 -20 34 -20 46c0 44 19 66 57 66h555zM813 330l70.001 264c7.33301 27.333 11 52 11 74
c0 82.667 -54 124 -162 124c-136.667 0 -222.667 -66 -258 -198l-71 -264c-7.33301 -27.333 -11 -52 -11 -74c0 -82.667 54 -124 162 -124c137.333 0 223.666 66 258.999 198z" />
    <glyph glyph-name="acircumflex" unicode="&#xe2;" 
d="M631 876c64 32 122 48 174 48c34 0 68.5 21 103.5 63s52.5 81.333 52.5 118c0 55.333 -36 83 -108 83c-92 0 -149.667 -44 -173 -132zM544 1056c24.667 93.333 63.998 160.669 117.998 202.002s129.667 62 227 62c58 0 107.333 -20.333 148 -61s61 -90.334 61 -149.001
c0 -43.333 -11 -85.333 -33 -126c-23.333 -44.667 -53.666 -74.334 -90.999 -89.001c92 -46 138 -122.333 138 -229c0 -25.333 -3 -49.333 -9 -72l-70 -264c-32 -118.667 -81.833 -203.334 -149.5 -254.001s-161.5 -76 -281.5 -76c-73.333 0 -135.166 24.833 -185.499 74.5
s-75.5 110.834 -75.5 183.501c0 25.333 3 49.333 9 72zM895.998 330.003l70.001 264c7.33301 27.333 11 52 11 74c0 82.667 -54 124 -162 124c-136.667 0 -222.667 -66 -258 -198l-71 -264c-7.33301 -27.333 -11 -52 -11 -74c0 -82.667 54 -124 162 -124
c137.333 0 223.666 66 258.999 198z" />
    <glyph glyph-name="atilde" unicode="&#xe3;" 
d="M774 25c-84 -16.667 -175.333 -24.9971 -274 -24.9971c-50 0 -92.833 18.833 -128.5 56.5s-53.5 81.5 -53.5 131.5c0 55.333 20 108.333 60 159c37.333 47.333 83 81.666 137 102.999l399 157c56.667 22 85 61.333 85 118c0 44.667 -27 67 -81 67
c-118 0 -210.333 -19 -277 -57c-10.667 -6 -21.334 -9 -32.001 -9c-18 0 -33.5 6.66699 -46.5 20s-19.5 28.666 -19.5 45.999c0 25.333 11 44.333 33 57c86 50 211.667 75 377 75c66.667 0 118.667 -32.667 156 -98c17.333 -30 26 -61 26 -93
c0 -62.667 -28.667 -124 -86 -184c-30 -32 -66.333 -56.333 -109 -73l-399 -156c-57.333 -22.667 -86 -62.334 -86 -119.001c0 -46 26.667 -69 80 -69c132.667 0 253.334 20.333 362.001 61c8.66699 3.33301 16.667 5 24 5c44 0 66 -22 66 -66
c0 -34 -28.667 -60.333 -86 -79c-10 -4 -52.333 -13.333 -127 -28z" />
    <glyph glyph-name="adieresis" unicode="&#xe4;" 
d="M1166 1056l-194.002 -726c-32 -118.667 -81.833 -203.334 -149.5 -254.001s-161.5 -76 -281.5 -76c-73.333 0 -135.166 24.833 -185.499 74.5s-75.5 110.834 -75.5 183.501c0 25.333 3 49.333 9 72l70 264c31.333 118 80.333 202.5 147 253.5s161.334 76.5 284.001 76.5
h205l35 132c4.66699 17.333 7 33.333 7 48c0 56 -36 84 -108 84h-187c-44 0 -66 22 -66 66s22 66 66 66h222c58 0 107.333 -20.5 148 -61.5s61 -90.5 61 -148.5c0 -18.667 -2.33301 -36.667 -7 -54zM834.998 330l124 462h-205c-136.667 0 -222.667 -66 -258 -198l-71 -264
c-7.33301 -27.333 -11 -52 -11 -74c0 -82.667 54 -124 162 -124c136.667 0 223 66 259 198z" />
    <glyph glyph-name="aring" unicode="&#xe5;" 
d="M974 594c7.33301 28.667 11 53 11 73c0 83.333 -54 125 -162 125c-136 0 -222 -66 -258 -198l-18 -66h410zM1111 594l-53 -197.998h-546l-35 -132c-4.66699 -17.333 -7 -33.333 -7 -48c0 -56 35.667 -84 107 -84h324c44 0 66 -22 66 -66s-22 -66 -66 -66h-359
c-57.333 0 -106.5 20.667 -147.5 62s-61.5 90.666 -61.5 147.999c0 18.667 2.33301 36.667 7 54l88 330c31.333 118 80.333 202.5 147 253.5s161.334 76.5 284.001 76.5c73.333 0 135.166 -24.833 185.499 -74.5s75.5 -110.834 75.5 -183.501c0 -25.333 -3 -49.333 -9 -72z
" />
    <glyph glyph-name="ae" unicode="&#xe6;" 
d="M793 461l-109.999 -412.001c-9.33301 -32.667 -30.333 -49 -63 -49c-17.333 0 -32.833 6.5 -46.5 19.5s-20.5 27.833 -20.5 44.5c0 6 1 12.667 3 20l92 343l-390 -407c-13.333 -13.333 -29.333 -20 -48 -20c-18 0 -33.5 6.33301 -46.5 19s-19.5 28 -19.5 46
s6.33301 33.667 19 47l349 365l-150 355c-3.33301 8 -5 16.667 -5 26c0 44 21.667 66 65 66c29.333 0 49.666 -13.333 60.999 -40l176 -417l109 408c8.66699 32.667 29.667 49 63 49c44 0 66 -21.667 66 -65c0 -7.33301 -0.666992 -13.666 -2 -18.999l-92 -345l392 409
c12.667 13.333 29 20 49 20c43.333 0 65 -21.333 65 -64c0 -18.667 -6.33301 -34.667 -19 -48l-349 -365l150 -355c3.33301 -8 5 -16.333 5 -25c0 -44.667 -22 -67 -66 -67c-29.333 -0 -49.333 13.333 -60 40z" />
    <glyph glyph-name="ccedilla" unicode="&#xe7;" 
d="M376 77c-20 13.333 -30.0068 31.6689 -30.0068 55.002c0 18 6.5 33.5 19.5 46.5s28.5 19.5 46.5 19.5c10.667 0 21.334 -3 32.001 -9c68.667 -38 126 -57 172 -57h68c90.667 0 148.334 44 173.001 132c4.66699 16.667 7 32.667 7 48c0 56 -36 84 -108 84h-53
c-17.333 0 -32.666 6.66699 -45.999 20s-20 28.666 -20 45.999c0 18 6.5 33.5 19.5 46.5s28.5 19.5 46.5 19.5h88c88.667 0 146 44 172 132c4.66699 16.667 7 32 7 46c-0.666992 57.333 -36.667 86 -108 86h-68c-32 0 -73 -10.667 -123 -32s-77 -32 -81 -32
c-17.333 0 -32.666 6.66699 -45.999 20s-20 28.666 -20 45.999c0 25.333 12 45 36 59c82.667 47.333 172.334 71 269.001 71h69c58 0 107.167 -20.5 147.5 -61.5s60.5 -90.5 60.5 -148.5c0 -19.333 -2.33301 -37.333 -7 -54c-30 -108.667 -84.333 -177 -163 -205
c21.333 -12.667 37.333 -31.334 48 -56.001c18.667 -44 22 -89 10 -135c-24 -93.333 -63.167 -160.666 -117.5 -201.999s-130.166 -62 -227.499 -62h-68c-59.333 0 -127.666 25.667 -204.999 77z" />
    <glyph glyph-name="egrave" unicode="&#xe8;" 
d="M1021 875c8.66699 32.667 29.667 49.001 63 49.001c44 0 66 -21.667 66 -65c0 -8 -0.666992 -14.333 -2 -19l-209 -774c-12 -44 -40.667 -66 -86 -66h-341c-57.333 0 -106.5 20.667 -147.5 62s-61.5 90.666 -61.5 147.999c0 18.667 2.33301 36.667 7 54l164 611
c8.66699 32.667 29.667 49 63 49c44 0 66 -21.667 66 -65c0 -8 -0.666992 -14.333 -2 -19l-154 -576c-4.66699 -17.333 -7 -33.333 -7 -48c0 -56 35.667 -84 107 -84h274z" />
    <glyph glyph-name="eacute" unicode="&#xe9;" 
d="M1021 875c8.66699 32.667 29.667 49.001 63 49.001c44 0 66 -21.667 66 -65c0 -8 -0.666992 -14.333 -2 -19l-209 -774c-12 -44 -40.667 -66 -86 -66h-341c-57.333 0 -106.5 20.667 -147.5 62s-61.5 90.666 -61.5 147.999c0 18.667 2.33301 36.667 7 54l164 611
c8.66699 32.667 29.667 49 63 49c44 0 66 -21.667 66 -65c0 -8 -0.666992 -14.333 -2 -19l-154 -576c-4.66699 -17.333 -7 -33.333 -7 -48c0 -56 35.667 -84 107 -84h274zM1053 1188h-274c-44 0 -66 22 -66 66s22 66 66 66h274c44 0 66 -22 66 -66s-22 -66 -66 -66z" />
    <glyph glyph-name="ecircumflex" unicode="&#xea;" 
d="M651 425l-177 -136l-64 -240c-8.66699 -32.667 -29.667 -49 -63 -49c-16.667 0 -32 6.5 -46 19.5s-21 27.833 -21 44.5c0 6 1 12.667 3 20l212 791c8.66699 32.667 29.667 49 63 49c44 0 66 -21.667 66 -65c0 -8 -0.666992 -14.333 -2 -19l-91 -341l534 411
c12 9.33301 25.333 14 40 14c16.667 0 32 -6.66699 46 -20s21 -28.333 21 -45c0 -22 -9 -40 -27 -54l-387 -297l195 -413c4.66699 -10 7 -19.333 7 -28c0 -18 -6.66699 -33.667 -20 -47s-29 -20 -47 -20c-27.333 0 -47 12.667 -59 38z" />
    <glyph glyph-name="edieresis" unicode="&#xeb;" 
d="M1106 924c44 0 66 -21.666 66 -64.999c0 -8 -0.666992 -14.333 -2 -19l-213 -791c-9.33301 -32.667 -30.333 -49 -63 -49c-17.333 0 -32.833 6.5 -46.5 19.5s-20.5 27.833 -20.5 44.5c0 6 1 12.667 3 20l190 708h-150l-467 -761c-13.333 -20.667 -30.666 -31 -51.999 -31
c-46 0 -69.333 21 -70 63c-0.666992 13.333 2.66602 25.666 9.99902 36.999l485 792c12.667 21.333 31.667 32 57 32h273z" />
    <glyph glyph-name="igrave" unicode="&#xec;" 
d="M1054 663l-278.001 -246c-16 -14 -32.333 -21 -49 -21c-24 0 -42.333 11 -55 33l-156 263l-173 -643c-9.33301 -32.667 -30.333 -49 -63 -49c-17.333 0 -32.833 6.5 -46.5 19.5s-20.5 27.833 -20.5 44.5c0 6 1 12.667 3 20l212 791c8.66699 32.667 29.667 49 63 49
c25.333 0 44.333 -10.333 57 -31l196 -328l386 342c12.667 11.333 27.334 17 44.001 17c44 0 66 -21.667 66 -65c0 -8 -0.666992 -14.333 -2 -19l-212 -791c-9.33301 -32.667 -30.333 -49 -63 -49c-17.333 0 -32.833 6.5 -46.5 19.5s-20.5 27.833 -20.5 44.5
c0 6 1 12.667 3 20z" />
    <glyph glyph-name="iacute" unicode="&#xed;" 
d="M914 396h-410l-93 -347c-8.66699 -32.667 -30 -49 -64 -49c-16.667 0 -32 6.5 -46 19.5s-21 27.833 -21 44.5c0 6 1 12.667 3 20l212 791c8.66699 32.667 29.667 49 63 49c18 0 33.667 -6.33301 47 -19s20 -28 20 -46c0 -8 -0.666992 -14.333 -2 -19l-84 -312h411l93 347
c8.66699 32.667 29.667 49 63 49c44 0 66 -21.667 66 -65c0 -8 -0.666992 -14.333 -2 -19l-212 -791c-8.66699 -32.667 -29.667 -49 -63 -49c-16.667 0 -32 6.5 -46 19.5s-21 27.833 -21 44.5c0 6 1 12.667 3 20z" />
    <glyph glyph-name="icircumflex" unicode="&#xee;" 
d="M350 330l70 264c31.333 118 80.333 202.5 147 253.5s161.334 76.5 284.001 76.5c73.333 0 135.166 -24.833 185.499 -74.5s75.5 -110.834 75.5 -183.501c0 -25.333 -3 -49.333 -9 -72l-70 -264c-20.667 -76.667 -49.667 -140 -87 -190
c-68.667 -93.333 -183.334 -140 -344.001 -140c-73.333 0 -135.166 24.833 -185.499 74.5s-75.5 110.834 -75.5 183.501c0 25.333 3 49.333 9 72zM896 330l70.001 264c7.33301 27.333 11 52 11 74c0 82.667 -54 124 -162 124c-136.667 0 -222.667 -66 -258 -198l-71 -264
c-7.33301 -27.333 -11 -52 -11 -74c0 -82.667 54 -124 162 -124c137.333 0 223.666 66 258.999 198z" />
    <glyph glyph-name="idieresis" unicode="&#xef;" 
d="M517 874c8.66699 33.333 30 50.001 64 50.001h360c60 0 109.833 -19.833 149.5 -59.5s59.5 -89.834 59.5 -150.501c0 -18.667 -2.33301 -36.667 -7 -54l-164 -611c-8.66699 -32.667 -29.667 -49 -63 -49c-16.667 0 -32 6.5 -46 19.5s-21 27.833 -21 44.5
c0 6 1 12.667 3 20l154 576c4.66699 17.333 7 33.333 7 48c0 56 -35.667 84 -107 84h-274l-200 -743c-8.66699 -32.667 -29.667 -49 -63 -49c-16.667 0 -32 6.5 -46 19.5s-21 27.833 -21 44.5c0 6 1 12.667 3 20z" />
    <glyph glyph-name="eth" unicode="&#xf0;" 
d="M570 874c8.66699 33.333 29.999 50.001 63.999 50.001h360c58 0 107.333 -20.5 148 -61.5s61 -90.5 61 -148.5c0 -18.667 -2.33301 -36.667 -7 -54l-106 -396c-25.333 -94.667 -65.166 -162.334 -119.499 -203.001s-129.5 -61 -225.5 -61h-273l-93 -347
c-8.66699 -32.667 -29.667 -49 -63 -49c-16.667 0 -32 6.5 -46 19.5s-21 27.833 -21 44.5c0 6 1 12.667 3 20zM684.999 792.001l-178 -660h274c92 0 149.667 44 173 132l105 396c4.66699 17.333 7 33.333 7 48c0 56 -35.667 84 -107 84h-274z" />
    <glyph glyph-name="ntilde" unicode="&#xf1;" 
d="M803 0l-223 0.000976562c-57.333 0 -106.5 20.667 -147.5 62s-61.5 90.666 -61.5 147.999c0 18.667 2.33301 36.667 7 54l106 396c25.333 95.333 65.333 163.333 120 204c52.667 40 127.334 60 224.001 60h188c44 0 66 -22 66 -66s-22 -66 -66 -66h-223
c-92.667 0 -150.334 -44 -173.001 -132l-105 -396c-5.33301 -20 -8 -34 -8 -42c0 -60 36 -90 108 -90h188c44 0 66 -22 66 -66s-22 -66 -66 -66z" />
    <glyph glyph-name="ograve" unicode="&#xf2;" 
d="M381 874c8.66699 33.333 30 50.001 64 50.001h633c82 0 142.667 -35.333 182 -106c18 -32 27 -67 27 -105c0 -18 -2.33301 -35.667 -7 -53l-164 -611c-9.33301 -32.667 -30.333 -49 -63 -49c-17.333 0 -32.833 6.5 -46.5 19.5s-20.5 27.833 -20.5 44.5c0 6 1 12.667 3 20
l154 576c4.66699 17.333 7 33.666 7 48.999c0 55.333 -35.667 83 -107 83h-137l-200 -743c-9.33301 -32.667 -30.333 -49 -63 -49c-17.333 0 -32.833 6.5 -46.5 19.5s-20.5 27.833 -20.5 44.5c0 6 1 12.667 3 20l191 708h-274l-200 -743
c-9.33301 -32.667 -30.333 -49 -63 -49c-17.333 0 -32.833 6.5 -46.5 19.5s-20.5 27.833 -20.5 44.5c0 6 1 12.667 3 20z" />
    <glyph glyph-name="oacute" unicode="&#xf3;" 
d="M790 -134l36.001 134.001h-273c-57.333 0 -106.5 20.667 -147.5 62s-61.5 90.666 -61.5 147.999c0 18.667 2.33301 36.667 7 54l164 611c8.66699 32.667 29.667 49 63 49c44 0 66 -21.667 66 -65c0 -8 -0.666992 -14.333 -2 -19l-154 -576
c-4.66699 -17.333 -7 -33.333 -7 -48c0 -56 35.667 -84 107 -84h274l200 743c8.66699 32.667 29.667 49 63 49c44 0 66 -21.667 66 -65c0 -8 -0.666992 -14.333 -2 -19l-261 -972c-33.333 -123.333 -93 -202.333 -179 -237c-44.667 -18 -99 -27 -163 -27h-258
c-44 0 -66 22 -66 66s22 66 66 66h290c91.333 0 148.666 43.333 171.999 130z" />
    <glyph glyph-name="ocircumflex" unicode="&#xf4;" 
d="M706 132h67c138 0 224.333 66 259 198l70 264c7.33301 27.333 11 52 11 74c0 82.667 -54 124 -162 124h-68zM670 0l-93.001 -347.001c-8.66699 -32.667 -29.667 -49 -63 -49c-17.333 0 -33 6.5 -47 19.5s-21 28.167 -21 45.5c0 4.66699 1 10.667 3 18l84 313h-68
c-72.667 0 -134.334 24.833 -185.001 74.5s-76 110.834 -76 183.501c0 25.333 3 49.333 9 72l70 264c31.333 118 80.333 202.5 147 253.5s161.334 76.5 284.001 76.5h67l58 215c8.66699 32.667 30 49 64 49c44.667 0 67 -21.333 67 -64c0 -5.33301 -1 -11.666 -3 -18.999
l-49 -181h69c74 0 136 -24.833 186 -74.5s75 -110.834 75 -183.501c0 -25.333 -3 -49.333 -9 -72l-70 -264c-31.333 -118.667 -81.666 -203.667 -150.999 -255c-66.667 -50 -160 -75 -280 -75h-68zM568.999 131.999l177 660h-68c-136.667 0 -222.667 -66 -258 -198l-71 -264
c-7.33301 -27.333 -11 -52 -11 -74c0 -82.667 54 -124 162 -124h69z" />
    <glyph glyph-name="otilde" unicode="&#xf5;" 
d="M804 447l149.999 -355.001c3.33301 -8 5 -17.333 5 -28c0 -42.667 -21.667 -64 -65 -64c-30 0 -50.333 13.333 -61 40l-128 303l-310 -323c-13.333 -13.333 -29.666 -20 -48.999 -20c-43.333 0 -65 22.333 -65 67c0 16.667 6 31.334 18 44.001l350 365l-151 356
c-3.33301 8 -5 16.667 -5 26c0 18 6.33301 33.5 19 46.5s28.334 19.5 47.001 19.5c28.667 0 48.667 -13.333 60 -40l129 -305l311 324c13.333 14 28.666 21 45.999 21c44.667 0 67 -21.333 67 -64c0 -19.333 -6 -35.333 -18 -48z" />
    <glyph glyph-name="odieresis" unicode="&#xf6;" 
d="M922 0l-410.001 0.00195312c-57.333 0 -106.5 20.667 -147.5 62s-61.5 90.666 -61.5 147.999c0 18.667 2.33301 36.667 7 54l164 611c8.66699 32.667 29.667 49 63 49c44 0 66 -21.667 66 -65c0 -8 -0.666992 -14.333 -2 -19l-154 -576
c-4.66699 -17.333 -7 -33.333 -7 -48c0 -56 35.667 -84 107 -84h274l200 743c8.66699 32.667 29.667 49 63 49c44 0 66 -21.667 66 -65c0 -8 -0.666992 -14.333 -2 -19l-190 -708h67c16.667 0 30.334 -6.83301 41.001 -20.5s14 -28.834 10 -45.501l-57 -215
c-8.66699 -32.667 -29.667 -49 -63 -49c-17.333 0 -32.833 6.5 -46.5 19.5s-20.5 27.833 -20.5 44.5c0 6 1 12.667 3 20z" />
    <glyph glyph-name="divide" unicode="&#xf7;" 
d="M882 49c-9.33301 -32.667 -30.333 -49 -63 -49c-17.333 0 -32.833 6.5 -46.5 19.5s-20.5 27.833 -20.5 44.5c0 6 1 12.667 3 20l84 312h-274c-57.333 0 -106.5 20.5 -147.5 61.5s-61.5 90.167 -61.5 147.5c0 19.333 2.33301 37.666 7 54.999l58 215
c8.66699 32.667 29.667 49 63 49c44 0 66 -21.667 66 -65c0 -7.33301 -0.666992 -13.666 -2 -18.999l-48 -180c-5.33301 -20 -8 -35.667 -8 -47c0 -56.667 36.333 -85 109 -85h273l94 347c8.66699 32.667 29.667 49 63 49c44 0 66 -21.667 66 -65
c0 -8 -0.666992 -14.333 -2 -19z" />
    <glyph glyph-name="oslash" unicode="&#xf8;" 
d="M1072 50c-4 -14.667 -12.002 -26.665 -24.002 -35.998s-25.333 -14 -40 -14h-633c-58 0 -107.333 20.333 -148 61s-61 90 -61 148c0 19.333 2.33301 37.666 7 54.999l164 611c8.66699 32.667 29.667 49 63 49c17.333 0 32.833 -6.33301 46.5 -19s20.5 -27.667 20.5 -45
c0 -6 -1 -12.667 -3 -20l-154 -576c-4.66699 -17.333 -7 -33.333 -7 -48c0 -56 35.667 -84 107 -84h138l200 743c8.66699 32.667 29.334 49 62.001 49c17.333 0 32.833 -6.33301 46.5 -19s20.5 -27.667 20.5 -45c0 -8.66699 -0.666992 -15.334 -2 -20.001l-190 -708h273
l200 743c8.66699 32.667 29.334 49 62.001 49c17.333 0 32.833 -6.33301 46.5 -19s20.5 -27.667 20.5 -45c0 -6 -1 -12.667 -3 -20z" />
    <glyph glyph-name="ugrave" unicode="&#xf9;" 
d="M1060 0l-685.003 0.00195312c-58 0 -107.333 20 -148 60s-61 89 -61 147c0 20.667 2.33301 39.667 7 57l164 611c8.66699 32.667 29.667 49 63 49c17.333 0 32.833 -6.33301 46.5 -19s20.5 -27.667 20.5 -45c0 -6 -1 -12.667 -3 -20l-154 -576
c-4.66699 -17.333 -7 -34 -7 -50c0 -54.667 35.667 -82 107 -82h138l200 743c8.66699 32.667 29.334 49 62.001 49c17.333 0 32.833 -6.33301 46.5 -19s20.5 -27.667 20.5 -45c0 -8.66699 -0.666992 -15.334 -2 -20.001l-190 -708h273l200 743
c8.66699 32.667 29.334 49 62.001 49c17.333 0 32.833 -6.33301 46.5 -19s20.5 -27.667 20.5 -45c0 -6 -1 -12.667 -3 -20l-190 -708h69c16.667 0 30.334 -6.83301 41.001 -20.5s14 -28.834 10 -45.501l-57 -215c-8.66699 -32.667 -29.667 -49 -63 -49
c-17.333 0 -32.833 6.5 -46.5 19.5s-20.5 27.833 -20.5 44.5c0 6 1 12.667 3 20z" />
    <glyph glyph-name="uacute" unicode="&#xfa;" 
d="M549 792h-119.002c-44 0 -66 22 -66 66s22 66 66 66h205c44 0 66 -21.667 66 -65c0 -8 -0.666992 -14.333 -2 -19l-84 -312h273c58.667 0 108.167 -20.167 148.5 -60.5s60.5 -90.166 60.5 -149.499c0 -20.667 -2 -38.667 -6 -54
c-25.333 -94.667 -64.666 -162.334 -117.999 -203.001s-128.666 -61 -225.999 -61h-324c-17.333 0 -32.833 6.5 -46.5 19.5s-20.5 27.833 -20.5 44.5c0 6 1 12.667 3 20zM852.998 396h-273l-72 -264h274c88 0 146 44 174 132c4 12.667 6 28.667 6 48
c0 56 -36.333 84 -109 84z" />
    <glyph glyph-name="ucircumflex" unicode="&#xfb;" 
d="M280 0c-17.333 0 -32.835 6.5 -46.502 19.5s-20.5 27.833 -20.5 44.5c0 6 1 12.667 3 20l213 791c8.66699 32.667 29.667 49 63 49c44 0 66 -21.667 66 -65c0 -8 -0.666992 -14.333 -2 -19l-84 -312h136c58.667 0 108.167 -20.167 148.5 -60.5
s60.5 -90.166 60.5 -149.499c0 -20.667 -2 -38.667 -6 -54c-25.333 -94.667 -64.666 -162.334 -117.999 -203.001s-128.666 -61 -225.999 -61h-187zM572.998 396h-136l-72 -264h137c88 0 146 44 174 132c4 12.667 6 28.667 6 48c0 56 -36.333 84 -109 84zM1111 875
c8.66699 32.667 29.667 49 63 49c44 0 66 -21.667 66 -65c0 -8 -0.666992 -14.333 -2 -19l-212 -791c-9.33301 -32.667 -30.333 -49 -63 -49c-17.333 0 -32.833 6.5 -46.5 19.5s-20.5 27.833 -20.5 44.5c0 6 1 12.667 3 20z" />
    <glyph glyph-name="udieresis" unicode="&#xfc;" 
d="M423 0c-17.333 0 -32.835 6.5 -46.502 19.5s-20.5 27.833 -20.5 44.5c0 6 1 12.667 3 20l213 791c8.66699 32.667 29.667 49 63 49c44 0 66 -21.667 66 -65c0 -8 -0.666992 -14.333 -2 -19l-84 -312h273c58.667 0 108.167 -20.167 148.5 -60.5
s60.5 -90.166 60.5 -149.499c0 -20.667 -2 -38.667 -6 -54c-25.333 -94.667 -64.666 -162.334 -117.999 -203.001s-128.666 -61 -225.999 -61h-324zM852.998 396h-273l-72 -264h274c88 0 146 44 174 132c4 12.667 6 28.667 6 48c0 56 -36.333 84 -109 84z" />
    <glyph glyph-name="yacute" unicode="&#xfd;" 
d="M369 132l359.001 0.000976562c91.333 0 148.666 44 171.999 132l35 132h-323c-44 0 -66 22 -66 66s22 66 66 66h359l35 132c5.33301 20 8 36 8 48c0 56 -36 84 -108 84h-325c-44 0 -66 22 -66 66s22 66 66 66h360c58 0 107.333 -20.5 148 -61.5s61 -90.5 61 -148.5
c0 -18.667 -2.33301 -36.667 -7 -54l-107 -396c-26 -94.667 -65.333 -162.334 -118 -203.001s-128 -61 -226 -61h-323c-44 0 -66 22 -66 66s22 66 66 66z" />
    <glyph glyph-name="thorn" unicode="&#xfe;" 
d="M628 396l-205 0.00195312l-93 -347c-9.33301 -32.667 -30.333 -49 -63 -49c-17.333 0 -32.833 6.5 -46.5 19.5s-20.5 27.833 -20.5 44.5c0 6 1 12.667 3 20l212 791c8.66699 32.667 29.667 49 63 49c44 0 66 -21.667 66 -65c0 -8 -0.666992 -14.333 -2 -19l-84 -312h206
l35 132c32.667 123.333 92 202.333 178 237c44.667 18 100 27 166 27c58 0 107.5 -20.333 148.5 -61s61.5 -90.334 61.5 -149.001c0 -18.667 -2.33301 -36.667 -7 -54l-107 -396c-26 -94.667 -65.333 -162.334 -118 -203.001s-128 -61 -226 -61
c-58.667 0 -108.167 20.667 -148.5 62s-60.5 91 -60.5 149c0 18 2.33301 35.667 7 53zM830 132.002c92 0 150.001 44 174.001 132l106 396c4.66699 17.333 7 33.333 7 48c0 56 -36.333 84 -109 84c-92.667 0 -150.334 -44 -173.001 -132l-105 -396
c-4.66699 -17.333 -7 -33 -7 -47c0 -56.667 35.667 -85 107 -85z" />
    <glyph glyph-name="ydieresis" unicode="&#xff;" 
d="M754 396l-359.999 -375.998c-12.667 -13.333 -28.334 -20 -47.001 -20c-43.333 0 -65.666 21.333 -66.999 64c-0.666992 18 5.66602 34 18.999 48l280 293c-44 13.333 -79.667 38.666 -107 75.999s-41 79 -41 125c0 21.333 2 39.333 6 54
c26 95.333 65.167 163.166 117.5 203.499s127.833 60.5 226.5 60.5h324c17.333 0 32.833 -6.33301 46.5 -19s20.5 -27.667 20.5 -45c0 -6 -1 -12.667 -3 -20l-213 -791c-8.66699 -32.667 -29.667 -49 -63 -49c-44 0 -66 21.667 -66 65c0 8 0.666992 14.333 2 19l84 312h-159
zM675.001 528.002h273l72 264h-274c-88.667 0 -146.667 -44 -174 -132c-4 -12.667 -6 -28.667 -6 -48c0 -56 36.333 -84 109 -84z" />
    <glyph glyph-name="Amacron" unicode="&#x100;" 
d="M862 462l-45 585l-358 -585h403zM872 330l-493.998 -0.000976562l-183 -298c-13.333 -21.333 -32 -32 -56 -32c-18.667 0 -34.334 6.5 -47.001 19.5s-19 28.5 -19 46.5c0 12.667 3.33301 24.334 10 35.001l727 1188c12 20.667 31 31 57 31
c40.667 0 62.667 -20.333 66 -61l92 -1195c0 -42.667 -22.333 -64 -67 -64c-40.667 -0 -62.334 20.333 -65.001 61zM1314 1584h-683c-44 0 -66 22 -66 66s22 66 66 66h683c44 0 66 -22 66 -66s-22 -66 -66 -66z" />
    <glyph glyph-name="amacron" unicode="&#x101;" 
d="M783 0l-359 0.00195312c-57.333 0 -106.333 20.667 -147 62s-61 90.666 -61 147.999c0 102 33.333 181.333 100 238c62.667 53.333 146 80 250 80h274l35 132c4.66699 17.333 7 33.333 7 48c0 56 -36 84 -108 84h-257c-44 0 -66 22 -66 66s22 66 66 66h293
c58.667 0 108 -20.333 148 -61s60 -90.334 60 -149.001c0 -18.667 -2.33301 -36.667 -7 -54l-164 -610c-8.66699 -33.333 -30 -50 -64 -50zM804 396.002l-273 -0.000976562c-53.333 0 -96.5 -16.667 -129.5 -50s-49.5 -76.666 -49.5 -129.999c0 -56 36 -84 108 -84h273z
M1170 1188h-683c-44 0 -66 22 -66 66s22 66 66 66h683c44 0 66 -22 66 -66s-22 -66 -66 -66z" />
    <glyph glyph-name="Abreve" unicode="&#x102;" 
d="M917 462l-45 585l-358 -585h403zM927 330l-493.998 -0.000976562l-183 -298c-13.333 -21.333 -32 -32 -56 -32c-18.667 0 -34.334 6.5 -47.001 19.5s-19 28.5 -19 46.5c0 12.667 3.33301 24.334 10 35.001l727 1188c12 20.667 31 31 57 31
c40.667 0 62.667 -20.333 66 -61l92 -1195c0 -42.667 -22.333 -64 -67 -64c-40.667 -0 -62.334 20.333 -65.001 61zM1323 1782c-33.333 -124.667 -91.999 -203.666 -175.999 -236.999c-44.667 -18 -100.667 -27 -168 -27c-80.667 0 -141.334 35.333 -182.001 106
c-18 32 -27 66.333 -27 103c0 20 2.33301 38.333 7 55c12 44 39 66 81 66c14 0 27 -5.33301 39 -16s18 -23.334 18 -38.001l-2 -12c-6.66699 -23.333 -10 -39 -10 -47c0 -56.667 37.333 -85 112 -85c90.667 0 148 44 172 132c11.333 44 39 66 83 66c36.667 0 55 -17 55 -51
c0 -4.66699 -0.666992 -9.66699 -2 -15z" />
    <glyph glyph-name="abreve" unicode="&#x103;" 
d="M823 0l-359.001 0.00195312c-58 0 -107.167 20.667 -147.5 62s-60.5 90.666 -60.5 147.999c0 102 33.333 181.333 100 238c62.667 53.333 146 80 250 80h274l35 132c4.66699 17.333 7 33.333 7 48c0 56 -36 84 -108 84h-257c-44 0 -66 22 -66 66s22 66 66 66h293
c58.667 0 108 -20.333 148 -61s60 -90.334 60 -149.001c0 -18.667 -2.33301 -36.667 -7 -54l-164 -610c-9.33301 -33.333 -30.666 -50 -63.999 -50zM843.999 396.002l-273 -0.000976562c-53.333 0 -96.5 -16.667 -129.5 -50s-49.5 -76.666 -49.5 -129.999
c0 -56 36 -84 108 -84h273zM1195 1452c-33.333 -124.667 -91.999 -203.666 -175.999 -236.999c-44.667 -18 -100.667 -27 -168 -27c-80.667 0 -141.334 35.333 -182.001 106c-18 32 -27 66.333 -27 103c0 20 2.33301 38.333 7 55c12 44 39 66 81 66c14 0 27 -5.33301 39 -16
s18 -23.334 18 -38.001l-2 -12c-6.66699 -23.333 -10 -39 -10 -47c0 -56.667 37.333 -85 112 -85c90.667 0 148 44 172 132c11.333 44 39 66 83 66c36.667 0 55 -17 55 -51c0 -4.66699 -0.666992 -9.66699 -2 -15z" />
    <glyph glyph-name="Aogonek" unicode="&#x104;" 
d="M1069 80l-20 249.999h-494l-183 -298c-13.333 -21.333 -32 -32 -56 -32c-18 0 -33.5 6.5 -46.5 19.5s-19.5 28.5 -19.5 46.5c0 12.667 3.33301 24.334 10 35.001l727 1188c12.667 20.667 31.667 31 57 31c40.667 0 62.667 -20.333 66 -61l92 -1195
c0 -10 -3.66699 -22 -11 -36l-136 -258c-12 -22.667 -30.667 -34 -56 -34c-46 0 -69 21.667 -69 65c0 10.667 2.66699 21 8 31zM1039 461.999l-45 585l-358 -585h403z" />
    <glyph glyph-name="aogonek" unicode="&#x105;" 
d="M950 34l-139 -263.998c-12 -22.667 -30.667 -34 -56 -34c-46 0 -69 21.667 -69 65c0 10.667 2.66699 21 8 31l88 168h-249c-57.333 0 -106.333 20.667 -147 62s-61 90.666 -61 147.999c0 102 33.333 181.333 100 238c62.667 53.333 146 80 250 80h274l35 132
c4.66699 17.333 7 33.333 7 48c0 56 -36 84 -108 84h-257c-44 0 -66 22 -66 66s22 66 66 66h293c58.667 0 108 -20.333 148 -61s60 -90.334 60 -149.001c0 -18.667 -2.33301 -36.667 -7 -54l-164 -610c-0.666992 -4 -2.66699 -9.33301 -6 -16zM913 396.002
l-273 -0.000976562c-53.333 0 -96.5 -16.667 -129.5 -50s-49.5 -76.666 -49.5 -129.999c0 -56 36 -84 108 -84h273z" />
    <glyph glyph-name="Cacute" unicode="&#x106;" 
d="M806 132c44 0 66 -22.001 66 -66.001s-22 -66 -66 -66h-291c-94 0 -168 48.667 -222 146c-24.667 43.333 -37 87 -37 131c0 18 2.33301 35.667 7 53l176 660c58.667 220 202.334 330 431.001 330h254c44 0 66 -22 66 -66s-22 -66 -66 -66h-290
c-79.333 0 -147.333 -32.667 -204 -98c-26 -30 -44 -63.333 -54 -100l-177 -660c-4.66699 -17.333 -7 -33.666 -7 -48.999c0 -44.667 15.167 -80.667 45.5 -108s68.166 -41 113.499 -41h255zM1095 1839c10 6 21.667 9.00098 35 9.00098c44 0 66 -21.667 66 -65
c0 -25.333 -10.667 -44.333 -32 -57l-326 -198c-10.667 -6.66699 -22 -10 -34 -10c-17.333 0 -32.833 6.66699 -46.5 20s-20.5 28.666 -20.5 45.999c0 24.667 11 43.667 33 57z" />
    <glyph glyph-name="cacute" unicode="&#x107;" 
d="M1017 1443c10 6 21.667 9.00098 35 9.00098c44 0 66 -21.667 66 -65c0 -25.333 -10.667 -44.333 -32 -57l-326 -198c-10.667 -6.66699 -22 -10 -34 -10c-17.333 0 -32.833 6.66699 -46.5 20s-20.5 28.666 -20.5 45.999c0 24.667 11 43.667 33 57zM766 0.000976562
l-222.999 0.000976562c-57.333 0 -106.5 20.667 -147.5 62s-61.5 90.666 -61.5 147.999c0 18.667 2.33301 36.667 7 54l106 396c33.333 123.333 92.666 202.333 177.999 237c44.667 18 100 27 166 27h188c44 0 66 -22 66 -66s-22 -66 -66 -66h-223
c-92 0 -149.667 -44 -173 -132l-105 -396c-5.33301 -20 -8 -34 -8 -42c0 -60 36 -90 108 -90h188c44 0 66 -22 66 -66s-22 -66 -66 -66z" />
    <glyph glyph-name="Ccircumflex" unicode="&#x108;" 
d="M798 132c44 0 66 -22.001 66 -66.001s-22 -66 -66 -66h-291c-94 0 -168.333 48.667 -223 146c-24 43.333 -36 87 -36 131c0 18 2.33301 35.667 7 53l176 660c58 220 201.667 330 431 330h254c44 0 66 -22 66 -66s-22 -66 -66 -66h-290c-80 0 -148 -32.667 -204 -98
c-26.667 -30 -44.667 -63.333 -54 -100l-177 -660c-4.66699 -17.333 -7 -33.666 -7 -48.999c0 -44.667 15 -80.667 45 -108s68 -41 114 -41h255zM974 1692l-204 -157.999c-12.667 -9.33301 -26.334 -14 -41.001 -14c-44 0 -66 22.333 -66 67
c0 21.333 8.66699 38.666 26 51.999l257 198c10.667 8.66699 24.334 13 41.001 13c20.667 0 37.667 -8.33301 51 -25l153 -198c9.33301 -12 14 -25.667 14 -41c0 -18 -6.83301 -33.5 -20.5 -46.5s-29.167 -19.5 -46.5 -19.5c-20.667 0 -37.667 8.66699 -51 26z" />
    <glyph glyph-name="ccircumflex" unicode="&#x109;" 
d="M895 1294l-204 -157.999c-12 -9.33301 -25.667 -14 -41 -14c-44 0 -66 22.333 -66 67c0 21.333 8.66699 38.666 26 51.999l257 198c11.333 8.66699 25 13 41 13c21.333 0 38.333 -8.33301 51 -25l153 -198c9.33301 -12 14 -25.667 14 -41c0 -18 -6.66699 -33.5 -20 -46.5
s-29 -19.5 -47 -19.5c-20.667 0 -37.667 8.66699 -51 26zM758 0.000976562l-222.999 0.000976562c-57.333 0 -106.5 20.667 -147.5 62s-61.5 90.666 -61.5 147.999c0 18.667 2.33301 36.667 7 54l106 396c33.333 123.333 92.666 202.333 177.999 237
c44.667 18 100 27 166 27h188c44 0 66 -22 66 -66s-22 -66 -66 -66h-223c-92 0 -149.667 -44 -173 -132l-105 -396c-5.33301 -20 -8 -34 -8 -42c0 -60 36 -90 108 -90h188c44 0 66 -22 66 -66s-22 -66 -66 -66z" />
    <glyph glyph-name="Cdot" unicode="&#x10a;" 
d="M809 132c44 0 66 -22.001 66 -66.001s-22 -66 -66 -66h-291c-94 0 -168 48.667 -222 146c-24.667 43.333 -37 87 -37 131c0 18 2.33301 35.667 7 53l176 660c58.667 220 202.334 330 431.001 330h254c44 0 66 -22 66 -66s-22 -66 -66 -66h-290
c-79.333 0 -147.333 -32.667 -204 -98c-26 -30 -44 -63.333 -54 -100l-177 -660c-4.66699 -17.333 -7 -33.666 -7 -48.999c0 -44.667 15.167 -80.667 45.5 -108s68.166 -41 113.499 -41h255zM880 1602l18 65c9.33301 32.667 30.333 49 63 49c44 0 66 -21.667 66 -65
c0 -8 -0.666992 -14.333 -2 -19l-18 -65c-9.33301 -32.667 -30.333 -49 -63 -49c-44 0 -66 21.667 -66 65c0 8 0.666992 14.333 2 19z" />
    <glyph glyph-name="cdot" unicode="&#x10b;" 
d="M835 1206l18 65c8.66699 32.667 29.667 49 63 49c44 0 66 -21.667 66 -65c0 -8 -0.666992 -14.333 -2 -19l-18 -65c-9.33301 -32.667 -30.333 -49 -63 -49c-44 0 -66 21.667 -66 65c0 8 0.666992 14.333 2 19zM803 0l-222.999 0.000976562
c-57.333 0 -106.5 20.667 -147.5 62s-61.5 90.666 -61.5 147.999c0 18.667 2.33301 36.667 7 54l106 396c32.667 123.333 92 202.333 178 237c44.667 18 100 27 166 27h188c44 0 66 -22 66 -66s-22 -66 -66 -66h-223c-92.667 0 -150.334 -44 -173.001 -132l-105 -396
c-5.33301 -20 -8 -34 -8 -42c0 -60 36 -90 108 -90h188c44 0 66 -22 66 -66s-22 -66 -66 -66z" />
    <glyph glyph-name="Ccaron" unicode="&#x10c;" 
d="M771 132c44 0 66 -22.001 66 -66.001s-22 -66 -66 -66h-291c-94 0 -168 48.667 -222 146c-24.667 43.333 -37 87 -37 131c0 18 2.33301 35.667 7 53l176 660c58.667 220 202.334 330 431.001 330h254c44 0 66 -22 66 -66s-22 -66 -66 -66h-290
c-79.333 0 -147.333 -32.667 -204 -98c-26 -30 -44 -63.333 -54 -100l-177 -660c-4.66699 -17.333 -7 -33.666 -7 -48.999c0 -44.667 15.167 -80.667 45.5 -108s68.166 -41 113.499 -41h255zM920 1676l204 157.999c12 9.33301 25.667 14 41 14c44 0 66 -22.333 66 -67
c0 -21.333 -8.66699 -38.666 -26 -51.999l-257 -198c-11.333 -8.66699 -25 -13 -41 -13c-21.333 0 -38.333 8.33301 -51 25l-153 198c-9.33301 12 -14 25.667 -14 41c0 44 22.333 66 67 66c20.667 0 37.667 -8.66699 51 -26z" />
    <glyph glyph-name="ccaron" unicode="&#x10d;" 
d="M841 1280l204 157.999c12 9.33301 25.667 14 41 14c44 0 66 -22.333 66 -67c0 -21.333 -8.66699 -38.666 -26 -51.999l-257 -198c-11.333 -8.66699 -25 -13 -41 -13c-21.333 0 -38.333 8.33301 -51 25l-153 198c-9.33301 12 -14 25.667 -14 41c0 44 22.333 66 67 66
c20.667 0 37.667 -8.66699 51 -26zM732 -0.000976562l-222.999 0.000976562c-57.333 0 -106.5 20.667 -147.5 62s-61.5 90.666 -61.5 147.999c0 18.667 2.33301 36.667 7 54l106 396c33.333 123.333 92.666 202.333 177.999 237c44.667 18 100 27 166 27h188
c44 0 66 -22 66 -66s-22 -66 -66 -66h-223c-92 0 -149.667 -44 -173 -132l-105 -396c-5.33301 -20 -8 -34 -8 -42c0 -60 36 -90 108 -90h188c44 0 66 -22 66 -66s-22 -66 -66 -66z" />
    <glyph glyph-name="Dcaron" unicode="&#x10e;" 
d="M475 1254c11.333 44 40.335 65.998 87.002 65.998h410c51.333 0 99.666 -18.333 144.999 -55c42 -33.333 73.667 -75.666 95 -126.999s25.666 -100.666 12.999 -147.999l-177 -660c-38.667 -144 -117 -241.333 -235 -292c-58 -25.333 -123.333 -38 -196 -38h-410
c-19.333 0 -34 6.5 -44 19.5s-12.333 28.5 -7 46.5zM594.002 1188l-282.998 -1056h341c56.667 0 110.167 19.167 160.5 57.5s83.166 85.166 98.499 140.499l177 660c20 75.333 1 132.333 -57 171c-26.667 18 -58.334 27 -95.001 27h-342zM986.004 1676l204 157.999
c12 9.33301 25.667 14 41 14c44 0 66 -22.333 66 -67c0 -21.333 -8.66699 -38.666 -26 -51.999l-257 -198c-11.333 -8.66699 -25 -13 -41 -13c-21.333 0 -38.333 8.33301 -51 25l-153 198c-9.33301 12 -14 25.667 -14 41c0 44 22.333 66 67 66c20 0 37 -8.66699 51 -26z" />
    <glyph glyph-name="dcaron" unicode="&#x10f;" 
d="M644 0h-359.002c-44 -0 -84 12.833 -120 38.5s-61.5 59.167 -76.5 100.5s-16.833 83 -5.5 125l106 396c32.667 123.333 92 202.333 178 237c44.667 18 100 27 166 27h273l92 347c8.66699 32.667 30.334 49 65.001 49c43.333 0 65 -21.667 65 -65
c0 -8 -0.666992 -14.333 -2 -19l-318 -1186c-9.33301 -33.333 -30.666 -50 -63.999 -50zM497.998 792c-92 0 -149.667 -44 -173 -132l-106 -396c-4.66699 -18 -7 -34 -7 -48c0 -56 36 -84 108 -84h273l177 660h-272zM1169 1008l71 263c9.33301 32.667 30.333 49 63 49
c44 0 66 -21.667 66 -65c0 -8 -0.666992 -14.333 -2 -19l-71 -263c-8.66699 -32.667 -29.667 -49 -63 -49c-44 0 -66 21.667 -66 65c0 8 0.666992 14.333 2 19z" />
    <glyph glyph-name="Dslash" unicode="&#x110;" 
d="M355 594l-117.998 -0.00195312c-44 0 -66 22 -66 66s22 66 66 66h153l142 528c11.333 44 40.333 66 87 66h410c51.333 0 99.666 -18.333 144.999 -55c42 -33.333 73.667 -75.666 95 -126.999s25.666 -100.666 12.999 -147.999l-177 -660
c-38.667 -144 -117 -241.333 -235 -292c-58 -25.333 -123.333 -38 -196 -38h-410c-19.333 0 -34 6.5 -44 19.5s-12.333 28.5 -7 46.5zM492.002 593.998l-123.998 -461.999h341c56.667 0 110.167 19.167 160.5 57.5s83.166 85.166 98.499 140.499l177 660
c20 75.333 1 132.333 -57 171c-26.667 18 -58.334 27 -95.001 27h-342l-124 -462h120c44 0 66 -22 66 -66s-22 -66 -66 -66h-155z" />
    <glyph glyph-name="dcroat" unicode="&#x111;" 
d="M1047 1187l-306.001 -1137c-9.33301 -33.333 -30.666 -50 -63.999 -50h-359c-44.667 -0 -84.834 12.833 -120.501 38.5s-61 59.167 -76 100.5s-16.833 83 -5.5 125l106 396c25.333 95.333 65.333 163.333 120 204c52.667 40 127.334 60 224.001 60h275l70 263h-187
c-44 0 -66 22 -66 66s22 66 66 66h222l76 282c8.66699 32.667 29.667 49 63 49c44 0 66 -21.667 66 -65c0 -8 -0.666992 -14.333 -2 -19l-67 -247h189c44 0 66 -22 66 -66s-22 -66 -66 -66h-224zM530.999 792c-92.667 0 -150.333 -43.999 -173 -131.999l-105 -396
c-5.33301 -18.667 -8 -35.334 -8 -50.001c0.666992 -54.667 36.667 -82 108 -82h274l178 660h-274z" />
    <glyph glyph-name="Emacron" unicode="&#x112;" 
d="M795 660h-360l-141 -528h460c44 0 66 -22 66 -66s-22 -66 -66 -66h-564c-19.333 0 -34 6.5 -44 19.5s-12.333 28.5 -7 46.5l319 1188c11.333 44 40.333 66 87 66h527c44 0 66 -22 66 -66s-22 -66 -66 -66h-495l-106 -396h324c44 0 66 -22 66 -66s-22 -66 -66 -66z
M1248 1584h-683c-44 0 -66 22 -66 66s22 66 66 66h683c44 0 66 -22 66 -66s-22 -66 -66 -66z" />
    <glyph glyph-name="emacron" unicode="&#x113;" 
d="M857 594c7.33301 28.667 11 53 11 73c0 83.333 -54 125 -162 125c-136 0 -222 -66 -258 -198l-18 -66h410zM994 594l-53 -198h-546l-35 -132c-4.66699 -17.333 -7 -33.333 -7 -48c0 -56 35.667 -84 107 -84h324c44 0 66 -22 66 -66s-22 -66 -66 -66h-359
c-57.333 0 -106.5 20.667 -147.5 62s-61.5 90.666 -61.5 147.999c0 18.667 2.33301 36.667 7 54l88 330c31.333 118.667 80.333 203.334 147 254.001s161.334 76 284.001 76c117.333 0 197.666 -52.667 240.999 -158c13.333 -32.667 20 -66 20 -100
c0 -25.333 -3 -49.333 -9 -72zM1171 1188h-683c-44 0 -66 22 -66 66s22 66 66 66h683c44 0 66 -22 66 -66s-22 -66 -66 -66z" />
    <glyph glyph-name="Ebreve" unicode="&#x114;" 
d="M849 660h-360l-141 -528h460c44 0 66 -22 66 -66s-22 -66 -66 -66h-564c-18.667 0 -33 6.5 -43 19.5s-12.667 28.5 -8 46.5l319 1188c12 44 41 66 87 66h527c44 0 66 -22 66 -66s-22 -66 -66 -66h-495l-106 -396h324c44 0 66 -22 66 -66s-22 -66 -66 -66zM1257 1782
c-33.333 -124.667 -91.668 -203.666 -175.001 -236.999c-44.667 -18 -101 -27 -169 -27c-80.667 0 -141 35.333 -181 106c-18.667 32 -28 66.333 -28 103c0 20 2.33301 38.333 7 55c12 44 39 66 81 66c14.667 0 27.834 -5.33301 39.501 -16s17.5 -23.334 17.5 -38.001
c0 -4 -0.666992 -8 -2 -12c-6.66699 -23.333 -10 -39 -10 -47c0 -56.667 37.333 -85 112 -85c90.667 0 148 44 172 132c12 44 39.667 66 83 66c36.667 0 55 -17 55 -51c0 -4.66699 -0.666992 -9.66699 -2 -15z" />
    <glyph glyph-name="ebreve" unicode="&#x115;" 
d="M896 594c7.33301 28.667 11 53 11 73c0 83.333 -54 125 -162 125c-136 0 -222 -66 -258 -198l-18 -66h410zM1033 594l-53.001 -198h-546l-35 -132c-4.66699 -17.333 -7 -33.333 -7 -48c0 -56 35.667 -84 107 -84h324c44 0 66 -22 66 -66s-22 -66 -66 -66h-359
c-57.333 0 -106.5 20.667 -147.5 62s-61.5 90.666 -61.5 147.999c0 18.667 2.33301 36.667 7 54l88 330c31.333 118.667 80.333 203.334 147 254.001s161.334 76 284.001 76c118 0 198.333 -52.667 241 -158c13.333 -32.667 20 -66 20 -100c0 -25.333 -3 -49.333 -9 -72z
M1195 1452c-33.333 -124.667 -91.668 -203.666 -175.001 -236.999c-44.667 -18 -101 -27 -169 -27c-80.667 0 -141 35.333 -181 106c-18.667 32 -28 66.333 -28 103c0 20 2.33301 38.333 7 55c12 44 39 66 81 66c14.667 0 27.834 -5.33301 39.501 -16
s17.5 -23.334 17.5 -38.001c0 -4 -0.666992 -8 -2 -12c-6.66699 -23.333 -10 -39 -10 -47c0 -56.667 37.333 -85 112 -85c90.667 0 148 44 172 132c12 44 39.667 66 83 66c36.667 0 55 -17 55 -51c0 -4.66699 -0.666992 -9.66699 -2 -15z" />
    <glyph glyph-name="Edot" unicode="&#x116;" 
d="M883 660h-360l-141 -528h460c44 0 66 -22 66 -66s-22 -66 -66 -66h-564c-19.333 0 -34 6.5 -44 19.5s-12.333 28.5 -7 46.5l319 1188c11.333 44 40.333 66 87 66h527c44 0 66 -22 66 -66s-22 -66 -66 -66h-495l-106 -396h324c44 0 66 -22 66 -66s-22 -66 -66 -66z
M913 1602l18 65c8.66699 32.667 29.667 49 63 49c44 0 66 -21.667 66 -65c0 -8 -0.666992 -14.333 -2 -19l-18 -65c-9.33301 -32.667 -30.333 -49 -63 -49c-44 0 -66 21.667 -66 65c0 8 0.666992 14.333 2 19z" />
    <glyph glyph-name="edot" unicode="&#x117;" 
d="M974 594c7.33301 28.667 11 53 11 73c0 83.333 -54 125 -162 125c-136 0 -222 -66 -258 -198l-18 -66h410zM1111 594l-53 -198h-546l-35 -132c-4.66699 -17.333 -7 -33.333 -7 -48c0 -56 35.667 -84 107 -84h324c44 0 66 -22 66 -66s-22 -66 -66 -66h-359
c-57.333 0 -106.5 20.667 -147.5 62s-61.5 90.666 -61.5 147.999c0 18.667 2.33301 36.667 7 54l88 330c31.333 118.667 80.333 203.334 147 254.001s161.334 76 284.001 76c117.333 0 197.666 -52.667 240.999 -158c13.333 -32.667 20 -66 20 -100
c0 -25.333 -3 -49.333 -9 -72zM865 1206l18 65c8.66699 32.667 29.667 49 63 49c44 0 66 -21.667 66 -65c0 -8 -0.666992 -14.333 -2 -19l-18 -65c-9.33301 -32.667 -30.333 -49 -63 -49c-44 0 -66 21.667 -66 65c0 8 0.666992 14.333 2 19z" />
    <glyph glyph-name="Eogonek" unicode="&#x118;" 
d="M732 0h-454c-19.333 0 -34 6.5 -44 19.5s-12.333 28.5 -7 46.5l319 1188c11.333 44 40.333 66 87 66h527c44 0 66 -22 66 -66s-22 -66 -66 -66h-495l-106 -396h324c44 0 66 -22 66 -66s-22 -66 -66 -66h-360l-141 -528h460c44 0 66 -22 66 -66
c0 -11.333 -2.66699 -22 -8 -32l-139 -264c-12 -22.667 -30.667 -34 -56 -34c-46 0 -69 21.667 -69 65c0 10.667 2.66699 21 8 31z" />
    <glyph glyph-name="eogonek" unicode="&#x119;" 
d="M974 594c7.33301 28.667 11 53 11 73c0 83.333 -54 125 -162 125c-136 0 -222 -66 -258 -198l-18 -66h410zM791 0h-249c-57.333 0 -106.5 20.667 -147.5 62s-61.5 90.666 -61.5 147.999c0 18.667 2.33301 36.667 7 54l88 330c31.333 118.667 80.333 203.334 147 254.001
s161.334 76 284.001 76c117.333 0 197.666 -52.667 240.999 -158c13.333 -32.667 20 -66 20 -100c0 -25.333 -3 -49.333 -9 -72l-53 -198h-546l-35 -132c-4.66699 -17.333 -7 -33.333 -7 -48c0 -56 35.667 -84 107 -84h324c44 0 66 -22 66 -66
c0 -11.333 -2.66699 -22 -8 -32l-139 -264c-12 -22.667 -30.667 -34 -56 -34c-46 0 -69 21.667 -69 65c0 10.667 2.66699 21 8 31z" />
    <glyph glyph-name="Ecaron" unicode="&#x11a;" 
d="M846 660h-360l-141 -528h460c44 0 66 -22 66 -66s-22 -66 -66 -66h-564c-19.333 0 -34 6.5 -44 19.5s-12.333 28.5 -7 46.5l319 1188c11.333 44 40.333 66 87 66h527c44 0 66 -22 66 -66s-22 -66 -66 -66h-495l-106 -396h324c44 0 66 -22 66 -66s-22 -66 -66 -66z
M952 1676l204 157.999c12 9.33301 25.667 14 41 14c44 0 66 -22.333 66 -67c0 -21.333 -8.66699 -38.666 -26 -51.999l-257 -198c-11.333 -8.66699 -25 -13 -41 -13c-21.333 0 -38.333 8.33301 -51 25l-153 198c-9.33301 12 -14 25.667 -14 41c0 44 22.333 66 67 66
c20 0 37 -8.66699 51 -26z" />
    <glyph glyph-name="ecaron" unicode="&#x11b;" 
d="M907 594c7.33301 28.667 11 53 11 73c0 83.333 -54 125 -162 125c-136 0 -222 -66 -258 -198l-18 -66h410zM1044 594l-53.001 -198h-546l-35 -132c-4.66699 -17.333 -7 -33.333 -7 -48c0 -56 35.667 -84 107 -84h324c44 0 66 -22 66 -66s-22 -66 -66 -66h-359
c-57.333 0 -106.5 20.667 -147.5 62s-61.5 90.666 -61.5 147.999c0 18.667 2.33301 36.667 7 54l88 330c31.333 118.667 80.333 203.334 147 254.001s161.334 76 284.001 76c118 0 198.333 -52.667 241 -158c13.333 -32.667 20 -66 20 -100c0 -25.333 -3 -49.333 -9 -72z
M874.999 1280l204 157.999c12 9.33301 25.667 14 41 14c44 0 66 -22.333 66 -67c0 -21.333 -8.66699 -38.666 -26 -51.999l-257 -198c-11.333 -8.66699 -25 -13 -41 -13c-21.333 0 -38.333 8.33301 -51 25l-153 198c-9.33301 12 -14 25.667 -14 41c0 44 22.333 66 67 66
c20.667 0 37.667 -8.66699 51 -26z" />
    <glyph glyph-name="Gcircumflex" unicode="&#x11c;" 
d="M983 1690l-204 -157.999c-12 -9.33301 -25.667 -14 -41 -14c-44 0 -66 22.333 -66 67c0 21.333 8.66699 38.666 26 51.999l257 198c11.333 8.66699 25 13 41 13c21.333 0 38.333 -8.33301 51 -25l153 -198c9.33301 -12 14 -25.667 14 -41c0 -18 -6.66699 -33.5 -20 -46.5
s-29 -19.5 -47 -19.5c-20.667 0 -37.667 8.66699 -51 26zM1196 1188l-427.999 -0.00195312c-80 0 -147.667 -32.667 -203 -98c-26.667 -31.333 -44.667 -64.666 -54 -99.999l-178 -660c-4.66699 -17.333 -7 -33.666 -7 -48.999c0 -44.667 15.167 -80.667 45.5 -108
s68.166 -41 113.499 -41h342l142 528h-121c-44 0 -66 22 -66 66s22 66 66 66h224c34.667 0 52 -16 52 -48c0 -9.33301 -0.333008 -15.333 -1 -18l-177 -660c-12 -44 -41 -66 -87 -66h-410c-92.667 0 -166.667 48.333 -222 145c-24.667 42.667 -37 86 -37 130
c0 19.333 2.33301 37.666 7 54.999l177 660c38.667 144.667 117 242.334 235 293.001c58 24.667 123 37 195 37h392c44 0 66 -22 66 -66s-22 -66 -66 -66z" />
    <glyph glyph-name="gcircumflex" unicode="&#x11d;" 
d="M1114 924c44 0 66.001 -21.999 66.001 -65.999c0 -6.66699 -0.666992 -12.334 -2 -17.001l-261 -973c-33.333 -123.333 -93 -202.333 -179 -237c-44.667 -18 -100 -27 -166 -27h-255c-44 0 -66 22 -66 66s22 66 66 66h290c92 0 149.667 44 173 132l35 132h-273
c-44 -0 -84 12.833 -120 38.5s-61.5 59.167 -76.5 100.5s-16.833 83 -5.5 125l106 395c33.333 124 92.666 203.333 177.999 238c44 18 99.333 27 166 27h324zM1028 792.001h-273c-92 0 -149.667 -44 -173 -132l-105 -396c-4.66699 -18 -7 -34.333 -7 -49
c0 -55.333 35.667 -83 107 -83h273zM970.001 1294l-204 -157.999c-12 -9.33301 -25.667 -14 -41 -14c-44 0 -66 22.333 -66 67c0 21.333 8.66699 38.666 26 51.999l257 198c11.333 8.66699 25 13 41 13c21.333 0 38.333 -8.33301 51 -25l153 -198
c9.33301 -12 14 -25.667 14 -41c0 -18 -6.66699 -33.5 -20 -46.5s-29 -19.5 -47 -19.5c-20.667 0 -37.667 8.66699 -51 26z" />
    <glyph glyph-name="Gbreve" unicode="&#x11e;" 
d="M1265 1782c-33.333 -124.667 -91.999 -203.666 -175.999 -236.999c-44.667 -18 -100.667 -27 -168 -27c-80.667 0 -141.334 35.333 -182.001 106c-18 32 -27 66.333 -27 103c0 20 2.33301 38.333 7 55c12 44 39 66 81 66c14 0 27 -5.33301 39 -16s18 -23.334 18 -38.001
l-2 -12c-6.66699 -23.333 -10 -39 -10 -47c0 -56.667 37.333 -85 112 -85c90.667 0 148 44 172 132c11.333 44 39 66 83 66c36.667 0 55 -17 55 -51c0 -4.66699 -0.666992 -9.66699 -2 -15zM1192 1188l-428 -0.00195312c-80.667 0 -148.667 -32.667 -204 -98
c-26 -31.333 -43.667 -64.666 -53 -99.999l-178 -660c-4.66699 -17.333 -7 -33.666 -7 -48.999c0 -44.667 15 -80.667 45 -108s68 -41 114 -41h342l142 528h-121c-44 0 -66 22 -66 66s22 66 66 66h224c34.667 0 52 -16 52 -48c0 -9.33301 -0.333008 -15.333 -1 -18
l-177 -660c-12 -44 -41 -66 -87 -66h-410c-93.333 0 -167.333 48.333 -222 145c-24.667 42.667 -37 86 -37 130c0 19.333 2.33301 37.666 7 54.999l177 660c38.667 144.667 116.667 242.334 234 293.001c58.667 24.667 124 37 196 37h392c44 0 66 -22 66 -66
s-22 -66 -66 -66z" />
    <glyph glyph-name="gbreve" unicode="&#x11f;" 
d="M1077 924c44 0 66.001 -21.999 66.001 -65.999c0 -6.66699 -0.666992 -12.334 -2 -17.001l-261 -973c-33.333 -123.333 -93 -202.333 -179 -237c-44.667 -18 -100 -27 -166 -27h-255c-44 0 -66 22 -66 66s22 66 66 66h290c92 0 149.667 44 173 132l35 132h-273
c-44 -0 -84 12.833 -120 38.5s-61.5 59.167 -76.5 100.5s-16.833 83 -5.5 125l106 395c33.333 124 92.666 203.333 177.999 238c44 18 99.333 27 166 27h324zM991.001 792.001h-273c-92 0 -149.667 -44 -173 -132l-105 -396c-4.66699 -18 -7 -34.333 -7 -49
c0 -55.333 35.667 -83 107 -83h273zM1236 1452c-33.333 -124.667 -91.668 -203.666 -175.001 -236.999c-44.667 -18 -101 -27 -169 -27c-80.667 0 -141 35.333 -181 106c-18.667 32 -28 66.333 -28 103c0 20 2.33301 38.333 7 55c12 44 39 66 81 66
c14.667 0 27.834 -5.33301 39.501 -16s17.5 -23.334 17.5 -38.001c0 -4 -0.666992 -8 -2 -12c-6.66699 -23.333 -10 -39 -10 -47c0 -56.667 37.333 -85 112 -85c90.667 0 148 44 172 132c12 44 39.667 66 83 66c36.667 0 55 -17 55 -51
c0 -4.66699 -0.666992 -9.66699 -2 -15z" />
    <glyph glyph-name="Gdot" unicode="&#x120;" 
d="M880 1602l18 65c9.33301 32.667 30.333 49 63 49c44 0 66 -21.667 66 -65c0 -8 -0.666992 -14.333 -2 -19l-18 -65c-9.33301 -32.667 -30.333 -49 -63 -49c-44 0 -66 21.667 -66 65c0 8 0.666992 14.333 2 19zM1196 1188l-427.999 -0.00195312
c-80 0 -147.667 -32.667 -203 -98c-26.667 -31.333 -44.667 -64.666 -54 -99.999l-178 -660c-4.66699 -17.333 -7 -33.666 -7 -48.999c0 -44.667 15.167 -80.667 45.5 -108s68.166 -41 113.499 -41h342l142 528h-121c-44 0 -66 22 -66 66s22 66 66 66h224
c34.667 0 52 -16 52 -48c0 -9.33301 -0.333008 -15.333 -1 -18l-177 -660c-12 -44 -41 -66 -87 -66h-410c-92.667 -0 -166.667 48.333 -222 145c-24.667 42.667 -37 86 -37 130c0 19.333 2.33301 37.666 7 54.999l177 660c38.667 144.667 117 242.334 235 293.001
c58 24.667 123 37 195 37h392c44 0 66 -22 66 -66s-22 -66 -66 -66z" />
    <glyph glyph-name="gdot" unicode="&#x121;" 
d="M1125 924c44 0 65.999 -21.999 65.999 -65.999c0 -6.66699 -0.666992 -12.334 -2 -17.001l-261 -973c-33.333 -123.333 -93 -202.333 -179 -237c-45.333 -18 -100.666 -27 -165.999 -27h-255c-44 0 -66 22 -66 66s22 66 66 66h290c92 0 149.667 44 173 132l35 132h-273
c-44.667 -0 -84.834 12.833 -120.501 38.5s-61 59.167 -76 100.5s-16.833 83 -5.5 125l106 395c32.667 124 91.667 203.333 177 238c44.667 18 100.334 27 167.001 27h324zM1039 792.001h-272.999c-92.667 0 -150.334 -44 -173.001 -132l-105 -396
c-5.33301 -18 -8 -34.333 -8 -49c0 -55.333 36 -83 108 -83h273zM876 1206l18 65c8.66699 32.667 29.667 49 63 49c44 0 66 -21.667 66 -65c0 -8 -0.666992 -14.333 -2 -19l-18 -65c-9.33301 -32.667 -30.333 -49 -63 -49c-44 0 -66 21.667 -66 65c0 8 0.666992 14.333 2 19
z" />
    <glyph glyph-name="Gcedilla" unicode="&#x122;" 
d="M646 0l-120.999 -230.002c-12 -22.667 -30.667 -34 -56 -34c-46 0 -69 21.667 -69 65c0 10.667 2.66699 21 8 31l88 168h-47c-92.667 0 -166.667 48.333 -222 145c-24.667 42.667 -37 86 -37 130c0 19.333 2.33301 37.666 7 54.999l177 660
c38.667 144.667 117 242.334 235 293.001c58 24.667 123 37 195 37h392c44 0 66 -22 66 -66s-22 -66 -66 -66h-428c-80 0 -147.667 -32.667 -203 -98c-26.667 -31.333 -44.667 -64.666 -54 -99.999l-178 -660c-4.66699 -17.333 -7 -33.666 -7 -48.999
c0 -44.667 15.167 -80.667 45.5 -108s68.166 -41 113.499 -41h341l142 528h-120c-44 0 -66 22 -66 66s22 66 66 66h224c34.667 0 52 -16 52 -48c0 -7.33301 -0.666992 -13.333 -2 -18l-177 -660c-12 -44 -40.667 -66 -86 -66h-213z" />
    <glyph glyph-name="gcedilla" unicode="&#x123;" 
d="M1125 924c44 0 65.999 -21.999 65.999 -65.999c0 -6.66699 -0.666992 -12.334 -2 -17.001l-261 -973c-33.333 -123.333 -93 -202.333 -179 -237c-45.333 -18 -100.666 -27 -165.999 -27h-255c-44 0 -66 22 -66 66s22 66 66 66h290c92 0 149.667 44 173 132l35 132h-273
c-44.667 -0 -84.834 12.833 -120.501 38.5s-61 59.167 -76 100.5s-16.833 83 -5.5 125l106 395c32.667 124 91.667 203.333 177 238c44.667 18 100.334 27 167.001 27h324zM1039 792.001h-272.999c-92.667 0 -150.334 -44 -173.001 -132l-105 -396
c-5.33301 -18 -8 -34.333 -8 -49c0 -55.333 36 -83 108 -83h273zM1021 1482c12 24 31 36 57 36c18 0 33.833 -6.5 47.5 -19.5s20.5 -28.833 20.5 -47.5c0 -10.667 -2.66699 -21 -8 -31l-139 -264c-12 -22.667 -30.667 -34 -56 -34c-46 0 -69 21.667 -69 65
c0 10.667 2.66699 21 8 31z" />
    <glyph glyph-name="Hcircumflex" unicode="&#x124;" 
d="M1291 1236l-318 -1187c-8.66699 -32.667 -29.667 -49 -63 -49c-16.667 0 -32 6.5 -46 19.5s-21 27.833 -21 44.5c0 6 1 12.667 3 20l154 576h-547l-164 -611c-8.66699 -32.667 -29.667 -49 -63 -49c-16.667 0 -32 6.5 -46 19.5s-21 27.833 -21 44.5c0 6 1 12.667 3 20
l319 1187c8.66699 32.667 29.667 49 63 49c44 0 66 -21.667 66 -65c0 -7.33301 -0.666992 -13.666 -2 -18.999l-118 -444h546l128 479c8.66699 32.667 29.667 49 63 49c44 0 66 -21.667 66 -65c0 -8 -0.666992 -14.333 -2 -19zM1014 1690l-204 -157.999
c-12 -9.33301 -25.667 -14 -41 -14c-44 0 -66 22.333 -66 67c0 21.333 8.66699 38.666 26 51.999l257 198c11.333 8.66699 25 13 41 13c21.333 0 38.333 -8.33301 51 -25l153 -198c9.33301 -12 14 -25.667 14 -41c0 -18 -6.66699 -33.5 -20 -46.5s-29 -19.5 -47 -19.5
c-20.667 0 -37.667 8.66699 -51 26z" />
    <glyph glyph-name="hcircumflex" unicode="&#x125;" 
d="M538 1269c8.66699 32.667 29.667 48.999 63 48.999c44 0 66 -21.667 66 -65c0 -7.33301 -0.666992 -13.666 -2 -18.999l-83 -312h273c44 0 84 -12.667 120 -38s61.667 -58.333 77 -99s17 -83 5 -127l-165 -611c-8.66699 -32.667 -29.667 -49 -63 -49
c-16.667 0 -32 6.5 -46 19.5s-21 27.833 -21 44.5c0 6 1 12.667 3 20l155 576c4.66699 18 7 34.333 7 49c0 55.333 -35.667 83 -107 83h-274l-200 -743c-8.66699 -32.667 -29.667 -49 -63 -49c-16.667 0 -32 6.5 -46 19.5s-21 27.833 -21 44.5c0 6 1 12.667 3 20zM1005 1690
l-204 -157.999c-12 -9.33301 -25.667 -14 -41 -14c-44 0 -66 22.333 -66 67c0 21.333 8.66699 38.666 26 51.999l257 198c11.333 8.66699 25 13 41 13c21.333 0 38.333 -8.33301 51 -25l153 -198c9.33301 -12 14 -25.667 14 -41c0 -18 -6.66699 -33.5 -20 -46.5
s-29 -19.5 -47 -19.5c-20.667 0 -37.667 8.66699 -51 26z" />
    <glyph glyph-name="Hbar" unicode="&#x126;" 
d="M356 1188l-119 -0.000976562c-44 0 -66 22 -66 66s22 66 66 66h155l75 281c8.66699 32.667 29.667 49 63 49c44 0 66 -21.667 66 -65c0 -7.33301 -0.666992 -13.666 -2 -18.999l-65 -246h546l75 281c8.66699 32.667 29.667 49 63 49c44 0 66 -21.667 66 -65
c0 -8 -0.666992 -14.333 -2 -19l-66 -246h119c44 0 66 -22 66 -66s-22 -66 -66 -66h-154l-305 -1139c-9.33301 -32.667 -30.333 -49 -63 -49c-17.333 0 -32.833 6.5 -46.5 19.5s-20.5 27.833 -20.5 44.5c0 6 1 12.667 3 20l154 576h-547l-164 -611
c-9.33301 -32.667 -30.333 -49 -63 -49c-17.333 0 -32.833 6.5 -46.5 19.5s-20.5 27.833 -20.5 44.5c0 6 1 12.667 3 20zM493 1188l-105 -396h546l106 396h-547z" />
    <glyph glyph-name="hbar" unicode="&#x127;" 
d="M743 1188l-71 -264h273c43.333 0 83 -12.667 119 -38s61.667 -58.333 77 -99s17.333 -83 6 -127l-165 -611c-9.33301 -32.667 -30.333 -49 -63 -49c-17.333 0 -32.833 6.5 -46.5 19.5s-20.5 27.833 -20.5 44.5c0 6 1 12.667 3 20l155 576c4.66699 18 7 34.333 7 49
c0 55.333 -35.667 83 -107 83h-274l-200 -743c-9.33301 -32.667 -30.333 -49 -63 -49c-17.333 0 -32.833 6.5 -46.5 19.5s-20.5 27.833 -20.5 44.5c0 6 1 12.667 3 20l297 1104h-119c-44 0 -66 22 -66 66s22 66 66 66h154l76 281c8.66699 32.667 29.667 49 63 49
c44 0 66 -21.667 66 -65c0 -8 -0.666992 -14.333 -2 -19l-66 -246h119c44 0 66 -22 66 -66s-22 -66 -66 -66h-154z" />
    <glyph glyph-name="Itilde" unicode="&#x128;" 
d="M752 1236l-319 -1187c-9.33301 -32.667 -30.333 -49 -63 -49c-17.333 0 -32.833 6.5 -46.5 19.5s-20.5 27.833 -20.5 44.5c0 6 1 12.667 3 20l319 1187c8.66699 32.667 29.667 49 63 49c44 0 66 -21.667 66 -65c0 -8 -0.666992 -14.333 -2 -19zM1124 1664
l-55.001 -39.999c-36.667 -26.667 -77.667 -40 -123 -40c-44.667 0 -85.334 13.333 -122.001 40l-110 79c-12.667 8.66699 -26 13 -40 13c-14.667 0 -28 -4.33301 -40 -13l-57 -41c-11.333 -8 -24.333 -12 -39 -12c-18 0 -33.833 6.66699 -47.5 20
s-20.5 28.666 -20.5 45.999c0 22 9.33301 39.667 28 53l57 41c34.667 25.333 74.334 38 119.001 38c44 0 85.667 -14 125 -42l109 -78c10.667 -8 23.334 -12 38.001 -12s27.667 4 39 12l58 41c12 8.66699 25 13 39 13c45.333 0 68 -22 68 -66
c0 -22 -8.66699 -39.333 -26 -52z" />
    <glyph glyph-name="itilde" unicode="&#x129;" 
d="M579 875c8.66699 32.667 29.667 49 63 49c44 0 66 -21.667 66 -65c0 -8 -0.666992 -14.333 -2 -19l-212 -791c-8.66699 -32.667 -29.667 -49 -63 -49c-16.667 0 -32 6.5 -46 19.5s-21 27.833 -21 44.5c0 6 1 12.667 3 20zM1062 1202l-55 -39.999
c-36.667 -26.667 -77.667 -40 -123 -40c-44 0 -84.667 13.333 -122 40l-110 79c-12 8.66699 -25.333 13 -40 13s-28 -4.33301 -40 -13l-57 -41c-11.333 -8 -24.333 -12 -39 -12c-17.333 0 -33 6.66699 -47 20s-21 28.666 -21 45.999c0 22 9.33301 39.667 28 53l57 41
c35.333 25.333 75 38 119 38s85.667 -14 125 -42l109 -78c11.333 -8 24 -12 38 -12c14.667 0 27.667 4 39 12l58 41c12 8.66699 25 13 39 13c45.333 0 68 -22 68 -66c0 -22 -8.66699 -39.333 -26 -52z" />
    <glyph glyph-name="Imacron" unicode="&#x12a;" 
d="M726 1236l-319 -1187c-8.66699 -32.667 -29.667 -49 -63 -49c-16.667 0 -32 6.5 -46 19.5s-21 27.833 -21 44.5c0 6 1 12.667 3 20l319 1187c8.66699 32.667 29.667 49 63 49c44 0 66 -21.667 66 -65c0 -8 -0.666992 -14.333 -2 -19zM1109 1584h-683c-44 0 -66 22 -66 66
s22 66 66 66h683c44 0 66 -22 66 -66s-22 -66 -66 -66z" />
    <glyph glyph-name="imacron" unicode="&#x12b;" 
d="M557 875c8.66699 32.667 29.667 49 63 49c44 0 66 -21.667 66 -65c0 -8 -0.666992 -14.333 -2 -19l-212 -791c-9.33301 -32.667 -30.333 -49 -63 -49c-17.333 0 -32.833 6.5 -46.5 19.5s-20.5 27.833 -20.5 44.5c0 6 1 12.667 3 20zM1068 1188h-683c-44 0 -66 22 -66 66
s22 66 66 66h683c44 0 66 -22 66 -66s-22 -66 -66 -66z" />
    <glyph glyph-name="Ibreve" unicode="&#x12c;" 
d="M775 1236l-319 -1187c-9.33301 -32.667 -30.333 -49 -63 -49c-17.333 0 -32.833 6.5 -46.5 19.5s-20.5 27.833 -20.5 44.5c0 6 1 12.667 3 20l319 1187c8.66699 32.667 29.667 49 63 49c44 0 66 -21.667 66 -65c0 -8 -0.666992 -14.333 -2 -19zM1125 1782
c-33.333 -124.667 -91.999 -203.666 -175.999 -236.999c-44.667 -18 -100.667 -27 -168 -27c-80.667 0 -141.334 35.333 -182.001 106c-18 32 -27 66.333 -27 103c0 20 2.33301 38.333 7 55c12 44 39 66 81 66c14 0 27 -5.33301 39 -16s18 -23.334 18 -38.001l-2 -12
c-6.66699 -23.333 -10 -39 -10 -47c0 -56.667 37.333 -85 112 -85c90.667 0 148 44 172 132c11.333 44 39 66 83 66c36.667 0 55 -17 55 -51c0 -4.66699 -0.666992 -9.66699 -2 -15z" />
    <glyph glyph-name="ibreve" unicode="&#x12d;" 
d="M585 875c8.66699 32.667 29.667 49 63 49c44 0 66 -21.667 66 -65c0 -8 -0.666992 -14.333 -2 -19l-212 -791c-9.33301 -32.667 -30.333 -49 -63 -49c-17.333 0 -32.833 6.5 -46.5 19.5s-20.5 27.833 -20.5 44.5c0 6 1 12.667 3 20zM1081 1452
c-33.333 -124.667 -91.999 -203.666 -175.999 -236.999c-44.667 -18 -100.667 -27 -168 -27c-80.667 0 -141.334 35.333 -182.001 106c-18 32 -27 66.333 -27 103c0 20 2.33301 38.333 7 55c12 44 39 66 81 66c14 0 27 -5.33301 39 -16s18 -23.334 18 -38.001l-2 -12
c-6.66699 -23.333 -10 -39 -10 -47c0 -56.667 37.333 -85 112 -85c90.667 0 148 44 172 132c11.333 44 39 66 83 66c36.667 0 55 -17 55 -51c0 -4.66699 -0.666992 -9.66699 -2 -15z" />
    <glyph glyph-name="Iogonek" unicode="&#x12e;" 
d="M576 93l317 1178c8.66699 32.667 29.667 49 63 49c44 0 66 -21.667 66 -65c0 -8 -0.666992 -14.333 -2 -19l-319 -1187c-1.33301 -4.66699 -3.33301 -9.66699 -6 -15l-139 -264c-12 -22.667 -30.667 -34 -56 -34c-46 0 -69 21.667 -69 65c0 10.667 2.66699 21 8 31z" />
    <glyph glyph-name="iogonek" unicode="&#x12f;" 
d="M695 34l-139 -264c-12 -22.667 -30.667 -34 -56 -34c-46 0 -69 21.667 -69 65c0 10.667 2.66699 21 8 31l137 261l210 782c8.66699 32.667 29.667 49 63 49c44 0 66 -21.667 66 -65c0 -8 -0.666992 -14.333 -2 -19l-212 -791c-1.33301 -4.66699 -3.33301 -9.66699 -6 -15
zM875 1206l18 65c8.66699 32.667 29.667 49 63 49c44 0 66 -21.667 66 -65c0 -8 -0.666992 -14.333 -2 -19l-18 -65c-9.33301 -32.667 -30.333 -49 -63 -49c-44 0 -66 21.667 -66 65c0 8 0.666992 14.333 2 19z" />
    <glyph glyph-name="Idotaccent" unicode="&#x130;" 
d="M897 1236l-319 -1187c-9.33301 -32.667 -30.333 -49 -63 -49c-17.333 0 -32.833 6.5 -46.5 19.5s-20.5 27.833 -20.5 44.5c0 6 1 12.667 3 20l319 1187c8.66699 32.667 29.667 49 63 49c44 0 66 -21.667 66 -65c0 -8 -0.666992 -14.333 -2 -19zM858 1602l18 65
c8.66699 32.667 29.667 49 63 49c44 0 66 -21.667 66 -65c0 -8 -0.666992 -14.333 -2 -19l-18 -65c-9.33301 -32.667 -30.333 -49 -63 -49c-44 0 -66 21.667 -66 65c0 8 0.666992 14.333 2 19z" />
    <glyph glyph-name="dotlessi" unicode="&#x131;" 
d="M769 875c8.66699 32.667 29.667 49 63 49c44 0 66 -21.667 66 -65c0 -8 -0.666992 -14.333 -2 -19l-212 -791c-8.66699 -32.667 -29.667 -49 -63 -49c-16.667 0 -32 6.5 -46 19.5s-21 27.833 -21 44.5c0 6 1 12.667 3 20z" />
    <glyph glyph-name="IJ" unicode="&#x132;" 
d="M608 1236l-319 -1187c-9.33301 -32.667 -30.333 -49 -63 -49c-17.333 0 -32.833 6.5 -46.5 19.5s-20.5 27.833 -20.5 44.5c0 6 1 12.667 3 20l319 1187c8.66699 32.667 29.667 49 63 49c44 0 66 -21.667 66 -65c0 -8 -0.666992 -14.333 -2 -19zM500 132
l153.999 0.000976562c57.333 0 111 19.167 161 57.5s82.667 85.166 98 140.499l252 941c8.66699 32.667 29.667 49 63 49c44 0 66 -21.667 66 -65c0 -8 -0.666992 -14.333 -2 -19l-243 -906c-59.333 -220 -202.666 -330 -429.999 -330h-119c-44 0 -66 22 -66 66s22 66 66 66
z" />
    <glyph glyph-name="ij" unicode="&#x133;" 
d="M377 -264h86c90.667 0 148 44 172 132l271 1007c8.66699 32.667 29.667 49 63 49c44 0 66 -21.667 66 -65c0 -8 -0.666992 -14.333 -2 -19l-261 -972c-33.333 -123.333 -93 -202.333 -179 -237c-44.667 -18 -100 -27 -166 -27h-50c-44 0 -66 22 -66 66s22 66 66 66z
M994 1206l18 65c9.33301 32.667 30.333 49 63 49c44 0 66 -21.667 66 -65c0 -8 -0.666992 -14.333 -2 -19l-18 -65c-9.33301 -32.667 -30.333 -49 -63 -49c-44 0 -66 21.667 -66 65c0 8 0.666992 14.333 2 19zM563 875c8.66699 32.667 29.667 49 63 49
c44 0 66 -21.667 66 -65c0 -8 -0.666992 -14.333 -2 -19l-212 -791c-8.66699 -32.667 -29.667 -49 -63 -49c-16.667 0 -32 6.5 -46 19.5s-21 27.833 -21 44.5c0 6 1 12.667 3 20zM652 1206l18 65c9.33301 32.667 30.333 49 63 49c44 0 66 -21.667 66 -65
c0 -8 -0.666992 -14.333 -2 -19l-18 -65c-9.33301 -32.667 -30.333 -49 -63 -49c-44 0 -66 21.667 -66 65c0 8 0.666992 14.333 2 19z" />
    <glyph glyph-name="Jcircumflex" unicode="&#x134;" 
d="M216 132l153.999 0.000976562c57.333 0 111 19.167 161 57.5s82.667 85.166 98 140.499l252 941c8.66699 32.667 29.667 49 63 49c44 0 66 -21.667 66 -65c0 -8 -0.666992 -14.333 -2 -19l-243 -906c-59.333 -220 -202.666 -330 -429.999 -330h-119c-44 0 -66 22 -66 66
s22 66 66 66zM1072 1690l-204 -157.999c-12.667 -9.33301 -26.334 -14 -41.001 -14c-44 0 -66 22.333 -66 67c0 21.333 8.66699 38.666 26 51.999l257 198c10.667 8.66699 24.334 13 41.001 13c20.667 0 37.667 -8.33301 51 -25l153 -198c9.33301 -12 14 -25.667 14 -41
c0 -18 -6.83301 -33.5 -20.5 -46.5s-29.167 -19.5 -46.5 -19.5c-20.667 0 -37.667 8.66699 -51 26z" />
    <glyph glyph-name="jcircumflex" unicode="&#x135;" 
d="M283 -264h86c90.667 0 148 44 172 132l271 1007c8.66699 32.667 29.667 49 63 49c44 0 66 -21.667 66 -65c0 -8 -0.666992 -14.333 -2 -19l-261 -972c-33.333 -123.333 -93 -202.333 -179 -237c-44.667 -18 -100 -27 -166 -27h-50c-44 0 -66 22 -66 66s22 66 66 66z
M1004 1294l-204 -157.999c-12 -9.33301 -25.667 -14 -41 -14c-44 0 -66 22.333 -66 67c0 21.333 8.66699 38.666 26 51.999l257 198c11.333 8.66699 25 13 41 13c21.333 0 38.333 -8.33301 51 -25l153 -198c9.33301 -12 14 -25.667 14 -41c0 -18 -6.66699 -33.5 -20 -46.5
s-29 -19.5 -47 -19.5c-20.667 0 -37.667 8.66699 -51 26z" />
    <glyph glyph-name="Kcedilla" unicode="&#x136;" 
d="M648 689l-240 -198l-119 -442c-8.66699 -32.667 -29.667 -49 -63 -49c-16.667 0 -32 6.5 -46 19.5s-21 27.833 -21 44.5c0 6 1 12.667 3 20l319 1187c8.66699 32.667 29.667 49 63 49c44 0 66 -21.667 66 -65c0 -8 -0.666992 -14.333 -2 -19l-141 -526l718 594
c12.667 10.667 26.667 16 42 16c44 0 66 -22 66 -66c0 -20.667 -8 -37.667 -24 -51l-510 -422l213 -695c2 -6.66699 3 -13.667 3 -21c0 -43.333 -22 -65 -66 -65c-32.667 0 -53.667 15.667 -63 47zM510 96c12.667 24 31.667 36 57 36c18.667 0 34.667 -6.5 48 -19.5
s20 -28.833 20 -47.5c0 -10.667 -2.66699 -21 -8 -31l-139 -264c-12 -22.667 -30.667 -34 -56 -34c-46 0 -69 21.667 -69 65c0 10.667 2.66699 21 8 31z" />
    <glyph glyph-name="kcedilla" unicode="&#x137;" 
d="M355 90l315.999 1180c8.66699 33.333 30 50 64 50c24 0 42.167 -8.16699 54.5 -24.5s15.5 -36.166 9.5 -59.499l-169 -632l510 310c10.667 6.66699 22 10 34 10c44.667 0 67 -22 67 -66c0 -25.333 -10.667 -44.333 -32 -57l-332 -201l149 -515
c2 -6.66699 3 -12.334 3 -17.001c0 -45.333 -22 -68 -66 -68c-33.333 0 -54.666 16 -63.999 48l-140 482l-179 -110l-99 -371c-1.33301 -4.66699 -3.33301 -9.66699 -6 -15l-139 -264c-12 -22.667 -30.667 -34 -56 -34c-46 0 -69 21.667 -69 65c0 10.667 2.66699 21 8 31z
" />
    <glyph glyph-name="kgreenlandic" unicode="&#x138;" 
d="M651 425l-177 -136l-64 -240c-8.66699 -32.667 -29.667 -49 -63 -49c-16.667 0 -32 6.5 -46 19.5s-21 27.833 -21 44.5c0 6 1 12.667 3 20l212 791c8.66699 32.667 29.667 49 63 49c44 0 66 -21.667 66 -65c0 -8 -0.666992 -14.333 -2 -19l-91 -341l534 411
c12 9.33301 25.333 14 40 14c16.667 0 32 -6.66699 46 -20s21 -28.333 21 -45c0 -22 -9 -40 -27 -54l-387 -297l195 -413c4.66699 -10 7 -19.333 7 -28c0 -18 -6.66699 -33.667 -20 -47s-29 -20 -47 -20c-27.333 0 -47 12.667 -59 38z" />
    <glyph glyph-name="Lacute" unicode="&#x139;" 
d="M907 132c44 0 66 -22 66 -66s-22 -66 -66 -66h-564c-34.667 -0 -52 16.333 -52 49c0 5.33301 0.666992 11 2 17l323 1205c8.66699 32.667 29.667 49 63 49c44 0 66 -21.667 66 -65c0 -8 -0.666992 -14.333 -2 -19l-296 -1104h460zM1060 1839
c10 6 21.667 9.00098 35 9.00098c44 0 66 -21.667 66 -65c0 -25.333 -10.667 -44.333 -32 -57l-326 -198c-10.667 -6.66699 -22 -10 -34 -10c-17.333 0 -32.833 6.66699 -46.5 20s-20.5 28.666 -20.5 45.999c0 24.667 11 43.667 33 57z" />
    <glyph glyph-name="lacute" unicode="&#x13a;" 
d="M481 132c44 0 66 -22 66 -66s-22 -66 -66 -66c-57.333 0 -103.333 20.667 -138 62c-24.667 28.667 -37 60 -37 94c0 13.333 2 27.333 6 42l288 1073c8.66699 32.667 29.667 49 63 49c44 0 66 -21.667 66 -65c0 -8 -0.666992 -14.333 -2 -19l-278 -1038
c-3.33301 -12 -5 -22.333 -5 -31c0 -23.333 12.333 -35 37 -35zM1045 1839c9.33301 6 20.999 9.00098 34.999 9.00098c44 0 66 -21.667 66 -65c0 -25.333 -10.667 -44.333 -32 -57l-326 -198c-11.333 -6.66699 -22.666 -10 -33.999 -10c-17.333 0 -32.833 6.66699 -46.5 20
s-20.5 28.666 -20.5 45.999c0 24.667 11 43.667 33 57z" />
    <glyph glyph-name="Lcedilla" unicode="&#x13b;" 
d="M774 0l-121 -230.001c-12 -22.667 -30.667 -34 -56 -34c-46 0 -69 21.667 -69 65c0 10.667 2.66699 21 8 31l88 168h-187c-19.333 0 -34 6.33301 -44 19s-12.333 28.334 -7 47.001l324 1205c8.66699 32.667 29.667 49 63 49c44 0 66 -21.667 66 -65
c0 -8 -0.666992 -14.333 -2 -19l-296 -1104h460c44 0 66 -22 66 -66s-22 -66 -66 -66h-227z" />
    <glyph glyph-name="lcedilla" unicode="&#x13c;" 
d="M910 132c44 0 66 -22 66 -66s-22 -66 -66 -66c-58 0 -104 20.667 -138 62c-25.333 29.333 -38 61 -38 95c0 13.333 2 27 6 41l289 1073c8.66699 32.667 29.667 49 63 49c44 0 66 -21.667 66 -65c0 -8 -0.666992 -14.333 -2 -19l-279 -1038
c-3.33301 -11.333 -5 -21.333 -5 -30c0 -24 12.667 -36 38 -36zM436 30c16 24 35 36 57 36c18 0 33.833 -6.5 47.5 -19.5s20.5 -28.833 20.5 -47.5c0 -12.667 -2.66699 -23 -8 -31l-133 -198c-15.333 -22.667 -34 -34 -56 -34c-46 0 -69 21.667 -69 65
c0 12.667 2.66699 23 8 31z" />
    <glyph glyph-name="Lcaron" unicode="&#x13d;" 
d="M943 132c44 0 66 -22.001 66 -66.001s-22 -66 -66 -66h-564c-18.667 0 -33 6.33301 -43 19s-12.667 28.334 -8 47.001l324 1205c8.66699 32.667 29.667 49 63 49c44 0 66 -21.667 66 -65c0 -8 -0.666992 -14.333 -2 -19l-296 -1104h460zM924 1008l71 263
c8.66699 32.667 29.667 49 63 49c44 0 66 -21.667 66 -65c0 -8 -0.666992 -14.333 -2 -19l-71 -263c-8.66699 -32.667 -29.667 -49 -63 -49c-44 0 -66 21.667 -66 65c0 8 0.666992 14.333 2 19z" />
    <glyph glyph-name="lcaron" unicode="&#x13e;" 
d="M519 132c44 0 66 -22 66 -66s-22 -66 -66 -66c-57.333 0 -103.333 20.667 -138 62c-25.333 29.333 -38 61 -38 95c0 13.333 2 27 6 41l289 1073c8.66699 32.667 29.667 49 63 49c44 0 66 -21.667 66 -65c0 -8 -0.666992 -14.333 -2 -19l-279 -1038
c-3.33301 -11.333 -5 -21.333 -5 -30c0 -24 12.667 -36 38 -36zM909 1008l71 263c8.66699 32.667 29.667 49 63 49c44 0 66 -21.667 66 -65c0 -8 -0.666992 -14.333 -2 -19l-71 -263c-8.66699 -32.667 -29.667 -49 -63 -49c-44 0 -66 21.667 -66 65
c0 8 0.666992 14.333 2 19z" />
    <glyph glyph-name="Ldot" unicode="&#x13f;" 
d="M1001 132c44 0 66 -22.001 66 -66.001s-22 -66 -66 -66h-564c-19.333 0 -34 6.33301 -44 19s-12.333 28.334 -7 47.001l324 1205c8.66699 32.667 29.667 49 63 49c44 0 66 -21.667 66 -65c0 -8 -0.666992 -14.333 -2 -19l-296 -1104h460zM910 743.999l18 65
c8.66699 32.667 29.667 49 63 49c44 0 66 -21.667 66 -65c0 -8 -0.666992 -14.333 -2 -19l-18 -65c-9.33301 -32.667 -30.333 -49 -63 -49c-44 0 -66 21.667 -66 65c0 8 0.666992 14.333 2 19z" />
    <glyph glyph-name="ldot" unicode="&#x140;" 
d="M581 132c44 0 66 -22 66 -66s-22 -66 -66 -66c-57.333 0 -103.333 20.667 -138 62c-25.333 29.333 -38 61 -38 95c0 13.333 2 27 6 41l289 1073c8.66699 32.667 29.667 49 63 49c44 0 66 -21.667 66 -65c0 -8 -0.666992 -14.333 -2 -19l-279 -1038
c-3.33301 -11.333 -5 -21.333 -5 -30c0 -24 12.667 -36 38 -36zM900 744l18 65c8.66699 32.667 29.667 49 63 49c44 0 66 -21.667 66 -65c0 -8 -0.666992 -14.333 -2 -19l-18 -65c-9.33301 -32.667 -30.333 -49 -63 -49c-44 0 -66 21.667 -66 65c0 8 0.666992 14.333 2 19z
" />
    <glyph glyph-name="Lslash" unicode="&#x141;" 
d="M726 749l-165 -617.001h460c44 0 66 -22 66 -66s-22 -66 -66 -66h-564c-19.333 0 -34 6.33301 -44 19s-12.333 28.334 -7 47.001l160 595l-105 -58c-17.333 -9.33301 -34.333 -11.333 -51 -6c-42 13.333 -56.667 40.666 -44 81.999c4.66699 17.333 15 30.333 31 39
l216 119l117 434c8.66699 32.667 29.667 49 63 49c44 0 66 -21.667 66 -65c0 -8 -0.666992 -14.333 -2 -19l-83 -310l104 57c16.667 9.33301 33.667 11.333 51 6c16.667 -5.33301 29.667 -16.166 39 -32.499s11.333 -32.833 6 -49.5c-6 -18 -16.667 -31.333 -32 -40z" />
    <glyph glyph-name="lslash" unicode="&#x142;" 
d="M782 748l-147.999 -550c-3.33301 -11.333 -5 -21.333 -5 -30c0 -24 12.667 -36 38 -36c44 0 66 -22 66 -66s-22 -66 -66 -66c-57.333 0 -103.333 20.667 -138 62c-25.333 29.333 -38 61 -38 95c0 13.333 2 27 6 41l125 462l-105 -57c-17.333 -9.33301 -34 -11.333 -50 -6
c-42 13.333 -57 40.666 -45 81.999c5.33301 17.333 15.666 30.333 30.999 39l216 119l117 434c8.66699 32.667 29.667 49 63 49c44 0 66 -21.667 66 -65c0 -8 -0.666992 -14.333 -2 -19l-83 -311l104 58c16.667 9.33301 33.667 11.333 51 6s30.5 -16.166 39.5 -32.499
s10.833 -32.833 5.5 -49.5c-5.33301 -18 -16 -31.333 -32 -40z" />
    <glyph glyph-name="Nacute" unicode="&#x143;" 
d="M607 1274l296.999 -970l260 967c8.66699 32.667 29.667 49 63 49c44 0 66 -21.667 66 -65c0 -8 -0.666992 -14.333 -2 -19l-319 -1187c-8.66699 -32.667 -29.667 -49 -63 -49s-54.666 15.667 -63.999 47l-296 968l-260 -966c-8.66699 -32.667 -29.667 -49 -63 -49
c-16.667 0 -32 6.5 -46 19.5s-21 27.833 -21 44.5c0 6 1 12.667 3 20l319 1187c8.66699 32.667 29.667 49 63 49c32.667 0 53.667 -15.333 63 -46zM1129 1839c10 6 21.667 9.00098 35 9.00098c44 0 66 -21.667 66 -65c0 -25.333 -10.667 -44.333 -32 -57l-326 -198
c-10.667 -6.66699 -22 -10 -34 -10c-17.333 0 -32.833 6.66699 -46.5 20s-20.5 28.666 -20.5 45.999c0 24.667 11 43.667 33 57z" />
    <glyph glyph-name="nacute" unicode="&#x144;" 
d="M493 874c8.66699 33.333 29.999 50 63.999 50h360c96 0 161.667 -46 197 -138c14.667 -40 16.334 -82 5.00098 -126l-164 -611c-9.33301 -32.667 -30.333 -49 -63 -49c-17.333 0 -32.833 6.5 -46.5 19.5s-20.5 27.833 -20.5 44.5c0 6 1 12.667 3 20l154 576
c4.66699 18 7 34.333 7 49c0 55.333 -35.667 83 -107 83h-274l-200 -743c-9.33301 -32.667 -30.333 -49 -63 -49c-17.333 0 -32.833 6.5 -46.5 19.5s-20.5 27.833 -20.5 44.5c0 6 1 12.667 3 20zM1074 1443c9.33301 6 20.999 9.00098 34.999 9.00098c44 0 66 -21.667 66 -65
c0 -25.333 -10.667 -44.333 -32 -57l-326 -198c-11.333 -6.66699 -22.666 -10 -33.999 -10c-17.333 0 -32.833 6.66699 -46.5 20s-20.5 28.666 -20.5 45.999c0 24.667 11 43.667 33 57z" />
    <glyph glyph-name="Ncedilla" unicode="&#x145;" 
d="M607 1274l296.999 -970l260 967c8.66699 32.667 29.667 49 63 49c44 0 66 -21.667 66 -65c0 -8 -0.666992 -14.333 -2 -19l-319 -1187c-8.66699 -32.667 -29.667 -49 -63 -49s-54.666 15.667 -63.999 47l-296 968l-260 -966c-8.66699 -32.667 -29.667 -49 -63 -49
c-16.667 0 -32 6.5 -46 19.5s-21 27.833 -21 44.5c0 6 1 12.667 3 20l319 1187c8.66699 32.667 29.667 49 63 49c32.667 0 53.667 -15.333 63 -46zM509.999 96c12.667 24 31.667 36 57 36c18.667 0 34.667 -6.5 48 -19.5s20 -28.833 20 -47.5c0 -10.667 -2.66699 -21 -8 -31
l-139 -264c-12 -22.667 -30.667 -34 -56 -34c-46 0 -69 21.667 -69 65c0 10.667 2.66699 21 8 31z" />
    <glyph glyph-name="ncedilla" unicode="&#x146;" 
d="M381 93l209.999 781c8.66699 33.333 30 50 64 50h360c96 0 161.667 -46 197 -138c14.667 -40 16.334 -82 5.00098 -126l-164 -611c-9.33301 -32.667 -30.333 -49 -63 -49c-17.333 0 -32.833 6.5 -46.5 19.5s-20.5 27.833 -20.5 44.5c0 6 1 12.667 3 20l154 576
c4.66699 18 7 34.333 7 49c0 55.333 -35.667 83 -107 83h-274l-200 -743c-1.33301 -4.66699 -3.33301 -9.66699 -6 -15l-139 -264c-12 -22.667 -30.667 -34 -56 -34c-46 0 -69 21.667 -69 65c0 10.667 2.66699 21 8 31z" />
    <glyph glyph-name="Ncaron" unicode="&#x147;" 
d="M605 1274l296.999 -970l260 967c8.66699 32.667 29.667 49 63 49c44 0 66 -21.667 66 -65c0 -8 -0.666992 -14.333 -2 -19l-319 -1187c-9.33301 -32.667 -30.333 -49 -63 -49c-33.333 0 -54.666 15.667 -63.999 47l-296 968l-260 -966
c-9.33301 -32.667 -30.333 -49 -63 -49c-17.333 0 -32.833 6.5 -46.5 19.5s-20.5 27.833 -20.5 44.5c0 6 1 12.667 3 20l319 1187c8.66699 32.667 29.667 49 63 49c32 0 53 -15.333 63 -46zM984.999 1676l204 157.999c12 9.33301 25.667 14 41 14c44 0 66 -22.333 66 -67
c0 -21.333 -8.66699 -38.666 -26 -51.999l-257 -198c-11.333 -8.66699 -25 -13 -41 -13c-21.333 0 -38.333 8.33301 -51 25l-153 198c-9.33301 12 -14 25.667 -14 41c0 44 22.333 66 67 66c20 0 37 -8.66699 51 -26z" />
    <glyph glyph-name="ncaron" unicode="&#x148;" 
d="M459 874c8.66699 33.333 29.999 50 63.999 50h360c96 0 161.667 -46 197 -138c14.667 -40 16.334 -82 5.00098 -126l-164 -611c-9.33301 -32.667 -30.333 -49 -63 -49c-17.333 0 -32.833 6.5 -46.5 19.5s-20.5 27.833 -20.5 44.5c0 6 1 12.667 3 20l154 576
c4.66699 18 7 34.333 7 49c0 55.333 -35.667 83 -107 83h-274l-200 -743c-9.33301 -32.667 -30.333 -49 -63 -49c-17.333 0 -32.833 6.5 -46.5 19.5s-20.5 27.833 -20.5 44.5c0 6 1 12.667 3 20zM897.999 1280l204 157.999c12 9.33301 25.667 14 41 14
c44 0 66 -22.333 66 -67c0 -21.333 -8.66699 -38.666 -26 -51.999l-257 -198c-11.333 -8.66699 -25 -13 -41 -13c-21.333 0 -38.333 8.33301 -51 25l-153 198c-9.33301 12 -14 25.667 -14 41c0 44 22.333 66 67 66c20 0 37 -8.66699 51 -26z" />
    <glyph glyph-name="napostrophe" unicode="&#x149;" 
d="M521 874c8.66699 33.333 29.999 50 63.999 50h360c96 0 161.667 -46 197 -138c14.667 -40 16.334 -82 5.00098 -126l-164 -611c-9.33301 -32.667 -30.333 -49 -63 -49c-17.333 0 -32.833 6.5 -46.5 19.5s-20.5 27.833 -20.5 44.5c0 6 1 12.667 3 20l154 576
c4.66699 18 7 34.333 7 49c0 55.333 -35.667 83 -107 83h-274l-200 -743c-9.33301 -32.667 -30.333 -49 -63 -49c-17.333 0 -32.833 6.5 -46.5 19.5s-20.5 27.833 -20.5 44.5c0 6 1 12.667 3 20zM616.999 1482c12 24 31 36 57 36c18 0 33.833 -6.5 47.5 -19.5
s20.5 -28.833 20.5 -47.5c0 -10.667 -2.66699 -21 -8 -31l-139 -264c-12 -22.667 -30.667 -34 -56 -34c-46 0 -69 21.667 -69 65c0 10.667 2.66699 21 8 31z" />
    <glyph glyph-name="Eng" unicode="&#x14a;" 
d="M840 64l-291.001 951l-260 -966c-8.66699 -32.667 -29.667 -49 -63 -49c-16.667 0 -32 6.5 -46 19.5s-21 27.833 -21 44.5c0 6 1 12.667 3 20l319 1187c8.66699 32.667 29.667 49 63 49c32.667 0 53.667 -15.333 63 -46l297 -970l260 967c8.66699 32.667 29.667 49 63 49
c44 0 66 -21.667 66 -65c0 -8 -0.666992 -14.333 -2 -19l-420 -1566c-12 -44 -40.667 -66 -86 -66h-69c-58.667 0 -108.167 20.833 -148.5 62.5s-60.5 91.834 -60.5 150.501c0 28.667 6 54 18 76c14.667 27.333 35.334 41 62.001 41c19.333 0 36 -6.33301 50 -19
s18.667 -28.334 14 -47.001c-4.66699 -18 -7 -35 -7 -51c0.666992 -54 36.667 -81 108 -81z" />
    <glyph glyph-name="eng" unicode="&#x14b;" 
d="M881 -330c-12 -44 -40.6689 -66 -86.002 -66h-69c-58.667 0 -108.167 20.833 -148.5 62.5s-60.5 91.834 -60.5 150.501c0 28.667 6 54 18 76c14.667 27.333 35.334 41 62.001 41c18.667 0 35.167 -6.33301 49.5 -19s19.166 -28.334 14.499 -47.001
c-5.33301 -18 -7.66602 -35 -6.99902 -51c0 -54 36 -81 108 -81l248 924c4.66699 18 7 34.333 7 49c0 55.333 -35.667 83 -107 83h-274l-200 -743c-9.33301 -32.667 -30.333 -49 -63 -49c-17.333 0 -32.833 6.5 -46.5 19.5s-20.5 27.833 -20.5 44.5c0 6 1 12.667 3 20
l212 790c8.66699 33.333 30 50 64 50h360c96 0 161.667 -46 197 -138c14.667 -40 16.334 -82 5.00098 -126z" />
    <glyph glyph-name="Omacron" unicode="&#x14c;" 
d="M1241 1584h-683c-44 0 -66 22 -66 66s22 66 66 66h683c44 0 66 -22 66 -66s-22 -66 -66 -66zM837 396l142 528.001c6 22 9 43.333 9 64c0 78.667 -34.667 136.667 -104 174c-33.333 17.333 -69.333 26 -108 26c-102.667 0 -192.667 -44 -270 -132
c-36 -40.667 -60.333 -84.667 -73 -132l-142 -528c-6 -22 -9 -43.333 -9 -64c0 -58.667 20.167 -106.667 60.5 -144s90.5 -56 150.5 -56c102 0 192.333 44.667 271 134c36 41.333 60.333 84.666 73 129.999zM974 396.001c-45.333 -167.333 -140.667 -283.333 -286 -348
c-71.333 -32 -148.333 -48 -231 -48c-54 0 -106 17 -156 51c-46.667 32 -84.167 73.167 -112.5 123.5s-42.5 102.5 -42.5 156.5c0 23.333 2.66699 45 8 65l142 528c44.667 167.333 139.667 283.666 285 348.999c70.667 31.333 147.667 47 231 47
c112 0 201.333 -57.667 268 -173c30 -51.333 45 -103.666 45 -156.999c0 -22 -3 -44 -9 -66z" />
    <glyph glyph-name="omacron" unicode="&#x14d;" 
d="M1129 1188h-683c-44 0 -66 22 -66 66s22 66 66 66h683c44 0 66 -22 66 -66s-22 -66 -66 -66zM267 330l69.999 264.001c31.333 118 80.333 202.5 147 253.5s161.334 76.5 284.001 76.5c73.333 0 135.166 -24.833 185.499 -74.5s75.5 -110.834 75.5 -183.501
c0 -25.333 -3 -49.333 -9 -72l-70 -264c-32 -118.667 -81.833 -203.334 -149.5 -254.001s-161.5 -76 -281.5 -76c-73.333 0 -135.166 24.833 -185.499 74.5s-75.5 110.834 -75.5 183.501c0 25.333 3 49.333 9 72zM812.999 330.001l70.001 264c7.33301 27.333 11 52 11 74
c0 82.667 -54 124 -162 124c-136.667 0 -222.667 -66 -258 -198l-71 -264c-7.33301 -27.333 -11 -52 -11 -74c0 -82.667 54 -124 162 -124c137.333 0 223.666 66 258.999 198z" />
    <glyph glyph-name="Obreve" unicode="&#x14e;" 
d="M1256 1782c-33.333 -124.667 -91.668 -203.666 -175.001 -236.999c-44.667 -18 -101 -27 -169 -27c-80.667 0 -141 35.333 -181 106c-18.667 32 -28 66.333 -28 103c0 20 2.33301 38.333 7 55c12 44 39 66 81 66c14.667 0 27.834 -5.33301 39.501 -16
s17.5 -23.334 17.5 -38.001c0 -4 -0.666992 -8 -2 -12c-6.66699 -23.333 -10 -39 -10 -47c0 -56.667 37.333 -85 112 -85c90.667 0 148 44 172 132c12 44 39.667 66 83 66c36.667 0 55 -17 55 -51c0 -4.66699 -0.666992 -9.66699 -2 -15zM884.998 396.001l141.998 528.001
c6 22 9 43.333 9 64c0 78.667 -34.333 136.667 -103 174c-33.333 17.333 -69.666 26 -108.999 26c-102 0 -192 -44 -270 -132c-36 -40.667 -60.333 -84.667 -73 -132l-142 -528c-6 -22 -9 -43.333 -9 -64c0 -58.667 20.333 -106.667 61 -144s90.667 -56 150 -56
c102.667 0 193.334 44.667 272.001 134c36 41.333 60 84.666 72 129.999zM1022 396.002c-44.667 -167.333 -140.001 -283.333 -286.001 -348c-70.667 -32 -147.667 -48 -231 -48c-54 0 -106 17 -156 51c-46 32 -83.333 73.167 -112 123.5s-43 102.5 -43 156.5
c0 23.333 2.66699 45 8 65l142 528c45.333 167.333 140.333 283.666 285 348.999c70.667 31.333 147.667 47 231 47c112.667 0 202.334 -57.667 269.001 -173c29.333 -51.333 44 -103.666 44 -156.999c0 -22 -3 -44 -9 -66z" />
    <glyph glyph-name="obreve" unicode="&#x14f;" 
d="M272 330l70 263.999c31.333 118 80.333 202.5 147 253.5s161.334 76.5 284.001 76.5c118 0 198.333 -52.667 241 -158c13.333 -32.667 20 -66 20 -100c0 -25.333 -3 -49.333 -9 -72l-70 -264c-41.333 -154.667 -116 -253.667 -224 -297
c-55.333 -22 -124.333 -33 -207 -33c-72.667 0 -134.334 24.833 -185.001 74.5s-76 110.834 -76 183.501c0 25.333 3 49.333 9 72zM818 329.999l70 264c7.33301 27.333 11 52 11 74c0 82.667 -54 124 -162 124c-136.667 0 -222.667 -66 -258 -198l-71 -264
c-7.33301 -27.333 -11 -52 -11 -74c0 -82.667 54 -124 162 -124c138 0 224.333 66 259 198zM1187 1452c-33.333 -124.667 -91.668 -203.666 -175.001 -236.999c-44.667 -18 -101 -27 -169 -27c-80.667 0 -141 35.333 -181 106c-18.667 32 -28 66.333 -28 103
c0 20 2.33301 38.333 7 55c12 44 39 66 81 66c14.667 0 27.834 -5.33301 39.501 -16s17.5 -23.334 17.5 -38.001c0 -4 -0.666992 -8 -2 -12c-6.66699 -23.333 -10 -39 -10 -47c0 -56.667 37.333 -85 112 -85c90.667 0 148 44 172 132c12 44 39.667 66 83 66
c36.667 0 55 -17 55 -51c0 -4.66699 -0.666992 -9.66699 -2 -15z" />
    <glyph glyph-name="Odblacute" unicode="&#x150;" 
d="M765 1828c12.667 13.333 27.666 20 44.999 20c46 0 69 -22 69 -66c0 -17.333 -6.33301 -32.666 -19 -45.999l-189 -198c-13.333 -13.333 -28.666 -20 -45.999 -20c-45.333 0 -68 22 -68 66c0 17.333 6.33301 32.666 19 45.999zM1177 1828
c12.667 13.333 27.666 20 44.999 20c46 0 69 -22 69 -66c0 -17.333 -6.33301 -32.666 -19 -45.999l-189 -198c-13.333 -13.333 -28.666 -20 -45.999 -20c-45.333 0 -68 22 -68 66c0 17.333 6.33301 32.666 19 45.999zM852.998 396l142 528.001c6 22 9 43.333 9 64
c0 78.667 -34.667 136.667 -104 174c-33.333 17.333 -69.333 26 -108 26c-102.667 0 -192.667 -44 -270 -132c-36 -40.667 -60.333 -84.667 -73 -132l-142 -528c-6 -22 -9 -43.333 -9 -64c0 -58.667 20.167 -106.667 60.5 -144s90.5 -56 150.5 -56
c102 0 192.333 44.667 271 134c36 41.333 60.333 84.666 73 129.999zM989.998 396.001c-45.333 -167.333 -140.667 -283.333 -286 -348c-71.333 -32 -148.333 -48 -231 -48c-54 0 -106 17 -156 51c-46.667 32 -84.167 73.167 -112.5 123.5s-42.5 102.5 -42.5 156.5
c0 23.333 2.66699 45 8 65l142 528c44.667 167.333 139.667 283.666 285 348.999c70.667 31.333 147.667 47 231 47c112 0 201.333 -57.667 268 -173c30 -51.333 45 -103.666 45 -156.999c0 -22 -3 -44 -9 -66z" />
    <glyph glyph-name="odblacute" unicode="&#x151;" 
d="M633 1443c10 6 21.667 9.00098 35 9.00098c44 0 66 -21.667 66 -65c0 -25.333 -10.667 -44.333 -32 -57l-326 -198c-10.667 -6.66699 -22 -10 -34 -10c-17.333 0 -32.833 6.66699 -46.5 20s-20.5 28.666 -20.5 45.999c0 24.667 11 43.667 33 57zM1180 1443
c10 6 21.667 9.00098 35 9.00098c44 0 66 -21.667 66 -65c0 -25.333 -10.667 -44.333 -32 -57l-326 -198c-10.667 -6.66699 -22 -10 -34 -10c-17.333 0 -32.833 6.66699 -46.5 20s-20.5 28.666 -20.5 45.999c0 24.667 11 43.667 33 57zM180 330.002l70 263.999
c31.333 118 80.333 202.5 147 253.5s161.334 76.5 284.001 76.5c118 0 198.333 -52.667 241 -158c13.333 -32.667 20 -66 20 -100c0 -25.333 -3 -49.333 -9 -72l-70 -264c-41.333 -154.667 -116 -253.667 -224 -297c-55.333 -22 -124.333 -33 -207 -33
c-72.667 0 -134.334 24.833 -185.001 74.5s-76 110.834 -76 183.501c0 25.333 3 49.333 9 72zM726 330.001l70 264c7.33301 27.333 11 52 11 74c0 82.667 -54 124 -162 124c-136.667 0 -222.667 -66 -258 -198l-71 -264c-7.33301 -27.333 -11 -52 -11 -74
c0 -82.667 54 -124 162 -124c138 0 224.333 66 259 198z" />
    <glyph glyph-name="OE" unicode="&#x152;" 
d="M1080 132c44 0 66 -22 66 -66s-22 -66 -66 -66h-496c-36.667 0 -55 14 -55 42c0 6.66699 1.33301 14.667 4 24l8 30c-68 -64 -156.333 -96 -265 -96c-78 0 -145.5 29.167 -202.5 87.5s-85.5 126.5 -85.5 204.5c0 24.667 3 48.334 9 71.001l160 594
c40 152 130 258.667 270 320c65.333 28.667 133 43 203 43c40 0 79.667 -9.33301 119 -28c42 -20.667 72.333 -47.334 91 -80.001l12 42c12 44 40.667 66 86 66h460c44 0 66 -22 66 -66s-22 -66 -66 -66h-427l-107 -396h325c44 0 66 -22 66 -66s-22 -66 -66 -66h-360
l-142 -528h393zM613 363l159 594.004c7.33301 27.333 11 52.666 11 75.999c0 103.333 -62.667 155 -188 155c-69.333 0 -132.5 -21.833 -189.5 -65.5s-94.167 -98.834 -111.5 -165.501l-159 -594c-6.66699 -24.667 -10 -48.334 -10 -71.001
c0 -52.667 18.333 -93.334 55 -122.001c33.333 -25.333 77.333 -38 132 -38c84 0 163 40.333 237 121c32 35.333 53.333 72 64 110z" />
    <glyph glyph-name="oe" unicode="&#x153;" 
d="M606 264l105 396.001c22.667 88 -10.666 132 -99.999 132c-92.667 0 -150.334 -44 -173.001 -132l-105 -396c-5.33301 -18.667 -8 -35.334 -8 -50.001c0.666992 -54.667 36.667 -82 108 -82c92 0 149.667 44 173 132zM1030 132.001c44 0 66 -21.999 66 -65.999
s-22 -66 -66 -66h-222c-72.667 0 -130.667 32 -174 96c-50 -64 -128.667 -96 -236 -96c-97.333 0 -163 46.333 -197 139c-15.333 41.333 -17.333 83 -6 125l106 396c24.667 93.333 64 160.666 118 201.999s129.667 62 227 62c71.333 0 127 -30.667 167 -92
c51.333 61.333 132.333 92 243 92c44 0 83.833 -12.833 119.5 -38.5s61 -59.167 76 -100.5s17.167 -83 6.5 -125l-70 -264h-410l-35 -132c-5.33301 -18 -8 -34 -8 -48c0 -56 36 -84 108 -84h187zM1121 660.002c4.66699 18 7.00098 34.333 7.00098 49
c0 55.333 -35.667 83 -107 83c-92.667 0 -150.334 -44 -173.001 -132l-35 -132h273z" />
    <glyph glyph-name="Racute" unicode="&#x154;" 
d="M887 551l118.001 -469.001c1.33301 -5.33301 2 -10.666 2 -15.999c0 -44 -22.333 -66 -67 -66c-34.667 0 -56 16.667 -64 50l-120 479c-6.66699 -0.666992 -17.667 -1 -33 -1h-273l-129 -479c-9.33301 -32.667 -30.333 -49 -63 -49c-17.333 0 -32.833 6.5 -46.5 19.5
s-20.5 27.833 -20.5 44.5c0 6 1 12.667 3 20l314 1170c11.333 44 40.333 66 87 66h342c93.333 0 173.333 -43.667 240 -131c30 -39.333 51 -82.333 63 -129c11.333 -46.667 11.333 -92 0 -136c-34.667 -126.667 -99.667 -225 -195 -295
c-46.667 -34.667 -99.334 -60.667 -158.001 -78zM759.001 659.999c102 0 192.334 44.667 271.001 134c35.333 40.667 59.666 84 72.999 130c26.667 98 0.666992 173.667 -78 227c-36 24.667 -77.667 37 -125 37h-273l-142 -528h274zM1161 1839
c9.33301 6 20.999 9.00098 34.999 9.00098c44 0 66 -21.667 66 -65c0 -25.333 -10.667 -44.333 -32 -57l-326 -198c-11.333 -6.66699 -22.666 -10 -33.999 -10c-17.333 0 -32.833 6.66699 -46.5 20s-20.5 28.666 -20.5 45.999c0 24.667 11 43.667 33 57z" />
    <glyph glyph-name="racute" unicode="&#x155;" 
d="M561 874c8.66699 33.333 30 50 64 50h410c44 0 66 -22 66 -66c0 -6 -0.666992 -11.667 -2 -17l-35 -132c-8.66699 -32.667 -29.667 -49 -63 -49c-16.667 0 -32 6.5 -46 19.5s-21 27.833 -21 44.5c0 6 1 12.667 3 20l13 48h-274l-200 -743
c-8.66699 -32.667 -29.667 -49 -63 -49c-16.667 0 -32 6.5 -46 19.5s-21 27.833 -21 44.5c0 6 1 12.667 3 20zM1005 1443c10 6 21.667 9.00098 35 9.00098c44 0 66 -21.667 66 -65c0 -25.333 -10.667 -44.333 -32 -57l-326 -198c-10.667 -6.66699 -22 -10 -34 -10
c-17.333 0 -32.833 6.66699 -46.5 20s-20.5 28.666 -20.5 45.999c0 24.667 11 43.667 33 57z" />
    <glyph glyph-name="Rcedilla" unicode="&#x156;" 
d="M898 551l118.001 -469.001c1.33301 -5.33301 2 -10.666 2 -15.999c0 -44 -22.333 -66 -67 -66c-34.667 0 -56 16.667 -64 50l-120 479c-6.66699 -0.666992 -17.667 -1 -33 -1h-273l-129 -479c-9.33301 -32.667 -30.333 -49 -63 -49c-17.333 0 -32.833 6.5 -46.5 19.5
s-20.5 27.833 -20.5 44.5c0 6 1 12.667 3 20l314 1170c11.333 44 40.333 66 87 66h342c93.333 0 173.333 -43.667 240 -131c30 -39.333 51 -82.333 63 -129c11.333 -46.667 11.333 -92 0 -136c-34.667 -126.667 -99.667 -225 -195 -295
c-46.667 -34.667 -99.334 -60.667 -158.001 -78zM770.001 659.999c102 0 192.334 44.667 271.001 134c35.333 40.667 59.666 84 72.999 130c26.667 98 0.666992 173.667 -78 227c-36 24.667 -77.667 37 -125 37h-273l-142 -528h274zM553.002 95.999c12 24 31 36 57 36
c18 0 33.833 -6.5 47.5 -19.5s20.5 -28.833 20.5 -47.5c0 -10.667 -2.66699 -21 -8 -31l-139 -264c-12 -22.667 -30.667 -34 -56 -34c-46 0 -69 21.667 -69 65c0 10.667 2.66699 21 8 31z" />
    <glyph glyph-name="rcedilla" unicode="&#x157;" 
d="M746 17c19.333 32.667 46 49 80 49c44.667 0 61.334 -21.667 50.001 -65c-2.66699 -8.66699 -6.33398 -17 -11.001 -25l-117 -190c-20.667 -33.333 -47.334 -50 -80.001 -50c-44 0 -60.333 22 -49 66c0.666992 2.66699 4.33398 11 11.001 25zM564 874
c8.66699 33.333 30 50 64 50h410c44 0 66 -22 66 -66c0 -6 -0.666992 -11.667 -2 -17l-35 -132c-8.66699 -32.667 -29.667 -49 -63 -49c-17.333 0 -32.833 6.5 -46.5 19.5s-20.5 27.833 -20.5 44.5c0 6 1 12.667 3 20l13 48h-274l-200 -743
c-9.33301 -32.667 -30.333 -49 -63 -49c-17.333 0 -32.833 6.5 -46.5 19.5s-20.5 27.833 -20.5 44.5c0 6 1 12.667 3 20z" />
    <glyph glyph-name="Rcaron" unicode="&#x158;" 
d="M853 551l118.001 -469.001c1.33301 -5.33301 2 -10.666 2 -15.999c0 -44 -22.333 -66 -67 -66c-34.667 0 -56 16.667 -64 50l-120 479c-6.66699 -0.666992 -17.667 -1 -33 -1h-273l-129 -479c-9.33301 -32.667 -30.333 -49 -63 -49c-17.333 0 -32.833 6.5 -46.5 19.5
s-20.5 27.833 -20.5 44.5c0 6 1 12.667 3 20l314 1170c11.333 44 40.333 66 87 66h342c93.333 0 173.333 -43.667 240 -131c30 -39.333 51 -82.333 63 -129c11.333 -46.667 11.333 -92 0 -136c-34.667 -126.667 -99.667 -225 -195 -295
c-46.667 -34.667 -99.334 -60.667 -158.001 -78zM725.001 659.999c102 0 192.334 44.667 271.001 134c35.333 40.667 59.666 84 72.999 130c26.667 98 0.666992 173.667 -78 227c-36 24.667 -77.667 37 -125 37h-273l-142 -528h274zM985.002 1676l204 157.999
c12 9.33301 25.667 14 41 14c44 0 66 -22.333 66 -67c0 -21.333 -8.66699 -38.666 -26 -51.999l-257 -198c-11.333 -8.66699 -25 -13 -41 -13c-21.333 0 -38.333 8.33301 -51 25l-153 198c-9.33301 12 -14 25.667 -14 41c0 44 22.333 66 67 66c20 0 37 -8.66699 51 -26z" />
    <glyph glyph-name="rcaron" unicode="&#x159;" 
d="M493 874c8.66699 33.333 30 50 64 50h410c44 0 66 -22 66 -66c0 -6 -0.666992 -11.667 -2 -17l-35 -132c-8.66699 -32.667 -29.667 -49 -63 -49c-17.333 0 -32.833 6.5 -46.5 19.5s-20.5 27.833 -20.5 44.5c0 6 1 12.667 3 20l13 48h-274l-200 -743
c-9.33301 -32.667 -30.333 -49 -63 -49c-17.333 0 -32.833 6.5 -46.5 19.5s-20.5 27.833 -20.5 44.5c0 6 1 12.667 3 20zM864 1280l204 157.999c12 9.33301 25.667 14 41 14c44 0 66 -22.333 66 -67c0 -21.333 -8.66699 -38.666 -26 -51.999l-257 -198
c-11.333 -8.66699 -25 -13 -41 -13c-21.333 0 -38.333 8.33301 -51 25l-153 198c-9.33301 12 -14 25.667 -14 41c0 44 22.333 66 67 66c20 0 37 -8.66699 51 -26z" />
    <glyph glyph-name="Sacute" unicode="&#x15a;" 
d="M1186 1246c23.333 -12 34.999 -31.333 34.999 -58c0 -18 -6.5 -33.5 -19.5 -46.5s-28.5 -19.5 -46.5 -19.5c-10 0 -19.667 2.33301 -29 7c-82 39.333 -186 59 -312 59c-94 0 -169.667 -42 -227 -126c-26.667 -40 -40 -84.667 -40 -134c0 -54 23.667 -94.333 71 -121
l334 -190c79.333 -45.333 119 -117 119 -215c0 -84.667 -30.333 -167.334 -91 -248.001c-76.667 -102.667 -192.667 -154 -348 -154c-98 0 -186.667 20.667 -266 62c-40.667 21.333 -84.667 49.666 -132 84.999c-16.667 12.667 -25 29.667 -25 51c0 18 6.33301 33.5 19 46.5
s28.334 19.5 47.001 19.5c13.333 0 26.333 -4.33301 39 -13c111.333 -79.333 229 -119 353 -119c91.333 0 166 40.333 224 121c30 40.667 45 89.667 45 147c0 50.667 -25 90.334 -75 119.001l-333 189c-35.333 20 -64 51.333 -86 94c-20 40.667 -30 82.334 -30 125.001
c0 92.667 36 179 108 259c81.333 89.333 191.333 134 330 134c85.333 0 165.333 -11.667 240 -35c35.333 -10.667 67.333 -23.667 96 -39zM1143 1839c9.33301 6 20.999 9.00098 34.999 9.00098c44 0 66 -21.667 66 -65c0 -25.333 -10.667 -44.333 -32 -57l-326 -198
c-11.333 -6.66699 -22.666 -10 -33.999 -10c-17.333 0 -32.833 6.66699 -46.5 20s-20.5 28.666 -20.5 45.999c0 24.667 11 43.667 33 57z" />
    <glyph glyph-name="sacute" unicode="&#x15b;" 
d="M968 740c-64.667 34.667 -153.332 52 -265.999 52c-36.667 0 -68 -12.5 -94 -37.5s-39 -55.5 -39 -91.5c0 -33.333 12 -56.333 36 -69l281 -150c77.333 -41.333 116 -95.666 116 -162.999c0 -102.667 -48.667 -182.667 -146 -240c-46 -27.333 -100 -41 -162 -41
c-116 0 -241 25 -375 75c-21.333 8 -32 27 -32 57c0 18 6.33301 33.5 19 46.5s28.334 19.5 47.001 19.5c9.33301 0 19.333 -2.33301 30 -7c87.333 -39.333 202.666 -59 345.999 -59c34 0 64.833 13.333 92.5 40s41.5 57 41.5 91c0 30.667 -20.333 57 -61 79l-255 136
c-77.333 41.333 -116 100.666 -116 177.999c0 99.333 48.667 176 146 230c46.667 25.333 100 38 160 38c114 0 218.667 -27 314 -81c16 -9.33301 24 -26.333 24 -51c0 -18 -6.5 -33.5 -19.5 -46.5s-28.5 -19.5 -46.5 -19.5c-10.667 0 -24.334 4.66699 -41.001 14zM1065 1443
c9.33301 6 20.999 9.00098 34.999 9.00098c44 0 66 -21.667 66 -65c0 -25.333 -10.667 -44.333 -32 -57l-326 -198c-11.333 -6.66699 -22.666 -10 -33.999 -10c-17.333 0 -32.833 6.66699 -46.5 20s-20.5 28.666 -20.5 45.999c0 24.667 11 43.667 33 57z" />
    <glyph glyph-name="Scircumflex" unicode="&#x15c;" 
d="M1178 1246c23.333 -12 34.9951 -31.333 34.9951 -58c0 -18 -6.5 -33.5 -19.5 -46.5s-28.5 -19.5 -46.5 -19.5c-9.33301 0 -19 2.33301 -29 7c-82 39.333 -186 59 -312 59c-93.333 0 -168.666 -42 -225.999 -126c-27.333 -40 -41 -84.667 -41 -134
c0 -54 23.667 -94.333 71 -121l334 -190c79.333 -45.333 119 -117 119 -215c0 -84.667 -30 -167.334 -90 -248.001c-77.333 -102.667 -193.666 -154 -348.999 -154c-97.333 0 -185.666 20.667 -264.999 62c-40.667 21.333 -85 49.666 -133 84.999
c-16.667 12.667 -25 29.667 -25 51c0 18 6.5 33.5 19.5 46.5s28.5 19.5 46.5 19.5c14 0 27 -4.33301 39 -13c112 -79.333 229.667 -119 353 -119c91.333 0 166.333 40.333 225 121c29.333 40.667 44 89.667 44 147c0 50.667 -25 90.334 -75 119.001l-333 189
c-35.333 20 -63.666 51.333 -84.999 94c-20.667 40.667 -31 82.334 -31 125.001c0 92.667 36.333 179 109 259c80.667 89.333 190.334 134 329.001 134c85.333 0 165.666 -11.667 240.999 -35c34.667 -10.667 66.334 -23.667 95.001 -39zM1020 1690l-204 -157.999
c-12 -9.33301 -25.667 -14 -41 -14c-44 0 -66 22.333 -66 67c0 21.333 8.66699 38.666 26 51.999l257 198c11.333 8.66699 25 13 41 13c21.333 0 38.333 -8.33301 51 -25l153 -198c9.33301 -12 14 -25.667 14 -41c0 -18 -6.66699 -33.5 -20 -46.5s-29 -19.5 -47 -19.5
c-20.667 0 -37.667 8.66699 -51 26z" />
    <glyph glyph-name="scircumflex" unicode="&#x15d;" 
d="M962 740c-64 34.667 -152.667 52 -266 52c-36 0 -67.167 -12.5 -93.5 -37.5s-39.5 -55.5 -39.5 -91.5c0 -33.333 12 -56.333 36 -69l281 -150c77.333 -41.333 116 -95.666 116 -162.999c0 -102.667 -48.333 -182.667 -145 -240c-46.667 -27.333 -101 -41 -163 -41
c-116 0 -241 25 -375 75c-21.333 8 -32 27 -32 57c0 18 6.5 33.5 19.5 46.5s28.5 19.5 46.5 19.5c9.33301 0 19.333 -2.33301 30 -7c87.333 -39.333 202.666 -59 345.999 -59c34 0 64.833 13.333 92.5 40s41.5 57 41.5 91c0 30.667 -20.333 57 -61 79l-255 136
c-77.333 41.333 -116 100.666 -116 177.999c0 99.333 48.667 176 146 230c46.667 25.333 100 38 160 38c114.667 0 219.334 -27 314.001 -81c16 -9.33301 24 -26.333 24 -51c0 -18 -6.5 -33.5 -19.5 -46.5s-28.5 -19.5 -46.5 -19.5c-10 0 -23.667 4.66699 -41 14zM940 1294
l-204 -157.999c-12 -9.33301 -25.667 -14 -41 -14c-44 0 -66 22.333 -66 67c0 21.333 8.66699 38.666 26 51.999l257 198c11.333 8.66699 25 13 41 13c21.333 0 38.333 -8.33301 51 -25l153 -198c9.33301 -12 14 -25.667 14 -41c0 -18 -6.66699 -33.5 -20 -46.5
s-29 -19.5 -47 -19.5c-20.667 0 -37.667 8.66699 -51 26z" />
    <glyph glyph-name="Scedilla" unicode="&#x15e;" 
d="M555 5c-97.333 14.667 -200.67 61.999 -310.003 141.999c-16.667 12 -25 29 -25 51c0 18 6.5 33.5 19.5 46.5s28.5 19.5 46.5 19.5c14 0 27 -4.33301 39 -13c112 -79.333 229.667 -119 353 -119c91.333 0 166.333 40.333 225 121c29.333 40.667 44 89.667 44 147
c0 50.667 -25 90.334 -75 119.001l-333 189c-35.333 20 -63.666 51.333 -84.999 94c-20.667 40.667 -31 82.334 -31 125.001c0 92.667 36.333 179 109 259c80.667 89.333 190.334 134 329.001 134c85.333 0 165.666 -11.667 240.999 -35
c34.667 -10.667 66.334 -23.667 95.001 -39c23.333 -12 35 -31.333 35 -58c0 -18 -6.5 -33.5 -19.5 -46.5s-28.5 -19.5 -46.5 -19.5c-9.33301 0 -19 2.33301 -29 7c-82 39.333 -186 59 -312 59c-93.333 0 -168.666 -42 -225.999 -126c-27.333 -40 -41 -84.667 -41 -134
c0 -54 23.667 -94.333 71 -121l334 -190c79.333 -45.333 119 -117 119 -215c0 -120.667 -50.667 -224.334 -152 -311.001c-56.667 -48.667 -132 -78 -226 -88l-123 -233c-12 -22.667 -30.667 -34 -56 -34c-46 0 -69 21.667 -69 65c0 10.667 2.66699 21 8 31z" />
    <glyph glyph-name="scedilla" unicode="&#x15f;" 
d="M696 1l-122.002 -231c-12 -22.667 -30.667 -34 -56 -34c-46 0 -69 21.667 -69 65c0 10.667 2.66699 21 8 31l97 184c-53.333 11.333 -116.666 31 -189.999 59c-21.333 8 -32 27 -32 57c0 18 6.5 33.5 19.5 46.5s28.5 19.5 46.5 19.5c9.33301 0 19.333 -2.33301 30 -7
c87.333 -39.333 202.666 -59 345.999 -59c34 0 64.833 13.333 92.5 40s41.5 57 41.5 91c0 30.667 -20.333 57 -61 79l-255 136c-77.333 41.333 -116 100.666 -116 177.999c0 99.333 48.667 176 146 230c46.667 25.333 100 38 160 38c114.667 0 219.334 -27 314.001 -81
c16 -9.33301 24 -26.333 24 -51c0 -18 -6.5 -33.5 -19.5 -46.5s-28.5 -19.5 -46.5 -19.5c-10 0 -23.667 4.66699 -41 14c-64 34.667 -152.667 52 -266 52c-36 0 -67.167 -12.5 -93.5 -37.5s-39.5 -55.5 -39.5 -91.5c0 -33.333 12 -56.333 36 -69l281 -150
c77.333 -41.333 116 -95.666 116 -162.999c0 -102.667 -48.333 -182.667 -145 -240c-46.667 -27.333 -101 -41 -163 -41c-19.333 -0 -33.666 0.333008 -42.999 1z" />
    <glyph glyph-name="Scaron" unicode="&#x160;" 
d="M1152 1246c23.333 -12 34.999 -31.333 34.999 -58c0 -18 -6.5 -33.5 -19.5 -46.5s-28.5 -19.5 -46.5 -19.5c-10 0 -19.667 2.33301 -29 7c-82 39.333 -186 59 -312 59c-94 0 -169.667 -42 -227 -126c-26.667 -40 -40 -84.667 -40 -134c0 -54 23.667 -94.333 71 -121
l334 -190c79.333 -45.333 119 -117 119 -215c0 -84.667 -30.333 -167.334 -91 -248.001c-76.667 -102.667 -192.667 -154 -348 -154c-98 0 -186.667 20.667 -266 62c-40.667 21.333 -84.667 49.666 -132 84.999c-16.667 12.667 -25 29.667 -25 51c0 18 6.33301 33.5 19 46.5
s28.334 19.5 47.001 19.5c13.333 0 26.333 -4.33301 39 -13c111.333 -79.333 229 -119 353 -119c91.333 0 166 40.333 224 121c30 40.667 45 89.667 45 147c0 50.667 -25 90.334 -75 119.001l-333 189c-35.333 20 -64 51.333 -86 94c-20 40.667 -30 82.334 -30 125.001
c0 92.667 36 179 108 259c81.333 89.333 191.333 134 330 134c85.333 0 165.333 -11.667 240 -35c35.333 -10.667 67.333 -23.667 96 -39zM966.999 1676l204 157.999c12 9.33301 25.667 14 41 14c44 0 66 -22.333 66 -67c0 -21.333 -8.66699 -38.666 -26 -51.999l-257 -198
c-11.333 -8.66699 -25 -13 -41 -13c-21.333 0 -38.333 8.33301 -51 25l-153 198c-9.33301 12 -14 25.667 -14 41c0 44 22.333 66 67 66c20 0 37 -8.66699 51 -26z" />
    <glyph glyph-name="scaron" unicode="&#x161;" 
d="M934 740c-64.667 34.667 -153.332 52 -265.999 52c-36.667 0 -68 -12.5 -94 -37.5s-39 -55.5 -39 -91.5c0 -33.333 12 -56.333 36 -69l281 -150c77.333 -41.333 116 -95.666 116 -162.999c0 -102.667 -48.667 -182.667 -146 -240c-46 -27.333 -100 -41 -162 -41
c-116 0 -241 25 -375 75c-21.333 8 -32 27 -32 57c0 18 6.33301 33.5 19 46.5s28.334 19.5 47.001 19.5c9.33301 0 19.333 -2.33301 30 -7c87.333 -39.333 202.666 -59 345.999 -59c34 0 64.833 13.333 92.5 40s41.5 57 41.5 91c0 30.667 -20.333 57 -61 79l-255 136
c-77.333 41.333 -116 100.666 -116 177.999c0 99.333 48.667 176 146 230c46.667 25.333 100 38 160 38c114 0 218.667 -27 314 -81c16 -9.33301 24 -26.333 24 -51c0 -18 -6.5 -33.5 -19.5 -46.5s-28.5 -19.5 -46.5 -19.5c-10.667 0 -24.334 4.66699 -41.001 14z
M889.002 1280l204 157.999c12 9.33301 25.667 14 41 14c44 0 66 -22.333 66 -67c0 -21.333 -8.66699 -38.666 -26 -51.999l-257 -198c-11.333 -8.66699 -25 -13 -41 -13c-21.333 0 -38.333 8.33301 -51 25l-153 198c-9.33301 12 -14 25.667 -14 41c0 44 22.333 66 67 66
c20 0 37 -8.66699 51 -26z" />
    <glyph glyph-name="Tcedilla" unicode="&#x162;" 
d="M405 93l294 1095h-256c-44 0 -66 22 -66 66s22 66 66 66h684c44 0 66 -22 66 -66s-22 -66 -66 -66h-291l-306 -1139c-1.33301 -4.66699 -3.33301 -9.66699 -6 -15l-139 -264c-12 -22.667 -30.667 -34 -56 -34c-46 0 -69 21.667 -69 65c0 10.667 2.66699 21 8 31z" />
    <glyph glyph-name="tcedilla" unicode="&#x163;" 
d="M492 93l188 698.999h-51c-44 0 -66 22 -66 66s22 66 66 66h87l92 347c8.66699 32.667 29.667 49 63 49c44 0 66 -21.667 66 -65c0 -7.33301 -0.666992 -13.666 -2 -18.999l-83 -312h187c44 0 66 -22 66 -66s-22 -66 -66 -66h-222l-200 -743
c-1.33301 -4.66699 -3.33301 -9.66699 -6 -15l-139 -264c-12 -22.667 -30.667 -34 -56 -34c-46 0 -69 21.667 -69 65c0 10.667 2.66699 21 8 31z" />
    <glyph glyph-name="Tcaron" unicode="&#x164;" 
d="M775 1188l-306 -1139c-9.33301 -32.667 -30.333 -49 -63 -49c-17.333 0 -32.833 6.5 -46.5 19.5s-20.5 27.833 -20.5 44.5c0 6 1 12.667 3 20l296 1104h-256c-44 0 -66 22 -66 66s22 66 66 66h684c44 0 66 -22 66 -66s-22 -66 -66 -66h-291zM826 1676l204 157.999
c12 9.33301 25.667 14 41 14c44 0 66 -22.333 66 -67c0 -21.333 -8.66699 -38.666 -26 -51.999l-257 -198c-11.333 -8.66699 -25 -13 -41 -13c-21.333 0 -38.333 8.33301 -51 25l-153 198c-9.33301 12 -14 25.667 -14 41c0 44 22.333 66 67 66c20 0 37 -8.66699 51 -26z" />
    <glyph glyph-name="tcaron" unicode="&#x165;" 
d="M796 792h-223l-199 -743c-8.66699 -32.667 -29.667 -49 -63 -49c-16.667 0 -32 6.5 -46 19.5s-21 27.833 -21 44.5c0 6 1 12.667 3 20l190 708h-51c-44 0 -66 22 -66 66s22 66 66 66h86l93 347c8.66699 32.667 29.667 49 63 49c44 0 66 -21.667 66 -65
c0 -8 -0.666992 -14.333 -2 -19l-84 -312h188c44 0 66 -22 66 -66s-22 -66 -66 -66zM1008 1140l71 263c8.66699 32.667 29.667 49 63 49c44 0 66 -21.667 66 -65c0 -8 -0.666992 -14.333 -2 -19l-71 -263c-8.66699 -32.667 -29.667 -49 -63 -49c-44 0 -66 21.667 -66 65
c0 8 0.666992 14.333 2 19z" />
    <glyph glyph-name="Tbar" unicode="&#x166;" 
d="M695 616l-151.999 -567.001c-9.33301 -32.667 -30.333 -49 -63 -49c-17.333 0 -32.833 6.5 -46.5 19.5s-20.5 27.833 -20.5 44.5c0 6 1 12.667 3 20l117 435l-191 -114c-15.333 -8.66699 -32 -10.667 -50 -6s-31.5 15 -40.5 31s-10.5 33 -4.5 51
c5.33301 16.667 15.666 29.667 30.999 39l304 182l130 486h-256c-44 0 -66 22 -66 66s22 66 66 66h684c44 0 66 -22 66 -66s-22 -66 -66 -66h-291l-104 -389l191 115c15.333 9.33301 31.666 11.333 48.999 6s30.833 -16 40.5 -32s11.834 -32.667 6.50098 -50
c-6 -17.333 -16.667 -30.666 -32 -39.999z" />
    <glyph glyph-name="tbar" unicode="&#x167;" 
d="M660 348l-79.999 -299.001c-9.33301 -32.667 -30.333 -49 -63 -49c-17.333 0 -32.833 6.5 -46.5 19.5s-20.5 27.833 -20.5 44.5c0 6 1 12.667 3 20l53 198l-25 -11c-10.667 -4.66699 -22.334 -7 -35.001 -7c-17.333 0 -31.833 7.5 -43.5 22.5s-17.5 31.167 -17.5 48.5
c0 26 12.667 44.333 38 55l127 54l93 348h-51c-44 0 -66 22 -66 66s22 66 66 66h87l92 347c8 32.667 29 49 63 49c44 0 66 -21.667 66 -65c0 -7.33301 -0.666992 -13.666 -2 -18.999l-83 -312h187c44 0 66 -22 66 -66s-22 -66 -66 -66h-222l-76 -281l26 11
c9.33301 4 21.333 6 36 6c40 0 60 -23.333 60 -70c0 -26 -12.333 -44.333 -37 -55z" />
    <glyph glyph-name="Utilde" unicode="&#x168;" 
d="M1256 1664l-55 -39.999c-36.667 -26.667 -77.667 -40 -123 -40c-44 0 -84.667 13.333 -122 40l-110 79c-12 8.66699 -25.333 13 -40 13s-28 -4.33301 -40 -13l-57 -41c-11.333 -8 -24.333 -12 -39 -12c-17.333 0 -33 6.66699 -47 20s-21 28.666 -21 45.999
c0 22 9.33301 39.667 28 53l57 41c35.333 25.333 75 38 119 38s85.667 -14 125 -42l109 -78c11.333 -8 24 -12 38 -12c14.667 0 27.667 4 39 12l58 41c12 8.66699 25 13 39 13c45.333 0 68 -22 68 -66c0 -22 -8.66699 -39.333 -26 -52zM998 396.001
c-44.667 -166.667 -140 -282.668 -286 -348.001c-70.667 -32 -147.667 -48 -231 -48c-54 0 -106 17 -156 51c-46 32 -83.333 73.167 -112 123.5s-43 102.5 -43 156.5c0 23.333 2.66699 45 8 65l235 875c8.66699 32.667 29.667 49 63 49c44 0 66 -21.667 66 -65
c0 -8 -0.666992 -14.333 -2 -19l-225 -840c-6 -22.667 -9 -43.667 -9 -63c0 -59.333 20.167 -107.666 60.5 -144.999s90.5 -56 150.5 -56c74.667 0 146 26 214 78s111.667 114 131 186l234 875c8.66699 32.667 29.667 49 63 49c44 0 66 -21.667 66 -65
c0 -8 -0.666992 -14.333 -2 -19z" />
    <glyph glyph-name="utilde" unicode="&#x169;" 
d="M967 875c8.66699 32.667 29.667 49.001 63 49.001c44 0 66 -21.667 66 -65c0 -8 -0.666992 -14.333 -2 -19l-209 -774c-12 -44 -40.667 -66 -86 -66h-341c-57.333 0 -106.5 20.667 -147.5 62s-61.5 90.666 -61.5 147.999c0 18.667 2.33301 36.667 7 54l164 611
c8.66699 32.667 29.667 49 63 49c44 0 66 -21.667 66 -65c0 -8 -0.666992 -14.333 -2 -19l-154 -576c-4.66699 -17.333 -7 -33.333 -7 -48c0 -56 35.667 -84 107 -84h273zM1177 1202l-55 -39.999c-36.667 -26.667 -77.667 -40 -123 -40c-44 0 -84.667 13.333 -122 40
l-110 79c-12 8.66699 -25.333 13 -40 13s-28 -4.33301 -40 -13l-57 -41c-11.333 -8 -24.333 -12 -39 -12c-17.333 0 -33 6.66699 -47 20s-21 28.666 -21 45.999c0 22 9.33301 39.667 28 53l57 41c35.333 25.333 75 38 119 38s85.667 -14 125 -42l109 -78
c11.333 -8 24 -12 38 -12c14.667 0 27.667 4 39 12l58 41c12 8.66699 25 13 39 13c45.333 0 68 -22 68 -66c0 -22 -8.66699 -39.333 -26 -52z" />
    <glyph glyph-name="Umacron" unicode="&#x16a;" 
d="M1241 1584h-683c-44 0 -66 22 -66 66s22 66 66 66h683c44 0 66 -22 66 -66s-22 -66 -66 -66zM974 396c-45.333 -166.667 -140.666 -282.668 -285.999 -348.001c-71.333 -32 -148.333 -48 -231 -48c-54 0 -106 17 -156 51c-46.667 32 -84.167 73.167 -112.5 123.5
s-42.5 102.5 -42.5 156.5c0 23.333 2.66699 45 8 65l235 875c8.66699 32.667 29.667 49 63 49c44 0 66 -21.667 66 -65c0 -8 -0.666992 -14.333 -2 -19l-225 -840c-6 -22.667 -9 -43.667 -9 -63c0 -59.333 20.167 -107.666 60.5 -144.999s90.5 -56 150.5 -56
c74 0 145.167 26 213.5 78s112.166 114 131.499 186l234 875c8.66699 32.667 29.667 49 63 49c44 0 66 -21.667 66 -65c0 -8 -0.666992 -14.333 -2 -19z" />
    <glyph glyph-name="umacron" unicode="&#x16b;" 
d="M933 875c8.66699 32.667 29.667 49.001 63 49.001c44 0 66 -21.667 66 -65c0 -8 -0.666992 -14.333 -2 -19l-209 -774c-12 -44 -40.667 -66 -86 -66h-341c-57.333 0 -106.5 20.667 -147.5 62s-61.5 90.666 -61.5 147.999c0 18.667 2.33301 36.667 7 54l164 611
c8.66699 32.667 29.667 49 63 49c44 0 66 -21.667 66 -65c0 -8 -0.666992 -14.333 -2 -19l-154 -576c-4.66699 -17.333 -7 -33.333 -7 -48c0 -56 35.667 -84 107 -84h273zM1171 1188h-683c-44 0 -66 22 -66 66s22 66 66 66h683c44 0 66 -22 66 -66s-22 -66 -66 -66z" />
    <glyph glyph-name="Ubreve" unicode="&#x16c;" 
d="M1256 1782c-33.333 -124.667 -91.668 -203.666 -175.001 -236.999c-44.667 -18 -101 -27 -169 -27c-80.667 0 -141 35.333 -181 106c-18.667 32 -28 66.333 -28 103c0 20 2.33301 38.333 7 55c12 44 39 66 81 66c14.667 0 27.834 -5.33301 39.501 -16
s17.5 -23.334 17.5 -38.001c0 -4 -0.666992 -8 -2 -12c-6.66699 -23.333 -10 -39 -10 -47c0 -56.667 37.333 -85 112 -85c90.667 0 148 44 172 132c12 44 39.667 66 83 66c36.667 0 55 -17 55 -51c0 -4.66699 -0.666992 -9.66699 -2 -15zM1022 396.001
c-44.667 -166.667 -140 -282.668 -286 -348.001c-70.667 -32 -147.667 -48 -231 -48c-54 0 -106 17 -156 51c-46 32 -83.333 73.167 -112 123.5s-43 102.5 -43 156.5c0 23.333 2.66699 45 8 65l235 875c8.66699 32.667 29.667 49 63 49c44 0 66 -21.667 66 -65
c0 -8 -0.666992 -14.333 -2 -19l-225 -840c-6 -22.667 -9 -43.667 -9 -63c0 -59.333 20.167 -107.666 60.5 -144.999s90.5 -56 150.5 -56c74.667 0 146 26 214 78s111.667 114 131 186l234 875c8.66699 32.667 29.667 49 63 49c44 0 66 -21.667 66 -65
c0 -8 -0.666992 -14.333 -2 -19z" />
    <glyph glyph-name="ubreve" unicode="&#x16d;" 
d="M973 875c8.66699 32.667 29.667 49.001 63 49.001c44 0 66 -21.667 66 -65c0 -8 -0.666992 -14.333 -2 -19l-209 -774c-12 -44 -40.667 -66 -86 -66h-341c-57.333 0 -106.5 20.667 -147.5 62s-61.5 90.666 -61.5 147.999c0 18.667 2.33301 36.667 7 54l164 611
c8.66699 32.667 29.667 49 63 49c44 0 66 -21.667 66 -65c0 -8 -0.666992 -14.333 -2 -19l-154 -576c-4.66699 -17.333 -7 -33.333 -7 -48c0 -56 35.667 -84 107 -84h273zM1195 1452c-33.333 -124.667 -91.668 -203.666 -175.001 -236.999c-44.667 -18 -101 -27 -169 -27
c-80.667 0 -141 35.333 -181 106c-18.667 32 -28 66.333 -28 103c0 20 2.33301 38.333 7 55c12 44 39 66 81 66c14.667 0 27.834 -5.33301 39.501 -16s17.5 -23.334 17.5 -38.001c0 -4 -0.666992 -8 -2 -12c-6.66699 -23.333 -10 -39 -10 -47c0 -56.667 37.333 -85 112 -85
c90.667 0 148 44 172 132c12 44 39.667 66 83 66c36.667 0 55 -17 55 -51c0 -4.66699 -0.666992 -9.66699 -2 -15z" />
    <glyph glyph-name="Uring" unicode="&#x16e;" 
d="M932 1848c64 0 118.499 -22.5 163.499 -67.5s67.5 -99.5 67.5 -163.5s-22.667 -118.5 -68 -163.5s-99.666 -67.5 -162.999 -67.5c-64 0 -118.5 22.5 -163.5 67.5s-67.5 99.5 -67.5 163.5s22.5 118.5 67.5 163.5s99.5 67.5 163.5 67.5zM931.999 1716
c-28 0 -51.5 -9.66602 -70.5 -28.999s-28.5 -42.666 -28.5 -69.999c0 -39.333 16.333 -68 49 -86c16 -8.66699 32.667 -13 50 -13c27.333 0 50.666 9.66699 69.999 29s29 42.666 29 69.999s-9.66699 50.666 -29 69.999s-42.666 29 -69.999 29zM1027 396.001
c-45.333 -166.667 -140.666 -282.668 -285.999 -348.001c-71.333 -32 -148.333 -48 -231 -48c-54 0 -106 17 -156 51c-46.667 32 -84.167 73.167 -112.5 123.5s-42.5 102.5 -42.5 156.5c0 23.333 2.66699 45 8 65l235 875c8.66699 32.667 29.667 49 63 49
c44 0 66 -21.667 66 -65c0 -8 -0.666992 -14.333 -2 -19l-225 -840c-6 -22.667 -9 -43.667 -9 -63c0 -59.333 20.167 -107.666 60.5 -144.999s90.5 -56 150.5 -56c74 0 145.167 26 213.5 78s112.166 114 131.499 186l234 875c8.66699 32.667 29.667 49 63 49
c44 0 66 -21.667 66 -65c0 -8 -0.666992 -14.333 -2 -19z" />
    <glyph glyph-name="uring" unicode="&#x16f;" 
d="M1014 875c8.66699 32.667 29.667 49.001 63 49.001c44 0 66 -21.667 66 -65c0 -8 -0.666992 -14.333 -2 -19l-209 -774c-12 -44 -40.667 -66 -86 -66h-341c-57.333 0 -106.5 20.667 -147.5 62s-61.5 90.666 -61.5 147.999c0 18.667 2.33301 36.667 7 54l164 611
c8.66699 32.667 29.667 49 63 49c44 0 66 -21.667 66 -65c0 -8 -0.666992 -14.333 -2 -19l-154 -576c-4.66699 -17.333 -7 -33.333 -7 -48c0 -56 35.667 -84 107 -84h273zM926 1584c64 0 118.499 -22.5 163.499 -67.5s67.5 -99.5 67.5 -163.5s-22.667 -118.5 -68 -163.5
s-99.666 -67.5 -162.999 -67.5c-64 0 -118.5 22.5 -163.5 67.5s-67.5 99.5 -67.5 163.5s22.5 118.5 67.5 163.5s99.5 67.5 163.5 67.5zM925.999 1452c-28 0 -51.5 -9.66602 -70.5 -28.999s-28.5 -42.666 -28.5 -69.999c0 -39.333 16.333 -68 49 -86
c16 -8.66699 32.667 -13 50 -13c27.333 0 50.666 9.66699 69.999 29s29 42.666 29 69.999s-9.66699 50.666 -29 69.999s-42.666 29 -69.999 29z" />
    <glyph glyph-name="Udblacute" unicode="&#x170;" 
d="M799 1828c12.667 13.333 27.667 20 45 20c46 0 69 -22 69 -66c0 -17.333 -6.33301 -32.666 -19 -45.999l-189 -198c-12.667 -13.333 -28 -20 -46 -20c-45.333 0 -68 22 -68 66c0 17.333 6.33301 32.666 19 45.999zM1211 1828c12.667 13.333 27.667 20 45 20
c46 0 69 -22 69 -66c0 -17.333 -6.33301 -32.666 -19 -45.999l-189 -198c-12.667 -13.333 -28 -20 -46 -20c-45.333 0 -68 22 -68 66c0 17.333 6.33301 32.666 19 45.999zM955 396c-44.667 -166.667 -140 -282.668 -286 -348.001c-70.667 -32 -147.667 -48 -231 -48
c-54 0 -106 17 -156 51c-46 32 -83.333 73.167 -112 123.5s-43 102.5 -43 156.5c0 23.333 2.66699 45 8 65l235 875c8.66699 32.667 29.667 49 63 49c44 0 66 -21.667 66 -65c0 -8 -0.666992 -14.333 -2 -19l-225 -840c-6 -22.667 -9 -43.667 -9 -63
c0 -59.333 20.167 -107.666 60.5 -144.999s90.5 -56 150.5 -56c74.667 0 146 26 214 78s111.667 114 131 186l234 875c8.66699 32.667 29.667 49 63 49c44 0 66 -21.667 66 -65c0 -8 -0.666992 -14.333 -2 -19z" />
    <glyph glyph-name="udblacute" unicode="&#x171;" 
d="M881 875c8.66699 32.667 29.667 49.001 63 49.001c44 0 66 -21.667 66 -65c0 -8 -0.666992 -14.333 -2 -19l-209 -774c-12 -44 -40.667 -66 -86 -66h-341c-57.333 0 -106.5 20.667 -147.5 62s-61.5 90.666 -61.5 147.999c0 18.667 2.33301 36.667 7 54l164 611
c8.66699 32.667 29.667 49 63 49c44 0 66 -21.667 66 -65c0 -8 -0.666992 -14.333 -2 -19l-154 -576c-4.66699 -17.333 -7 -33.333 -7 -48c0 -56 35.667 -84 107 -84h273zM641 1443c10 6 21.667 9.00098 35 9.00098c44 0 66 -21.667 66 -65
c0 -25.333 -10.667 -44.333 -32 -57l-326 -198c-10.667 -6.66699 -22 -10 -34 -10c-17.333 0 -32.833 6.66699 -46.5 20s-20.5 28.666 -20.5 45.999c0 24.667 11 43.667 33 57zM1188 1443c10 6 21.667 9.00098 35 9.00098c44 0 66 -21.667 66 -65
c0 -25.333 -10.667 -44.333 -32 -57l-326 -198c-10.667 -6.66699 -22 -10 -34 -10c-17.333 0 -32.833 6.66699 -46.5 20s-20.5 28.666 -20.5 45.999c0 24.667 11 43.667 33 57z" />
    <glyph glyph-name="Uogonek" unicode="&#x172;" 
d="M570 3l-123.001 -232.998c-12 -22.667 -30.667 -34 -56 -34c-46 0 -69 21.667 -69 65c0 10.667 2.66699 21 8 31l96 182c-87.333 29.333 -152.666 90.666 -195.999 183.999c-20 43.333 -30 86.666 -30 129.999c0 35.333 1.33301 58 4 68l235 875
c8.66699 32.667 30 49 64 49c44 0 66 -21.667 66 -65c0 -8 -0.666992 -14.333 -2 -19l-225 -840c-5.33301 -20 -8 -40 -8 -60c0 -60 19.833 -109 59.5 -147s89.834 -57 150.501 -57c74.667 0 146 26 214 78s111.667 114 131 186l234 875c8.66699 32.667 29.667 49 63 49
c44 0 66 -21.667 66 -65c0 -8 -0.666992 -14.333 -2 -19l-225 -840c-40.667 -152.667 -124.334 -263 -251.001 -331c-62 -33.333 -130 -54 -204 -62z" />
    <glyph glyph-name="uogonek" unicode="&#x173;" 
d="M573 0l-121 -230c-12 -22.667 -30.667 -34 -56 -34c-46 0 -69 21.667 -69 65c0 10.667 2.66699 21 8 31l97 184c-86 36 -129 100.667 -129 194c0 18.667 2.33301 36.667 7 54l164 611c8.66699 32.667 29.667 49 63 49c44 0 66 -21.667 66 -65
c0 -8 -0.666992 -14.333 -2 -19l-154 -576c-4.66699 -17.333 -7 -33.333 -7 -48c0 -56 35.667 -84 107 -84h273l201 743c8.66699 32.667 29.667 49 63 49c44 0 66 -21.667 66 -65c0 -8 -0.666992 -14.333 -2 -19l-209 -774c-12 -44 -40.667 -66 -86 -66h-280z" />
    <glyph glyph-name="Wcircumflex" unicode="&#x174;" 
d="M594 651l-381 -620.001c-13.333 -20.667 -32.333 -31 -57 -31c-18 0 -33.667 6.83301 -47 20.5s-19.333 29.5 -18 47.5l46 1188c1.33301 42.667 22.666 64 63.999 64c46.667 0 69.334 -23 68.001 -69l-36 -936l353 577c12.667 21.333 30.667 32 54 32
c42.667 0 65.667 -20.333 69 -61l43 -557l485 977c12 24.667 31.333 37 58 37c44.667 0 67 -21.333 67 -64c0 -11.333 -2.33301 -21.666 -7 -30.999l-590 -1189c-12 -24 -31 -36 -57 -36c-43.333 -0 -66.333 20.333 -69 61zM877 1690l-204 -157.999
c-12.667 -9.33301 -26.334 -14 -41.001 -14c-44 0 -66 22.333 -66 67c0 21.333 8.66699 38.666 26 51.999l257 198c10.667 8.66699 24.334 13 41.001 13c20.667 0 37.667 -8.33301 51 -25l153 -198c9.33301 -12 14 -25.667 14 -41c0 -18 -6.83301 -33.5 -20.5 -46.5
s-29.167 -19.5 -46.5 -19.5c-20.667 0 -37.667 8.66699 -51 26z" />
    <glyph glyph-name="wcircumflex" unicode="&#x175;" 
d="M725 602l38 -320l319 606c12 24 31.667 36 59 36c44 0 66 -21.667 66 -65c0 -11.333 -2.66699 -22 -8 -32l-418 -792c-12.667 -23.333 -31.667 -35 -57 -35c-40.667 -0 -63 19.333 -67 58l-42 350l-247 -377c-14 -20.667 -33 -31 -57 -31c-44 0 -65.667 22 -65 66l8 793
c0 43.333 22.333 65 67 65c43.333 0 65 -22.333 65 -67l-6 -566l223 339c12 18.667 30 28.667 54 30c40 2 62.667 -17.333 68 -58zM858 1294l-204 -157.999c-12.667 -9.33301 -26.334 -14 -41.001 -14c-44 0 -66 22.333 -66 67c0 21.333 8.66699 38.666 26 51.999l257 198
c10.667 8.66699 24.334 13 41.001 13c20.667 0 37.667 -8.33301 51 -25l153 -198c9.33301 -12 14 -25.667 14 -41c0 -18 -6.83301 -33.5 -20.5 -46.5s-29.167 -19.5 -46.5 -19.5c-20.667 0 -37.667 8.66699 -51 26z" />
    <glyph glyph-name="Ycircumflex" unicode="&#x176;" 
d="M852 1690l-204 -157.999c-12.667 -9.33301 -26.334 -14 -41.001 -14c-44 0 -66 22.333 -66 67c0 21.333 8.66699 38.666 26 51.999l257 198c10.667 8.66699 24.334 13 41.001 13c20.667 0 37.667 -8.33301 51 -25l153 -198c9.33301 -12 14 -25.667 14 -41
c0 -18 -6.83301 -33.5 -20.5 -46.5s-29.167 -19.5 -46.5 -19.5c-20.667 0 -37.667 8.66699 -51 26zM472 49.001c-9.33301 -32.667 -29.666 -48.999 -60.999 -48.999c-18 0 -34.167 6.33301 -48.5 19s-21.5 27.667 -21.5 45c0 5.33301 1 11.666 3 18.999l153 571l-242 574
c-3.33301 8 -5 16.667 -5 26c0 44 22 66 66 66c28.667 0 49 -13.667 61 -41l211 -502l501 522c13.333 14 28.666 21 45.999 21c18 0 33.833 -6.33301 47.5 -19s20.5 -28 20.5 -46s-6.33301 -33.667 -19 -47l-557 -580z" />
    <glyph glyph-name="ycircumflex" unicode="&#x177;" 
d="M414 -396h-129.998c-44 0 -66 22 -66 66s22 66 66 66h101l212 347l-60 775c0 44 21.667 66 65 66c41.333 0 63.666 -20.333 66.999 -61l46 -587l377 616c13.333 21.333 32.666 32 57.999 32c17.333 0 32.5 -6.5 45.5 -19.5s19.5 -28.167 19.5 -45.5
c0 -13.333 -3.33301 -25.333 -10 -36l-728 -1188c-12.667 -20.667 -33.667 -31 -63 -31zM1003 1294l-204 -157.999c-12 -9.33301 -25.667 -14 -41 -14c-44 0 -66 22.333 -66 67c0 21.333 8.66699 38.666 26 51.999l257 198c11.333 8.66699 25 13 41 13
c21.333 0 38.333 -8.33301 51 -25l153 -198c9.33301 -12 14 -25.667 14 -41c0 -18 -6.66699 -33.5 -20 -46.5s-29 -19.5 -47 -19.5c-20.667 0 -37.667 8.66699 -51 26z" />
    <glyph glyph-name="Ydieresis" unicode="&#x178;" 
d="M546 1602l18 65c8.66699 32.667 29.667 49 63 49c44 0 66 -21.667 66 -65c0 -8 -0.666992 -14.333 -2 -19l-18 -65c-9.33301 -32.667 -30.333 -49 -63 -49c-44 0 -66 21.667 -66 65c0 8 0.666992 14.333 2 19zM956 1602l18 65c8.66699 32.667 29.667 49 63 49
c44 0 66 -21.667 66 -65c0 -8 -0.666992 -14.333 -2 -19l-18 -65c-9.33301 -32.667 -30.333 -49 -63 -49c-44 0 -66 21.667 -66 65c0 8 0.666992 14.333 2 19zM472 49c-9.33301 -32.667 -29.666 -48.999 -60.999 -48.999c-18 0 -34.167 6.33301 -48.5 19
s-21.5 27.667 -21.5 45c0 5.33301 1 11.666 3 18.999l153 571l-242 574c-3.33301 8 -5 16.667 -5 26c0 44 22 66 66 66c28.667 0 49 -13.667 61 -41l211 -502l501 522c13.333 14 28.666 21 45.999 21c18 0 33.833 -6.33301 47.5 -19s20.5 -28 20.5 -46
s-6.33301 -33.667 -19 -47l-557 -580z" />
    <glyph glyph-name="Zacute" unicode="&#x179;" 
d="M1129 1839c9.33301 6 20.999 9.00098 34.999 9.00098c44 0 66 -21.667 66 -65c0 -25.333 -10.667 -44.333 -32 -57l-326 -198c-11.333 -6.66699 -22.666 -10 -33.999 -10c-17.333 0 -32.833 6.66699 -46.5 20s-20.5 28.666 -20.5 45.999c0 24.667 11 43.667 33 57z
M1085 1188h-541c-44 0 -66 22 -66 66s22 66 66 66h682c18 0 33.667 -6.33301 47 -19s20 -28 20 -46c0 -16.667 -5.33301 -31.334 -16 -44.001l-908 -1079h540c44 0 66 -22 66 -66s-22 -66 -66 -66h-685c-18 0 -33.167 6.66699 -45.5 20s-18.5 29 -18.5 47
c0 14.667 5.33301 28.334 16 41.001z" />
    <glyph glyph-name="zacute" unicode="&#x17a;" 
d="M1073 1443c10 6 21.667 9.00098 35 9.00098c44 0 66 -21.667 66 -65c0 -25.333 -10.667 -44.333 -32 -57l-326 -198c-10.667 -6.66699 -22 -10 -34 -10c-17.333 0 -32.833 6.66699 -46.5 20s-20.5 28.666 -20.5 45.999c0 24.667 11 43.667 33 57zM1102 924.001
c44 0 65.999 -21.999 65.999 -65.999c0 -16.667 -5.33301 -30.667 -16 -42l-652 -684h390c44 0 66 -22 66 -66s-22 -66 -66 -66h-546c-17.333 0 -32.666 6.66699 -45.999 20s-20 28.666 -20 45.999c0 16.667 5.33301 30.667 16 42l654 684h-392c-44 0 -66 22 -66 66
s22 66 66 66h546z" />
    <glyph glyph-name="Zdot" unicode="&#x17b;" 
d="M911 1602l18 65c8.66699 32.667 29.667 49 63 49c44 0 66 -21.667 66 -65c0 -8 -0.666992 -14.333 -2 -19l-18 -65c-9.33301 -32.667 -30.333 -49 -63 -49c-44 0 -66 21.667 -66 65c0 8 0.666992 14.333 2 19zM1085 1188h-541c-44 0 -66 22 -66 66s22 66 66 66h682
c18 0 33.667 -6.33301 47 -19s20 -28 20 -46c0 -16.667 -5.33301 -31.334 -16 -44.001l-908 -1079h540c44 0 66 -22 66 -66s-22 -66 -66 -66h-685c-18 0 -33.167 6.66699 -45.5 20s-18.5 29 -18.5 47c0 14.667 5.33301 28.334 16 41.001z" />
    <glyph glyph-name="zdot" unicode="&#x17c;" 
d="M1105 924c44 0 65.999 -21.999 65.999 -65.999c0 -16.667 -5.33301 -30.667 -16 -42l-652 -684h390c44 0 66 -22 66 -66s-22 -66 -66 -66h-546c-17.333 0 -32.666 6.66699 -45.999 20s-20 28.666 -20 45.999c0 16.667 5.33301 30.667 16 42l654 684h-392
c-44 0 -66 22 -66 66s22 66 66 66h546zM856.999 1206l18 65c9.33301 32.667 30.333 49 63 49c44 0 66 -21.667 66 -65c0 -8 -0.666992 -14.333 -2 -19l-18 -65c-9.33301 -32.667 -30.333 -49 -63 -49c-44 0 -66 21.667 -66 65c0 8 0.666992 14.333 2 19z" />
    <glyph glyph-name="Zcaron" unicode="&#x17d;" 
d="M984 1676l204 157.999c12 9.33301 25.667 14 41 14c44 0 66 -22.333 66 -67c0 -21.333 -8.66699 -38.666 -26 -51.999l-257 -198c-11.333 -8.66699 -25 -13 -41 -13c-21.333 0 -38.333 8.33301 -51 25l-153 198c-9.33301 12 -14 25.667 -14 41c0 44 22.333 66 67 66
c20.667 0 37.667 -8.66699 51 -26zM1082 1188h-541c-44 0 -66 22 -66 66s22 66 66 66h682c18 0 33.667 -6.33301 47 -19s20 -28 20 -46c0 -16.667 -5.33301 -31.334 -16 -44.001l-908 -1079h540c44 0 66 -22 66 -66s-22 -66 -66 -66h-685c-18 0 -33.167 6.66699 -45.5 20
s-18.5 29 -18.5 47c0 14.667 5.33301 28.334 16 41.001z" />
    </font>
</defs>
</svg>
