<?xml version="1.0" standalone="no"?>
<!DOCTYPE svg PUBLIC "-//W3C//DTD SVG 1.1//EN" "http://www.w3.org/Graphics/SVG/1.1/DTD/svg11.dtd" >
<svg>
<metadata>
Created by FontForge 20090914 at Mon Dec 26 02:43:29 2022
 By www-data
Copyright &#194;&#169; 1996-2008. ASCON Ltd. All Rights Reserved. 
</metadata>
<defs>
<font id="GOSTTypeB" horiz-adv-x="980" >
  <font-face 
    font-family="GOST type B"
    font-weight="400"
    font-stretch="normal"
    units-per-em="2048"
    panose-1="2 11 5 0 0 0 0 0 0 0"
    ascent="1638"
    descent="-410"
    x-height="979.999"
    cap-height="1400"
    bbox="-140 -420.001 2800 1821"
    underline-thickness="100"
    underline-position="-100"
    unicode-range="U+0020-U+2205"
  />
<missing-glyph horiz-adv-x="1414" 
d="M88 0v1414h1238v-1414h-1238zM1238 88v1238h-1062v-1238h1062z" />
    <glyph glyph-name=".notdef" horiz-adv-x="1414" 
d="M88 0v1414h1238v-1414h-1238zM1238 88v1238h-1062v-1238h1062z" />
    <glyph glyph-name="space" unicode=" " horiz-adv-x="840" 
 />
    <glyph glyph-name="exclam" unicode="!" horiz-adv-x="420" 
d="M280 350c0 -22 -6.66602 -39.667 -19.999 -53c-12.667 -11.333 -29.334 -17 -50.001 -17c-18.667 0 -35 5.83301 -49 17.5s-21 29.167 -21 52.5v980c0 18.667 7 36 21 52c14 12 30.333 18 49 18c18 0 34.167 -5.83301 48.5 -17.5s21.5 -29.167 21.5 -52.5v-980z
M140.001 70c0 18.667 7.00098 36 21.001 52c14 12 30.333 18 49 18c18 0 34.167 -5.83301 48.5 -17.5s21.5 -29.167 21.5 -52.5c0 -22 -6.66699 -39.667 -20 -53c-12.667 -11.333 -29.334 -17 -50.001 -17c-18.667 -0 -35 5.83301 -49 17.5s-21 29.167 -21 52.5z" />
    <glyph glyph-name="quotedbl" unicode="&#x22;" horiz-adv-x="700" 
d="M557 1313l-70 -280c-8 -35.333 -30.333 -53 -67 -53c-19.333 0 -36 6.66699 -50 20c-15.333 12 -23 28 -23 48l3 19l70 280c8 35.333 30.333 53 67 53c20.667 0 37.667 -6.66699 51 -20c14.667 -12.667 22 -29 22 -49zM277 1313l-70 -280c-8 -35.333 -30.333 -53 -67 -53
c-19.333 0 -36 6.66699 -50 20c-15.333 12 -23 28 -23 48l3 19l70 280c8 35.333 30.333 53 67 53c20.667 0 37.667 -6.66699 51 -20c14.667 -12.667 22 -29 22 -49z" />
    <glyph glyph-name="numbersign" unicode="#" horiz-adv-x="1386" 
d="M451 904h-112.001c-21.333 0 -38.666 6.66699 -51.999 20c-12 14 -18 30.667 -18 50c0 16.667 6.16699 32.5 18.5 47.5s29.5 22.5 51.5 22.5h143l64 300c2 16 10 29.667 24 41c14 10 29 15 45 15c17.333 0 33.666 -5.66699 48.999 -17c14 -12 21 -28.667 21 -50l-2 -17
l-57 -272h290l64 301c8 36.667 30 55 66 55c20 0 36.667 -6.66699 50 -20c14.667 -12.667 22 -29 22 -49l-1 -17l-59 -270h109c22 0 39.333 -6.33301 52 -19c12 -14 18 -31 18 -51c0 -16.667 -5.66699 -32.5 -17 -47.5s-29 -22.5 -53 -22.5h-138l-90 -414h111
c22 0 39.167 -7.33301 51.5 -22s18.5 -30.667 18.5 -48c0 -16 -5.83301 -31.667 -17.5 -47s-29.167 -23 -52.5 -23h-141l-65 -298c-8 -36.667 -30 -55 -66 -55c-19.333 0 -36.166 6.5 -50.499 19.5s-21.5 29.5 -21.5 49.5l1 17l57 267h-287l-64 -297
c-2 -15.333 -9.83301 -28.5 -23.5 -39.5s-28.834 -16.5 -45.501 -16.5c-16 0 -31.667 5.83301 -47 17.5s-23 28.167 -23 49.5l2 17l57 269h-112c-21.333 0 -38.666 6.66699 -51.999 20c-12 14 -18 30.667 -18 50c0 16.667 6.16699 32.5 18.5 47.5s29.5 22.5 51.5 22.5h142z
M884.999 904h-290l-90 -414h290z" />
    <glyph glyph-name="dollar" unicode="$" horiz-adv-x="1120" 
d="M493 1397l0.00292969 207.001c0 18.667 7 36 21 52c14 12 30.333 18 49 18c17.333 0 33.666 -5.66699 48.999 -17c14 -12 21 -29.667 21 -53v-208c107.333 -10 208.666 -48 303.999 -114c9.33301 -6 16.666 -14.667 21.999 -26c5.33301 -8.66699 8 -18.667 8 -30
c0 -16 -7.16699 -32.167 -21.5 -48.5s-30.5 -24.5 -48.5 -24.5c-14.667 0 -28.667 4.66699 -42 14c-60.667 43.333 -134.667 73 -222 89v-473l211 -156c41.333 -28.667 75.333 -69.5 102 -122.5s40 -106.833 40 -161.5c0 -58 -12 -111.167 -36 -159.5
s-61.667 -86.166 -113 -113.499l-47 -24l-55 -21l-102 -25v-210c0 -19.333 -7.16699 -35.833 -21.5 -49.5s-30.5 -20.5 -48.5 -20.5c-16 0 -31.667 5.83301 -47 17.5s-23 29.167 -23 52.5v206c-24 0 -48.667 3.33301 -74 10s-52 16.334 -80 29.001
c-45.333 16.667 -99 44.667 -161 84c-21.333 14 -32 33 -32 57c0 20 6.5 37.167 19.5 51.5s29.167 21.5 48.5 21.5c12 0 25 -4 39 -12c38.667 -25.333 79 -47.333 121 -66c26.667 -10.667 66.334 -21.334 119.001 -32.001v575l-247 182
c-28.667 20 -51.834 47.833 -69.501 83.5s-26.5 72.5 -26.5 110.5c0 50.667 12.667 98.5 38 143.5s65 81.833 119 110.5c24 11.333 51.333 21.666 82 30.999c27.333 7.33301 62 14.666 104 21.999zM493.003 886.001l-0.000976562 371l-25 -4
c-10.667 -1.33301 -24 -4.5 -40 -9.5s-35 -13.167 -57 -24.5c-25.333 -14 -46.666 -33 -63.999 -57l-17 -34c-4 -10 -6 -23 -6 -39c0 -32.667 13.667 -58.667 41 -78zM633.002 610.001v-467.001c23.333 4 46.333 10 69 18c12.667 4.66699 23.667 9 33 13s21.333 10 36 18
c24 12 43 32 57 60c6.66699 14 12 28.333 16 43s6 29.667 6 45c0 31.333 -7 64 -21 98c-12.667 24.667 -33.667 49.334 -63 74.001z" />
    <glyph glyph-name="percent" unicode="%" horiz-adv-x="2100" 
d="M1960 322c0 -100 -33.666 -180.667 -100.999 -242c-58.667 -53.333 -132.334 -80 -221.001 -80c-86 0 -159.667 26.667 -221 80c-67.333 58 -101 138.667 -101 242c0 100 33.667 180.333 101 241c61.333 54 135 81 221 81s159.667 -26.667 221 -80
c67.333 -58 101 -138.667 101 -242zM1529 1291l-840 -1260c-5.33301 -8.66699 -14.333 -17 -27 -25l-31 -7c-14.667 0 -31 7 -49 21c-15.333 14 -23 30.667 -23 50c0 12 4 25 12 39l840 1260c6 9.33301 14.333 17.333 25 24l15 6l17 2c18 0 35 -7 51 -21
c14.667 -14.667 22 -31.334 22 -50.001c0 -12 -4 -25 -12 -39zM784.001 1078c0 -100 -33.666 -180.667 -100.999 -242c-58.667 -53.333 -132.334 -80 -221.001 -80c-86 0 -159.667 26.667 -221 80c-67.333 58 -101 138.667 -101 242c0 100 33.667 180.333 101 241
c61.333 54 135 81 221 81s159.667 -26.667 221 -80c67.333 -58 101 -138.667 101 -242zM1820 322.001c0 54 -18.333 97.833 -55 131.5s-79 50.5 -127 50.5c-46 0 -87.667 -15 -125 -45c-38 -33.333 -57 -79 -57 -137c0 -56 18.667 -101.333 56 -136
c34.667 -30.667 76.667 -46 126 -46c46.667 0 88 15 124 45c38.667 33.333 58 79 58 137zM644.002 1078c0 54 -17.667 98.333 -53 133c-36.667 32.667 -79.667 49 -129 49c-46 0 -87.667 -15 -125 -45c-38 -33.333 -57 -79 -57 -137c0 -56 18.667 -101.333 56 -136
c34.667 -30.667 76.667 -46 126 -46c48 0 90.333 15.833 127 47.5s55 76.5 55 134.5z" />
    <glyph glyph-name="ampersand" unicode="&#x26;" horiz-adv-x="1260" 
d="M557 945l-91 131l-10 19c-5.33301 12.667 -8 25.667 -8 39c0 30 14 59 42 87s60.333 42 97 42l19 -2c35.333 -4 66.333 -20.333 93 -49s40 -56.667 40 -84c0 -18 -8.33301 -35.667 -25 -53zM854 273l-85.001 -79.999c-28 -22 -58.333 -38.833 -91 -50.5
s-63.667 -17.5 -93 -17.5c-75.333 0 -142.5 29.167 -201.5 87.5s-88.5 127.166 -88.5 206.499c0 34.667 6.83301 69 20.5 103s36.834 66.667 69.501 98l144 121zM448.999 855.001l-158.002 -131c-42.667 -42.667 -75.5 -90.667 -98.5 -144s-34.5 -105.333 -34.5 -156
c0 -111.333 43 -212.166 129 -302.499s186.667 -135.5 302 -135.5c48 0 94.667 7.83301 140 23.5s89.333 41.834 132 78.501l73 70l89 -129l25 -23l31 -7c17.333 0 33.833 7 49.5 21s23.5 30.667 23.5 50c0 14 -4.66699 27.667 -14 41l-101 145l91 86
c15.333 14 23 30.333 23 49c0 17.333 -7.16699 33.5 -21.5 48.5s-31.166 22.5 -50.499 22.5c-17.333 0 -32.666 -6.66699 -45.999 -20l-75 -71l-321 459l167 139c19.333 15.333 36 36.666 50 63.999c10 26 15 54 15 84c0 64 -21.667 122.667 -65 176
c-46 58 -104 93 -174 105l-22 3h-19c-70 0 -134.167 -28.167 -192.5 -84.5s-87.5 -120.5 -87.5 -192.5c0 -22.667 3 -44.334 9 -65.001s17 -42 33 -64z" />
    <glyph glyph-name="quotesingle" unicode="'" horiz-adv-x="420" 
d="M297 1313l-70 -280c-8 -35.333 -30.333 -53 -67 -53c-20.667 0 -37.667 6.66699 -51 20c-14.667 12.667 -22 28.667 -22 48l3 19l70 280c8 35.333 30.333 53 67 53c20 0 36.667 -6.66699 50 -20c15.333 -12 23 -28.333 23 -49z" />
    <glyph glyph-name="parenleft" unicode="(" horiz-adv-x="630" 
d="M484 -118c6.66699 -13.333 10.001 -25.335 10.001 -36.002c0 -18 -7.5 -33.667 -22.5 -47s-32.167 -20 -51.5 -20c-21.333 0 -41 12 -59 36c-62.667 116 -114.334 247.333 -155.001 394c-15.333 60 -28.333 127.333 -39 202s-16 145.667 -16 213
c0 283.333 70 553 210 809c6 11.333 14.667 20.333 26 27c10 4.66699 21.333 8 34 10c20.667 0 38 -6.66699 52 -20c14 -12 21 -28.333 21 -49c0 -10 -3.33301 -21.667 -10 -35c-15.333 -27.333 -29.5 -54.5 -42.5 -81.5s-25.333 -55.167 -37 -84.5
s-22.667 -59.666 -33 -90.999s-20.5 -64.666 -30.5 -99.999c-33.333 -130 -50 -258.333 -50 -385c0 -262 64.333 -509.333 193 -742z" />
    <glyph glyph-name="parenright" unicode=")" horiz-adv-x="630" 
d="M263 -185c-4 -8.66699 -12.333 -17.334 -25 -26.001l-17 -7l-18 -3c-18.667 0 -35.5 6.5 -50.5 19.5s-22.5 29.167 -22.5 48.5c0 10 3.33301 21.667 10 35c58 107.333 105.667 228 143 362c33.333 129.333 50 256 50 380c0 72.667 -3.5 138.334 -10.5 197.001
s-19.167 120 -36.5 184l-27 92l-14 44l-18 47c-21.333 54.667 -50.333 114 -87 178l-10 37c0 16 7.66699 31.167 23 45.5s32.333 21.5 51 21.5c23.333 0 43 -12.333 59 -37c34 -62.667 62.833 -124.334 86.5 -185.001s46.5 -130.334 68.5 -209.001
c15.333 -58.667 28.333 -125.667 39 -201s16 -146.666 16 -213.999c0 -78 -4.16699 -150.167 -12.5 -216.5s-21.833 -133.166 -40.5 -200.499c-32 -136 -84.333 -266.667 -157 -392z" />
    <glyph glyph-name="asterisk" unicode="*" horiz-adv-x="910" 
d="M601 1050l66.999 -100.999l10 -21l2 -19c0 -18 -7.16699 -34.167 -21.5 -48.5s-31.833 -21.5 -52.5 -21.5c-22 0 -40.667 10.667 -56 32l-81 122l-81 -122c-5.33301 -8.66699 -14.333 -17 -27 -25l-31 -7c-14.667 0 -31 7 -49 21c-15.333 14 -23 30.667 -23 50
c0 12 4 25 12 39l67 101h-120c-21.333 0 -38.666 6.33301 -51.999 19c-12 15.333 -18 32.333 -18 51c0 16 5.83301 31.667 17.5 47s29.167 23 52.5 23h120l-67 101l-10 21l-2 19c0 18 7.16699 34.167 21.5 48.5s31.833 21.5 52.5 21.5c22 0 40.667 -10.667 56 -32l81 -122
l81 122c6 9.33301 14.333 17.333 25 24c10.667 5.33301 21.667 8 33 8c14 0 30.667 -7 50 -21c14.667 -14.667 22 -31.334 22 -50.001c0 -12 -4 -25 -12 -39l-67 -101h120c19.333 0 35.833 -7.16699 49.5 -21.5s20.5 -30.5 20.5 -48.5c0 -16 -5.83301 -31.667 -17.5 -47
s-29.167 -23 -52.5 -23h-120z" />
    <glyph glyph-name="plus" unicode="+" 
d="M563 420l0.000976562 -210c0 -22 -6.66699 -39.667 -20 -53c-12.667 -11.333 -29.334 -17 -50.001 -17c-18.667 0 -35 5.83301 -49 17.5s-21 29.167 -21 52.5v210h-210c-21.333 0 -38.666 6.66699 -51.999 20c-12 14 -18 30.667 -18 50c0 16.667 6.16699 32.5 18.5 47.5
s29.5 22.5 51.5 22.5h210v210c0 18.667 7 36 21 52c14 12 30.333 18 49 18c17.333 0 33.666 -5.66699 48.999 -17c14 -12 21 -29.667 21 -53v-210h210c22 0 39.167 -7.33301 51.5 -22s18.5 -30.667 18.5 -48c0 -16 -5.83301 -31.667 -17.5 -47s-29.167 -23 -52.5 -23h-210z
" />
    <glyph glyph-name="comma" unicode="," horiz-adv-x="420" 
d="M287 70l-1 -17l-70 -280c-8 -35.333 -30.667 -53 -68 -53c-20.667 0 -37.667 6.66699 -51 20c-14 10 -21 26.333 -21 49l2 18l69 274v59c0 18.667 7 36 21 52c14 12 30.333 18 49 18c18 0 34.167 -5.83301 48.5 -17.5s21.5 -29.167 21.5 -52.5v-70z" />
    <glyph glyph-name="hyphen" unicode="-" 
d="M770 420h-560.001c-21.333 0 -38.666 6.66699 -51.999 20c-12 14 -18 30.667 -18 50c0 16.667 6.16699 32.5 18.5 47.5s29.5 22.5 51.5 22.5h560c19.333 0 35.833 -7.16699 49.5 -21.5s20.5 -30.5 20.5 -48.5c0 -16 -5.83301 -31.667 -17.5 -47s-29.167 -23 -52.5 -23z
" />
    <glyph glyph-name="period" unicode="." horiz-adv-x="420" 
d="M140 70c0 19.333 6.83301 35.833 20.5 49.5s30.167 20.5 49.5 20.5c15.333 0 30.833 -6.83301 46.5 -20.5s23.5 -30.167 23.5 -49.5c0 -16.667 -6.83301 -32.5 -20.5 -47.5s-30.167 -22.5 -49.5 -22.5c-20 0 -37 7 -51 21c-12.667 14.667 -19 31 -19 49z" />
    <glyph glyph-name="slash" unicode="/" horiz-adv-x="1260" 
d="M1046 1725l-770 -1960c-4.66699 -10.667 -13 -21.334 -25 -32.001l-19 -9l-19 -4c-20 0 -37.333 6.33301 -52 19s-22 29.334 -22 50.001c0 10.667 1.66699 19.334 5 26.001l770 1960c3.33301 10 11.333 20.667 24 32l13 7c8 4 16.667 6 26 6c20 0 37.333 -6.33301 52 -19
s22 -29.334 22 -50.001c0 -10.667 -1.66699 -19.334 -5 -26.001z" />
    <glyph glyph-name="zero" unicode="0" 
d="M840 308c0 -83.333 -29.833 -155.5 -89.5 -216.5s-132.5 -91.5 -218.5 -91.5h-84c-83.333 0 -155.5 29.667 -216.5 89s-91.5 132.333 -91.5 219v784c0 82 30 153.833 90 215.5s132.667 92.5 218 92.5h84c83.333 0 155.5 -29.833 216.5 -89.5s91.5 -132.5 91.5 -218.5
v-784zM700 308l-0.000976562 784.001c0 46 -16.167 85.5 -48.5 118.5s-72.166 49.5 -119.499 49.5h-84c-46 0 -85.5 -16.333 -118.5 -49s-49.5 -72.334 -49.5 -119.001v-784c0 -46 16.333 -85.5 49 -118.5s72.334 -49.5 119.001 -49.5h84c45.333 0 84.666 16 117.999 48
s50 72 50 120z" />
    <glyph glyph-name="one" unicode="1" horiz-adv-x="700" 
d="M560 70c0 -22 -6.66504 -39.667 -19.998 -53c-12.667 -11.333 -29.334 -17 -50.001 -17c-18.667 -0 -35 5.83301 -49 17.5s-21 29.167 -21 52.5v1092l-161 -161c-14 -14 -30 -21 -48 -21c-16.667 0 -33 7 -49 21c-14.667 14.667 -22 31.334 -22 50.001c0 16 7 32 21 48
l280 280c9.33301 9.33301 19 16.833 29 22.5s21 8.5 33 8.5c11.333 0 24.666 -7 39.999 -21c11.333 -14.667 17 -34.334 17 -59.001v-1260z" />
    <glyph glyph-name="two" unicode="2" 
d="M788 861l-452 -720.999h434c19.333 0 35.833 -7.16699 49.5 -21.5s20.5 -30.5 20.5 -48.5c0 -16 -5.83301 -31.667 -17.5 -47s-29.167 -23 -52.5 -23h-560c-50.667 0 -76 18.667 -76 56c0 14.667 5.66699 32 17 52l517 824c17.333 36.667 26 71.667 26 105
c0 60 -23.333 112 -70 156c-22 20.667 -47.667 37 -77 49s-61 18 -95 18c-35.333 0 -69.333 -9.33301 -102 -28c-32.667 -20.667 -59.667 -47.334 -81 -80.001c-5.33301 -8.66699 -14.333 -17 -27 -25l-31 -7c-18 0 -34.5 6.5 -49.5 19.5s-22.5 29.167 -22.5 48.5
c0 9.33301 4 22.666 12 39.999c32 50 75.333 91 130 123c26.667 15.333 53.667 27.333 81 36s54 13 80 13c109.333 0 201.833 -36.167 277.5 -108.5s113.5 -158.5 113.5 -258.5c0 -57.333 -15 -114.666 -45 -171.999z" />
    <glyph glyph-name="three" unicode="3" 
d="M483 1258l-280.003 0.000976562c-21.333 0 -38.666 6.66699 -51.999 20c-12 14 -18 30.667 -18 50c0 16.667 6.16699 32.5 18.5 47.5s29.5 22.5 51.5 22.5h280c109.333 0 196.666 -35.667 261.999 -107c58.667 -66.667 88 -147 88 -241
c0 -56.667 -11.167 -108.667 -33.5 -156s-56.5 -90 -102.5 -128c38.667 -30.667 71 -70.5 97 -119.5s39 -101.5 39 -157.5v-140c0 -95.333 -34.333 -177.5 -103 -246.5s-151 -103.5 -247 -103.5h-280c-21.333 0 -38.666 6.33301 -51.999 19c-12 15.333 -18 32.333 -18 51
c0 16 5.83301 31.667 17.5 47s29.167 23 52.5 23h280c58 0 107.5 20.5 148.5 61.5s61.5 90.5 61.5 148.5v140c0 57.333 -20.167 106.666 -60.5 147.999s-90.166 62 -149.499 62h-140c-21.333 0 -38.666 6.33301 -51.999 19c-12 15.333 -18 32.333 -18 51
c0 16 5.83301 31.667 17.5 47s29.167 23 52.5 23h140c62 0 113 22.333 153 67c34 40 51 89 51 147c0 56.667 -16.333 103.667 -49 141c-37.333 42.667 -89 64 -155 64z" />
    <glyph glyph-name="four" unicode="4" horiz-adv-x="1120" 
d="M770 420h140.001c19.333 0 35.833 -7.16699 49.5 -21.5s20.5 -30.5 20.5 -48.5c0 -16 -5.83301 -31.667 -17.5 -47s-29.167 -23 -52.5 -23h-140v-210c0 -22 -6.66699 -39.667 -20 -53c-12.667 -11.333 -29.334 -17 -50.001 -17c-18.667 -0 -35 5.83301 -49 17.5
s-21 29.167 -21 52.5v210h-420c-48.667 0 -73 19 -73 57l2 17l4 16l280 979c4 14 12 26.667 24 38l13 7c8 4 17 6 27 6c20.667 0 37.667 -6.66699 51 -20c14.667 -12.667 22 -29 22 -49l-3 -21l-255 -890h328v210c0 18.667 7 36 21 52c14 12 30.333 18 49 18
c18 0 34.167 -5.83301 48.5 -17.5s21.5 -29.167 21.5 -52.5v-210z" />
    <glyph glyph-name="five" unicode="5" 
d="M280 1260l-0.000976562 -420h210c95.333 0 177.5 -34.167 246.5 -102.5s103.5 -150.833 103.5 -247.5v-140c0 -95.333 -34.333 -177.5 -103 -246.5s-151 -103.5 -247 -103.5h-280c-21.333 0 -38.666 6.66699 -51.999 20c-12 14 -18 30.667 -18 50
c0 16.667 6.16699 32.5 18.5 47.5s29.5 22.5 51.5 22.5h280c57.333 0 106.666 20 147.999 60s62 90 62 150v140c0 58 -20.167 107.5 -60.5 148.5s-90.166 61.5 -149.499 61.5h-280c-46.667 0 -70 23.333 -70 70v560c0 46.667 23.333 70 70 70h560
c19.333 0 35.833 -7.16699 49.5 -21.5s20.5 -30.5 20.5 -48.5c0 -16 -5.83301 -31.667 -17.5 -47s-29.167 -23 -52.5 -23h-490z" />
    <glyph glyph-name="six" unicode="6" 
d="M283 700l-3 -70.001v-350c0 -39.333 13.333 -72.666 40 -99.999c14 -12 29 -22 45 -30c20 -6.66699 38.333 -10 55 -10h140c38.667 0 71.667 13 99 39s41 59.667 41 101v280c0 39.333 -13.167 72.5 -39.5 99.5s-59.833 40.5 -100.5 40.5h-277zM307 839.999h253
c76 0 141.667 -27.167 197 -81.5s83 -120.5 83 -198.5v-280c0 -76.667 -27.333 -142.5 -82 -197.5s-120.667 -82.5 -198 -82.5h-140c-75.333 0 -140.833 27 -196.5 81s-83.5 120.333 -83.5 199v350c0 132.667 25.333 258.667 76 378c34.667 82.667 85.667 158 153 226
s145.333 121.333 234 160l30 7c18 0 34.333 -7.33301 49 -22c12 -15.333 18 -32.333 18 -51c0 -13.333 -3 -24.666 -9 -33.999s-17.333 -19 -34 -29c-18.667 -7.33301 -35.5 -14.833 -50.5 -22.5s-31.167 -17.5 -48.5 -29.5c-28.667 -19.333 -58 -43.333 -88 -72
c-54.667 -54.667 -96.667 -117.334 -126 -188.001l-21 -56z" />
    <glyph glyph-name="seven" unicode="7" 
d="M280 1260v-70c0 -22 -6.66699 -39.667 -20 -53c-12.667 -11.333 -29.334 -17 -50.001 -17c-18.667 0 -35 5.83301 -49 17.5s-21 29.167 -21 52.5v140c0 46.667 23.333 70 70 70h560c47.333 0 71 -19.333 71 -58l-4 -30l-350 -1260c-2 -14 -9.66699 -26.167 -23 -36.5
s-27.666 -15.5 -42.999 -15.5c-20.667 -0 -37.667 5.83301 -51 17.5s-20 28.167 -20 49.5c0 10 1 17 3 21l325 1172h-398z" />
    <glyph glyph-name="eight" unicode="8" horiz-adv-x="1120" 
d="M560 840c63.333 0 115.666 22 156.999 66c34.667 40.667 52 88.667 52 144c0 56.667 -17.333 104.667 -52 144c-38 44 -90.333 66 -157 66c-61.333 0 -113.666 -22 -156.999 -66c-34.667 -40.667 -52 -88.667 -52 -144c0 -56.667 17.333 -104.667 52 -144
c38 -44 90.333 -66 157 -66zM560 700c-88 0 -158 -29 -210 -87c-46.667 -52.667 -70 -117 -70 -193c0 -75.333 23.333 -139.333 70 -192c52.667 -58.667 122.667 -88 210 -88c88 0 158 29 210 87c46.667 52.667 70 117 70 193c0 74 -23 138 -69 192
c-52.667 58.667 -123 88 -211 88zM792 778c62 -36 108.999 -86.166 140.999 -150.499s48 -133.5 48 -207.5c0 -110 -35 -206 -105 -288c-77.333 -88 -182.666 -132 -315.999 -132c-131.333 0 -236.333 43.333 -315 130c-70 78 -105 174.667 -105 290
c0 74 15.5 142.833 46.5 206.5s78.5 114.834 142.5 153.501c-37.333 31.333 -66.333 71.166 -87 119.499s-31 98.5 -31 150.5c0 93.333 29 173.666 87 240.999c64.667 72.667 152 109 262 109c108 0 195.333 -36.333 262 -109c58.667 -66.667 88 -147 88 -241
c0 -52 -9.83301 -102.167 -29.5 -150.5s-49.167 -88.833 -88.5 -121.5z" />
    <glyph glyph-name="nine" unicode="9" 
d="M697 700l1.99902 31.999l1 38v350c0 39.333 -13.167 72.5 -39.5 99.5s-59.833 40.5 -100.5 40.5h-140c-39.333 0 -72.666 -13.333 -99.999 -40c-13.333 -13.333 -23.333 -28.5 -30 -45.5s-10 -35.167 -10 -54.5v-280c0 -39.333 13.333 -72.666 40 -99.999
c14 -12 29 -22 45 -30c20 -6.66699 38.333 -10 55 -10h277zM672.999 559.999l-253 -0.000976562c-75.333 0 -140.833 27 -196.5 81s-83.5 120.333 -83.5 199v280c0 77.333 27.333 143.333 82 198s120.667 82 198 82h140c78 0 144.167 -27.333 198.5 -82
s81.5 -120.667 81.5 -198v-349c0 -134.667 -25.333 -260.667 -76 -378c-36.667 -87.333 -88.167 -164.666 -154.5 -231.999s-143.833 -119 -232.5 -155l-30 -6c-16 0 -31.167 7.5 -45.5 22.5s-21.5 31.833 -21.5 50.5c0 11.333 3 22.333 9 33s17.333 20 34 28
c35.333 14 68.333 31 99 51s60 44.667 88 74c52 53.333 94 116.333 126 189l19 53z" />
    <glyph glyph-name="colon" unicode=":" horiz-adv-x="420" 
d="M140 392c0 19.333 6.83301 35.833 20.5 49.5s30.167 20.5 49.5 20.5c15.333 0 30.833 -6.83301 46.5 -20.5s23.5 -30.167 23.5 -49.5c0 -16.667 -6.83301 -32.5 -20.5 -47.5s-30.167 -22.5 -49.5 -22.5c-20 0 -37 7 -51 21c-12.667 14.667 -19 31 -19 49zM140 959
c0 19.333 6.83301 35.833 20.5 49.5s30.167 20.5 49.5 20.5c15.333 0 30.833 -6.83301 46.5 -20.5s23.5 -30.167 23.5 -49.5c0 -16.667 -6.83301 -32.5 -20.5 -47.5s-30.167 -22.5 -49.5 -22.5c-20 0 -37 7 -51 21c-12.667 14.667 -19 31 -19 49z" />
    <glyph glyph-name="semicolon" unicode=";" horiz-adv-x="420" 
d="M280 637c0 -16.667 -6.83301 -32.5 -20.5 -47.5s-30.167 -22.5 -49.5 -22.5c-20 0 -37 7 -51 21c-12.667 14.667 -19 31 -19 49c0 19.333 6.83301 35.833 20.5 49.5s30.167 20.5 49.5 20.5c15.333 0 30.833 -6.83301 46.5 -20.5s23.5 -30.167 23.5 -49.5zM279 53
l-70 -282.999c-8 -35.333 -30.667 -53 -68 -53c-20.667 0 -37.667 6.66699 -51 20c-14 11.333 -21 27.666 -21 48.999l2 18l70 283c8 35.333 30.667 53 68 53c20 0 36.667 -6.66699 50 -20c14.667 -12.667 22 -29 22 -49z" />
    <glyph glyph-name="less" unicode="&#x3c;" 
d="M801 273c26.667 -14.667 40 -35.333 40 -62c0 -20.667 -6.66699 -37.667 -20 -51c-12 -14 -28 -21 -48 -21l-17 1c-4 0 -9.66699 2.33301 -17 7l-560 280c-33.333 16 -50 37 -50 63c0 25.333 16.667 46.333 50 63l560 280c3.33301 1.33301 8.5 2.83301 15.5 4.5
s13.167 2.83398 18.5 3.50098c16 0 31.167 -7.33301 45.5 -22s21.5 -31.334 21.5 -50.001c0 -24 -13 -44.667 -39 -62l-434 -217z" />
    <glyph glyph-name="equal" unicode="=" 
d="M770 630h-560.001c-21.333 0 -38.666 6.66699 -51.999 20c-12 14 -18 30.667 -18 50c0 16.667 6.16699 32.5 18.5 47.5s29.5 22.5 51.5 22.5h560c19.333 0 35.833 -7.16699 49.5 -21.5s20.5 -30.5 20.5 -48.5c0 -16 -5.83301 -31.667 -17.5 -47s-29.167 -23 -52.5 -23z
M769.999 280h-560.001c-21.333 0 -38.666 6.66699 -51.999 20c-12 14 -18 30.667 -18 50c0 16.667 6.16699 32.5 18.5 47.5s29.5 22.5 51.5 22.5h560c19.333 0 35.833 -7.16699 49.5 -21.5s20.5 -30.5 20.5 -48.5c0 -16 -5.83301 -31.667 -17.5 -47s-29.167 -23 -52.5 -23z
" />
    <glyph glyph-name="greater" unicode="&#x3e;" 
d="M801 427l-560 -280.002l-34 -8c-16 0 -31.667 7.33301 -47 22c-13.333 14.667 -20 31.334 -20 50.001c0 24 13 44.667 39 62l434 217l-434 217c-26.667 14.667 -40 35.334 -40 62.001c0 18 6.5 34.5 19.5 49.5s29.167 22.5 48.5 22.5l17 -1c4 0 9.66699 -2.33301 17 -7
l560 -280c33.333 -16 50 -37 50 -63c0 -25.333 -16.667 -46.333 -50 -63z" />
    <glyph glyph-name="question" unicode="?" 
d="M756 868c-42 -58 -93.3311 -109.333 -153.998 -154c-28 -19.333 -42 -47.333 -42 -84v-280c0 -22 -6.66699 -39.667 -20 -53c-12.667 -11.333 -29.334 -17 -50.001 -17c-18.667 0 -35 5.83301 -49 17.5s-21 29.167 -21 52.5v280c0 76 32.333 141.333 97 196
c46 32.667 88.333 74.667 127 126c25.333 33.333 38 71.666 38 114.999c0 51.333 -18.333 96.333 -55 135s-82.334 58 -137.001 58c-44 0 -85 -9.33301 -123 -28s-71.667 -46.667 -101 -84c-14 -20 -32.667 -30 -56 -30c-18 0 -34.333 7.66699 -49 23
c-16 14 -24 29.667 -24 47c0 13.333 5.66699 28 17 44c39.333 52.667 89 93.834 149 123.501s122.333 44.5 187 44.5c94 0 173 -33.167 237 -99.5s96 -144.833 96 -235.5c0 -35.333 -5.16699 -68 -15.5 -98s-27.5 -63 -51.5 -99zM420.002 70
c0 19.333 6.83301 35.833 20.5 49.5s30.167 20.5 49.5 20.5c15.333 0 30.833 -6.83301 46.5 -20.5s23.5 -30.167 23.5 -49.5c0 -16.667 -6.83301 -32.5 -20.5 -47.5s-30.167 -22.5 -49.5 -22.5c-20 0 -37 7 -51 21c-12.667 14.667 -19 31 -19 49z" />
    <glyph glyph-name="at" unicode="@" horiz-adv-x="1680" 
d="M980 561v349h-210c-18.667 0 -35 -6.66699 -49 -20c-14 -12 -21 -28.333 -21 -49v-280c0 -20.667 6.5 -37.667 19.5 -51s29.833 -20 50.5 -20h140c13.333 0 28.333 7 45 21s25 30.667 25 50zM1190 490l64.001 0.00195312c33.333 0 62.5 9.83301 87.5 29.5
s42.167 48.167 51.5 85.5l6 47l2 49c0 150 -54.167 280.667 -162.5 392s-241.166 167 -398.499 167c-153.333 0 -285 -54.667 -395 -164s-165 -241.333 -165 -396c0 -153.333 54.667 -285 164 -395s241.333 -165 396 -165c58 0 115 9 171 27s110 48.333 162 91
c13.333 10 27.666 15 42.999 15c18 0 34.167 -7.33301 48.5 -22s21.5 -31.667 21.5 -51c0 -22.667 -9.66699 -40.667 -29 -54c-56.667 -43.333 -122.334 -79.333 -197.001 -108c-70.667 -25.333 -144 -38 -220 -38c-192 0 -356.667 68.167 -494 204.5s-206 301.5 -206 495.5
s68.167 359.167 204.5 495.5s301.5 204.5 495.5 204.5c193.333 0 358.333 -69.333 495 -208s205 -302.334 205 -491.001c0 -47.333 -3.33301 -86.333 -10 -117c-10 -62.667 -41.5 -117.334 -94.5 -164.001s-113.5 -70 -181.5 -70h-64c-21.333 0 -47 7 -77 21
c-20.667 10.667 -41.667 26 -63 46c-21.333 -18 -47.333 -35.667 -78 -53c-24.667 -9.33301 -45.334 -14 -62.001 -14h-140c-58 0 -107.5 21 -148.5 63s-61.5 91.333 -61.5 148v280c0 58 20.333 107.333 61 148s90.334 61 149.001 61h280c46.667 0 70 -23.333 70 -70v-419
l28 -49c12.667 -14.667 26.667 -22 42 -22z" />
    <glyph glyph-name="A" unicode="A" horiz-adv-x="1260" 
d="M385 351l-101 -302.001c-5.33301 -14.667 -14 -26.667 -26 -36c-9.33301 -6 -22 -10 -38 -12c-18.667 0 -35 6.66699 -49 20c-15.333 12 -23 28 -23 48l5 25l421 1260c14 40 36 60 66 60s52 -20 66 -60l419 -1260l5 -25c0 -18 -7.66699 -34.333 -23 -49
c-14.667 -12.667 -31 -19 -49 -19c-9.33301 0 -19.833 2.33301 -31.5 7s-22.5 18.334 -32.5 41.001l-101 302h-508zM846 493.999l-206 617l-207 -617h413z" />
    <glyph glyph-name="B" unicode="B" horiz-adv-x="1120" 
d="M846 799c40 -24 72.333 -57.667 97 -101s37 -89.333 37 -138v-280c0 -76.667 -27.333 -142.5 -82 -197.5s-120.667 -82.5 -198 -82.5h-490c-46.667 -0 -70 23.333 -70 70v1260c0 46.667 23.333 70 70 70h420c78 0 144.167 -27.333 198.5 -82s81.5 -120.667 81.5 -198
v-140c0 -32 -5 -63 -15 -93s-26.333 -59.333 -49 -88zM280 701v-561h420c38.667 0 71.667 13 99 39s41 59.667 41 101v280c0 39.333 -13.167 72.5 -39.5 99.5s-59.833 40.5 -100.5 40.5zM630 840c38.667 0 71.667 13 99 39s41 59.667 41 101v140
c0 39.333 -13.167 72.5 -39.5 99.5s-59.833 40.5 -100.5 40.5h-350v-421z" />
    <glyph glyph-name="C" unicode="C" 
d="M770 0l-350.001 -0.000976562c-76 0 -141.667 27.167 -197 81.5s-83 120.5 -83 198.5v840c0 78 27.167 144.167 81.5 198.5s120.5 81.5 198.5 81.5h350c19.333 0 35.833 -7.16699 49.5 -21.5s20.5 -30.5 20.5 -48.5c0 -16 -5.83301 -31.667 -17.5 -47
s-29.167 -23 -52.5 -23h-350c-39.333 0 -72.666 -13.333 -99.999 -40c-13.333 -13.333 -23.333 -28.5 -30 -45.5s-10 -35.167 -10 -54.5v-840c0 -39.333 13.333 -72.666 40 -99.999c14 -12 29 -22 45 -30c20 -6.66699 38.333 -10 55 -10h350
c19.333 0 35.833 -7.16699 49.5 -21.5s20.5 -30.5 20.5 -48.5c0 -16 -5.83301 -31.667 -17.5 -47s-29.167 -23 -52.5 -23z" />
    <glyph glyph-name="D" unicode="D" horiz-adv-x="1120" 
d="M980 280c0 -76.667 -27.333 -142.5 -82 -197.5s-120.667 -82.5 -198 -82.5h-490c-46.667 -0 -70 23.333 -70 70v1260c0 46.667 23.333 70 70 70h490c78 0 144.167 -27.333 198.5 -82s81.5 -120.667 81.5 -198v-840zM840 280v840c0 39.333 -13.167 72.5 -39.5 99.5
s-59.833 40.5 -100.5 40.5h-420v-1120h420c38.667 0 71.667 13 99 39s41 59.667 41 101z" />
    <glyph glyph-name="E" unicode="E" 
d="M280 840h351c19.333 0 35.833 -7.16699 49.5 -21.5s20.5 -30.5 20.5 -48.5c0 -16.667 -5.83301 -32.5 -17.5 -47.5s-29.167 -22.5 -52.5 -22.5h-351v-560h491c19.333 0 35.833 -7.16699 49.5 -21.5s20.5 -30.5 20.5 -48.5c0 -16.667 -5.83301 -32.5 -17.5 -47.5
s-29.167 -22.5 -52.5 -22.5h-561c-46.667 0 -70 22 -70 66v1264c0 46.667 23.333 70 70 70h561c19.333 0 35.833 -7.16699 49.5 -21.5s20.5 -30.5 20.5 -48.5c0 -16.667 -5.83301 -32.5 -17.5 -47.5s-29.167 -22.5 -52.5 -22.5h-491v-420z" />
    <glyph glyph-name="F" unicode="F" 
d="M280 841h490.001c22 0 39.333 -6.33301 52 -19c12 -14 18 -31 18 -51c0 -16 -5.83301 -31.667 -17.5 -47s-29.167 -23 -52.5 -23h-490v-631c0 -22 -6.66699 -39.667 -20 -53c-12.667 -11.333 -29.334 -17 -50.001 -17c-18.667 -0 -35 5.83301 -49 17.5
s-21 29.167 -21 52.5v1260c0 46.667 23.333 70 70 70h560c19.333 0 35.833 -7.16699 49.5 -21.5s20.5 -30.5 20.5 -48.5c0 -16 -5.83301 -31.667 -17.5 -47s-29.167 -23 -52.5 -23h-490v-419z" />
    <glyph glyph-name="G" unicode="G" horiz-adv-x="1120" 
d="M980 70c0 -46.667 -23.335 -70.001 -70.002 -70.001h-490c-76 0 -141.667 27.167 -197 81.5s-83 120.5 -83 198.5v840c0 78 27.167 144.167 81.5 198.5s120.5 81.5 198.5 81.5h490c19.333 0 35.833 -7.16699 49.5 -21.5s20.5 -30.5 20.5 -48.5
c0 -16 -5.83301 -31.667 -17.5 -47s-29.167 -23 -52.5 -23h-490c-39.333 0 -72.666 -13.333 -99.999 -40c-13.333 -13.333 -23.333 -28.5 -30 -45.5s-10 -35.167 -10 -54.5v-840c0 -39.333 13.333 -72.666 40 -99.999c14 -12 29 -22 45 -30c20 -6.66699 38.333 -10 55 -10
h420v560h-70c-21.333 0 -38.666 6.66699 -51.999 20c-12 14 -18 30.667 -18 50c0 16.667 6.16699 32.5 18.5 47.5s29.5 22.5 51.5 22.5h140c46.667 0 70 -23.333 70 -70v-700z" />
    <glyph glyph-name="H" unicode="H" horiz-adv-x="1120" 
d="M840 840v493.001c0 18.667 7 35 21 49s30.333 21 49 21c18 0 34.167 -5.83301 48.5 -17.5s21.5 -29.167 21.5 -52.5v-1260c0 -20 -7.33301 -37.667 -22 -53c-16.667 -12.667 -33 -19 -49 -19c-17.333 0 -33.666 5.66699 -48.999 17c-13.333 11.333 -20 28.666 -20 51.999
v630h-560v-630c0 -22 -6.66699 -39.667 -20 -53c-12.667 -11.333 -29.334 -17 -50.001 -17c-18.667 -0 -35 5.83301 -49 17.5s-21 29.167 -21 52.5v1260c0 18.667 7 36 21 52c14 12 30.333 18 49 18c18 0 34.167 -5.83301 48.5 -17.5s21.5 -29.167 21.5 -52.5v-490h560z" />
    <glyph glyph-name="I" unicode="I" horiz-adv-x="420" 
d="M280 70c0 -22 -6.66602 -39.667 -19.999 -53c-12.667 -11.333 -29.334 -17 -50.001 -17c-18.667 -0 -35 5.83301 -49 17.5s-21 29.167 -21 52.5v1260c0 18.667 7 36 21 52c14 12 30.333 18 49 18c18 0 34.167 -5.83301 48.5 -17.5s21.5 -29.167 21.5 -52.5v-1260z" />
    <glyph glyph-name="J" unicode="J" horiz-adv-x="840" 
d="M700 280c0 -76.667 -27.334 -142.5 -82.001 -197.5s-120.667 -82.5 -198 -82.5h-210c-21.333 0 -38.666 6.66699 -51.999 20c-12 14 -18 30.667 -18 50c0 16.667 6.16699 32.5 18.5 47.5s29.5 22.5 51.5 22.5h210c38.667 0 71.667 13 99 39s41 59.667 41 101v1050
c0 18.667 7 36 21 52c14 12 30.333 18 49 18c18 0 34.167 -5.83301 48.5 -17.5s21.5 -29.167 21.5 -52.5v-1050z" />
    <glyph glyph-name="K" unicode="K" horiz-adv-x="1120" 
d="M280 794l589.002 584.999c14 14 30 21 48 21c17.333 0 33.5 -7.16699 48.5 -21.5s22.5 -31.166 22.5 -50.499c0 -12 -7 -27.667 -21 -47l-417 -416l430 -761l10 -37c0 -18 -7.66699 -33.667 -23 -47c-14 -14 -31 -21 -51 -21c-22.667 0 -42.334 12.333 -59.001 37
l-410 731l-167 -164v-533c0 -22 -6.66699 -39.667 -20 -53c-12.667 -11.333 -29.334 -17 -50.001 -17c-18.667 -0 -35 5.83301 -49 17.5s-21 29.167 -21 52.5v1260c0 18 7.16699 33.833 21.5 47.5s30.5 20.5 48.5 20.5s34.333 -5.33301 49 -16c14 -12 21 -29.333 21 -52
v-536z" />
    <glyph glyph-name="L" unicode="L" 
d="M770 0h-560c-46.667 -0 -70 23.333 -70 70v1260c0 18.667 7 36 21 52c14 12 30.333 18 49 18c18 0 34.167 -5.83301 48.5 -17.5s21.5 -29.167 21.5 -52.5v-1190h490c19.333 0 35.833 -7.16699 49.5 -21.5s20.5 -30.5 20.5 -48.5c0 -16 -5.83301 -31.667 -17.5 -47
s-29.167 -23 -52.5 -23z" />
    <glyph glyph-name="M" unicode="M" horiz-adv-x="1260" 
d="M1121 70c0 -22 -6.33301 -39.666 -19 -52.999c-13.333 -11.333 -30.333 -17 -51 -17c-16 0 -31.667 5.83301 -47 17.5s-23 29.167 -23 52.5v999l-289 -484c-17.333 -30 -37.666 -45 -60.999 -45c-20 0 -40 15 -60 45l-291 484v-999c0 -22 -6.66699 -39.667 -20 -53
c-12.667 -11.333 -29.334 -17 -50.001 -17c-18.667 0 -35 5.83301 -49 17.5s-21 29.167 -21 52.5v1253c0 26.667 6.66699 46.667 20 60c12 14 26.667 21 44 21c12.667 0 24 -3.33301 34 -10s20.667 -18.334 32 -35.001l361 -600l360 600c16 30 38.333 45 67 45
c16 0 31 -7.33301 45 -22c12 -15.333 18 -35 18 -59v-1253z" />
    <glyph glyph-name="N" unicode="N" horiz-adv-x="1120" 
d="M979 77c0 -22 -6.33203 -40.667 -18.999 -56l-21 -16c-7.33301 -4 -15.666 -6 -24.999 -6c-28 0 -50.333 14.667 -67 44l-567 1008v-981c0 -22 -6.66699 -39.667 -20 -53c-12.667 -11.333 -29.334 -17 -50.001 -17c-18.667 -0 -35 5.83301 -49 17.5s-21 29.167 -21 52.5
v1253c0 24.667 6.66699 43.667 20 57c12 13.333 27.333 20 46 20c26.667 0 48.667 -14.667 66 -44l567 -1007v981c0 18.667 7 36 21 52c14 12 30.333 18 49 18c17.333 0 33.666 -5.66699 48.999 -17c14 -12 21 -29.667 21 -53v-1253z" />
    <glyph glyph-name="O" unicode="O" horiz-adv-x="1120" 
d="M980 280c0 -76.667 -27.333 -142.5 -82 -197.5s-120.667 -82.5 -198 -82.5h-280c-76 0 -141.667 27.167 -197 81.5s-83 120.5 -83 198.5v840c0 78 27.167 144.167 81.5 198.5s120.5 81.5 198.5 81.5h280c78 0 144.167 -27.333 198.5 -82s81.5 -120.667 81.5 -198v-840z
M840 280l-0.000976562 839.999c0 39.333 -13.167 72.5 -39.5 99.5s-59.833 40.5 -100.5 40.5h-280c-39.333 0 -72.666 -13.333 -99.999 -40c-13.333 -13.333 -23.333 -28.5 -30 -45.5s-10 -35.167 -10 -54.5v-840c0 -39.333 13.333 -72.666 40 -99.999c14 -12 29 -22 45 -30
c20 -6.66699 38.333 -10 55 -10h280c38.667 0 71.667 13 99 39s41 59.667 41 101z" />
    <glyph glyph-name="P" unicode="P" horiz-adv-x="1120" 
d="M280 700h420c38.667 0 71.667 13 99 39s41 59.667 41 101v280c0 39.333 -13.167 72.5 -39.5 99.5s-59.833 40.5 -100.5 40.5h-420v-560zM280 560l0.000976562 -490c0 -22 -6.66699 -39.667 -20 -53c-12.667 -11.333 -29.334 -17 -50.001 -17
c-18.667 -0 -35 5.83301 -49 17.5s-21 29.167 -21 52.5v1260c0 46.667 23.333 70 70 70h490c78 0 144.167 -27.333 198.5 -82s81.5 -120.667 81.5 -198v-280c0 -76.667 -27.333 -142.5 -82 -197.5s-120.667 -82.5 -198 -82.5h-420z" />
    <glyph glyph-name="Q" unicode="Q" horiz-adv-x="1260" 
d="M784 165l-193.001 130c-21.333 14 -32 32.667 -32 56c0 13.333 7 29.666 21 48.999c14 15.333 30.333 23 49 23c10 0 23.333 -4.33301 40 -13l171 -115v825c0 39.333 -13.167 72.5 -39.5 99.5s-59.833 40.5 -100.5 40.5h-280c-39.333 0 -72.666 -13.333 -99.999 -40
c-13.333 -13.333 -23.333 -28.5 -30 -45.5s-10 -35.167 -10 -54.5v-840c0 -39.333 13.333 -72.666 40 -99.999c14 -12 29 -22 45 -30c20 -6.66699 38.333 -10 55 -10h280c14.667 0 28.667 2 42 6s27.333 10.333 42 19zM971.999 207l117 -80.001
c21.333 -14 32 -32.667 32 -56c0 -17.333 -6.33301 -33.666 -19 -48.999c-14.667 -14.667 -31.667 -22 -51 -22c-12 -0 -25.333 4.33301 -40 13l-107 71c-52 -56 -120 -84 -204 -84h-280c-76 0 -141.667 27.167 -197 81.5s-83 120.5 -83 198.5v840
c0 78 27.167 144.167 81.5 198.5s120.5 81.5 198.5 81.5h280c78 0 144.167 -27.333 198.5 -82s81.5 -120.667 81.5 -198v-840v-19c0 -9.33301 -0.666992 -16.333 -2 -21z" />
    <glyph glyph-name="R" unicode="R" horiz-adv-x="1120" 
d="M280 700h420c38.667 0 71.667 13 99 39s41 59.667 41 101v280c0 39.333 -13.167 72.5 -39.5 99.5s-59.833 40.5 -100.5 40.5h-420v-560zM686 560l283.002 -452l5 -16l6 -23c0 -18 -7.33301 -34.333 -22 -49c-15.333 -13.333 -32.333 -20 -51 -20
c-10.667 0 -20.334 2 -29.001 6s-17.667 12.667 -27 26l-330 528h-241v-490c0 -22 -6.66699 -39.667 -20 -53c-12.667 -11.333 -29.334 -17 -50.001 -17c-18.667 -0 -35 5.83301 -49 17.5s-21 29.167 -21 52.5v1260c0 46.667 23.333 70 70 70h490
c78 0 144.167 -27.333 198.5 -82s81.5 -120.667 81.5 -198v-280c0 -76.667 -27.333 -142.5 -82 -197.5s-120.667 -82.5 -198 -82.5h-14z" />
    <glyph glyph-name="S" unicode="S" horiz-adv-x="1120" 
d="M937 1282c9.33301 -6 16.665 -14.6689 21.998 -26.002c5.33301 -8.66699 8 -18.667 8 -30c0 -16 -7.16699 -32.167 -21.5 -48.5s-30.5 -24.5 -48.5 -24.5c-14.667 0 -28.667 4.66699 -42 14c-90 64 -188.667 96 -296 96c-67.333 0 -130 -14.667 -188 -44
c-25.333 -14 -46.666 -33 -63.999 -57l-17 -34c-4 -10 -6 -23 -6 -39c0 -32.667 13.667 -58.667 41 -78l519 -384c41.333 -28.667 75.333 -69.5 102 -122.5s40 -106.833 40 -161.5c0 -58 -12.167 -111.333 -36.5 -160s-62.166 -86.667 -113.499 -114
c-43.333 -20.667 -92 -40 -146 -58c-50 -12 -97 -18 -141 -18c-64.667 0 -127 10.333 -187 31c-34 10.667 -63.5 22.834 -88.5 36.501s-56.833 33.167 -95.5 58.5c-21.333 14 -32 33 -32 57c0 20 6.5 37.167 19.5 51.5s29.167 21.5 48.5 21.5c12 0 25 -4 39 -12
c50 -32 99.667 -57.167 149 -75.5s99.333 -27.5 150 -27.5c70.667 0 144.334 19.667 221.001 59c22 12 40.333 31.667 55 59c6.66699 14 12 28.333 16 43s6 29.667 6 45c0 31.333 -7 64 -21 98c-12.667 24.667 -33.667 49.334 -63 74.001l-520 384
c-28.667 20 -51.834 47.833 -69.501 83.5s-26.5 72.5 -26.5 110.5c0 50 12 97 36 141s64.333 81 121 111c76 38.667 160.333 58 253 58c66.667 0 132.167 -10 196.5 -30s124.5 -49.333 180.5 -88z" />
    <glyph glyph-name="T" unicode="T" horiz-adv-x="1120" 
d="M490 1260h-280c-21.333 0 -38.666 6.33301 -51.999 19c-12 15.333 -18 32.333 -18 51c0 16 5.83301 31.667 17.5 47s29.167 23 52.5 23h700c19.333 0 35.833 -7.16699 49.5 -21.5s20.5 -30.5 20.5 -48.5c0 -16 -5.83301 -31.667 -17.5 -47s-29.167 -23 -52.5 -23h-280
v-1190c0 -22 -6.66699 -39.667 -20 -53c-12.667 -11.333 -29.334 -17 -50.001 -17c-18.667 -0 -35 5.83301 -49 17.5s-21 29.167 -21 52.5v1190z" />
    <glyph glyph-name="U" unicode="U" horiz-adv-x="1120" 
d="M980 280c0 -76.667 -27.333 -142.501 -82 -197.501s-120.667 -82.5 -198 -82.5h-280c-76 0 -141.667 27.167 -197 81.5s-83 120.5 -83 198.5v1050c0 18.667 7 36 21 52c14 12 30.333 18 49 18c18 0 34.167 -5.83301 48.5 -17.5s21.5 -29.167 21.5 -52.5v-1050
c0 -39.333 13.333 -72.666 40 -99.999c14 -12 29 -22 45 -30c20 -6.66699 38.333 -10 55 -10h280c38.667 0 71.667 13 99 39s41 59.667 41 101v1050c0 18.667 7 36 21 52c14 12 30.333 18 49 18c18 0 34.167 -5.83301 48.5 -17.5s21.5 -29.167 21.5 -52.5v-1050z" />
    <glyph glyph-name="V" unicode="V" horiz-adv-x="1260" 
d="M1116 1307l-419.999 -1245c-6 -17.333 -14.333 -32 -25 -44c-8.66699 -6 -22.334 -11.667 -41.001 -17c-28 0 -50 20.333 -66 61l-420 1245l-4 26c0 15.333 7 30.333 21 45s30.667 22 50 22l18 -1l19 -6c10 -6 19.333 -19.667 28 -41l354 -1048l354 1048
c6 14 15 25.5 27 34.5s24.333 13.5 37 13.5c18 0 35 -6 51 -18c14 -13.333 21 -29.666 21 -48.999z" />
    <glyph glyph-name="W" unicode="W" horiz-adv-x="1540" 
d="M1398 1314l-280.001 -1259c-2 -16 -9.5 -29.333 -22.5 -40s-27.833 -16 -44.5 -16c-32 0 -54.333 15.667 -67 47l-214 590l-214 -590c-4.66699 -10.667 -13.667 -22.334 -27 -35.001c-11.333 -8 -24.333 -12 -39 -12c-36 0 -59 18.667 -69 56l-280 1259l-1 19
c0 15.333 7 30.333 21 45s30.667 22 50 22c15.333 0 28.333 -4 39 -12s20.334 -22.333 29.001 -43l228 -1024l197 543c14 38 36 57 66 57c28 0 50 -19 66 -57l197 -543l228 1024c8 36.667 30 55 66 55c20 0 36.667 -6.66699 50 -20c15.333 -12 23 -28.333 23 -49z" />
    <glyph glyph-name="X" unicode="X" horiz-adv-x="1260" 
d="M630 827l361 542.001c6 9.33301 14.333 17.333 25 24l15 6l17 2c18 0 35 -7 51 -21c14.667 -14.667 22 -31.334 22 -50.001c0 -12 -4 -25 -12 -39l-394 -591l394 -591l9 -21l3 -19c0 -18 -7.16699 -34.167 -21.5 -48.5s-31.833 -21.5 -52.5 -21.5
c-22 0 -40.667 10.667 -56 32l-361 542l-361 -542c-5.33301 -8.66699 -14.333 -17 -27 -25l-31 -7c-14.667 0 -31 7 -49 21c-15.333 14 -23 30.667 -23 50c0 12 4 25 12 39l394 591l-394 591l-10 21l-2 19c0 18 7.16699 34.167 21.5 48.5s31.833 21.5 52.5 21.5
c22 0 40.667 -10.667 56 -32z" />
    <glyph glyph-name="Y" unicode="Y" horiz-adv-x="1260" 
d="M567 701l-402.999 583c-12 14 -18 29.333 -18 46s7 32.667 21 48s31 23 51 23c18 0 35.333 -8.33301 52 -25l367 -540l367 540c14.667 16.667 31.667 25 51 25c18 0 35 -7 51 -21c14.667 -14.667 22 -31.334 22 -50.001c0 -13.333 -6 -28.666 -18 -45.999l-403 -583v-631
c0 -22 -6.66699 -39.667 -20 -53c-12.667 -11.333 -29.334 -17 -50.001 -17c-18.667 -0 -35 5.83301 -49 17.5s-21 29.167 -21 52.5v631z" />
    <glyph glyph-name="Z" unicode="Z" horiz-adv-x="1260" 
d="M1116 1291l-767.001 -1151h708c22 0 39.167 -7.33301 51.5 -22s18.5 -30.667 18.5 -48c0 -16 -5.83301 -31.667 -17.5 -47s-29.167 -23 -52.5 -23h-840c-52 0 -78 18.667 -78 56c0 14 6.33301 31.667 19 53l767 1151h-708c-21.333 0 -38.666 6.33301 -51.999 19
c-12 15.333 -18 32.333 -18 51c0 16 5.83301 31.667 17.5 47s29.167 23 52.5 23h840c52 0 78 -18.667 78 -56c0 -14 -6.33301 -31.667 -19 -53z" />
    <glyph glyph-name="bracketleft" unicode="[" horiz-adv-x="560" 
d="M358 -140h-147.999c-46.667 0 -70 23.333 -70 70v1540c0 46.667 23.333 70 70 70h148c19.333 0 35.833 -7.16699 49.5 -21.5s20.5 -30.5 20.5 -48.5c0 -16.667 -5.83301 -32.5 -17.5 -47.5s-29.167 -22.5 -52.5 -22.5h-78v-1400h78c21.333 0 38.666 -7 51.999 -21
c12 -14 18 -30.333 18 -49c0 -16.667 -5.83301 -32.5 -17.5 -47.5s-29.167 -22.5 -52.5 -22.5z" />
    <glyph glyph-name="backslash" unicode="\" horiz-adv-x="1260" 
d="M1046 -185l4 -13.999l1 -14c0 -16.667 -7.33301 -32.334 -22 -47.001l-11 -9l-15 -7l-26 -4c-14.667 0 -26.667 3.33301 -36 10c-10.667 6 -19.667 17.667 -27 35l-770 1960l-4 14l-1 14c0 16 7.33301 31.667 22 47l11 9l14 7l27 4c14.667 0 26.667 -3.66699 36 -11
c10 -6 19 -17.333 27 -34z" />
    <glyph glyph-name="bracketright" unicode="]" horiz-adv-x="560" 
d="M398 -70c0 -46.667 -23.335 -70 -70.002 -70h-149c-17.333 0 -34.666 7 -51.999 21c-12 14 -18 30.333 -18 49s5.83301 35 17.5 49s29.167 21 52.5 21h79v1400h-79c-21.333 0 -38.666 6.33301 -51.999 19c-12 15.333 -18 32.333 -18 51c0 16 5.83301 31.667 17.5 47
s29.167 23 52.5 23h149c46.667 0 70 -23.333 70 -70v-1540z" />
    <glyph glyph-name="asciicircum" unicode="^" 
d="M827 1652l9.99805 -18c4 -7.33301 6 -16 6 -26c0 -14 -7 -29.667 -21 -47c-15.333 -15.333 -32.666 -23 -51.999 -23s-37.666 10 -54.999 30c-24.667 34.667 -57.5 62 -98.5 82s-83.167 30 -126.5 30c-41.333 0 -81.833 -9 -121.5 -27s-73.834 -46.333 -102.501 -85
c-14 -20 -32.333 -30 -55 -30c-17.333 0 -33.666 7.66699 -48.999 23c-15.333 14 -23 30.333 -23 49c0 14 5 28 15 42c40 52 90.333 93.167 151 123.5s122.334 45.5 185.001 45.5c65.333 0 126.666 -14 183.999 -42s108.333 -70.333 153 -127z" />
    <glyph glyph-name="underscore" unicode="_" horiz-adv-x="840" 
d="M840 -216h-840v140h840v-140z" />
    <glyph glyph-name="a" unicode="a" 
d="M700 280l-0.000976562 559.999h-280c-39.333 0 -72.666 -13.333 -99.999 -40c-13.333 -13.333 -23.333 -28.5 -30 -45.5s-10 -35.167 -10 -54.5v-420c0 -39.333 13.333 -72.666 40 -99.999c14 -12 29 -22 45 -30c20 -6.66699 38.333 -10 55 -10h140
c38.667 0 71.667 13 99 39s41 59.667 41 101zM768.999 91.999c-22.667 -26 -53.5 -47.833 -92.5 -65.5s-77.833 -26.5 -116.5 -26.5h-140c-75.333 0 -140.833 27 -196.5 81s-83.5 120.333 -83.5 199v420c0 77.333 27.333 143.333 82 198s120.667 82 198 82h350
c46.667 0 70 -23.333 70 -70v-629c0 -28 9 -56.667 27 -86c16 -26 39.333 -46.333 70 -61c29.333 -12 44 -33 44 -63c0 -20.667 -6.66699 -37.667 -20 -51c-12 -14 -28.667 -21 -50 -21c-10 0 -19.667 2.33301 -29 7c-46 18 -83.667 46.667 -113 86z" />
    <glyph glyph-name="b" unicode="b" 
d="M280 840v-700h280c38.667 0 71.667 13 99 39s41 59.667 41 101v420c0 39.333 -13.167 72.5 -39.5 99.5s-59.833 40.5 -100.5 40.5h-280zM280 980h280c76 0 141.667 -27.167 197 -81.5s83 -120.5 83 -198.5v-420c0 -76.667 -27.333 -142.5 -82 -197.5
s-120.667 -82.5 -198 -82.5h-350c-46.667 -0 -70 23.333 -70 70v1260c0 18.667 7 36 21 52c14 12 30.333 18 49 18c18 0 34.167 -5.83301 48.5 -17.5s21.5 -29.167 21.5 -52.5v-350z" />
    <glyph glyph-name="c" unicode="c" horiz-adv-x="840" 
d="M630 0l-210.001 -0.000976562c-75.333 0 -140.833 27 -196.5 81s-83.5 120.333 -83.5 199v420c0 77.333 27.333 143.333 82 198s120.667 82 198 82h210c19.333 0 35.833 -7.16699 49.5 -21.5s20.5 -30.5 20.5 -48.5c0 -16 -5.83301 -31.667 -17.5 -47
s-29.167 -23 -52.5 -23h-210c-39.333 0 -72.666 -13.333 -99.999 -40c-13.333 -13.333 -23.333 -28.5 -30 -45.5s-10 -35.167 -10 -54.5v-420c0 -39.333 13.333 -72.666 40 -99.999c14 -12 29 -22 45 -30c20 -6.66699 38.333 -10 55 -10h210
c19.333 0 35.833 -7.16699 49.5 -21.5s20.5 -30.5 20.5 -48.5c0 -16 -5.83301 -31.667 -17.5 -47s-29.167 -23 -52.5 -23z" />
    <glyph glyph-name="d" unicode="d" 
d="M700 840l-280.001 -0.000976562c-39.333 0 -72.666 -13.333 -99.999 -40c-13.333 -13.333 -23.333 -28.5 -30 -45.5s-10 -35.167 -10 -54.5v-420c0 -39.333 13.333 -72.666 40 -99.999c14 -12 29 -22 45 -30c20 -6.66699 38.333 -10 55 -10h280v700zM699.999 979.999v350
c0 18.667 7 36 21 52c14 12 30.333 18 49 18c18 0 34.167 -5.83301 48.5 -17.5s21.5 -29.167 21.5 -52.5v-1260c0 -46.667 -23.333 -70 -70 -70h-350c-75.333 0 -140.833 27 -196.5 81s-83.5 120.333 -83.5 199v420c0 77.333 27.333 143.333 82 198s120.667 82 198 82h280z
" />
    <glyph glyph-name="e" unicode="e" 
d="M280 560h419.999v140c0 39.333 -13.167 72.5 -39.5 99.5s-59.833 40.5 -100.5 40.5h-140c-39.333 0 -72.666 -13.333 -99.999 -40c-13.333 -13.333 -23.333 -28.5 -30 -45.5s-10 -35.167 -10 -54.5v-140zM279.999 420v-140.001c0 -39.333 13.333 -72.666 40 -99.999
c14 -12 29 -22 45 -30c20 -6.66699 38.333 -10 55 -10h350c19.333 0 35.833 -7.16699 49.5 -21.5s20.5 -30.5 20.5 -48.5c0 -16 -5.83301 -31.667 -17.5 -47s-29.167 -23 -52.5 -23h-350c-76 0 -141.667 27.167 -197 81.5s-83 120.5 -83 198.5v420
c0 75.333 27 140.833 81 196.5s120.333 83.5 199 83.5h140c76 0 141.667 -27.167 197 -81.5s83 -120.5 83 -198.5v-210c0 -46.667 -23.333 -70 -70 -70h-490z" />
    <glyph glyph-name="f" unicode="f" horiz-adv-x="770" 
d="M350 980h209.999c19.333 0 35.833 -7.16699 49.5 -21.5s20.5 -30.5 20.5 -48.5c0 -16 -5.83301 -31.667 -17.5 -47s-29.167 -23 -52.5 -23h-210v-770c0 -22 -6.66699 -39.667 -20 -53c-12.667 -11.333 -29.334 -17 -50.001 -17c-18.667 -0 -35 5.83301 -49 17.5
s-21 29.167 -21 52.5v770h-70c-21.333 0 -38.666 6.66699 -51.999 20c-12 14 -18 30.667 -18 50c0 16.667 6.16699 32.5 18.5 47.5s29.5 22.5 51.5 22.5h70v140c0 77.333 27.333 143.333 82 198s120.667 82 198 82h70c19.333 0 35.833 -7.16699 49.5 -21.5
s20.5 -30.5 20.5 -48.5c0 -16 -5.83301 -31.667 -17.5 -47s-29.167 -23 -52.5 -23h-70c-39.333 0 -72.666 -13.333 -99.999 -40c-13.333 -13.333 -23.333 -28.5 -30 -45.5s-10 -35.167 -10 -54.5v-140z" />
    <glyph glyph-name="g" unicode="g" 
d="M700 140l-0.000976562 699.999h-280c-39.333 0 -72.666 -13.333 -99.999 -40c-13.333 -13.333 -23.333 -28.5 -30 -45.5s-10 -35.167 -10 -54.5v-420c0 -39.333 13.333 -72.666 40 -99.999c14 -12 29 -22 45 -30c20 -6.66699 38.333 -10 55 -10h280z
M699.999 -0.000976562h-280.001c-75.333 0 -140.833 27 -196.5 81s-83.5 120.333 -83.5 199v420c0 77.333 27.333 143.333 82 198s120.667 82 198 82h350c46.667 0 70 -23.333 70 -70v-1050c0 -76 -27.167 -141.667 -81.5 -197s-120.5 -83 -198.5 -83h-280
c-17.333 0 -34.666 7 -51.999 21c-12 14 -18 30.333 -18 49s5.83301 35 17.5 49s29.167 21 52.5 21h280c39.333 0 72.5 13.167 99.5 39.5s40.5 59.833 40.5 100.5v140z" />
    <glyph glyph-name="h" unicode="h" 
d="M280 980h280.002c76 0 141.667 -27.167 197 -81.5s83 -120.5 83 -198.5v-630c0 -22 -6.66699 -39.667 -20 -53c-12.667 -11.333 -29.334 -17 -50.001 -17c-18.667 -0 -35 5.83301 -49 17.5s-21 29.167 -21 52.5v630c0 39.333 -13.167 72.5 -39.5 99.5
s-59.833 40.5 -100.5 40.5h-280v-770c0 -22 -6.66699 -39.667 -20 -53c-12.667 -11.333 -29.334 -17 -50.001 -17c-18.667 -0 -35 5.83301 -49 17.5s-21 29.167 -21 52.5v1260c0 18.667 7 36 21 52c14 12 30.333 18 49 18c18 0 34.167 -5.83301 48.5 -17.5
s21.5 -29.167 21.5 -52.5v-350z" />
    <glyph glyph-name="i" unicode="i" horiz-adv-x="420" 
d="M280 70c0 -22 -6.66602 -39.667 -19.999 -53c-12.667 -11.333 -29.334 -17 -50.001 -17c-18.667 -0 -35 5.83301 -49 17.5s-21 29.167 -21 52.5v840c0 18.667 7 36 21 52c14 12 30.333 18 49 18c18 0 34.167 -5.83301 48.5 -17.5s21.5 -29.167 21.5 -52.5v-840z
M140.001 1330c0 19.333 6.83301 35.833 20.5 49.5s30.167 20.5 49.5 20.5c15.333 0 30.833 -6.83301 46.5 -20.5s23.5 -30.167 23.5 -49.5c0 -18 -6.83301 -34.167 -20.5 -48.5s-30.167 -21.5 -49.5 -21.5c-20 0 -37 7 -51 21c-12.667 14.667 -19 31 -19 49z" />
    <glyph glyph-name="j" unicode="j" horiz-adv-x="420" 
d="M280 -140c0 -76 -27.167 -141.667 -81.5 -197s-120.5 -83 -198.5 -83h-70c-17.333 0 -33.333 6.83301 -48 20.5s-22 30.167 -22 49.5c0 16 5.83301 31.667 17.5 47s29.167 23 52.5 23h70c39.333 0 72.5 13.167 99.5 39.5s40.5 59.833 40.5 100.5v1050
c0 18.667 7 36 21 52c14 12 30.333 18 49 18c18 0 34.167 -5.83301 48.5 -17.5s21.5 -29.167 21.5 -52.5v-1050zM140 1330c0 19.333 6.83301 35.833 20.5 49.5s30.167 20.5 49.5 20.5c15.333 0 30.833 -6.83301 46.5 -20.5s23.5 -30.167 23.5 -49.5
c0 -18 -6.83301 -34.167 -20.5 -48.5s-30.167 -21.5 -49.5 -21.5c-20 0 -37 7 -51 21c-12.667 14.667 -19 31 -19 49z" />
    <glyph glyph-name="k" unicode="k" 
d="M280 630l448.001 336c13.333 10 27.666 15 42.999 15c18 0 34.167 -7.33301 48.5 -22s21.5 -31.334 21.5 -50.001c0 -22 -9.66699 -40.333 -29 -55l-351 -263l365 -479c10 -13.333 15 -27.666 15 -42.999c0 -18 -7.16699 -34.167 -21.5 -48.5
s-31.166 -21.5 -50.499 -21.5c-22 0 -40.333 9.66699 -55 29l-365 479l-69 -52v-385c0 -22 -6.66699 -39.667 -20 -53c-12.667 -11.333 -29.334 -17 -50.001 -17c-18.667 -0 -35 5.83301 -49 17.5s-21 29.167 -21 52.5v1260c0 18.667 7 36 21 52c14 12 30.333 18 49 18
c18 0 34.167 -5.83301 48.5 -17.5s21.5 -29.167 21.5 -52.5v-700z" />
    <glyph glyph-name="l" unicode="l" horiz-adv-x="560" 
d="M350 0c-58 0 -107.5 21 -148.5 63s-61.5 91 -61.5 147v1120c0 18.667 7 36 21 52c14 12 30.333 18 49 18c18 0 34.167 -5.83301 48.5 -17.5s21.5 -29.167 21.5 -52.5v-1120c0 -16 7 -32 21 -48c14.667 -14.667 31 -22 49 -22c19.333 0 35.833 -7.16699 49.5 -21.5
s20.5 -30.5 20.5 -48.5c0 -16 -5.83301 -31.667 -17.5 -47s-29.167 -23 -52.5 -23z" />
    <glyph glyph-name="m" unicode="m" horiz-adv-x="1260" 
d="M560 840h-279.997v-770c0 -22 -6.66699 -39.667 -20 -53c-12.667 -11.333 -29.334 -17 -50.001 -17c-18.667 -0 -35 5.83301 -49 17.5s-21 29.167 -21 52.5v840c0 46.667 23.333 70 70 70h630c76 0 141.667 -27.167 197 -81.5s83 -120.5 83 -198.5v-630
c0 -22 -6.66699 -39.667 -20 -53c-12.667 -11.333 -29.334 -17 -50.001 -17c-18.667 -0 -35 5.83301 -49 17.5s-21 29.167 -21 52.5v630c0 39.333 -13.167 72.5 -39.5 99.5s-59.833 40.5 -100.5 40.5h-140v-770c0 -22 -6.66699 -39.667 -20 -53
c-12.667 -11.333 -29.334 -17 -50.001 -17c-18.667 -0 -35 5.83301 -49 17.5s-21 29.167 -21 52.5v770z" />
    <glyph glyph-name="n" unicode="n" 
d="M840 70c0 -22 -6.66504 -39.667 -19.998 -53c-12.667 -11.333 -29.334 -17 -50.001 -17c-18.667 -0 -35 5.83301 -49 17.5s-21 29.167 -21 52.5v630c0 39.333 -13.167 72.5 -39.5 99.5s-59.833 40.5 -100.5 40.5h-280v-770c0 -22 -6.66699 -39.667 -20 -53
c-12.667 -11.333 -29.334 -17 -50.001 -17c-18.667 -0 -35 5.83301 -49 17.5s-21 29.167 -21 52.5v840c0 46.667 23.333 70 70 70h350c76 0 141.667 -27.167 197 -81.5s83 -120.5 83 -198.5v-630z" />
    <glyph glyph-name="o" unicode="o" 
d="M840 308c0 -83.333 -29.833 -155.5 -89.5 -216.5s-132.5 -91.5 -218.5 -91.5h-84c-83.333 0 -155.5 29.667 -216.5 89s-91.5 132.333 -91.5 219v364c0 82 30 153.833 90 215.5s132.667 92.5 218 92.5h84c83.333 0 155.5 -29.833 216.5 -89.5s91.5 -132.5 91.5 -218.5
v-364zM700 308l-0.000976562 364.001c0 46 -16.167 85.5 -48.5 118.5s-72.166 49.5 -119.499 49.5h-84c-46 0 -85.5 -16.333 -118.5 -49s-49.5 -72.334 -49.5 -119.001v-364c0 -46 16.333 -85.5 49 -118.5s72.334 -49.5 119.001 -49.5h84c45.333 0 84.666 16 117.999 48
s50 72 50 120z" />
    <glyph glyph-name="p" unicode="p" 
d="M280 140h280c38.667 0 71.667 13 99 39s41 59.667 41 101v420c0 39.333 -13.167 72.5 -39.5 99.5s-59.833 40.5 -100.5 40.5h-280v-700zM280 0v-350c0 -19.333 -7.16699 -35.833 -21.5 -49.5s-30.5 -20.5 -48.5 -20.5c-16 0 -31.667 5.83301 -47 17.5
s-23 29.167 -23 52.5v1260c0 46.667 23.333 70 70 70h350c76 0 141.667 -27.167 197 -81.5s83 -120.5 83 -198.5v-420c0 -76.667 -27.333 -142.5 -82 -197.5s-120.667 -82.5 -198 -82.5h-280z" />
    <glyph glyph-name="q" unicode="q" 
d="M700 140l-0.000976562 699.999h-280c-39.333 0 -72.666 -13.333 -99.999 -40c-13.333 -13.333 -23.333 -28.5 -30 -45.5s-10 -35.167 -10 -54.5v-420c0 -39.333 13.333 -72.666 40 -99.999c14 -12 29 -22 45 -30c20 -6.66699 38.333 -10 55 -10h280z
M699.999 -0.000976562h-280c-75.333 0 -140.833 27 -196.5 81s-83.5 120.333 -83.5 199v420c0 77.333 27.333 143.333 82 198s120.667 82 198 82h350c46.667 0 70 -23.333 70 -70v-1260c0 -19.333 -7.16699 -35.833 -21.5 -49.5s-30.5 -20.5 -48.5 -20.5
c-16 0 -31.667 5.83301 -47 17.5s-23 29.167 -23 52.5v350z" />
    <glyph glyph-name="r" unicode="r" horiz-adv-x="840" 
d="M700 770c0 -22 -6.66504 -39.668 -19.998 -53.001c-12.667 -11.333 -29.334 -17 -50.001 -17c-18.667 0 -35 5.83301 -49 17.5s-21 29.167 -21 52.5c0 15.333 -6.83301 30.833 -20.5 46.5s-30.167 23.5 -49.5 23.5h-210v-770c0 -22 -6.66699 -39.667 -20 -53
c-12.667 -11.333 -29.334 -17 -50.001 -17c-18.667 0 -35 5.83301 -49 17.5s-21 29.167 -21 52.5v840c0 46.667 23.333 70 70 70h280c58 0 107.5 -20.167 148.5 -60.5s61.5 -90.166 61.5 -149.499z" />
    <glyph glyph-name="s" unicode="s" 
d="M797 903c-45.333 20.667 -95 38.165 -149 52.498s-104 21.5 -150 21.5c-105.333 0 -197 -26.667 -275 -80c-19.333 -11.333 -38 -33.666 -56 -66.999c-13.333 -28.667 -20 -57.667 -20 -87c0 -19.333 1.16699 -35 3.5 -47s7.83301 -26 16.5 -42
c12 -28 30.667 -50.333 56 -67l448 -294c15.333 -10 23 -26 23 -48c0 -21.333 -7.66699 -36.666 -23 -45.999c-61.333 -38.667 -126.666 -58 -195.999 -58c-76.667 0 -150.667 20.333 -222 61l-17 6l-19 3c-18 0 -34.333 -7.33301 -49 -22l-9 -11l-7 -15l-4 -26
c0 -24 12.667 -43.667 38 -59c92.667 -51.333 189.334 -77 290.001 -77c102.667 0 193.667 26.667 273 80c26 16 46.5 39.333 61.5 70s22.5 61.667 22.5 93c0 28 -7 56.833 -21 86.5s-35.333 55.834 -64 78.501l-447 294c-13.333 8 -20 21 -20 39c0 16 6.66699 29.667 20 41
c53.333 36 118.666 54 195.999 54c75.333 0 154.666 -20 237.999 -60l34 -8c14.667 0 29.5 7.16699 44.5 21.5s22.5 31.166 22.5 50.499c0 24 -13 44.667 -39 62z" />
    <glyph glyph-name="t" unicode="t" horiz-adv-x="840" 
d="M420 980h210c19.333 0 35.833 -7.16699 49.5 -21.5s20.5 -30.5 20.5 -48.5c0 -16 -5.83301 -31.667 -17.5 -47s-29.167 -23 -52.5 -23h-210v-770c0 -22 -6.66699 -39.667 -20 -53c-12.667 -11.333 -29.334 -17 -50.001 -17c-18.667 -0 -35 5.83301 -49 17.5
s-21 29.167 -21 52.5v770h-70c-21.333 0 -38.666 6.66699 -51.999 20c-12 14 -18 30.667 -18 50c0 16.667 6.16699 32.5 18.5 47.5s29.5 22.5 51.5 22.5h70v350c0 18.667 7 36 21 52c14 12 30.333 18 49 18c18 0 34.167 -5.83301 48.5 -17.5s21.5 -29.167 21.5 -52.5v-350z
" />
    <glyph glyph-name="u" unicode="u" 
d="M840 70c0 -46.667 -23.333 -70.001 -70 -70.001h-350c-75.333 0 -140.833 27 -196.5 81s-83.5 120.333 -83.5 199v630c0 18.667 7 36 21 52c14 12 30.333 18 49 18c18 0 34.167 -5.83301 48.5 -17.5s21.5 -29.167 21.5 -52.5v-630c0 -39.333 13.333 -72.666 40 -99.999
c14 -12 29 -22 45 -30c20 -6.66699 38.333 -10 55 -10h280v770c0 18.667 7 36 21 52c14 12 30.333 18 49 18c18 0 34.167 -5.83301 48.5 -17.5s21.5 -29.167 21.5 -52.5v-840z" />
    <glyph glyph-name="v" unicode="v" 
d="M836 888l-279.999 -840.001c-6 -17.333 -14.333 -32 -25 -44c-8.66699 -6 -22.334 -11.667 -41.001 -17c-28 0 -50 20.333 -66 61l-280 840l-4 25c0 15.333 7 30.333 21 45s30.667 22 50 22c15.333 0 27.333 -2.66699 36 -8c9.33301 -4 19 -17.333 29 -40l214 -642
l214 642c6 14 15 25.5 27 34.5s24.667 13.5 38 13.5c15.333 0 32 -6 50 -18c14 -13.333 21 -29.666 21 -48.999z" />
    <glyph glyph-name="w" unicode="w" horiz-adv-x="1260" 
d="M1118 893l-209.001 -839.999c-6 -20 -15 -36 -27 -48s-25.667 -18 -41 -18c-30 0 -52.333 19.333 -67 58l-144 385l-144 -385c-14 -38.667 -36.333 -58 -67 -58c-13.333 0 -27 5.66699 -41 17c-11.333 11.333 -20.333 27.666 -27 48.999l-210 840l-2 21
c0 18 7.33301 33.5 22 46.5s31.334 19.5 50.001 19.5c15.333 0 28.5 -4 39.5 -12s20.5 -21.667 28.5 -41l155 -620l130 348c16 38.667 38 58 66 58s50 -19.333 66 -58l130 -348l155 620c8 35.333 30.333 53 67 53c20.667 0 37.667 -6.66699 51 -20
c14.667 -12.667 22 -29 22 -49z" />
    <glyph glyph-name="x" unicode="x" 
d="M575 490l254 -380.999l10 -21l2 -19c0 -18 -7.33301 -34.333 -22 -49l-11 -9l-15 -7l-26 -4c-19.333 0 -38 10.333 -56 31l-221 332l-221 -332c-14 -21.333 -33.333 -32 -58 -32c-14.667 0 -31 7 -49 21c-15.333 14 -23 30.667 -23 50c0 12 4 25 12 39l254 381l-254 381
l-10 21l-2 19c0 18 7 34 21 48s31.667 21 53 21c19.333 0 38 -10.333 56 -31l221 -332l221 332c14 21.333 33.333 32 58 32c14 0 30.667 -7 50 -21c14.667 -14.667 22 -31.334 22 -50.001c0 -12 -4 -25 -12 -39z" />
    <glyph glyph-name="y" unicode="y" 
d="M400 7l-271.003 882.001l-4 24c0 18 7.33301 34.333 22 49c14.667 12.667 31.334 19 50.001 19c31.333 0 53.333 -16.667 66 -50l210 -687l216 687c11.333 33.333 33.333 50 66 50c20.667 0 37.834 -6.16699 51.501 -18.5s20.5 -28.833 20.5 -49.5l-4 -24l-364 -1161
c-10 -41.333 -33 -76.333 -69 -105s-77.333 -43 -124 -43h-70c-17.333 0 -34.666 7 -51.999 21c-12 14 -18 30.333 -18 49s5.83301 35 17.5 49s29.167 21 52.5 21h69c14.667 0 26.667 4.66699 36 14c10 7.33301 18 18.666 24 33.999z" />
    <glyph glyph-name="z" unicode="z" 
d="M829 871l-487.001 -731h428c19.333 0 35.833 -7.16699 49.5 -21.5s20.5 -30.5 20.5 -48.5c0 -16 -5.83301 -31.667 -17.5 -47s-29.167 -23 -52.5 -23h-560c-52 0 -78 18.667 -78 56c0 14 6.33301 31.667 19 53l487 731h-428c-21.333 0 -38.666 6.66699 -51.999 20
c-12 14 -18 30.667 -18 50c0 16.667 6.16699 32.5 18.5 47.5s29.5 22.5 51.5 22.5h560c52 0 78 -18.667 78 -56c0 -14 -6.33301 -31.667 -19 -53z" />
    <glyph glyph-name="braceleft" unicode="{" horiz-adv-x="700" 
d="M501 -140c-56 0 -105.167 19.832 -147.5 59.499s-63.5 89.5 -63.5 149.5v490c0 20.667 -6.66699 37.667 -20 51c-12 13.333 -28.667 20 -50 20s-38.666 6.66699 -51.999 20c-12 14 -18 30.667 -18 50c0 16.667 6.16699 32.5 18.5 47.5s29.5 22.5 51.5 22.5
c18 0 34.167 6.5 48.5 19.5s21.5 29.5 21.5 49.5v491c0 49.333 25 98.666 75 147.999c46.667 41.333 91.667 62 135 62c22 0 39.167 -7.33301 51.5 -22s18.5 -30.667 18.5 -48c0 -16 -5.83301 -31.667 -17.5 -47s-29.167 -23 -52.5 -23c-9.33301 0 -24 -7 -44 -21
c-17.333 -15.333 -26 -31.666 -26 -48.999v-491c0 -53.333 -17.667 -99.666 -53 -138.999c14 -16.667 26.333 -38 37 -64s16 -51.667 16 -77v-490c0 -20 6.33301 -36.667 19 -50c14.667 -12.667 31 -19 49 -19c20 0 37 -7 51 -21s21 -30.667 21 -50
c0 -18 -5.83301 -34 -17.5 -48s-28.834 -21 -51.501 -21z" />
    <glyph glyph-name="bar" unicode="|" horiz-adv-x="416" 
d="M280 70c0 -22 -6.66602 -39.667 -19.999 -53c-12.667 -11.333 -29.334 -17 -50.001 -17c-18.667 -0 -35 5.83301 -49 17.5s-21 29.167 -21 52.5v1260c0 18.667 7 36 21 52c14 12 30.333 18 49 18c18 0 34.167 -5.83301 48.5 -17.5s21.5 -29.167 21.5 -52.5v-1260z" />
    <glyph glyph-name="braceright" unicode="}" horiz-adv-x="700" 
d="M491 630c-16 0 -32.001 -6.99902 -48.001 -20.999c-14.667 -14.667 -22 -31.334 -22 -50.001v-490c0 -57.333 -21 -106.5 -63 -147.5s-91.333 -61.5 -148 -61.5c-22 0 -38.667 6.66699 -50 20c-12.667 12.667 -19 29 -19 49c0 20.667 6.33301 37.667 19 51
c10 13.333 27.667 20 53 20c19.333 0 35.5 6.5 48.5 19.5s19.5 29.5 19.5 49.5v490c0 28.667 4.5 54 13.5 76s22.5 43.667 40.5 65c-36 40 -54 86.333 -54 139v491c0 14 -7.66699 28.167 -23 42.5s-31 23.5 -47 27.5c-21.333 0 -38.333 6.33301 -51 19
c-12.667 16.667 -19 33.667 -19 51s6.33301 33.666 19 48.999c10 14 27 21 51 21c42.667 0 87 -20.667 133 -62c51.333 -45.333 77 -94.666 77 -147.999v-491c0 -18.667 6.66699 -35 20 -49c14.667 -13.333 31.334 -20 50.001 -20c19.333 0 35.833 -7.16699 49.5 -21.5
s20.5 -30.5 20.5 -48.5c0 -16.667 -5.83301 -32.5 -17.5 -47.5s-29.167 -22.5 -52.5 -22.5z" />
    <glyph glyph-name="asciitilde" unicode="~" horiz-adv-x="1120" 
d="M959 441c-28 -28 -62.667 -51.335 -104 -70.002c-40 -16 -80 -24 -120 -24l-45 4c-67.333 8 -127 38 -179 90c-38.667 34.667 -80.667 52 -126 52c-48.667 0 -90.667 -17.333 -126 -52c-14 -14 -30.333 -21 -49 -21c-16 0 -32 7 -48 21
c-14.667 14.667 -22 31.334 -22 50.001c0 16 7 32 21 48c30 30 65.167 53.167 105.5 69.5s79.833 24.5 118.5 24.5c86 0 160.667 -31.333 224 -94c28 -26 61.667 -42.333 101 -49l25 -1c50.667 0 92.667 16.667 126 50c14.667 14.667 31 22 49 22c13.333 0 28.333 -7 45 -21
s25 -30.667 25 -50c0 -13.333 -7 -29.666 -21 -48.999z" />
    <glyph glyph-name="nonbreakingspace" unicode="&#xa0;" horiz-adv-x="700" 
 />
    <glyph glyph-name="section" unicode="&#xa7;" 
d="M524 395c50 14 92 43.1689 126 87.502s51 93.5 51 147.5c0 55.333 -19 108 -57 158l-183 217c-52 -14 -95.167 -43.167 -129.5 -87.5s-51.5 -93.833 -51.5 -148.5l3 -44c0.666992 -5.33301 2 -11.833 4 -19.5s4.33301 -14.834 7 -21.501
c8.66699 -22.667 23.667 -47.334 45 -74.001zM364 1120l-98.0029 117c-32.667 36.667 -49 77.334 -49 122.001c0 46.667 17.167 88.5 51.5 125.5s77.5 55.5 129.5 55.5h92c90.667 0 175 -28 253 -84c20 -14 30 -32.667 30 -56c0 -13.333 -7 -29.666 -21 -48.999
c-15.333 -15.333 -32.333 -23 -51 -23c-14.667 0 -28.667 5.33301 -42 16c-51.333 37.333 -107.666 56 -168.999 56h-92c-10 0 -19.333 -4.33301 -28 -13c-6 -7.33301 -10 -17 -12 -29c0 -5.33301 4 -14.666 12 -27.999l380 -452c30.667 -34.667 53.667 -73.334 69 -116.001
c14.667 -50 22 -94 22 -132c0 -72.667 -19.167 -140.334 -57.5 -203.001s-92.166 -111.334 -161.499 -146.001l105 -123c15.333 -16.667 26.333 -35.334 33 -56.001l7 -29l3 -32c0 -46.667 -17.167 -88.5 -51.5 -125.5s-77.5 -55.5 -129.5 -55.5h-99
c-88 0 -171.667 28 -251 84c-19.333 14 -29 32.667 -29 56c0 18 6.5 34.167 19.5 48.5s29.5 21.5 49.5 21.5c14.667 0 28.667 -4.66699 42 -14c54.667 -37.333 111 -56 169 -56h99c11.333 0 23 6 35 18l6 24c0 10 -3.33301 18.333 -10 25l-388 454
c-25.333 31.333 -48.666 70.333 -69.999 117l-16 66c-4 22 -6 43.667 -6 65c0 76.667 19.5 145.834 58.5 207.501s94.167 109.5 165.5 143.5z" />
    <glyph glyph-name="dieresis" unicode="&#xa8;" 
d="M280 840h351c19.333 0 35.833 -7.16699 49.5 -21.5s20.5 -30.5 20.5 -48.5c0 -16.667 -5.83301 -32.5 -17.5 -47.5s-29.167 -22.5 -52.5 -22.5h-351v-560h491c19.333 0 35.833 -7.16699 49.5 -21.5s20.5 -30.5 20.5 -48.5c0 -16.667 -5.83301 -32.5 -17.5 -47.5
s-29.167 -22.5 -52.5 -22.5h-561c-46.667 0 -70 22 -70 66v1264c0 46.667 23.333 70 70 70h561c19.333 0 35.833 -7.16699 49.5 -21.5s20.5 -30.5 20.5 -48.5c0 -16.667 -5.83301 -32.5 -17.5 -47.5s-29.167 -22.5 -52.5 -22.5h-491v-420zM210 1680c0 15.333 7 31.333 21 48
s31.333 25 52 25c15.333 0 31.333 -7 48 -21s25 -31.333 25 -52c0 -18 -7 -35 -21 -51c-5.33301 -5.33301 -12.333 -10.333 -21 -15s-19 -7 -31 -7c-18 0 -35 7 -51 21c-5.33301 6 -10.333 13.167 -15 21.5s-7 18.5 -7 30.5zM630 1680c0 19.333 6.83301 35.833 20.5 49.5
s30.167 20.5 49.5 20.5c15.333 0 30.833 -6.83301 46.5 -20.5s23.5 -30.167 23.5 -49.5c0 -18 -6.83301 -34.167 -20.5 -48.5s-30.167 -21.5 -49.5 -21.5c-20 0 -37 7 -51 21c-12.667 14.667 -19 31 -19 49z" />
    <glyph glyph-name="dieresis" unicode="&#x401;" 
d="M280 840h351c19.333 0 35.833 -7.16699 49.5 -21.5s20.5 -30.5 20.5 -48.5c0 -16.667 -5.83301 -32.5 -17.5 -47.5s-29.167 -22.5 -52.5 -22.5h-351v-560h491c19.333 0 35.833 -7.16699 49.5 -21.5s20.5 -30.5 20.5 -48.5c0 -16.667 -5.83301 -32.5 -17.5 -47.5
s-29.167 -22.5 -52.5 -22.5h-561c-46.667 0 -70 22 -70 66v1264c0 46.667 23.333 70 70 70h561c19.333 0 35.833 -7.16699 49.5 -21.5s20.5 -30.5 20.5 -48.5c0 -16.667 -5.83301 -32.5 -17.5 -47.5s-29.167 -22.5 -52.5 -22.5h-491v-420zM210 1680c0 15.333 7 31.333 21 48
s31.333 25 52 25c15.333 0 31.333 -7 48 -21s25 -31.333 25 -52c0 -18 -7 -35 -21 -51c-5.33301 -5.33301 -12.333 -10.333 -21 -15s-19 -7 -31 -7c-18 0 -35 7 -51 21c-5.33301 6 -10.333 13.167 -15 21.5s-7 18.5 -7 30.5zM630 1680c0 19.333 6.83301 35.833 20.5 49.5
s30.167 20.5 49.5 20.5c15.333 0 30.833 -6.83301 46.5 -20.5s23.5 -30.167 23.5 -49.5c0 -18 -6.83301 -34.167 -20.5 -48.5s-30.167 -21.5 -49.5 -21.5c-20 0 -37 7 -51 21c-12.667 14.667 -19 31 -19 49z" />
    <glyph glyph-name="ordfeminine" unicode="&#xaa;" horiz-adv-x="1120" 
d="M986 70c0 -18 -6.16699 -34.1689 -18.5 -48.502s-29.5 -21.5 -51.5 -21.5h-490c-76 0 -141.667 27.167 -197 81.5s-83 120.5 -83 198.5v840c0 78 27.167 144.167 81.5 198.5s120.5 81.5 198.5 81.5h490c20 0 37.667 -7 53 -21c11.333 -15.333 17 -31.666 17 -48.999
c0 -18.667 -6.33301 -35.667 -19 -51c-12.667 -12.667 -29.667 -19 -51 -19h-490c-39.333 0 -72.5 -13.5 -99.5 -40.5s-40.5 -60.167 -40.5 -99.5v-280h350c22 0 39.167 -7.33301 51.5 -22s18.5 -30.667 18.5 -48c0 -18 -6.16699 -34.167 -18.5 -48.5
s-29.5 -21.5 -51.5 -21.5h-350v-420c0 -39.333 13.333 -72.666 40 -99.999c14 -12.667 29 -22.667 45 -30c18 -6.66699 36.333 -10 55 -10h490c22 0 39.167 -7.33301 51.5 -22s18.5 -30.667 18.5 -48z" />
    <glyph glyph-name="ordfeminine" unicode="&#x404;" horiz-adv-x="1120" 
d="M986 70c0 -18 -6.16699 -34.1689 -18.5 -48.502s-29.5 -21.5 -51.5 -21.5h-490c-76 0 -141.667 27.167 -197 81.5s-83 120.5 -83 198.5v840c0 78 27.167 144.167 81.5 198.5s120.5 81.5 198.5 81.5h490c20 0 37.667 -7 53 -21c11.333 -15.333 17 -31.666 17 -48.999
c0 -18.667 -6.33301 -35.667 -19 -51c-12.667 -12.667 -29.667 -19 -51 -19h-490c-39.333 0 -72.5 -13.5 -99.5 -40.5s-40.5 -60.167 -40.5 -99.5v-280h350c22 0 39.167 -7.33301 51.5 -22s18.5 -30.667 18.5 -48c0 -18 -6.16699 -34.167 -18.5 -48.5
s-29.5 -21.5 -51.5 -21.5h-350v-420c0 -39.333 13.333 -72.666 40 -99.999c14 -12.667 29 -22.667 45 -30c18 -6.66699 36.333 -10 55 -10h490c22 0 39.167 -7.33301 51.5 -22s18.5 -30.667 18.5 -48z" />
    <glyph glyph-name="guillemotleft" unicode="&#xab;" horiz-adv-x="1120" 
d="M554 242c10.667 -12.667 16 -27 16 -43c0 -18 -7.16699 -34.167 -21.5 -48.5s-31.5 -21.5 -51.5 -21.5c-22 0 -40.333 9.66699 -55 29l-273 290c-9.33301 12.667 -14 26.667 -14 42c0 14.667 4.66699 28.667 14 42l273 288c14 20 32.333 30 55 30c15.333 0 32 -7 50 -21
c15.333 -15.333 23 -32.333 23 -51c0 -14.667 -5.33301 -28.667 -16 -42l-240 -246zM932 242c10.667 -12.667 16 -27 16 -43c0 -18 -7.16699 -34.167 -21.5 -48.5s-31.5 -21.5 -51.5 -21.5c-22 0 -40.333 9.66699 -55 29l-273 290c-9.33301 12.667 -14 26.667 -14 42
c0 14.667 4.66699 28.667 14 42l273 288c14 20 32.333 30 55 30c15.333 0 32 -7 50 -21c15.333 -15.333 23 -32.333 23 -51c0 -14.667 -5.33301 -28.667 -16 -42l-240 -246z" />
    <glyph glyph-name="logicalnot" unicode="&#xac;" horiz-adv-x="1120" 
d="M981 440c0 -22.667 -6.33398 -40.667 -19.001 -54c-14.667 -10.667 -31.667 -16 -51 -16c-16 0 -31.667 5.83301 -47 17.5s-23 29.167 -23 52.5v190h-631c-21.333 0 -38.666 6.66699 -51.999 20c-12 14 -18 30.667 -18 50c0 16.667 6.16699 32.5 18.5 47.5
s29.5 22.5 51.5 22.5h701c46.667 0 70 -23.333 70 -70v-260z" />
    <glyph glyph-name="macron" unicode="&#xaf;" horiz-adv-x="420" 
d="M280 70c0 -22 -6.66602 -39.667 -19.999 -53c-12.667 -11.333 -29.334 -17 -50.001 -17c-18.667 -0 -35 5.83301 -49 17.5s-21 29.167 -21 52.5v1260c0 18.667 7 36 21 52c14 12 30.333 18 49 18c18 0 34.167 -5.83301 48.5 -17.5s21.5 -29.167 21.5 -52.5v-1260z
M-69.999 1610c0 15.333 7 31.333 21 48s31.333 25 52 25c15.333 0 31.333 -7 48 -21s25 -31.333 25 -52c0 -18 -7 -35 -21 -51c-5.33301 -5.33301 -12.333 -10.333 -21 -15s-19 -7 -31 -7c-18 0 -35 7 -51 21c-6 6 -11.167 13.5 -15.5 22.5s-6.5 18.833 -6.5 29.5z
M350.001 1610c0 19.333 6.83301 35.833 20.5 49.5s30.167 20.5 49.5 20.5c15.333 0 30.833 -6.83301 46.5 -20.5s23.5 -30.167 23.5 -49.5c0 -18 -6.83301 -34.167 -20.5 -48.5s-30.167 -21.5 -49.5 -21.5c-20 0 -37 7 -51 21c-12.667 14.667 -19 31 -19 49z" />
    <glyph glyph-name="macron" unicode="&#x407;" horiz-adv-x="420" 
d="M280 70c0 -22 -6.66602 -39.667 -19.999 -53c-12.667 -11.333 -29.334 -17 -50.001 -17c-18.667 -0 -35 5.83301 -49 17.5s-21 29.167 -21 52.5v1260c0 18.667 7 36 21 52c14 12 30.333 18 49 18c18 0 34.167 -5.83301 48.5 -17.5s21.5 -29.167 21.5 -52.5v-1260z
M-69.999 1610c0 15.333 7 31.333 21 48s31.333 25 52 25c15.333 0 31.333 -7 48 -21s25 -31.333 25 -52c0 -18 -7 -35 -21 -51c-5.33301 -5.33301 -12.333 -10.333 -21 -15s-19 -7 -31 -7c-18 0 -35 7 -51 21c-6 6 -11.167 13.5 -15.5 22.5s-6.5 18.833 -6.5 29.5z
M350.001 1610c0 19.333 6.83301 35.833 20.5 49.5s30.167 20.5 49.5 20.5c15.333 0 30.833 -6.83301 46.5 -20.5s23.5 -30.167 23.5 -49.5c0 -18 -6.83301 -34.167 -20.5 -48.5s-30.167 -21.5 -49.5 -21.5c-20 0 -37 7 -51 21c-12.667 14.667 -19 31 -19 49z" />
    <glyph glyph-name="degree sign" unicode="&#xb0;" horiz-adv-x="839" 
d="M420 840c-88.667 0 -158.667 29 -210 87c-46.667 52 -70 116.333 -70 193c0 75.333 23.333 139.333 70 192c52 58.667 122 88 210 88c88.667 0 158.667 -29 210 -87c46.667 -52 70 -116.333 70 -193c0 -75.333 -23 -139.333 -69 -192c-52 -58.667 -122.333 -88 -211 -88z
M420 980c44 0 78.334 13.667 103.001 41s37 60.333 37 99c0 39.333 -11.333 71.333 -34 96c-26 29.333 -61.333 44 -106 44c-36.667 0 -71.334 -14 -104.001 -42c-24 -27.333 -36 -60 -36 -98c0 -38.667 12.167 -71.667 36.5 -99s58.833 -41 103.5 -41z" />
    <glyph glyph-name="plusminus" unicode="&#xb1;" 
d="M770 140h-560.001c-21.333 0 -38.666 6.66699 -51.999 20c-12 14 -18 30.667 -18 50c0 16.667 6.16699 32.5 18.5 47.5s29.5 22.5 51.5 22.5h560c19.333 0 35.833 -7.16699 49.5 -21.5s20.5 -30.5 20.5 -48.5c0 -16 -5.83301 -31.667 -17.5 -47s-29.167 -23 -52.5 -23z
M559.999 770v-210c0 -22 -6.66699 -39.667 -20 -53c-12.667 -11.333 -29.334 -17 -50.001 -17c-18.667 0 -35 5.83301 -49 17.5s-21 29.167 -21 52.5v210h-210c-21.333 0 -38.666 6.66699 -51.999 20c-12 14 -18 30.667 -18 50c0 16.667 6.16699 32.5 18.5 47.5
s29.5 22.5 51.5 22.5h210v210c0 18.667 7 36 21 52c14 12 30.333 18 49 18c18 0 34.167 -5.83301 48.5 -17.5s21.5 -29.167 21.5 -52.5v-210h210c19.333 0 35.833 -7.16699 49.5 -21.5s20.5 -30.5 20.5 -48.5c0 -16 -5.83301 -31.667 -17.5 -47s-29.167 -23 -52.5 -23h-210z
" />
    <glyph glyph-name="twosuperior" unicode="&#xb2;" horiz-adv-x="420" 
d="M280 70c0 -22 -6.66602 -39.667 -19.999 -53c-12.667 -11.333 -29.334 -17 -50.001 -17c-18.667 -0 -35 5.83301 -49 17.5s-21 29.167 -21 52.5v1260c0 18.667 7 36 21 52c14 12 30.333 18 49 18c18 0 34.167 -5.83301 48.5 -17.5s21.5 -29.167 21.5 -52.5v-1260z" />
    <glyph glyph-name="twosuperior" unicode="&#x406;" horiz-adv-x="420" 
d="M280 70c0 -22 -6.66602 -39.667 -19.999 -53c-12.667 -11.333 -29.334 -17 -50.001 -17c-18.667 -0 -35 5.83301 -49 17.5s-21 29.167 -21 52.5v1260c0 18.667 7 36 21 52c14 12 30.333 18 49 18c18 0 34.167 -5.83301 48.5 -17.5s21.5 -29.167 21.5 -52.5v-1260z" />
    <glyph glyph-name="threesuperior" unicode="&#xb3;" horiz-adv-x="420" 
d="M280 70c0 -22 -6.66602 -39.667 -19.999 -53c-12.667 -11.333 -29.334 -17 -50.001 -17c-18.667 -0 -35 5.83301 -49 17.5s-21 29.167 -21 52.5v840c0 18.667 7 36 21 52c14 12 30.333 18 49 18c18 0 34.167 -5.83301 48.5 -17.5s21.5 -29.167 21.5 -52.5v-840z
M140.001 1330c0 19.333 6.83301 35.833 20.5 49.5s30.167 20.5 49.5 20.5c15.333 0 30.833 -6.83301 46.5 -20.5s23.5 -30.167 23.5 -49.5c0 -18 -6.83301 -34.167 -20.5 -48.5s-30.167 -21.5 -49.5 -21.5c-20 0 -37 7 -51 21c-12.667 14.667 -19 31 -19 49z" />
    <glyph glyph-name="threesuperior" unicode="&#x456;" horiz-adv-x="420" 
d="M280 70c0 -22 -6.66602 -39.667 -19.999 -53c-12.667 -11.333 -29.334 -17 -50.001 -17c-18.667 -0 -35 5.83301 -49 17.5s-21 29.167 -21 52.5v840c0 18.667 7 36 21 52c14 12 30.333 18 49 18c18 0 34.167 -5.83301 48.5 -17.5s21.5 -29.167 21.5 -52.5v-840z
M140.001 1330c0 19.333 6.83301 35.833 20.5 49.5s30.167 20.5 49.5 20.5c15.333 0 30.833 -6.83301 46.5 -20.5s23.5 -30.167 23.5 -49.5c0 -18 -6.83301 -34.167 -20.5 -48.5s-30.167 -21.5 -49.5 -21.5c-20 0 -37 7 -51 21c-12.667 14.667 -19 31 -19 49z" />
    <glyph glyph-name="paragraph" unicode="&#xb6;" horiz-adv-x="1260" 
d="M1050 1260h-97v-1610c0 -22 -6.33301 -39.333 -19 -52c-14 -12 -31 -18 -51 -18c-14 0 -29.167 5.83301 -45.5 17.5s-24.5 29.167 -24.5 52.5v1610h-172v-1610c0 -22 -6.33301 -39.333 -19 -52c-14 -12 -31 -18 -51 -18c-14 0 -29.167 5.83301 -45.5 17.5
s-24.5 29.167 -24.5 52.5v892c-102 14 -187.667 61.667 -257 143s-104 175.333 -104 282c0 122 35 223.667 105 305c76 85.333 184.667 128 326 128h479c22 0 39.167 -7.33301 51.5 -22s18.5 -30.667 18.5 -48c0 -16 -5.83301 -31.667 -17.5 -47s-29.167 -23 -52.5 -23z" />
    <glyph glyph-name="periodcentered" unicode="&#xb7;" horiz-adv-x="420" 
d="M140 560c0 19.333 6.83301 35.833 20.5 49.5s30.167 20.5 49.5 20.5c15.333 0 30.833 -6.83301 46.5 -20.5s23.5 -30.167 23.5 -49.5c0 -16.667 -6.83301 -32.5 -20.5 -47.5s-30.167 -22.5 -49.5 -22.5c-20 0 -37 7 -51 21c-12.667 14.667 -19 31 -19 49z" />
    <glyph glyph-name="periodcentered" unicode="&#x2219;" horiz-adv-x="420" 
d="M140 560c0 19.333 6.83301 35.833 20.5 49.5s30.167 20.5 49.5 20.5c15.333 0 30.833 -6.83301 46.5 -20.5s23.5 -30.167 23.5 -49.5c0 -16.667 -6.83301 -32.5 -20.5 -47.5s-30.167 -22.5 -49.5 -22.5c-20 0 -37 7 -51 21c-12.667 14.667 -19 31 -19 49z" />
    <glyph glyph-name="cedilla" unicode="&#xb8;" 
d="M280 560h419.999v140c0 39.333 -13.167 72.5 -39.5 99.5s-59.833 40.5 -100.5 40.5h-140c-39.333 0 -72.666 -13.333 -99.999 -40c-13.333 -13.333 -23.333 -28.5 -30 -45.5s-10 -35.167 -10 -54.5v-140zM279.999 420v-140.001c0 -39.333 13.333 -72.666 40 -99.999
c14 -12 29 -22 45 -30c20 -6.66699 38.333 -10 55 -10h350c19.333 0 35.833 -7.16699 49.5 -21.5s20.5 -30.5 20.5 -48.5c0 -16 -5.83301 -31.667 -17.5 -47s-29.167 -23 -52.5 -23h-350c-76 0 -141.667 27.167 -197 81.5s-83 120.5 -83 198.5v420
c0 75.333 27 140.833 81 196.5s120.333 83.5 199 83.5h140c76 0 141.667 -27.167 197 -81.5s83 -120.5 83 -198.5v-210c0 -46.667 -23.333 -70 -70 -70h-490zM209.999 1330c0 15.333 7 31.333 21 48s31.333 25 52 25c15.333 0 31.333 -7 48 -21s25 -31.333 25 -52
c0 -18 -7 -35 -21 -51c-5.33301 -5.33301 -12.333 -10.333 -21 -15s-19 -7 -31 -7c-18 0 -35 7 -51 21c-5.33301 6 -10.333 13.167 -15 21.5s-7 18.5 -7 30.5zM629.999 1330c0 19.333 6.83301 35.833 20.5 49.5s30.167 20.5 49.5 20.5c15.333 0 30.833 -6.83301 46.5 -20.5
s23.5 -30.167 23.5 -49.5c0 -18 -6.83301 -34.167 -20.5 -48.5s-30.167 -21.5 -49.5 -21.5c-20 0 -37 7 -51 21c-12.667 14.667 -19 31 -19 49z" />
    <glyph glyph-name="cedilla" unicode="&#x451;" 
d="M280 560h419.999v140c0 39.333 -13.167 72.5 -39.5 99.5s-59.833 40.5 -100.5 40.5h-140c-39.333 0 -72.666 -13.333 -99.999 -40c-13.333 -13.333 -23.333 -28.5 -30 -45.5s-10 -35.167 -10 -54.5v-140zM279.999 420v-140.001c0 -39.333 13.333 -72.666 40 -99.999
c14 -12 29 -22 45 -30c20 -6.66699 38.333 -10 55 -10h350c19.333 0 35.833 -7.16699 49.5 -21.5s20.5 -30.5 20.5 -48.5c0 -16 -5.83301 -31.667 -17.5 -47s-29.167 -23 -52.5 -23h-350c-76 0 -141.667 27.167 -197 81.5s-83 120.5 -83 198.5v420
c0 75.333 27 140.833 81 196.5s120.333 83.5 199 83.5h140c76 0 141.667 -27.167 197 -81.5s83 -120.5 83 -198.5v-210c0 -46.667 -23.333 -70 -70 -70h-490zM209.999 1330c0 15.333 7 31.333 21 48s31.333 25 52 25c15.333 0 31.333 -7 48 -21s25 -31.333 25 -52
c0 -18 -7 -35 -21 -51c-5.33301 -5.33301 -12.333 -10.333 -21 -15s-19 -7 -31 -7c-18 0 -35 7 -51 21c-5.33301 6 -10.333 13.167 -15 21.5s-7 18.5 -7 30.5zM629.999 1330c0 19.333 6.83301 35.833 20.5 49.5s30.167 20.5 49.5 20.5c15.333 0 30.833 -6.83301 46.5 -20.5
s23.5 -30.167 23.5 -49.5c0 -18 -6.83301 -34.167 -20.5 -48.5s-30.167 -21.5 -49.5 -21.5c-20 0 -37 7 -51 21c-12.667 14.667 -19 31 -19 49z" />
    <glyph glyph-name="onesuperior" unicode="&#xb9;" horiz-adv-x="1680" 
d="M1540 910c0 -61.333 -22 -113.666 -66 -156.999c-40.667 -35.333 -88.667 -53 -144 -53c-56.667 0 -104.667 17.333 -144 52c-44 39.333 -66 92 -66 158v280c0 61.333 22 113.666 66 156.999c40 34 88 51 144 51s104 -17 144 -51c44 -38 66 -90.333 66 -157v-280zM980 70
c0 -18 -6.99902 -35.667 -20.999 -53c-14 -12 -30 -18 -48 -18c-28 0 -49 12.333 -63 37l-568 1024v-990c0 -22 -6.66699 -39.667 -20 -53c-12.667 -11.333 -29.334 -17 -50.001 -17c-18.667 -0 -35 5.83301 -49 17.5s-21 29.167 -21 52.5v1260c0 18.667 7 36 21 52
c14 12 30.667 18 50 18c26 0 46.333 -12.333 61 -37l568 -1023v990c0 18.667 7 36 21 52c14 12 30.333 18 49 18c18 0 34.167 -5.83301 48.5 -17.5s21.5 -29.167 21.5 -52.5v-1260zM1400 910v280.001c0 19.333 -7 36.666 -21 51.999c-14.667 10.667 -31 16 -49 16
c-16.667 0 -32.5 -5.83301 -47.5 -17.5s-22.5 -28.5 -22.5 -50.5v-280c0 -22 6.33301 -39.667 19 -53c13.333 -11.333 30.333 -17 51 -17c16 0 31.667 5.83301 47 17.5s23 29.167 23 52.5z" />
    <glyph glyph-name="onesuperior" unicode="&#x2116;" horiz-adv-x="1680" 
d="M1540 910c0 -61.333 -22 -113.666 -66 -156.999c-40.667 -35.333 -88.667 -53 -144 -53c-56.667 0 -104.667 17.333 -144 52c-44 39.333 -66 92 -66 158v280c0 61.333 22 113.666 66 156.999c40 34 88 51 144 51s104 -17 144 -51c44 -38 66 -90.333 66 -157v-280zM980 70
c0 -18 -6.99902 -35.667 -20.999 -53c-14 -12 -30 -18 -48 -18c-28 0 -49 12.333 -63 37l-568 1024v-990c0 -22 -6.66699 -39.667 -20 -53c-12.667 -11.333 -29.334 -17 -50.001 -17c-18.667 -0 -35 5.83301 -49 17.5s-21 29.167 -21 52.5v1260c0 18.667 7 36 21 52
c14 12 30.667 18 50 18c26 0 46.333 -12.333 61 -37l568 -1023v990c0 18.667 7 36 21 52c14 12 30.333 18 49 18c18 0 34.167 -5.83301 48.5 -17.5s21.5 -29.167 21.5 -52.5v-1260zM1400 910v280.001c0 19.333 -7 36.666 -21 51.999c-14.667 10.667 -31 16 -49 16
c-16.667 0 -32.5 -5.83301 -47.5 -17.5s-22.5 -28.5 -22.5 -50.5v-280c0 -22 6.33301 -39.667 19 -53c13.333 -11.333 30.333 -17 51 -17c16 0 31.667 5.83301 47 17.5s23 29.167 23 52.5z" />
    <glyph glyph-name="ordmasculine" unicode="&#xba;" 
d="M840 70c0 -15.333 -6.00391 -32.001 -18.0039 -50.001c-13.333 -13.333 -30.666 -20 -51.999 -20h-350c-76 0 -141.667 27.167 -197 81.5s-83 120.5 -83 198.5v420c0 75.333 27 140.833 81 196.5s120.333 83.5 199 83.5h350c22 0 39.167 -7.33301 51.5 -22
s18.5 -30.667 18.5 -48c0 -15.333 -6 -32 -18 -50c-13.333 -13.333 -30.666 -20 -51.999 -20h-350c-39.333 0 -72.666 -13.333 -99.999 -40c-13.333 -13.333 -23.333 -28.5 -30 -45.5s-10 -35.167 -10 -54.5v-140h210c22 0 39.167 -7.33301 51.5 -22s18.5 -30.667 18.5 -48
c0 -15.333 -6 -32 -18 -50c-13.333 -13.333 -30.666 -20 -51.999 -20h-210v-140c0 -39.333 13.333 -72.666 40 -99.999c14 -12 29 -22 45 -30c20 -6.66699 38.333 -10 55 -10h350c22 0 39.167 -7.33301 51.5 -22s18.5 -30.667 18.5 -48z" />
    <glyph glyph-name="ordmasculine" unicode="&#x454;" 
d="M840 70c0 -15.333 -6.00391 -32.001 -18.0039 -50.001c-13.333 -13.333 -30.666 -20 -51.999 -20h-350c-76 0 -141.667 27.167 -197 81.5s-83 120.5 -83 198.5v420c0 75.333 27 140.833 81 196.5s120.333 83.5 199 83.5h350c22 0 39.167 -7.33301 51.5 -22
s18.5 -30.667 18.5 -48c0 -15.333 -6 -32 -18 -50c-13.333 -13.333 -30.666 -20 -51.999 -20h-350c-39.333 0 -72.666 -13.333 -99.999 -40c-13.333 -13.333 -23.333 -28.5 -30 -45.5s-10 -35.167 -10 -54.5v-140h210c22 0 39.167 -7.33301 51.5 -22s18.5 -30.667 18.5 -48
c0 -15.333 -6 -32 -18 -50c-13.333 -13.333 -30.666 -20 -51.999 -20h-210v-140c0 -39.333 13.333 -72.666 40 -99.999c14 -12 29 -22 45 -30c20 -6.66699 38.333 -10 55 -10h350c22 0 39.167 -7.33301 51.5 -22s18.5 -30.667 18.5 -48z" />
    <glyph glyph-name="guillemotright" unicode="&#xbb;" horiz-adv-x="1120" 
d="M937 448l-273 -290c-14 -19.333 -32.333 -29 -55 -29c-18 0 -34.333 7.33301 -49 22c-16 14 -24 30.333 -24 49c0 15.333 5.33301 29.333 16 42l240 248l-240 246l-9 15c-3.33301 8 -5.66602 17.667 -6.99902 29c0 17.333 7.33301 33.333 22 48s31.667 22 51 22
s37.666 -10 54.999 -30l273 -288c8 -12 13 -26 15 -42c0 -14 -5 -28 -15 -42zM559 448l-273 -290c-14 -19.333 -32.333 -29 -55 -29c-18 0 -34.333 7.33301 -49 22c-16 14 -24 30.333 -24 49c0 15.333 5.33301 29.333 16 42l240 248l-240 246l-9 15
c-3.33301 8 -5.66602 17.667 -6.99902 29c0 17.333 7.33301 33.333 22 48s31.667 22 51 22s37.666 -10 54.999 -30l273 -288c8 -12 13 -26 15 -42c0 -14 -5 -28 -15 -42z" />
    <glyph glyph-name="questiondown" unicode="&#xbf;" horiz-adv-x="420" 
d="M280 70c0 -22 -6.66602 -39.667 -19.999 -53c-12.667 -11.333 -29.334 -17 -50.001 -17c-18.667 -0 -35 5.83301 -49 17.5s-21 29.167 -21 52.5v840c0 18.667 7 36 21 52c14 12 30.333 18 49 18c18 0 34.167 -5.83301 48.5 -17.5s21.5 -29.167 21.5 -52.5v-840z
M-69.999 1330c0 16.667 6.83301 32.5 20.5 47.5s30.167 22.5 49.5 22.5c15.333 0 30.833 -6.83301 46.5 -20.5s23.5 -30.167 23.5 -49.5c0 -18 -6.83301 -34.167 -20.5 -48.5s-30.167 -21.5 -49.5 -21.5c-17.333 0 -33.333 7 -48 21s-22 30.333 -22 49zM350.001 1330
c0 19.333 6.83301 35.833 20.5 49.5s30.167 20.5 49.5 20.5c15.333 0 30.833 -6.83301 46.5 -20.5s23.5 -30.167 23.5 -49.5c0 -18 -6.83301 -34.167 -20.5 -48.5s-30.167 -21.5 -49.5 -21.5c-20 0 -37 7 -51 21c-12.667 14.667 -19 31 -19 49z" />
    <glyph glyph-name="questiondown" unicode="&#x457;" horiz-adv-x="420" 
d="M280 70c0 -22 -6.66602 -39.667 -19.999 -53c-12.667 -11.333 -29.334 -17 -50.001 -17c-18.667 -0 -35 5.83301 -49 17.5s-21 29.167 -21 52.5v840c0 18.667 7 36 21 52c14 12 30.333 18 49 18c18 0 34.167 -5.83301 48.5 -17.5s21.5 -29.167 21.5 -52.5v-840z
M-69.999 1330c0 16.667 6.83301 32.5 20.5 47.5s30.167 22.5 49.5 22.5c15.333 0 30.833 -6.83301 46.5 -20.5s23.5 -30.167 23.5 -49.5c0 -18 -6.83301 -34.167 -20.5 -48.5s-30.167 -21.5 -49.5 -21.5c-17.333 0 -33.333 7 -48 21s-22 30.333 -22 49zM350.001 1330
c0 19.333 6.83301 35.833 20.5 49.5s30.167 20.5 49.5 20.5c15.333 0 30.833 -6.83301 46.5 -20.5s23.5 -30.167 23.5 -49.5c0 -18 -6.83301 -34.167 -20.5 -48.5s-30.167 -21.5 -49.5 -21.5c-20 0 -37 7 -51 21c-12.667 14.667 -19 31 -19 49z" />
    <glyph glyph-name="Agrave" unicode="&#xc0;" horiz-adv-x="1260" 
d="M385 351l-101 -302.001c-5.33301 -14.667 -14 -26.667 -26 -36c-9.33301 -6 -22 -10 -38 -12c-18.667 0 -35 6.66699 -49 20c-15.333 12 -23 28 -23 48l5 25l421 1260c14 40 36 60 66 60s52 -20 66 -60l419 -1260l5 -25c0 -18 -7.66699 -34.333 -23 -49
c-14.667 -12.667 -31 -19 -49 -19c-9.33301 0 -19.833 2.33301 -31.5 7s-22.5 18.334 -32.5 41.001l-101 302h-508zM846 493.999l-206 617l-207 -617h413z" />
    <glyph glyph-name="Agrave" unicode="&#x410;" horiz-adv-x="1260" 
d="M385 351l-101 -302.001c-5.33301 -14.667 -14 -26.667 -26 -36c-9.33301 -6 -22 -10 -38 -12c-18.667 0 -35 6.66699 -49 20c-15.333 12 -23 28 -23 48l5 25l421 1260c14 40 36 60 66 60s52 -20 66 -60l419 -1260l5 -25c0 -18 -7.66699 -34.333 -23 -49
c-14.667 -12.667 -31 -19 -49 -19c-9.33301 0 -19.833 2.33301 -31.5 7s-22.5 18.334 -32.5 41.001l-101 302h-508zM846 493.999l-206 617l-207 -617h413z" />
    <glyph glyph-name="Aacute" unicode="&#xc1;" horiz-adv-x="1120" 
d="M280 700v-560h420c38.667 0 71.667 13 99 39s41 59.667 41 101v280c0 39.333 -13.167 72.5 -39.5 99.5s-59.833 40.5 -100.5 40.5h-420zM280 840h420c76 0 141.667 -27.167 197 -81.5s83 -120.5 83 -198.5v-280c0 -76.667 -27.333 -142.5 -82 -197.5
s-120.667 -82.5 -198 -82.5h-490c-46.667 -0 -70 23.333 -70 70v1260c0 46.667 23.333 70 70 70h560c19.333 0 35.833 -7.16699 49.5 -21.5s20.5 -30.5 20.5 -48.5c0 -16 -5.83301 -31.667 -17.5 -47s-29.167 -23 -52.5 -23h-490v-420z" />
    <glyph glyph-name="Aacute" unicode="&#x411;" horiz-adv-x="1120" 
d="M280 700v-560h420c38.667 0 71.667 13 99 39s41 59.667 41 101v280c0 39.333 -13.167 72.5 -39.5 99.5s-59.833 40.5 -100.5 40.5h-420zM280 840h420c76 0 141.667 -27.167 197 -81.5s83 -120.5 83 -198.5v-280c0 -76.667 -27.333 -142.5 -82 -197.5
s-120.667 -82.5 -198 -82.5h-490c-46.667 -0 -70 23.333 -70 70v1260c0 46.667 23.333 70 70 70h560c19.333 0 35.833 -7.16699 49.5 -21.5s20.5 -30.5 20.5 -48.5c0 -16 -5.83301 -31.667 -17.5 -47s-29.167 -23 -52.5 -23h-490v-420z" />
    <glyph glyph-name="Acircumflex" unicode="&#xc2;" horiz-adv-x="1120" 
d="M846 799c40 -24 72.333 -57.667 97 -101s37 -89.333 37 -138v-280c0 -76.667 -27.333 -142.5 -82 -197.5s-120.667 -82.5 -198 -82.5h-490c-46.667 -0 -70 23.333 -70 70v1260c0 46.667 23.333 70 70 70h420c78 0 144.167 -27.333 198.5 -82s81.5 -120.667 81.5 -198
v-140c0 -32 -5 -63 -15 -93s-26.333 -59.333 -49 -88zM280 701v-561h420c38.667 0 71.667 13 99 39s41 59.667 41 101v280c0 39.333 -13.167 72.5 -39.5 99.5s-59.833 40.5 -100.5 40.5zM630 840c38.667 0 71.667 13 99 39s41 59.667 41 101v140
c0 39.333 -13.167 72.5 -39.5 99.5s-59.833 40.5 -100.5 40.5h-350v-421z" />
    <glyph glyph-name="Acircumflex" unicode="&#x412;" horiz-adv-x="1120" 
d="M846 799c40 -24 72.333 -57.667 97 -101s37 -89.333 37 -138v-280c0 -76.667 -27.333 -142.5 -82 -197.5s-120.667 -82.5 -198 -82.5h-490c-46.667 -0 -70 23.333 -70 70v1260c0 46.667 23.333 70 70 70h420c78 0 144.167 -27.333 198.5 -82s81.5 -120.667 81.5 -198
v-140c0 -32 -5 -63 -15 -93s-26.333 -59.333 -49 -88zM280 701v-561h420c38.667 0 71.667 13 99 39s41 59.667 41 101v280c0 39.333 -13.167 72.5 -39.5 99.5s-59.833 40.5 -100.5 40.5zM630 840c38.667 0 71.667 13 99 39s41 59.667 41 101v140
c0 39.333 -13.167 72.5 -39.5 99.5s-59.833 40.5 -100.5 40.5h-350v-421z" />
    <glyph glyph-name="Atilde" unicode="&#xc3;" 
d="M770 1260h-489.999v-1190c0 -22 -6.66699 -39.667 -20 -53c-12.667 -11.333 -29.334 -17 -50.001 -17c-18.667 -0 -35 5.83301 -49 17.5s-21 29.167 -21 52.5v1260c0 46.667 23.333 70 70 70h560c19.333 0 35.833 -7.16699 49.5 -21.5s20.5 -30.5 20.5 -48.5
c0 -16 -5.83301 -31.667 -17.5 -47s-29.167 -23 -52.5 -23z" />
    <glyph glyph-name="Atilde" unicode="&#x413;" 
d="M770 1260h-489.999v-1190c0 -22 -6.66699 -39.667 -20 -53c-12.667 -11.333 -29.334 -17 -50.001 -17c-18.667 -0 -35 5.83301 -49 17.5s-21 29.167 -21 52.5v1260c0 46.667 23.333 70 70 70h560c19.333 0 35.833 -7.16699 49.5 -21.5s20.5 -30.5 20.5 -48.5
c0 -16 -5.83301 -31.667 -17.5 -47s-29.167 -23 -52.5 -23z" />
    <glyph glyph-name="Adieresis" unicode="&#xc4;" horiz-adv-x="1260" 
d="M287 140l133 1198c0 41.333 23.333 62 70 62h420c46.667 0 70 -23.333 70 -70v-1190h70c46.667 0 70 -23.333 70 -70v-140c0 -19.333 -7.16699 -35.833 -21.5 -49.5s-30.5 -20.5 -48.5 -20.5c-16 0 -31.667 5.83301 -47 17.5s-23 29.167 -23 52.5v70h-700v-70
c0 -19.333 -7.16699 -35.833 -21.5 -49.5s-30.5 -20.5 -48.5 -20.5c-16 0 -31.667 5.83301 -47 17.5s-23 29.167 -23 52.5v140c0 46.667 23.333 70 70 70h77zM840 140v1120h-287l-126 -1120h413z" />
    <glyph glyph-name="Adieresis" unicode="&#x414;" horiz-adv-x="1260" 
d="M287 140l133 1198c0 41.333 23.333 62 70 62h420c46.667 0 70 -23.333 70 -70v-1190h70c46.667 0 70 -23.333 70 -70v-140c0 -19.333 -7.16699 -35.833 -21.5 -49.5s-30.5 -20.5 -48.5 -20.5c-16 0 -31.667 5.83301 -47 17.5s-23 29.167 -23 52.5v70h-700v-70
c0 -19.333 -7.16699 -35.833 -21.5 -49.5s-30.5 -20.5 -48.5 -20.5c-16 0 -31.667 5.83301 -47 17.5s-23 29.167 -23 52.5v140c0 46.667 23.333 70 70 70h77zM840 140v1120h-287l-126 -1120h413z" />
    <glyph glyph-name="Aring" unicode="&#xc5;" 
d="M280 840h351c19.333 0 35.833 -7.16699 49.5 -21.5s20.5 -30.5 20.5 -48.5c0 -16.667 -5.83301 -32.5 -17.5 -47.5s-29.167 -22.5 -52.5 -22.5h-351v-560h491c19.333 0 35.833 -7.16699 49.5 -21.5s20.5 -30.5 20.5 -48.5c0 -16.667 -5.83301 -32.5 -17.5 -47.5
s-29.167 -22.5 -52.5 -22.5h-561c-46.667 0 -70 22 -70 66v1264c0 46.667 23.333 70 70 70h561c19.333 0 35.833 -7.16699 49.5 -21.5s20.5 -30.5 20.5 -48.5c0 -16.667 -5.83301 -32.5 -17.5 -47.5s-29.167 -22.5 -52.5 -22.5h-491v-420z" />
    <glyph glyph-name="Aring" unicode="&#x415;" 
d="M280 840h351c19.333 0 35.833 -7.16699 49.5 -21.5s20.5 -30.5 20.5 -48.5c0 -16.667 -5.83301 -32.5 -17.5 -47.5s-29.167 -22.5 -52.5 -22.5h-351v-560h491c19.333 0 35.833 -7.16699 49.5 -21.5s20.5 -30.5 20.5 -48.5c0 -16.667 -5.83301 -32.5 -17.5 -47.5
s-29.167 -22.5 -52.5 -22.5h-561c-46.667 0 -70 22 -70 66v1264c0 46.667 23.333 70 70 70h561c19.333 0 35.833 -7.16699 49.5 -21.5s20.5 -30.5 20.5 -48.5c0 -16.667 -5.83301 -32.5 -17.5 -47.5s-29.167 -22.5 -52.5 -22.5h-491v-420z" />
    <glyph glyph-name="AE" unicode="&#xc6;" horiz-adv-x="1400" 
d="M770 853l362 517c5.33301 8 13.333 15.167 24 21.5s21.334 9.5 32.001 9.5c18 0 35 -7 51 -21c14.667 -14.667 22 -31.334 22 -50.001c0 -14 -4.66699 -27.667 -14 -41l-366 -523l370 -662c6.66699 -13.333 10 -25.666 10 -36.999c0 -16 -7.16699 -31.167 -21.5 -45.5
s-31.833 -21.5 -52.5 -21.5c-21.333 0 -41 12 -59 36l-358 640v-606c0 -22 -6.66699 -39.667 -20 -53c-12.667 -11.333 -29.334 -17 -50.001 -17c-18.667 -0 -35 5.83301 -49 17.5s-21 29.167 -21 52.5v606l-358 -640c-6 -8 -14.667 -16.667 -26 -26l-17 -7l-18 -3
c-19.333 0 -36.166 6.5 -50.499 19.5s-21.5 29.5 -21.5 49.5c0 7.33301 3 19 9 35l371 662l-366 523c-5.33301 6.66699 -10 20.667 -14 42c0 18 7.16699 34.167 21.5 48.5s31.166 21.5 50.499 21.5s38 -10.333 56 -31l363 -517v477c0 18.667 7 36 21 52
c14 12 30.333 18 49 18c18 0 34.167 -5.83301 48.5 -17.5s21.5 -29.167 21.5 -52.5v-477z" />
    <glyph glyph-name="AE" unicode="&#x416;" horiz-adv-x="1400" 
d="M770 853l362 517c5.33301 8 13.333 15.167 24 21.5s21.334 9.5 32.001 9.5c18 0 35 -7 51 -21c14.667 -14.667 22 -31.334 22 -50.001c0 -14 -4.66699 -27.667 -14 -41l-366 -523l370 -662c6.66699 -13.333 10 -25.666 10 -36.999c0 -16 -7.16699 -31.167 -21.5 -45.5
s-31.833 -21.5 -52.5 -21.5c-21.333 0 -41 12 -59 36l-358 640v-606c0 -22 -6.66699 -39.667 -20 -53c-12.667 -11.333 -29.334 -17 -50.001 -17c-18.667 -0 -35 5.83301 -49 17.5s-21 29.167 -21 52.5v606l-358 -640c-6 -8 -14.667 -16.667 -26 -26l-17 -7l-18 -3
c-19.333 0 -36.166 6.5 -50.499 19.5s-21.5 29.5 -21.5 49.5c0 7.33301 3 19 9 35l371 662l-366 523c-5.33301 6.66699 -10 20.667 -14 42c0 18 7.16699 34.167 21.5 48.5s31.166 21.5 50.499 21.5s38 -10.333 56 -31l363 -517v477c0 18.667 7 36 21 52
c14 12 30.333 18 49 18c18 0 34.167 -5.83301 48.5 -17.5s21.5 -29.167 21.5 -52.5v-477z" />
    <glyph glyph-name="Ccedilla" unicode="&#xc7;" 
d="M560 700l-210.002 -0.00195312c-21.333 0 -38.666 6.66699 -51.999 20c-12 14 -18 30.667 -18 50c0 16.667 6.16699 32.5 18.5 47.5s29.5 22.5 51.5 22.5h210c38.667 0 71.667 13 99 39s41 59.667 41 101v140c0 39.333 -13.167 72.5 -39.5 99.5s-59.833 40.5 -100.5 40.5
h-140c-30.667 0 -57.667 -8.66699 -81 -26c-23.333 -16 -40.333 -39.667 -51 -71c-3.33301 -12.667 -11 -23.667 -23 -33c-5.33301 -5.33301 -11.666 -9.66602 -18.999 -12.999l-22 -3c-20 0 -37.667 6.33301 -53 19c-14 13.333 -21 30.333 -21 51l4 24
c18 56 51.5 102 100.5 138s104.167 54 165.5 54h140c78 0 144.167 -27.333 198.5 -82s81.5 -120.667 81.5 -198v-140c0 -40.667 -8.16699 -79.5 -24.5 -116.5s-39.833 -68.167 -70.5 -93.5c63.333 -53.333 95 -123.333 95 -210v-280c0 -76.667 -27.333 -142.5 -82 -197.5
s-120.667 -82.5 -198 -82.5h-140c-60 0 -114.167 17.333 -162.5 52s-82.833 81.334 -103.5 140.001l-4 25c0 18 7 34 21 48s31.667 21 53 21c27.333 0 48 -15.667 62 -47c9.33301 -27.333 26.333 -52 51 -74c27.333 -16.667 55 -25 83 -25h140c38.667 0 71.667 13 99 39
s41 59.667 41 101v280c0 41.333 -10.667 74 -32 98c-24 28 -60 42 -108 42z" />
    <glyph glyph-name="Ccedilla" unicode="&#x417;" 
d="M560 700l-210.002 -0.00195312c-21.333 0 -38.666 6.66699 -51.999 20c-12 14 -18 30.667 -18 50c0 16.667 6.16699 32.5 18.5 47.5s29.5 22.5 51.5 22.5h210c38.667 0 71.667 13 99 39s41 59.667 41 101v140c0 39.333 -13.167 72.5 -39.5 99.5s-59.833 40.5 -100.5 40.5
h-140c-30.667 0 -57.667 -8.66699 -81 -26c-23.333 -16 -40.333 -39.667 -51 -71c-3.33301 -12.667 -11 -23.667 -23 -33c-5.33301 -5.33301 -11.666 -9.66602 -18.999 -12.999l-22 -3c-20 0 -37.667 6.33301 -53 19c-14 13.333 -21 30.333 -21 51l4 24
c18 56 51.5 102 100.5 138s104.167 54 165.5 54h140c78 0 144.167 -27.333 198.5 -82s81.5 -120.667 81.5 -198v-140c0 -40.667 -8.16699 -79.5 -24.5 -116.5s-39.833 -68.167 -70.5 -93.5c63.333 -53.333 95 -123.333 95 -210v-280c0 -76.667 -27.333 -142.5 -82 -197.5
s-120.667 -82.5 -198 -82.5h-140c-60 0 -114.167 17.333 -162.5 52s-82.833 81.334 -103.5 140.001l-4 25c0 18 7 34 21 48s31.667 21 53 21c27.333 0 48 -15.667 62 -47c9.33301 -27.333 26.333 -52 51 -74c27.333 -16.667 55 -25 83 -25h140c38.667 0 71.667 13 99 39
s41 59.667 41 101v280c0 41.333 -10.667 74 -32 98c-24 28 -60 42 -108 42z" />
    <glyph glyph-name="Egrave" unicode="&#xc8;" horiz-adv-x="1120" 
d="M980 70c0 -22 -6.66699 -39.666 -20 -52.999c-12.667 -11.333 -29.334 -17 -50.001 -17c-18.667 0 -35 5.83301 -49 17.5s-21 29.167 -21 52.5v990l-568 -1024c-8 -14 -18.333 -25.333 -31 -34l-15 -8c-4.66699 -2 -12 -3.66699 -22 -5c-13.333 0 -28.666 7 -45.999 21
c-12 14 -18 34 -18 60v1260c0 18.667 7 36 21 52c14 12 30.333 18 49 18c18 0 34.167 -5.83301 48.5 -17.5s21.5 -29.167 21.5 -52.5v-990l568 1023c6.66699 11.333 16.667 22.666 30 33.999c12.667 9.33301 25.334 14 38.001 14c15.333 0 29.666 -7.66699 42.999 -23
c14 -14 21 -33.333 21 -58v-1260z" />
    <glyph glyph-name="Egrave" unicode="&#x418;" horiz-adv-x="1120" 
d="M980 70c0 -22 -6.66699 -39.666 -20 -52.999c-12.667 -11.333 -29.334 -17 -50.001 -17c-18.667 0 -35 5.83301 -49 17.5s-21 29.167 -21 52.5v990l-568 -1024c-8 -14 -18.333 -25.333 -31 -34l-15 -8c-4.66699 -2 -12 -3.66699 -22 -5c-13.333 0 -28.666 7 -45.999 21
c-12 14 -18 34 -18 60v1260c0 18.667 7 36 21 52c14 12 30.333 18 49 18c18 0 34.167 -5.83301 48.5 -17.5s21.5 -29.167 21.5 -52.5v-990l568 1023c6.66699 11.333 16.667 22.666 30 33.999c12.667 9.33301 25.334 14 38.001 14c15.333 0 29.666 -7.66699 42.999 -23
c14 -14 21 -33.333 21 -58v-1260z" />
    <glyph glyph-name="Eacute" unicode="&#xc9;" horiz-adv-x="1120" 
d="M700 1540h-280.001c-21.333 0 -38.666 6.33301 -51.999 19c-12 15.333 -18 32.333 -18 51c0 16 5.83301 31.667 17.5 47s29.167 23 52.5 23h280c19.333 0 35.833 -7.16699 49.5 -21.5s20.5 -30.5 20.5 -48.5c0 -16 -5.83301 -31.667 -17.5 -47s-29.167 -23 -52.5 -23z
M979.999 70c0 -22 -6.66699 -39.666 -20 -52.999c-12.667 -11.333 -29.334 -17 -50.001 -17c-18.667 0 -35 5.83301 -49 17.5s-21 29.167 -21 52.5v990l-568 -1024c-8 -14 -18.333 -25.333 -31 -34l-15 -8c-4.66699 -2 -12 -3.66699 -22 -5c-13.333 0 -28.666 7 -45.999 21
c-12 14 -18 34 -18 60v1260c0 18.667 7 36 21 52c14 12 30.333 18 49 18c18 0 34.167 -5.83301 48.5 -17.5s21.5 -29.167 21.5 -52.5v-990l568 1023c6.66699 11.333 16.667 22.666 30 33.999c12.667 9.33301 25.334 14 38.001 14c15.333 0 29.666 -7.66699 42.999 -23
c14 -14 21 -33.333 21 -58v-1260z" />
    <glyph glyph-name="Eacute" unicode="&#x419;" horiz-adv-x="1120" 
d="M700 1540h-280.001c-21.333 0 -38.666 6.33301 -51.999 19c-12 15.333 -18 32.333 -18 51c0 16 5.83301 31.667 17.5 47s29.167 23 52.5 23h280c19.333 0 35.833 -7.16699 49.5 -21.5s20.5 -30.5 20.5 -48.5c0 -16 -5.83301 -31.667 -17.5 -47s-29.167 -23 -52.5 -23z
M979.999 70c0 -22 -6.66699 -39.666 -20 -52.999c-12.667 -11.333 -29.334 -17 -50.001 -17c-18.667 0 -35 5.83301 -49 17.5s-21 29.167 -21 52.5v990l-568 -1024c-8 -14 -18.333 -25.333 -31 -34l-15 -8c-4.66699 -2 -12 -3.66699 -22 -5c-13.333 0 -28.666 7 -45.999 21
c-12 14 -18 34 -18 60v1260c0 18.667 7 36 21 52c14 12 30.333 18 49 18c18 0 34.167 -5.83301 48.5 -17.5s21.5 -29.167 21.5 -52.5v-990l568 1023c6.66699 11.333 16.667 22.666 30 33.999c12.667 9.33301 25.334 14 38.001 14c15.333 0 29.666 -7.66699 42.999 -23
c14 -14 21 -33.333 21 -58v-1260z" />
    <glyph glyph-name="Ecircumflex" unicode="&#xca;" horiz-adv-x="1120" 
d="M280 794l589.002 584.999c14 14 30 21 48 21c17.333 0 33.5 -7.16699 48.5 -21.5s22.5 -31.166 22.5 -50.499c0 -12 -7 -27.667 -21 -47l-417 -416l430 -761l10 -37c0 -18 -7.66699 -33.667 -23 -47c-14 -14 -31 -21 -51 -21c-22.667 0 -42.334 12.333 -59.001 37
l-410 731l-167 -164v-533c0 -22 -6.66699 -39.667 -20 -53c-12.667 -11.333 -29.334 -17 -50.001 -17c-18.667 -0 -35 5.83301 -49 17.5s-21 29.167 -21 52.5v1260c0 18 7.16699 33.833 21.5 47.5s30.5 20.5 48.5 20.5s34.333 -5.33301 49 -16c14 -12 21 -29.333 21 -52
v-536z" />
    <glyph glyph-name="Ecircumflex" unicode="&#x41a;" horiz-adv-x="1120" 
d="M280 794l589.002 584.999c14 14 30 21 48 21c17.333 0 33.5 -7.16699 48.5 -21.5s22.5 -31.166 22.5 -50.499c0 -12 -7 -27.667 -21 -47l-417 -416l430 -761l10 -37c0 -18 -7.66699 -33.667 -23 -47c-14 -14 -31 -21 -51 -21c-22.667 0 -42.334 12.333 -59.001 37
l-410 731l-167 -164v-533c0 -22 -6.66699 -39.667 -20 -53c-12.667 -11.333 -29.334 -17 -50.001 -17c-18.667 -0 -35 5.83301 -49 17.5s-21 29.167 -21 52.5v1260c0 18 7.16699 33.833 21.5 47.5s30.5 20.5 48.5 20.5s34.333 -5.33301 49 -16c14 -12 21 -29.333 21 -52
v-536z" />
    <glyph glyph-name="Edieresis" unicode="&#xcb;" horiz-adv-x="1120" 
d="M980 70c0 -22 -6.66699 -39.667 -20 -53c-12.667 -11.333 -29.334 -17 -50.001 -17c-18.667 -0 -35 5.83301 -49 17.5s-21 29.167 -21 52.5v1190h-227l-336 -1208c-2 -14 -9.66699 -26.167 -23 -36.5s-27.666 -15.5 -42.999 -15.5c-20.667 -0 -37.667 5.83301 -51 17.5
s-20 28.167 -20 49.5c0 10 1 17 3 21l350 1260c10 34.667 32.333 52 67 52h350c46.667 0 70 -23.333 70 -70v-1260z" />
    <glyph glyph-name="Edieresis" unicode="&#x41b;" horiz-adv-x="1120" 
d="M980 70c0 -22 -6.66699 -39.667 -20 -53c-12.667 -11.333 -29.334 -17 -50.001 -17c-18.667 -0 -35 5.83301 -49 17.5s-21 29.167 -21 52.5v1190h-227l-336 -1208c-2 -14 -9.66699 -26.167 -23 -36.5s-27.666 -15.5 -42.999 -15.5c-20.667 -0 -37.667 5.83301 -51 17.5
s-20 28.167 -20 49.5c0 10 1 17 3 21l350 1260c10 34.667 32.333 52 67 52h350c46.667 0 70 -23.333 70 -70v-1260z" />
    <glyph glyph-name="Igrave" unicode="&#xcc;" horiz-adv-x="1260" 
d="M1121 70c0 -22 -6.33301 -39.666 -19 -52.999c-13.333 -11.333 -30.333 -17 -51 -17c-16 0 -31.667 5.83301 -47 17.5s-23 29.167 -23 52.5v999l-289 -484c-17.333 -30 -37.666 -45 -60.999 -45c-20 0 -40 15 -60 45l-291 484v-999c0 -22 -6.66699 -39.667 -20 -53
c-12.667 -11.333 -29.334 -17 -50.001 -17c-18.667 0 -35 5.83301 -49 17.5s-21 29.167 -21 52.5v1253c0 26.667 6.66699 46.667 20 60c12 14 26.667 21 44 21c12.667 0 24 -3.33301 34 -10s20.667 -18.334 32 -35.001l361 -600l360 600c16 30 38.333 45 67 45
c16 0 31 -7.33301 45 -22c12 -15.333 18 -35 18 -59v-1253z" />
    <glyph glyph-name="Igrave" unicode="&#x41c;" horiz-adv-x="1260" 
d="M1121 70c0 -22 -6.33301 -39.666 -19 -52.999c-13.333 -11.333 -30.333 -17 -51 -17c-16 0 -31.667 5.83301 -47 17.5s-23 29.167 -23 52.5v999l-289 -484c-17.333 -30 -37.666 -45 -60.999 -45c-20 0 -40 15 -60 45l-291 484v-999c0 -22 -6.66699 -39.667 -20 -53
c-12.667 -11.333 -29.334 -17 -50.001 -17c-18.667 0 -35 5.83301 -49 17.5s-21 29.167 -21 52.5v1253c0 26.667 6.66699 46.667 20 60c12 14 26.667 21 44 21c12.667 0 24 -3.33301 34 -10s20.667 -18.334 32 -35.001l361 -600l360 600c16 30 38.333 45 67 45
c16 0 31 -7.33301 45 -22c12 -15.333 18 -35 18 -59v-1253z" />
    <glyph glyph-name="Iacute" unicode="&#xcd;" horiz-adv-x="1120" 
d="M840 840v493.001c0 18.667 7 35 21 49s30.333 21 49 21c18 0 34.167 -5.83301 48.5 -17.5s21.5 -29.167 21.5 -52.5v-1260c0 -20 -7.33301 -37.667 -22 -53c-16.667 -12.667 -33 -19 -49 -19c-17.333 0 -33.666 5.66699 -48.999 17c-13.333 11.333 -20 28.666 -20 51.999
v630h-560v-630c0 -22 -6.66699 -39.667 -20 -53c-12.667 -11.333 -29.334 -17 -50.001 -17c-18.667 -0 -35 5.83301 -49 17.5s-21 29.167 -21 52.5v1260c0 18.667 7 36 21 52c14 12 30.333 18 49 18c18 0 34.167 -5.83301 48.5 -17.5s21.5 -29.167 21.5 -52.5v-490h560z" />
    <glyph glyph-name="Iacute" unicode="&#x41d;" horiz-adv-x="1120" 
d="M840 840v493.001c0 18.667 7 35 21 49s30.333 21 49 21c18 0 34.167 -5.83301 48.5 -17.5s21.5 -29.167 21.5 -52.5v-1260c0 -20 -7.33301 -37.667 -22 -53c-16.667 -12.667 -33 -19 -49 -19c-17.333 0 -33.666 5.66699 -48.999 17c-13.333 11.333 -20 28.666 -20 51.999
v630h-560v-630c0 -22 -6.66699 -39.667 -20 -53c-12.667 -11.333 -29.334 -17 -50.001 -17c-18.667 -0 -35 5.83301 -49 17.5s-21 29.167 -21 52.5v1260c0 18.667 7 36 21 52c14 12 30.333 18 49 18c18 0 34.167 -5.83301 48.5 -17.5s21.5 -29.167 21.5 -52.5v-490h560z" />
    <glyph glyph-name="Icircumflex" unicode="&#xce;" horiz-adv-x="1232" 
d="M980 280c0 -76.667 -27.333 -142.5 -82 -197.5s-120.667 -82.5 -198 -82.5h-280c-76 0 -141.667 27.167 -197 81.5s-83 120.5 -83 198.5v840c0 78 27.167 144.167 81.5 198.5s120.5 81.5 198.5 81.5h280c78 0 144.167 -27.333 198.5 -82s81.5 -120.667 81.5 -198v-840z
M840 280l-0.000976562 839.999c0 39.333 -13.167 72.5 -39.5 99.5s-59.833 40.5 -100.5 40.5h-280c-39.333 0 -72.666 -13.333 -99.999 -40c-13.333 -13.333 -23.333 -28.5 -30 -45.5s-10 -35.167 -10 -54.5v-840c0 -39.333 13.333 -72.666 40 -99.999c14 -12 29 -22 45 -30
c20 -6.66699 38.333 -10 55 -10h280c38.667 0 71.667 13 99 39s41 59.667 41 101z" />
    <glyph glyph-name="Icircumflex" unicode="&#x41e;" horiz-adv-x="1232" 
d="M980 280c0 -76.667 -27.333 -142.5 -82 -197.5s-120.667 -82.5 -198 -82.5h-280c-76 0 -141.667 27.167 -197 81.5s-83 120.5 -83 198.5v840c0 78 27.167 144.167 81.5 198.5s120.5 81.5 198.5 81.5h280c78 0 144.167 -27.333 198.5 -82s81.5 -120.667 81.5 -198v-840z
M840 280l-0.000976562 839.999c0 39.333 -13.167 72.5 -39.5 99.5s-59.833 40.5 -100.5 40.5h-280c-39.333 0 -72.666 -13.333 -99.999 -40c-13.333 -13.333 -23.333 -28.5 -30 -45.5s-10 -35.167 -10 -54.5v-840c0 -39.333 13.333 -72.666 40 -99.999c14 -12 29 -22 45 -30
c20 -6.66699 38.333 -10 55 -10h280c38.667 0 71.667 13 99 39s41 59.667 41 101z" />
    <glyph glyph-name="Idieresis" unicode="&#xcf;" horiz-adv-x="1120" 
d="M980 70c0 -22 -6.66504 -39.667 -19.998 -53c-12.667 -11.333 -29.334 -17 -50.001 -17c-18.667 -0 -35 5.83301 -49 17.5s-21 29.167 -21 52.5v1190h-560v-1190c0 -22 -6.66699 -39.667 -20 -53c-12.667 -11.333 -29.334 -17 -50.001 -17
c-18.667 -0 -35 5.83301 -49 17.5s-21 29.167 -21 52.5v1260c0 46.667 23.333 70 70 70h700c46.667 0 70 -23.333 70 -70v-1260z" />
    <glyph glyph-name="Idieresis" unicode="&#x41f;" horiz-adv-x="1120" 
d="M980 70c0 -22 -6.66504 -39.667 -19.998 -53c-12.667 -11.333 -29.334 -17 -50.001 -17c-18.667 -0 -35 5.83301 -49 17.5s-21 29.167 -21 52.5v1190h-560v-1190c0 -22 -6.66699 -39.667 -20 -53c-12.667 -11.333 -29.334 -17 -50.001 -17
c-18.667 -0 -35 5.83301 -49 17.5s-21 29.167 -21 52.5v1260c0 46.667 23.333 70 70 70h700c46.667 0 70 -23.333 70 -70v-1260z" />
    <glyph glyph-name="Eth" unicode="&#xd0;" horiz-adv-x="1120" 
d="M280 700h420c38.667 0 71.667 13 99 39s41 59.667 41 101v280c0 39.333 -13.167 72.5 -39.5 99.5s-59.833 40.5 -100.5 40.5h-420v-560zM280 560l0.000976562 -490c0 -22 -6.66699 -39.667 -20 -53c-12.667 -11.333 -29.334 -17 -50.001 -17
c-18.667 -0 -35 5.83301 -49 17.5s-21 29.167 -21 52.5v1260c0 46.667 23.333 70 70 70h490c78 0 144.167 -27.333 198.5 -82s81.5 -120.667 81.5 -198v-280c0 -76.667 -27.333 -142.5 -82 -197.5s-120.667 -82.5 -198 -82.5h-420z" />
    <glyph glyph-name="Eth" unicode="&#x420;" horiz-adv-x="1120" 
d="M280 700h420c38.667 0 71.667 13 99 39s41 59.667 41 101v280c0 39.333 -13.167 72.5 -39.5 99.5s-59.833 40.5 -100.5 40.5h-420v-560zM280 560l0.000976562 -490c0 -22 -6.66699 -39.667 -20 -53c-12.667 -11.333 -29.334 -17 -50.001 -17
c-18.667 -0 -35 5.83301 -49 17.5s-21 29.167 -21 52.5v1260c0 46.667 23.333 70 70 70h490c78 0 144.167 -27.333 198.5 -82s81.5 -120.667 81.5 -198v-280c0 -76.667 -27.333 -142.5 -82 -197.5s-120.667 -82.5 -198 -82.5h-420z" />
    <glyph glyph-name="Ntilde" unicode="&#xd1;" 
d="M770 0l-350.001 -0.000976562c-76 0 -141.667 27.167 -197 81.5s-83 120.5 -83 198.5v840c0 78 27.167 144.167 81.5 198.5s120.5 81.5 198.5 81.5h350c19.333 0 35.833 -7.16699 49.5 -21.5s20.5 -30.5 20.5 -48.5c0 -16 -5.83301 -31.667 -17.5 -47
s-29.167 -23 -52.5 -23h-350c-39.333 0 -72.666 -13.333 -99.999 -40c-13.333 -13.333 -23.333 -28.5 -30 -45.5s-10 -35.167 -10 -54.5v-840c0 -39.333 13.333 -72.666 40 -99.999c14 -12 29 -22 45 -30c20 -6.66699 38.333 -10 55 -10h350
c19.333 0 35.833 -7.16699 49.5 -21.5s20.5 -30.5 20.5 -48.5c0 -16 -5.83301 -31.667 -17.5 -47s-29.167 -23 -52.5 -23z" />
    <glyph glyph-name="Ntilde" unicode="&#x421;" 
d="M770 0l-350.001 -0.000976562c-76 0 -141.667 27.167 -197 81.5s-83 120.5 -83 198.5v840c0 78 27.167 144.167 81.5 198.5s120.5 81.5 198.5 81.5h350c19.333 0 35.833 -7.16699 49.5 -21.5s20.5 -30.5 20.5 -48.5c0 -16 -5.83301 -31.667 -17.5 -47
s-29.167 -23 -52.5 -23h-350c-39.333 0 -72.666 -13.333 -99.999 -40c-13.333 -13.333 -23.333 -28.5 -30 -45.5s-10 -35.167 -10 -54.5v-840c0 -39.333 13.333 -72.666 40 -99.999c14 -12 29 -22 45 -30c20 -6.66699 38.333 -10 55 -10h350
c19.333 0 35.833 -7.16699 49.5 -21.5s20.5 -30.5 20.5 -48.5c0 -16 -5.83301 -31.667 -17.5 -47s-29.167 -23 -52.5 -23z" />
    <glyph glyph-name="Ograve" unicode="&#xd2;" horiz-adv-x="1120" 
d="M490 1260h-280c-21.333 0 -38.666 6.33301 -51.999 19c-12 15.333 -18 32.333 -18 51c0 16 5.83301 31.667 17.5 47s29.167 23 52.5 23h700c19.333 0 35.833 -7.16699 49.5 -21.5s20.5 -30.5 20.5 -48.5c0 -16 -5.83301 -31.667 -17.5 -47s-29.167 -23 -52.5 -23h-280
v-1190c0 -22 -6.66699 -39.667 -20 -53c-12.667 -11.333 -29.334 -17 -50.001 -17c-18.667 -0 -35 5.83301 -49 17.5s-21 29.167 -21 52.5v1190z" />
    <glyph glyph-name="Ograve" unicode="&#x422;" horiz-adv-x="1120" 
d="M490 1260h-280c-21.333 0 -38.666 6.33301 -51.999 19c-12 15.333 -18 32.333 -18 51c0 16 5.83301 31.667 17.5 47s29.167 23 52.5 23h700c19.333 0 35.833 -7.16699 49.5 -21.5s20.5 -30.5 20.5 -48.5c0 -16 -5.83301 -31.667 -17.5 -47s-29.167 -23 -52.5 -23h-280
v-1190c0 -22 -6.66699 -39.667 -20 -53c-12.667 -11.333 -29.334 -17 -50.001 -17c-18.667 -0 -35 5.83301 -49 17.5s-21 29.167 -21 52.5v1190z" />
    <glyph glyph-name="Oacute" unicode="&#xd3;" horiz-adv-x="1120" 
d="M840 560l-420.001 -0.000976562c-76 0 -141.667 27.167 -197 81.5s-83 120.5 -83 198.5v490c0 18.667 7 36 21 52c14 12 30.333 18 49 18c18 0 34.167 -5.83301 48.5 -17.5s21.5 -29.167 21.5 -52.5v-490c0 -39.333 13.333 -72.666 40 -99.999c14 -12 29 -22 45 -30
c20 -6.66699 38.333 -10 55 -10h420v630c0 18.667 7 36 21 52c14 12 30.333 18 49 18c18 0 34.167 -5.83301 48.5 -17.5s21.5 -29.167 21.5 -52.5v-1050c0 -76.667 -27.333 -142.5 -82 -197.5s-120.667 -82.5 -198 -82.5h-350c-21.333 0 -38.666 6.66699 -51.999 20
c-12 14 -18 30.667 -18 50c0 16.667 6.16699 32.5 18.5 47.5s29.5 22.5 51.5 22.5h350c38.667 0 71.667 13 99 39s41 59.667 41 101v280z" />
    <glyph glyph-name="Oacute" unicode="&#x423;" horiz-adv-x="1120" 
d="M840 560l-420.001 -0.000976562c-76 0 -141.667 27.167 -197 81.5s-83 120.5 -83 198.5v490c0 18.667 7 36 21 52c14 12 30.333 18 49 18c18 0 34.167 -5.83301 48.5 -17.5s21.5 -29.167 21.5 -52.5v-490c0 -39.333 13.333 -72.666 40 -99.999c14 -12 29 -22 45 -30
c20 -6.66699 38.333 -10 55 -10h420v630c0 18.667 7 36 21 52c14 12 30.333 18 49 18c18 0 34.167 -5.83301 48.5 -17.5s21.5 -29.167 21.5 -52.5v-1050c0 -76.667 -27.333 -142.5 -82 -197.5s-120.667 -82.5 -198 -82.5h-350c-21.333 0 -38.666 6.66699 -51.999 20
c-12 14 -18 30.667 -18 50c0 16.667 6.16699 32.5 18.5 47.5s29.5 22.5 51.5 22.5h350c38.667 0 71.667 13 99 39s41 59.667 41 101v280z" />
    <glyph glyph-name="Ocircumflex" unicode="&#xd4;" horiz-adv-x="1400" 
d="M770 1050v-630h70c77.333 0 143.333 27.333 198 82s82 120.667 82 198v70c0 74.667 -27 140 -81 196s-120.333 84 -199 84h-70zM630 420v630h-70c-76 0 -141.667 -27.167 -197 -81.5s-83 -120.5 -83 -198.5v-70c0 -76.667 27.333 -142.5 82 -197.5
s120.667 -82.5 198 -82.5h70zM630 280l-69.9971 0.000976562c-116.667 0 -215.834 40.667 -297.501 122s-122.5 180.666 -122.5 297.999v70c0 114 41 212.5 123 295.5s181 124.5 297 124.5h70v140c0 18.667 7 36 21 52c14 12 30.333 18 49 18
c18 0 34.167 -5.83301 48.5 -17.5s21.5 -29.167 21.5 -52.5v-140h70c116 0 215 -41 297 -123c38 -40 68 -84.833 90 -134.5s33 -103.834 33 -162.501v-70c0 -113.333 -40.833 -211.666 -122.5 -294.999s-180.834 -125 -297.501 -125h-70v-210
c0 -22 -6.66699 -39.667 -20 -53c-12.667 -11.333 -29.334 -17 -50.001 -17c-18.667 -0 -35 5.83301 -49 17.5s-21 29.167 -21 52.5v210z" />
    <glyph glyph-name="Ocircumflex" unicode="&#x424;" horiz-adv-x="1400" 
d="M770 1050v-630h70c77.333 0 143.333 27.333 198 82s82 120.667 82 198v70c0 74.667 -27 140 -81 196s-120.333 84 -199 84h-70zM630 420v630h-70c-76 0 -141.667 -27.167 -197 -81.5s-83 -120.5 -83 -198.5v-70c0 -76.667 27.333 -142.5 82 -197.5
s120.667 -82.5 198 -82.5h70zM630 280l-69.9971 0.000976562c-116.667 0 -215.834 40.667 -297.501 122s-122.5 180.666 -122.5 297.999v70c0 114 41 212.5 123 295.5s181 124.5 297 124.5h70v140c0 18.667 7 36 21 52c14 12 30.333 18 49 18
c18 0 34.167 -5.83301 48.5 -17.5s21.5 -29.167 21.5 -52.5v-140h70c116 0 215 -41 297 -123c38 -40 68 -84.833 90 -134.5s33 -103.834 33 -162.501v-70c0 -113.333 -40.833 -211.666 -122.5 -294.999s-180.834 -125 -297.501 -125h-70v-210
c0 -22 -6.66699 -39.667 -20 -53c-12.667 -11.333 -29.334 -17 -50.001 -17c-18.667 -0 -35 5.83301 -49 17.5s-21 29.167 -21 52.5v210z" />
    <glyph glyph-name="Otilde" unicode="&#xd5;" horiz-adv-x="1260" 
d="M630 827l361 542.001c6 9.33301 14.333 17.333 25 24l15 6l17 2c18 0 35 -7 51 -21c14.667 -14.667 22 -31.334 22 -50.001c0 -12 -4 -25 -12 -39l-394 -591l394 -591l9 -21l3 -19c0 -18 -7.16699 -34.167 -21.5 -48.5s-31.833 -21.5 -52.5 -21.5
c-22 0 -40.667 10.667 -56 32l-361 542l-361 -542c-5.33301 -8.66699 -14.333 -17 -27 -25l-31 -7c-14.667 0 -31 7 -49 21c-15.333 14 -23 30.667 -23 50c0 12 4 25 12 39l394 591l-394 591l-10 21l-2 19c0 18 7.16699 34.167 21.5 48.5s31.833 21.5 52.5 21.5
c22 0 40.667 -10.667 56 -32z" />
    <glyph glyph-name="Otilde" unicode="&#x425;" horiz-adv-x="1260" 
d="M630 827l361 542.001c6 9.33301 14.333 17.333 25 24l15 6l17 2c18 0 35 -7 51 -21c14.667 -14.667 22 -31.334 22 -50.001c0 -12 -4 -25 -12 -39l-394 -591l394 -591l9 -21l3 -19c0 -18 -7.16699 -34.167 -21.5 -48.5s-31.833 -21.5 -52.5 -21.5
c-22 0 -40.667 10.667 -56 32l-361 542l-361 -542c-5.33301 -8.66699 -14.333 -17 -27 -25l-31 -7c-14.667 0 -31 7 -49 21c-15.333 14 -23 30.667 -23 50c0 12 4 25 12 39l394 591l-394 591l-10 21l-2 19c0 18 7.16699 34.167 21.5 48.5s31.833 21.5 52.5 21.5
c22 0 40.667 -10.667 56 -32z" />
    <glyph glyph-name="Odieresis" unicode="&#xd6;" horiz-adv-x="1260" 
d="M840 140v1190c0 18.667 7 36 21 52c14 12 30.333 18 49 18c18 0 34.167 -5.83301 48.5 -17.5s21.5 -29.167 21.5 -52.5v-1190h70c46.667 0 70 -23.333 70 -70v-210c0 -19.333 -7.16699 -35.833 -21.5 -49.5s-30.5 -20.5 -48.5 -20.5c-16 0 -31.667 5.83301 -47 17.5
s-23 29.167 -23 52.5v140h-770c-46.667 -0 -70 23.333 -70 70v1260c0 18.667 7 36 21 52c14 12 30.333 18 49 18c18 0 34.167 -5.83301 48.5 -17.5s21.5 -29.167 21.5 -52.5v-1190h560z" />
    <glyph glyph-name="Odieresis" unicode="&#x426;" horiz-adv-x="1260" 
d="M840 140v1190c0 18.667 7 36 21 52c14 12 30.333 18 49 18c18 0 34.167 -5.83301 48.5 -17.5s21.5 -29.167 21.5 -52.5v-1190h70c46.667 0 70 -23.333 70 -70v-210c0 -19.333 -7.16699 -35.833 -21.5 -49.5s-30.5 -20.5 -48.5 -20.5c-16 0 -31.667 5.83301 -47 17.5
s-23 29.167 -23 52.5v140h-770c-46.667 -0 -70 23.333 -70 70v1260c0 18.667 7 36 21 52c14 12 30.333 18 49 18c18 0 34.167 -5.83301 48.5 -17.5s21.5 -29.167 21.5 -52.5v-1190h560z" />
    <glyph glyph-name="multiply" unicode="&#xd7;" horiz-adv-x="1120" 
d="M840 700l0.000976562 629.999c0 18.667 7 36 21 52c14 12 30.333 18 49 18c18 0 34.167 -5.83301 48.5 -17.5s21.5 -29.167 21.5 -52.5v-1260c0 -22 -6.66699 -39.667 -20 -53c-12.667 -11.333 -29.334 -17 -50.001 -17c-18.667 0 -35 5.83301 -49 17.5
s-21 29.167 -21 52.5v490h-420c-76 0 -141.667 27.167 -197 81.5s-83 120.5 -83 198.5v490c0 18.667 7 36 21 52c14 12 30.333 18 49 18c18 0 34.167 -5.83301 48.5 -17.5s21.5 -29.167 21.5 -52.5v-490c0 -39.333 13.333 -72.666 40 -99.999c14 -12 29 -22 45 -30
c20 -6.66699 38.333 -10 55 -10h420z" />
    <glyph glyph-name="multiply" unicode="&#x427;" horiz-adv-x="1120" 
d="M840 700l0.000976562 629.999c0 18.667 7 36 21 52c14 12 30.333 18 49 18c18 0 34.167 -5.83301 48.5 -17.5s21.5 -29.167 21.5 -52.5v-1260c0 -22 -6.66699 -39.667 -20 -53c-12.667 -11.333 -29.334 -17 -50.001 -17c-18.667 0 -35 5.83301 -49 17.5
s-21 29.167 -21 52.5v490h-420c-76 0 -141.667 27.167 -197 81.5s-83 120.5 -83 198.5v490c0 18.667 7 36 21 52c14 12 30.333 18 49 18c18 0 34.167 -5.83301 48.5 -17.5s21.5 -29.167 21.5 -52.5v-490c0 -39.333 13.333 -72.666 40 -99.999c14 -12 29 -22 45 -30
c20 -6.66699 38.333 -10 55 -10h420z" />
    <glyph glyph-name="Oslash" unicode="&#xd8;" horiz-adv-x="1400" 
d="M770 140h350.001v1190c0 18.667 7 36 21 52c14 12 30.333 18 49 18c17.333 0 33.666 -5.66699 48.999 -17c14 -12 21 -29.667 21 -53v-1260c0 -46.667 -23.333 -70 -70 -70h-980c-46.667 -0 -70 23.333 -70 70v1260c0 18.667 7 36 21 52c14 12 30.333 18 49 18
c18 0 34.167 -5.83301 48.5 -17.5s21.5 -29.167 21.5 -52.5v-1190h350v1190c0 18.667 7 36 21 52c14 12 30.333 18 49 18c18 0 34.167 -5.83301 48.5 -17.5s21.5 -29.167 21.5 -52.5v-1190z" />
    <glyph glyph-name="Oslash" unicode="&#x428;" horiz-adv-x="1400" 
d="M770 140h350.001v1190c0 18.667 7 36 21 52c14 12 30.333 18 49 18c17.333 0 33.666 -5.66699 48.999 -17c14 -12 21 -29.667 21 -53v-1260c0 -46.667 -23.333 -70 -70 -70h-980c-46.667 -0 -70 23.333 -70 70v1260c0 18.667 7 36 21 52c14 12 30.333 18 49 18
c18 0 34.167 -5.83301 48.5 -17.5s21.5 -29.167 21.5 -52.5v-1190h350v1190c0 18.667 7 36 21 52c14 12 30.333 18 49 18c18 0 34.167 -5.83301 48.5 -17.5s21.5 -29.167 21.5 -52.5v-1190z" />
    <glyph glyph-name="Ugrave" unicode="&#xd9;" horiz-adv-x="1540" 
d="M1260 0h-69.999h-980c-46.667 -0 -70 23.333 -70 70v1260c0 18.667 7 36 21 52c14 12 30.333 18 49 18c18 0 34.167 -5.83301 48.5 -17.5s21.5 -29.167 21.5 -52.5v-1190h350v1190c0 18.667 7 36 21 52c14 12 30.333 18 49 18c18 0 34.167 -5.83301 48.5 -17.5
s21.5 -29.167 21.5 -52.5v-1190h350v1190c0 18.667 7 36 21 52c14 12 30.333 18 49 18c17.333 0 33.666 -5.66699 48.999 -17c14 -12 21 -29.667 21 -53v-1190h70c46.667 0 70 -23.333 70 -70v-210c0 -19.333 -7.16699 -35.833 -21.5 -49.5s-30.5 -20.5 -48.5 -20.5
c-16 0 -31.667 5.83301 -47 17.5s-23 29.167 -23 52.5v140z" />
    <glyph glyph-name="Ugrave" unicode="&#x429;" horiz-adv-x="1540" 
d="M1260 0h-69.999h-980c-46.667 -0 -70 23.333 -70 70v1260c0 18.667 7 36 21 52c14 12 30.333 18 49 18c18 0 34.167 -5.83301 48.5 -17.5s21.5 -29.167 21.5 -52.5v-1190h350v1190c0 18.667 7 36 21 52c14 12 30.333 18 49 18c18 0 34.167 -5.83301 48.5 -17.5
s21.5 -29.167 21.5 -52.5v-1190h350v1190c0 18.667 7 36 21 52c14 12 30.333 18 49 18c17.333 0 33.666 -5.66699 48.999 -17c14 -12 21 -29.667 21 -53v-1190h70c46.667 0 70 -23.333 70 -70v-210c0 -19.333 -7.16699 -35.833 -21.5 -49.5s-30.5 -20.5 -48.5 -20.5
c-16 0 -31.667 5.83301 -47 17.5s-23 29.167 -23 52.5v140z" />
    <glyph glyph-name="Uacute" unicode="&#xda;" horiz-adv-x="1400" 
d="M560 700v-560h420c38.667 0 71.667 13 99 39s41 59.667 41 101v280c0 39.333 -13.167 72.5 -39.5 99.5s-59.833 40.5 -100.5 40.5h-420zM560 840h419.999c78 0 144.167 -27.333 198.5 -82s81.5 -120.667 81.5 -198v-280c0 -78 -27.167 -144.167 -81.5 -198.5
s-120.5 -81.5 -198.5 -81.5h-490c-46.667 -0 -70 23.333 -70 70v1190h-210c-21.333 0 -38.666 6.33301 -51.999 19c-12 15.333 -18 32.333 -18 51c0 16 5.83301 31.667 17.5 47s29.167 23 52.5 23h280c46.667 0 70 -23.333 70 -70v-490z" />
    <glyph glyph-name="Uacute" unicode="&#x42a;" horiz-adv-x="1400" 
d="M560 700v-560h420c38.667 0 71.667 13 99 39s41 59.667 41 101v280c0 39.333 -13.167 72.5 -39.5 99.5s-59.833 40.5 -100.5 40.5h-420zM560 840h419.999c78 0 144.167 -27.333 198.5 -82s81.5 -120.667 81.5 -198v-280c0 -78 -27.167 -144.167 -81.5 -198.5
s-120.5 -81.5 -198.5 -81.5h-490c-46.667 -0 -70 23.333 -70 70v1190h-210c-21.333 0 -38.666 6.33301 -51.999 19c-12 15.333 -18 32.333 -18 51c0 16 5.83301 31.667 17.5 47s29.167 23 52.5 23h280c46.667 0 70 -23.333 70 -70v-490z" />
    <glyph glyph-name="Ucircumflex" unicode="&#xdb;" horiz-adv-x="1260" 
d="M1120 70c0 -22 -6.66504 -39.667 -19.998 -53c-12.667 -11.333 -29.334 -17 -50.001 -17c-18.667 -0 -35 5.83301 -49 17.5s-21 29.167 -21 52.5v1260c0 18.667 7 36 21 52c14 12 30.333 18 49 18c17.333 0 33.666 -5.66699 48.999 -17c14 -12 21 -29.667 21 -53v-1260z
M280.002 700v-560h280c38.667 0 71.667 13 99 39s41 59.667 41 101v280c0 39.333 -13.167 72.5 -39.5 99.5s-59.833 40.5 -100.5 40.5h-280zM280.002 840h280c76 0 141.667 -27.167 197 -81.5s83 -120.5 83 -198.5v-280c0 -76.667 -27.333 -142.5 -82 -197.5
s-120.667 -82.5 -198 -82.5h-350c-46.667 -0 -70 23.333 -70 70v1260c0 18.667 7 36 21 52c14 12 30.333 18 49 18c18 0 34.167 -5.83301 48.5 -17.5s21.5 -29.167 21.5 -52.5v-490z" />
    <glyph glyph-name="Ucircumflex" unicode="&#x42b;" horiz-adv-x="1260" 
d="M1120 70c0 -22 -6.66504 -39.667 -19.998 -53c-12.667 -11.333 -29.334 -17 -50.001 -17c-18.667 -0 -35 5.83301 -49 17.5s-21 29.167 -21 52.5v1260c0 18.667 7 36 21 52c14 12 30.333 18 49 18c17.333 0 33.666 -5.66699 48.999 -17c14 -12 21 -29.667 21 -53v-1260z
M280.002 700v-560h280c38.667 0 71.667 13 99 39s41 59.667 41 101v280c0 39.333 -13.167 72.5 -39.5 99.5s-59.833 40.5 -100.5 40.5h-280zM280.002 840h280c76 0 141.667 -27.167 197 -81.5s83 -120.5 83 -198.5v-280c0 -76.667 -27.333 -142.5 -82 -197.5
s-120.667 -82.5 -198 -82.5h-350c-46.667 -0 -70 23.333 -70 70v1260c0 18.667 7 36 21 52c14 12 30.333 18 49 18c18 0 34.167 -5.83301 48.5 -17.5s21.5 -29.167 21.5 -52.5v-490z" />
    <glyph glyph-name="Udieresis" unicode="&#xdc;" horiz-adv-x="1120" 
d="M280 700l420 -0.000976562c39.333 0 72.5 -13.167 99.5 -39.5s40.5 -59.833 40.5 -100.5v-280c0 -39.333 -13.333 -72.666 -40 -99.999c-13.333 -13.333 -28.5 -23.333 -45.5 -30s-35.167 -10 -54.5 -10h-420v560zM280 839.999v490c0 18.667 -7.16699 35 -21.5 49
s-30.5 21 -48.5 21c-16 0 -31.667 -5.83301 -47 -17.5s-23 -29.167 -23 -52.5v-1260c0 -46.667 23.333 -70 70 -70h490c75.333 0 140.833 27 196.5 81s83.5 120.333 83.5 199v280c0 76 -27.167 141.667 -81.5 197s-120.5 83 -198.5 83h-420z" />
    <glyph glyph-name="Udieresis" unicode="&#x42c;" horiz-adv-x="1120" 
d="M280 700l420 -0.000976562c39.333 0 72.5 -13.167 99.5 -39.5s40.5 -59.833 40.5 -100.5v-280c0 -39.333 -13.333 -72.666 -40 -99.999c-13.333 -13.333 -28.5 -23.333 -45.5 -30s-35.167 -10 -54.5 -10h-420v560zM280 839.999v490c0 18.667 -7.16699 35 -21.5 49
s-30.5 21 -48.5 21c-16 0 -31.667 -5.83301 -47 -17.5s-23 -29.167 -23 -52.5v-1260c0 -46.667 23.333 -70 70 -70h490c75.333 0 140.833 27 196.5 81s83.5 120.333 83.5 199v280c0 76 -27.167 141.667 -81.5 197s-120.5 83 -198.5 83h-420z" />
    <glyph glyph-name="Yacute" unicode="&#xdd;" horiz-adv-x="1120" 
d="M840 700h-350.003c-21.333 0 -38.666 6.66699 -51.999 20c-12 14 -18 30.667 -18 50c0 16.667 6.16699 32.5 18.5 47.5s29.5 22.5 51.5 22.5h350v280c0 39.333 -13.167 72.5 -39.5 99.5s-59.833 40.5 -100.5 40.5h-490c-21.333 0 -38.666 6.33301 -51.999 19
c-12 15.333 -18 32.333 -18 51c0 16 5.83301 31.667 17.5 47s29.167 23 52.5 23h490c78 0 144.167 -27.333 198.5 -82s81.5 -120.667 81.5 -198v-840c0 -76.667 -27.333 -142.5 -82 -197.5s-120.667 -82.5 -198 -82.5h-490c-21.333 0 -38.666 6.66699 -51.999 20
c-12 14 -18 30.667 -18 50c0 16.667 6.16699 32.5 18.5 47.5s29.5 22.5 51.5 22.5h490c38.667 0 71.667 13 99 39s41 59.667 41 101v420z" />
    <glyph glyph-name="Yacute" unicode="&#x42d;" horiz-adv-x="1120" 
d="M840 700h-350.003c-21.333 0 -38.666 6.66699 -51.999 20c-12 14 -18 30.667 -18 50c0 16.667 6.16699 32.5 18.5 47.5s29.5 22.5 51.5 22.5h350v280c0 39.333 -13.167 72.5 -39.5 99.5s-59.833 40.5 -100.5 40.5h-490c-21.333 0 -38.666 6.33301 -51.999 19
c-12 15.333 -18 32.333 -18 51c0 16 5.83301 31.667 17.5 47s29.167 23 52.5 23h490c78 0 144.167 -27.333 198.5 -82s81.5 -120.667 81.5 -198v-840c0 -76.667 -27.333 -142.5 -82 -197.5s-120.667 -82.5 -198 -82.5h-490c-21.333 0 -38.666 6.66699 -51.999 20
c-12 14 -18 30.667 -18 50c0 16.667 6.16699 32.5 18.5 47.5s29.5 22.5 51.5 22.5h490c38.667 0 71.667 13 99 39s41 59.667 41 101v420z" />
    <glyph glyph-name="Thorn" unicode="&#xde;" horiz-adv-x="1260" 
d="M980 280l-0.000976562 839.999c0 39.333 -13.167 72.5 -39.5 99.5s-59.833 40.5 -100.5 40.5h-140c-39.333 0 -72.666 -13.333 -99.999 -40c-13.333 -13.333 -23.333 -28.5 -30 -45.5s-10 -35.167 -10 -54.5v-840c0 -39.333 13.333 -72.666 40 -99.999
c14 -12 29 -22 45 -30c20 -6.66699 38.333 -10 55 -10h140c38.667 0 71.667 13 99 39s41 59.667 41 101zM279.999 839.999h140.001v280c0 78 27.167 144.167 81.5 198.5s120.5 81.5 198.5 81.5h140c78 0 144.167 -27.333 198.5 -82s81.5 -120.667 81.5 -198v-840
c0 -76.667 -27.333 -142.5 -82 -197.5s-120.667 -82.5 -198 -82.5h-140c-76 0 -141.667 27.167 -197 81.5s-83 120.5 -83 198.5v420h-140v-630c0 -22 -6.66699 -39.667 -20 -53c-12.667 -11.333 -29.334 -17 -50.001 -17c-18.667 0 -35 5.83301 -49 17.5
s-21 29.167 -21 52.5v1260c0 18.667 7 36 21 52c14 12 30.333 18 49 18c18 0 34.167 -5.83301 48.5 -17.5s21.5 -29.167 21.5 -52.5v-490z" />
    <glyph glyph-name="Thorn" unicode="&#x42e;" horiz-adv-x="1260" 
d="M980 280l-0.000976562 839.999c0 39.333 -13.167 72.5 -39.5 99.5s-59.833 40.5 -100.5 40.5h-140c-39.333 0 -72.666 -13.333 -99.999 -40c-13.333 -13.333 -23.333 -28.5 -30 -45.5s-10 -35.167 -10 -54.5v-840c0 -39.333 13.333 -72.666 40 -99.999
c14 -12 29 -22 45 -30c20 -6.66699 38.333 -10 55 -10h140c38.667 0 71.667 13 99 39s41 59.667 41 101zM279.999 839.999h140.001v280c0 78 27.167 144.167 81.5 198.5s120.5 81.5 198.5 81.5h140c78 0 144.167 -27.333 198.5 -82s81.5 -120.667 81.5 -198v-840
c0 -76.667 -27.333 -142.5 -82 -197.5s-120.667 -82.5 -198 -82.5h-140c-76 0 -141.667 27.167 -197 81.5s-83 120.5 -83 198.5v420h-140v-630c0 -22 -6.66699 -39.667 -20 -53c-12.667 -11.333 -29.334 -17 -50.001 -17c-18.667 0 -35 5.83301 -49 17.5
s-21 29.167 -21 52.5v1260c0 18.667 7 36 21 52c14 12 30.333 18 49 18c18 0 34.167 -5.83301 48.5 -17.5s21.5 -29.167 21.5 -52.5v-490z" />
    <glyph glyph-name="germandbls" unicode="&#xdf;" horiz-adv-x="1120" 
d="M840 700l-0.000976562 559.999h-420c-39.333 0 -72.666 -13.333 -99.999 -40c-13.333 -13.333 -23.333 -28.5 -30 -45.5s-10 -35.167 -10 -54.5v-280c0 -39.333 13.333 -72.666 40 -99.999c14 -12 29 -22 45 -30c20 -6.66699 38.333 -10 55 -10h420zM598.999 559.999
l-329.999 -528c-14 -22 -32.667 -33 -56 -33c-18 0 -34.333 7.33301 -49 22c-16 14 -24 30.333 -24 49c0 14 3.66699 26.667 11 38l283 452h-14c-76 0 -141.667 27.167 -197 81.5s-83 120.5 -83 198.5v280c0 78 27.167 144.167 81.5 198.5s120.5 81.5 198.5 81.5h490
c46.667 0 70 -23.333 70 -70v-1260c0 -22 -6.66699 -39.667 -20 -53c-12.667 -11.333 -29.334 -17 -50.001 -17c-18.667 0 -35 5.83301 -49 17.5s-21 29.167 -21 52.5v490h-241z" />
    <glyph glyph-name="germandbls" unicode="&#x42f;" horiz-adv-x="1120" 
d="M840 700l-0.000976562 559.999h-420c-39.333 0 -72.666 -13.333 -99.999 -40c-13.333 -13.333 -23.333 -28.5 -30 -45.5s-10 -35.167 -10 -54.5v-280c0 -39.333 13.333 -72.666 40 -99.999c14 -12 29 -22 45 -30c20 -6.66699 38.333 -10 55 -10h420zM598.999 559.999
l-329.999 -528c-14 -22 -32.667 -33 -56 -33c-18 0 -34.333 7.33301 -49 22c-16 14 -24 30.333 -24 49c0 14 3.66699 26.667 11 38l283 452h-14c-76 0 -141.667 27.167 -197 81.5s-83 120.5 -83 198.5v280c0 78 27.167 144.167 81.5 198.5s120.5 81.5 198.5 81.5h490
c46.667 0 70 -23.333 70 -70v-1260c0 -22 -6.66699 -39.667 -20 -53c-12.667 -11.333 -29.334 -17 -50.001 -17c-18.667 0 -35 5.83301 -49 17.5s-21 29.167 -21 52.5v490h-241z" />
    <glyph glyph-name="agrave" unicode="&#xe0;" 
d="M700 280l-0.000976562 559.999h-280c-39.333 0 -72.666 -13.333 -99.999 -40c-13.333 -13.333 -23.333 -28.5 -30 -45.5s-10 -35.167 -10 -54.5v-420c0 -39.333 13.333 -72.666 40 -99.999c14 -12 29 -22 45 -30c20 -6.66699 38.333 -10 55 -10h140
c38.667 0 71.667 13 99 39s41 59.667 41 101zM768.999 91.999c-22.667 -26 -53.5 -47.833 -92.5 -65.5s-77.833 -26.5 -116.5 -26.5h-140c-75.333 0 -140.833 27 -196.5 81s-83.5 120.333 -83.5 199v420c0 77.333 27.333 143.333 82 198s120.667 82 198 82h350
c46.667 0 70 -23.333 70 -70v-629c0 -28 9 -56.667 27 -86c16 -26 39.333 -46.333 70 -61c29.333 -12 44 -33 44 -63c0 -20.667 -6.66699 -37.667 -20 -51c-12 -14 -28.667 -21 -50 -21c-10 0 -19.667 2.33301 -29 7c-46 18 -83.667 46.667 -113 86z" />
    <glyph glyph-name="agrave" unicode="&#x430;" 
d="M700 280l-0.000976562 559.999h-280c-39.333 0 -72.666 -13.333 -99.999 -40c-13.333 -13.333 -23.333 -28.5 -30 -45.5s-10 -35.167 -10 -54.5v-420c0 -39.333 13.333 -72.666 40 -99.999c14 -12 29 -22 45 -30c20 -6.66699 38.333 -10 55 -10h140
c38.667 0 71.667 13 99 39s41 59.667 41 101zM768.999 91.999c-22.667 -26 -53.5 -47.833 -92.5 -65.5s-77.833 -26.5 -116.5 -26.5h-140c-75.333 0 -140.833 27 -196.5 81s-83.5 120.333 -83.5 199v420c0 77.333 27.333 143.333 82 198s120.667 82 198 82h350
c46.667 0 70 -23.333 70 -70v-629c0 -28 9 -56.667 27 -86c16 -26 39.333 -46.333 70 -61c29.333 -12 44 -33 44 -63c0 -20.667 -6.66699 -37.667 -20 -51c-12 -14 -28.667 -21 -50 -21c-10 0 -19.667 2.33301 -29 7c-46 18 -83.667 46.667 -113 86z" />
    <glyph glyph-name="aacute" unicode="&#xe1;" 
d="M700 280l-0.000976562 419.999c0 39.333 -13.167 72.5 -39.5 99.5s-59.833 40.5 -100.5 40.5h-140c-39.333 0 -72.666 -13.333 -99.999 -40c-13.333 -13.333 -23.333 -28.5 -30 -45.5s-10 -35.167 -10 -54.5v-420c0 -39.333 13.333 -72.666 40 -99.999
c14 -12 29 -22 45 -30c20 -6.66699 38.333 -10 55 -10h140c38.667 0 71.667 13 99 39s41 59.667 41 101zM474.999 979.999l-314 298.999c-16.667 18.667 -25 38.334 -25 59.001c0 14 6 27.833 18 41.5s30.667 20.5 56 20.5h560c19.333 0 35.833 -7.16699 49.5 -21.5
s20.5 -30.5 20.5 -48.5c0 -16 -5.83301 -31.667 -17.5 -47s-29.167 -23 -52.5 -23h-385l371 -354l17 -23c44.667 -52.667 67 -113.667 67 -183v-420c0 -76.667 -27.333 -142.5 -82 -197.5s-120.667 -82.5 -198 -82.5h-140c-75.333 0 -140.833 27 -196.5 81
s-83.5 120.333 -83.5 199v420c0 77.333 27.333 143.333 82 198s120.667 82 198 82h55z" />
    <glyph glyph-name="aacute" unicode="&#x431;" 
d="M700 280l-0.000976562 419.999c0 39.333 -13.167 72.5 -39.5 99.5s-59.833 40.5 -100.5 40.5h-140c-39.333 0 -72.666 -13.333 -99.999 -40c-13.333 -13.333 -23.333 -28.5 -30 -45.5s-10 -35.167 -10 -54.5v-420c0 -39.333 13.333 -72.666 40 -99.999
c14 -12 29 -22 45 -30c20 -6.66699 38.333 -10 55 -10h140c38.667 0 71.667 13 99 39s41 59.667 41 101zM474.999 979.999l-314 298.999c-16.667 18.667 -25 38.334 -25 59.001c0 14 6 27.833 18 41.5s30.667 20.5 56 20.5h560c19.333 0 35.833 -7.16699 49.5 -21.5
s20.5 -30.5 20.5 -48.5c0 -16 -5.83301 -31.667 -17.5 -47s-29.167 -23 -52.5 -23h-385l371 -354l17 -23c44.667 -52.667 67 -113.667 67 -183v-420c0 -76.667 -27.333 -142.5 -82 -197.5s-120.667 -82.5 -198 -82.5h-140c-75.333 0 -140.833 27 -196.5 81
s-83.5 120.333 -83.5 199v420c0 77.333 27.333 143.333 82 198s120.667 82 198 82h55z" />
    <glyph glyph-name="acircumflex" unicode="&#xe2;" 
d="M700 280l-0.000976562 419.999c0 39.333 -13.167 72.5 -39.5 99.5s-59.833 40.5 -100.5 40.5h-140c-39.333 0 -72.666 -13.333 -99.999 -40c-13.333 -13.333 -23.333 -28.5 -30 -45.5s-10 -35.167 -10 -54.5v-420c0 -39.333 13.333 -72.666 40 -99.999
c14 -12 29 -22 45 -30c20 -6.66699 38.333 -10 55 -10h140c38.667 0 71.667 13 99 39s41 59.667 41 101zM279.999 930.999l57 38l83 58c26.667 20.667 45.667 38 57 52c18 22 27 45 27 69c0 32 -11.333 59 -34 81c-22.667 19.333 -48.667 29 -78 29
c-30.667 0 -57 -9.66699 -79 -29c-22 -18 -33 -45 -33 -81v-217zM559.999 975.999c89.333 0 159.332 -26.667 209.999 -80c46.667 -50.667 70 -116 70 -196v-420c0 -76.667 -27.333 -142.5 -82 -197.5s-120.667 -82.5 -198 -82.5h-140c-75.333 0 -140.833 27 -196.5 81
s-83.5 120.333 -83.5 199v868c0 78 26 141 78 189c48.667 42.667 107 64 175 64c64.667 0 122.667 -22 174 -66s77 -106 77 -186c0 -45.333 -6.66699 -79.333 -20 -102c-11.333 -23.333 -32.666 -47 -63.999 -71z" />
    <glyph glyph-name="acircumflex" unicode="&#x432;" 
d="M700 280l-0.000976562 419.999c0 39.333 -13.167 72.5 -39.5 99.5s-59.833 40.5 -100.5 40.5h-140c-39.333 0 -72.666 -13.333 -99.999 -40c-13.333 -13.333 -23.333 -28.5 -30 -45.5s-10 -35.167 -10 -54.5v-420c0 -39.333 13.333 -72.666 40 -99.999
c14 -12 29 -22 45 -30c20 -6.66699 38.333 -10 55 -10h140c38.667 0 71.667 13 99 39s41 59.667 41 101zM279.999 930.999l57 38l83 58c26.667 20.667 45.667 38 57 52c18 22 27 45 27 69c0 32 -11.333 59 -34 81c-22.667 19.333 -48.667 29 -78 29
c-30.667 0 -57 -9.66699 -79 -29c-22 -18 -33 -45 -33 -81v-217zM559.999 975.999c89.333 0 159.332 -26.667 209.999 -80c46.667 -50.667 70 -116 70 -196v-420c0 -76.667 -27.333 -142.5 -82 -197.5s-120.667 -82.5 -198 -82.5h-140c-75.333 0 -140.833 27 -196.5 81
s-83.5 120.333 -83.5 199v868c0 78 26 141 78 189c48.667 42.667 107 64 175 64c64.667 0 122.667 -22 174 -66s77 -106 77 -186c0 -45.333 -6.66699 -79.333 -20 -102c-11.333 -23.333 -32.666 -47 -63.999 -71z" />
    <glyph glyph-name="atilde" unicode="&#xe3;" 
d="M804 64c-36 -19.333 -82.665 -35.998 -139.998 -49.998l-75 -11l-82 -4l-98 4l-84 12c-52 8 -94.667 32.167 -128 72.5s-50 86.166 -50 137.499c0 29.333 6 58.666 18 87.999s31.667 55.666 59 78.999l447 307c14 12 21 26.333 21 43c0 29.333 -24 52.333 -72 69
s-100.667 25 -158 25c-46 0 -86.833 -3.83301 -122.5 -11.5s-64.834 -21.167 -87.501 -40.5c-12 -8 -26.333 -13 -43 -15c-14.667 0 -31 7 -49 21c-13.333 14.667 -20 31.667 -20 51c0 22 9.33301 40.333 28 55c28.667 22 72.334 40.333 131.001 55
c28 6.66699 57.167 12 87.5 16s60.166 6 89.499 6c18.667 0 36.5 -0.333008 53.5 -1s36.167 -2.16699 57.5 -4.5s46.666 -8.16602 75.999 -17.499c50.667 -14 92.167 -40 124.5 -78s48.5 -80 48.5 -126c0 -58 -26.667 -110.333 -80 -157l-447 -308
c-16.667 -15.333 -25 -33.333 -25 -54c0 -16.667 5.66699 -33 17 -49c11.333 -14 27.333 -23 48 -27l75 -8l84 -4c52 0 94.333 3.33301 127 10c14.667 2.66699 31 7.33398 49 14.001s35.333 15 52 25l14 6c6 2 13.667 3 23 3c18 0 34.333 -7.33301 49 -22
c12.667 -14.667 19 -32 19 -52c0 -22.667 -12.333 -42.334 -37 -59.001z" />
    <glyph glyph-name="atilde" unicode="&#x433;" 
d="M804 64c-36 -19.333 -82.665 -35.998 -139.998 -49.998l-75 -11l-82 -4l-98 4l-84 12c-52 8 -94.667 32.167 -128 72.5s-50 86.166 -50 137.499c0 29.333 6 58.666 18 87.999s31.667 55.666 59 78.999l447 307c14 12 21 26.333 21 43c0 29.333 -24 52.333 -72 69
s-100.667 25 -158 25c-46 0 -86.833 -3.83301 -122.5 -11.5s-64.834 -21.167 -87.501 -40.5c-12 -8 -26.333 -13 -43 -15c-14.667 0 -31 7 -49 21c-13.333 14.667 -20 31.667 -20 51c0 22 9.33301 40.333 28 55c28.667 22 72.334 40.333 131.001 55
c28 6.66699 57.167 12 87.5 16s60.166 6 89.499 6c18.667 0 36.5 -0.333008 53.5 -1s36.167 -2.16699 57.5 -4.5s46.666 -8.16602 75.999 -17.499c50.667 -14 92.167 -40 124.5 -78s48.5 -80 48.5 -126c0 -58 -26.667 -110.333 -80 -157l-447 -308
c-16.667 -15.333 -25 -33.333 -25 -54c0 -16.667 5.66699 -33 17 -49c11.333 -14 27.333 -23 48 -27l75 -8l84 -4c52 0 94.333 3.33301 127 10c14.667 2.66699 31 7.33398 49 14.001s35.333 15 52 25l14 6c6 2 13.667 3 23 3c18 0 34.333 -7.33301 49 -22
c12.667 -14.667 19 -32 19 -52c0 -22.667 -12.333 -42.334 -37 -59.001z" />
    <glyph glyph-name="adieresis" unicode="&#xe4;" 
d="M700 840l-280.001 -0.000976562c-39.333 0 -72.666 -13.333 -99.999 -40c-13.333 -13.333 -23.333 -28.5 -30 -45.5s-10 -35.167 -10 -54.5v-420c0 -39.333 13.333 -72.666 40 -99.999c14 -12 29 -22 45 -30c20 -6.66699 38.333 -10 55 -10h140c38.667 0 71.667 13 99 39
s41 59.667 41 101v560zM699.999 979.999l-0.000976562 140c0 39.333 -13.167 72.5 -39.5 99.5s-59.833 40.5 -100.5 40.5h-280c-21.333 0 -38.666 6.33301 -51.999 19c-12 15.333 -18 32.333 -18 51c0 16 5.83301 31.667 17.5 47s29.167 23 52.5 23h280
c78 0 144.167 -27.333 198.5 -82s81.5 -120.667 81.5 -198v-840c0 -76.667 -27.333 -142.5 -82 -197.5s-120.667 -82.5 -198 -82.5h-140c-75.333 0 -140.833 27 -196.5 81s-83.5 120.333 -83.5 199v420c0 77.333 27.333 143.333 82 198s120.667 82 198 82h280z" />
    <glyph glyph-name="adieresis" unicode="&#x434;" 
d="M700 840l-280.001 -0.000976562c-39.333 0 -72.666 -13.333 -99.999 -40c-13.333 -13.333 -23.333 -28.5 -30 -45.5s-10 -35.167 -10 -54.5v-420c0 -39.333 13.333 -72.666 40 -99.999c14 -12 29 -22 45 -30c20 -6.66699 38.333 -10 55 -10h140c38.667 0 71.667 13 99 39
s41 59.667 41 101v560zM699.999 979.999l-0.000976562 140c0 39.333 -13.167 72.5 -39.5 99.5s-59.833 40.5 -100.5 40.5h-280c-21.333 0 -38.666 6.33301 -51.999 19c-12 15.333 -18 32.333 -18 51c0 16 5.83301 31.667 17.5 47s29.167 23 52.5 23h280
c78 0 144.167 -27.333 198.5 -82s81.5 -120.667 81.5 -198v-840c0 -76.667 -27.333 -142.5 -82 -197.5s-120.667 -82.5 -198 -82.5h-140c-75.333 0 -140.833 27 -196.5 81s-83.5 120.333 -83.5 199v420c0 77.333 27.333 143.333 82 198s120.667 82 198 82h280z" />
    <glyph glyph-name="aring" unicode="&#xe5;" 
d="M280 560h419.999v140c0 39.333 -13.167 72.5 -39.5 99.5s-59.833 40.5 -100.5 40.5h-140c-39.333 0 -72.666 -13.333 -99.999 -40c-13.333 -13.333 -23.333 -28.5 -30 -45.5s-10 -35.167 -10 -54.5v-140zM279.999 420v-140.001c0 -39.333 13.333 -72.666 40 -99.999
c14 -12 29 -22 45 -30c20 -6.66699 38.333 -10 55 -10h350c19.333 0 35.833 -7.16699 49.5 -21.5s20.5 -30.5 20.5 -48.5c0 -16 -5.83301 -31.667 -17.5 -47s-29.167 -23 -52.5 -23h-350c-76 0 -141.667 27.167 -197 81.5s-83 120.5 -83 198.5v420
c0 75.333 27 140.833 81 196.5s120.333 83.5 199 83.5h140c76 0 141.667 -27.167 197 -81.5s83 -120.5 83 -198.5v-210c0 -46.667 -23.333 -70 -70 -70h-490z" />
    <glyph glyph-name="aring" unicode="&#x435;" 
d="M280 560h419.999v140c0 39.333 -13.167 72.5 -39.5 99.5s-59.833 40.5 -100.5 40.5h-140c-39.333 0 -72.666 -13.333 -99.999 -40c-13.333 -13.333 -23.333 -28.5 -30 -45.5s-10 -35.167 -10 -54.5v-140zM279.999 420v-140.001c0 -39.333 13.333 -72.666 40 -99.999
c14 -12 29 -22 45 -30c20 -6.66699 38.333 -10 55 -10h350c19.333 0 35.833 -7.16699 49.5 -21.5s20.5 -30.5 20.5 -48.5c0 -16 -5.83301 -31.667 -17.5 -47s-29.167 -23 -52.5 -23h-350c-76 0 -141.667 27.167 -197 81.5s-83 120.5 -83 198.5v420
c0 75.333 27 140.833 81 196.5s120.333 83.5 199 83.5h140c76 0 141.667 -27.167 197 -81.5s83 -120.5 83 -198.5v-210c0 -46.667 -23.333 -70 -70 -70h-490z" />
    <glyph glyph-name="ae" unicode="&#xe6;" horiz-adv-x="1260" 
d="M718 560l259.001 389.001c6 9.33301 14.333 17.333 25 24l15 6l17 2c18 0 35 -7 51 -21c14.667 -14.667 22 -31.334 22 -50.001c0 -12 -4 -25 -12 -39l-254 -381l254 -381l9 -21l3 -19c0 -18 -7.16699 -34.167 -21.5 -48.5s-31.833 -21.5 -52.5 -21.5
c-22 0 -40.667 10.667 -56 32l-259 389h-32v-350c0 -22 -6.66699 -39.667 -20 -53c-12.667 -11.333 -29.334 -17 -50.001 -17c-18.667 -0 -35 5.83301 -49 17.5s-21 29.167 -21 52.5v350h-32l-259 -389c-5.33301 -8.66699 -14.333 -17 -27 -25l-31 -7
c-14.667 0 -31 7 -49 21c-15.333 14 -23 30.667 -23 50c0 12 4 25 12 39l254 381l-254 381l-10 21l-2 19c0 18 7.16699 34.167 21.5 48.5s31.833 21.5 52.5 21.5c22 0 40.667 -10.667 56 -32l259 -389h32v350c0 18.667 7 36 21 52c14 12 30.333 18 49 18
c18 0 34.167 -5.83301 48.5 -17.5s21.5 -29.167 21.5 -52.5v-350h32z" />
    <glyph glyph-name="ae" unicode="&#x436;" horiz-adv-x="1260" 
d="M718 560l259.001 389.001c6 9.33301 14.333 17.333 25 24l15 6l17 2c18 0 35 -7 51 -21c14.667 -14.667 22 -31.334 22 -50.001c0 -12 -4 -25 -12 -39l-254 -381l254 -381l9 -21l3 -19c0 -18 -7.16699 -34.167 -21.5 -48.5s-31.833 -21.5 -52.5 -21.5
c-22 0 -40.667 10.667 -56 32l-259 389h-32v-350c0 -22 -6.66699 -39.667 -20 -53c-12.667 -11.333 -29.334 -17 -50.001 -17c-18.667 -0 -35 5.83301 -49 17.5s-21 29.167 -21 52.5v350h-32l-259 -389c-5.33301 -8.66699 -14.333 -17 -27 -25l-31 -7
c-14.667 0 -31 7 -49 21c-15.333 14 -23 30.667 -23 50c0 12 4 25 12 39l254 381l-254 381l-10 21l-2 19c0 18 7.16699 34.167 21.5 48.5s31.833 21.5 52.5 21.5c22 0 40.667 -10.667 56 -32l259 -389h32v350c0 18.667 7 36 21 52c14 12 30.333 18 49 18
c18 0 34.167 -5.83301 48.5 -17.5s21.5 -29.167 21.5 -52.5v-350h32z" />
    <glyph glyph-name="ccedilla" unicode="&#xe7;" horiz-adv-x="910" 
d="M508 420l-88.001 0.00390625c-21.333 0 -38.666 6.66699 -51.999 20c-12 14 -18 30.667 -18 50c0 16.667 6.16699 32.5 18.5 47.5s29.5 22.5 51.5 22.5h70c42.667 0 76.667 14.167 102 42.5s38 60.833 38 97.5c0 39.333 -11.333 71.666 -34 96.999
c-11.333 12.667 -26 23 -44 31s-38.667 12 -62 12h-70c-64.667 0 -120.667 -18.667 -168 -56c-12 -8 -26.333 -13 -43 -15c-14.667 0 -31 7 -49 21c-13.333 14.667 -20 31.667 -20 51c0 22 9.33301 40.333 28 55c72 56 156 84 252 84h70c88 0 158 -29 210 -87
c46.667 -52.667 70 -117 70 -193c0 -22 -1.66699 -42 -5 -60s-9 -36.333 -17 -55c-13.333 -32.667 -35.333 -64.334 -66 -95.001c26.667 -24.667 48.667 -56.334 66 -95.001l16 -56c4 -18 6 -38 6 -60c0 -76.667 -23.333 -140.667 -70 -192c-50 -58 -120 -87 -210 -87h-70
c-94 0 -178 28 -252 84c-19.333 14 -29 32.667 -29 56c0 15.333 7 31.333 21 48s30.333 25 49 25c12.667 0 27 -5.66699 43 -17c48.667 -37.333 104.667 -56 168 -56h70c42 0 75.833 14.167 101.5 42.5s38.5 61.166 38.5 98.499c0 36 -10 66.333 -30 91
s-50.667 40.667 -92 48z" />
    <glyph glyph-name="ccedilla" unicode="&#x437;" horiz-adv-x="910" 
d="M508 420l-88.001 0.00390625c-21.333 0 -38.666 6.66699 -51.999 20c-12 14 -18 30.667 -18 50c0 16.667 6.16699 32.5 18.5 47.5s29.5 22.5 51.5 22.5h70c42.667 0 76.667 14.167 102 42.5s38 60.833 38 97.5c0 39.333 -11.333 71.666 -34 96.999
c-11.333 12.667 -26 23 -44 31s-38.667 12 -62 12h-70c-64.667 0 -120.667 -18.667 -168 -56c-12 -8 -26.333 -13 -43 -15c-14.667 0 -31 7 -49 21c-13.333 14.667 -20 31.667 -20 51c0 22 9.33301 40.333 28 55c72 56 156 84 252 84h70c88 0 158 -29 210 -87
c46.667 -52.667 70 -117 70 -193c0 -22 -1.66699 -42 -5 -60s-9 -36.333 -17 -55c-13.333 -32.667 -35.333 -64.334 -66 -95.001c26.667 -24.667 48.667 -56.334 66 -95.001l16 -56c4 -18 6 -38 6 -60c0 -76.667 -23.333 -140.667 -70 -192c-50 -58 -120 -87 -210 -87h-70
c-94 0 -178 28 -252 84c-19.333 14 -29 32.667 -29 56c0 15.333 7 31.333 21 48s30.333 25 49 25c12.667 0 27 -5.66699 43 -17c48.667 -37.333 104.667 -56 168 -56h70c42 0 75.833 14.167 101.5 42.5s38.5 61.166 38.5 98.499c0 36 -10 66.333 -30 91
s-50.667 40.667 -92 48z" />
    <glyph glyph-name="egrave" unicode="&#xe8;" 
d="M840 70c0 -46.667 -23.333 -70.001 -70 -70.001h-350c-75.333 0 -140.833 27 -196.5 81s-83.5 120.333 -83.5 199v630c0 18.667 7 36 21 52c14 12 30.333 18 49 18c18 0 34.167 -5.83301 48.5 -17.5s21.5 -29.167 21.5 -52.5v-630c0 -39.333 13.333 -72.666 40 -99.999
c14 -12 29 -22 45 -30c20 -6.66699 38.333 -10 55 -10h280v770c0 18.667 7 36 21 52c14 12 30.333 18 49 18c18 0 34.167 -5.83301 48.5 -17.5s21.5 -29.167 21.5 -52.5v-840z" />
    <glyph glyph-name="egrave" unicode="&#x438;" 
d="M840 70c0 -46.667 -23.333 -70.001 -70 -70.001h-350c-75.333 0 -140.833 27 -196.5 81s-83.5 120.333 -83.5 199v630c0 18.667 7 36 21 52c14 12 30.333 18 49 18c18 0 34.167 -5.83301 48.5 -17.5s21.5 -29.167 21.5 -52.5v-630c0 -39.333 13.333 -72.666 40 -99.999
c14 -12 29 -22 45 -30c20 -6.66699 38.333 -10 55 -10h280v770c0 18.667 7 36 21 52c14 12 30.333 18 49 18c18 0 34.167 -5.83301 48.5 -17.5s21.5 -29.167 21.5 -52.5v-840z" />
    <glyph glyph-name="eacute" unicode="&#xe9;" 
d="M630 1260h-280.001c-21.333 0 -38.666 6.33301 -51.999 19c-12 15.333 -18 32.333 -18 51c0 16 5.83301 31.667 17.5 47s29.167 23 52.5 23h280c19.333 0 35.833 -7.16699 49.5 -21.5s20.5 -30.5 20.5 -48.5c0 -16 -5.83301 -31.667 -17.5 -47s-29.167 -23 -52.5 -23z
M839.999 70c0 -46.667 -23.333 -70.001 -70 -70.001h-350c-75.333 0 -140.833 27 -196.5 81s-83.5 120.333 -83.5 199v630c0 18.667 7 36 21 52c14 12 30.333 18 49 18c18 0 34.167 -5.83301 48.5 -17.5s21.5 -29.167 21.5 -52.5v-630c0 -39.333 13.333 -72.666 40 -99.999
c14 -12 29 -22 45 -30c20 -6.66699 38.333 -10 55 -10h280v770c0 18.667 7 36 21 52c14 12 30.333 18 49 18c18 0 34.167 -5.83301 48.5 -17.5s21.5 -29.167 21.5 -52.5v-840z" />
    <glyph glyph-name="eacute" unicode="&#x439;" 
d="M630 1260h-280.001c-21.333 0 -38.666 6.33301 -51.999 19c-12 15.333 -18 32.333 -18 51c0 16 5.83301 31.667 17.5 47s29.167 23 52.5 23h280c19.333 0 35.833 -7.16699 49.5 -21.5s20.5 -30.5 20.5 -48.5c0 -16 -5.83301 -31.667 -17.5 -47s-29.167 -23 -52.5 -23z
M839.999 70c0 -46.667 -23.333 -70.001 -70 -70.001h-350c-75.333 0 -140.833 27 -196.5 81s-83.5 120.333 -83.5 199v630c0 18.667 7 36 21 52c14 12 30.333 18 49 18c18 0 34.167 -5.83301 48.5 -17.5s21.5 -29.167 21.5 -52.5v-630c0 -39.333 13.333 -72.666 40 -99.999
c14 -12 29 -22 45 -30c20 -6.66699 38.333 -10 55 -10h280v770c0 18.667 7 36 21 52c14 12 30.333 18 49 18c18 0 34.167 -5.83301 48.5 -17.5s21.5 -29.167 21.5 -52.5v-840z" />
    <glyph glyph-name="ecircumflex" unicode="&#xea;" 
d="M423 458l-156.998 -164.001v-224c0 -22 -6.66699 -39.667 -20 -53c-12.667 -11.333 -29.334 -17 -50.001 -17c-18.667 0 -35 5.83301 -49 17.5s-21 29.167 -21 52.5v840c0 18.667 7 36 21 52c14 12 30.333 18 49 18c18 0 34.167 -5.83301 48.5 -17.5
s21.5 -29.167 21.5 -52.5v-413l444 466c12 14 27 21 45 21c14.667 0 31 -7 49 -21c14 -14 21 -31.667 21 -53c0 -19.333 -7.66699 -37 -23 -53l-281 -296l288 -446c10.667 -19.333 16 -35.333 16 -48c0 -19.333 -7.66699 -35.666 -23 -48.999c-14 -14 -30.333 -21 -49 -21
s-35.334 9.33301 -50.001 28z" />
    <glyph glyph-name="ecircumflex" unicode="&#x43a;" 
d="M423 458l-156.998 -164.001v-224c0 -22 -6.66699 -39.667 -20 -53c-12.667 -11.333 -29.334 -17 -50.001 -17c-18.667 0 -35 5.83301 -49 17.5s-21 29.167 -21 52.5v840c0 18.667 7 36 21 52c14 12 30.333 18 49 18c18 0 34.167 -5.83301 48.5 -17.5
s21.5 -29.167 21.5 -52.5v-413l444 466c12 14 27 21 45 21c14.667 0 31 -7 49 -21c14 -14 21 -31.667 21 -53c0 -19.333 -7.66699 -37 -23 -53l-281 -296l288 -446c10.667 -19.333 16 -35.333 16 -48c0 -19.333 -7.66699 -35.666 -23 -48.999c-14 -14 -30.333 -21 -49 -21
s-35.334 9.33301 -50.001 28z" />
    <glyph glyph-name="edieresis" unicode="&#xeb;" 
d="M840 70c0 -22 -6.66602 -39.668 -19.999 -53.001c-12.667 -11.333 -29.334 -17 -50.001 -17c-18.667 0 -35 5.83301 -49 17.5s-21 29.167 -21 52.5v770h-161l-262 -792c-5.33301 -15.333 -14 -27.666 -26 -36.999c-3.33301 -2 -16 -5.66699 -38 -11
c-18.667 0 -35 6.66699 -49 20c-15.333 12 -23 27.667 -23 47l5 25l277 840c10 32 32 48 66 48h281c46.667 0 70 -23.333 70 -70v-840z" />
    <glyph glyph-name="edieresis" unicode="&#x43b;" 
d="M840 70c0 -22 -6.66602 -39.668 -19.999 -53.001c-12.667 -11.333 -29.334 -17 -50.001 -17c-18.667 0 -35 5.83301 -49 17.5s-21 29.167 -21 52.5v770h-161l-262 -792c-5.33301 -15.333 -14 -27.666 -26 -36.999c-3.33301 -2 -16 -5.66699 -38 -11
c-18.667 0 -35 6.66699 -49 20c-15.333 12 -23 27.667 -23 47l5 25l277 840c10 32 32 48 66 48h281c46.667 0 70 -23.333 70 -70v-840z" />
    <glyph glyph-name="igrave" unicode="&#xec;" horiz-adv-x="1120" 
d="M980 70v840.001c0 26 -6 46 -18 60s-26.667 21 -44 21c-20.667 0 -42.334 -13.333 -65.001 -40l-293 -411l-293 411c-18.667 26.667 -40.334 40 -65.001 40c-16 0 -31 -7.33301 -45 -22c-11.333 -14.667 -17 -34.334 -17 -59.001v-840c0 -22 6.66699 -39.667 20 -53
c12.667 -11.333 29.334 -17 50.001 -17c16.667 0 32.5 6.16699 47.5 18.5s22.5 29.5 22.5 51.5v622l223 -313c18.667 -24.667 37.667 -37 57 -37c18 0 37 12.333 57 37l223 313v-622c0 -22 6.66699 -39.667 20 -53c12.667 -11.333 29.334 -17 50.001 -17
c16.667 0 32.5 6.16699 47.5 18.5s22.5 29.5 22.5 51.5z" />
    <glyph glyph-name="igrave" unicode="&#x43c;" horiz-adv-x="1120" 
d="M980 70v840.001c0 26 -6 46 -18 60s-26.667 21 -44 21c-20.667 0 -42.334 -13.333 -65.001 -40l-293 -411l-293 411c-18.667 26.667 -40.334 40 -65.001 40c-16 0 -31 -7.33301 -45 -22c-11.333 -14.667 -17 -34.334 -17 -59.001v-840c0 -22 6.66699 -39.667 20 -53
c12.667 -11.333 29.334 -17 50.001 -17c16.667 0 32.5 6.16699 47.5 18.5s22.5 29.5 22.5 51.5v622l223 -313c18.667 -24.667 37.667 -37 57 -37c18 0 37 12.333 57 37l223 313v-622c0 -22 6.66699 -39.667 20 -53c12.667 -11.333 29.334 -17 50.001 -17
c16.667 0 32.5 6.16699 47.5 18.5s22.5 29.5 22.5 51.5z" />
    <glyph glyph-name="iacute" unicode="&#xed;" 
d="M700 560l0.00195312 350c0 18.667 7 36 21 52c14 12 30.333 18 49 18c18 0 34.167 -5.83301 48.5 -17.5s21.5 -29.167 21.5 -52.5v-840c0 -22 -6.66699 -39.667 -20 -53c-12.667 -11.333 -29.334 -17 -50.001 -17c-18.667 -0 -35 5.83301 -49 17.5s-21 29.167 -21 52.5
v350h-420v-350c0 -22 -6.66699 -39.667 -20 -53c-12.667 -11.333 -29.334 -17 -50.001 -17c-18.667 -0 -35 5.83301 -49 17.5s-21 29.167 -21 52.5v840c0 18.667 7 36 21 52c14 12 30.333 18 49 18c18 0 34.167 -5.83301 48.5 -17.5s21.5 -29.167 21.5 -52.5v-350h420z" />
    <glyph glyph-name="iacute" unicode="&#x43d;" 
d="M700 560l0.00195312 350c0 18.667 7 36 21 52c14 12 30.333 18 49 18c18 0 34.167 -5.83301 48.5 -17.5s21.5 -29.167 21.5 -52.5v-840c0 -22 -6.66699 -39.667 -20 -53c-12.667 -11.333 -29.334 -17 -50.001 -17c-18.667 -0 -35 5.83301 -49 17.5s-21 29.167 -21 52.5
v350h-420v-350c0 -22 -6.66699 -39.667 -20 -53c-12.667 -11.333 -29.334 -17 -50.001 -17c-18.667 -0 -35 5.83301 -49 17.5s-21 29.167 -21 52.5v840c0 18.667 7 36 21 52c14 12 30.333 18 49 18c18 0 34.167 -5.83301 48.5 -17.5s21.5 -29.167 21.5 -52.5v-350h420z" />
    <glyph glyph-name="icircumflex" unicode="&#xee;" 
d="M840 308c0 -83.333 -29.833 -155.5 -89.5 -216.5s-132.5 -91.5 -218.5 -91.5h-84c-83.333 0 -155.5 29.667 -216.5 89s-91.5 132.333 -91.5 219v364c0 82 30 153.833 90 215.5s132.667 92.5 218 92.5h84c83.333 0 155.5 -29.833 216.5 -89.5s91.5 -132.5 91.5 -218.5
v-364zM700 308l-0.000976562 364.001c0 46 -16.167 85.5 -48.5 118.5s-72.166 49.5 -119.499 49.5h-84c-46 0 -85.5 -16.333 -118.5 -49s-49.5 -72.334 -49.5 -119.001v-364c0 -46 16.333 -85.5 49 -118.5s72.334 -49.5 119.001 -49.5h84c45.333 0 84.666 16 117.999 48
s50 72 50 120z" />
    <glyph glyph-name="icircumflex" unicode="&#x43e;" 
d="M840 308c0 -83.333 -29.833 -155.5 -89.5 -216.5s-132.5 -91.5 -218.5 -91.5h-84c-83.333 0 -155.5 29.667 -216.5 89s-91.5 132.333 -91.5 219v364c0 82 30 153.833 90 215.5s132.667 92.5 218 92.5h84c83.333 0 155.5 -29.833 216.5 -89.5s91.5 -132.5 91.5 -218.5
v-364zM700 308l-0.000976562 364.001c0 46 -16.167 85.5 -48.5 118.5s-72.166 49.5 -119.499 49.5h-84c-46 0 -85.5 -16.333 -118.5 -49s-49.5 -72.334 -49.5 -119.001v-364c0 -46 16.333 -85.5 49 -118.5s72.334 -49.5 119.001 -49.5h84c45.333 0 84.666 16 117.999 48
s50 72 50 120z" />
    <glyph glyph-name="idieresis" unicode="&#xef;" 
d="M840 70c0 -22 -6.66504 -39.667 -19.998 -53c-12.667 -11.333 -29.334 -17 -50.001 -17c-18.667 -0 -35 5.83301 -49 17.5s-21 29.167 -21 52.5v630c0 39.333 -13.167 72.5 -39.5 99.5s-59.833 40.5 -100.5 40.5h-280v-770c0 -22 -6.66699 -39.667 -20 -53
c-12.667 -11.333 -29.334 -17 -50.001 -17c-18.667 -0 -35 5.83301 -49 17.5s-21 29.167 -21 52.5v840c0 46.667 23.333 70 70 70h350c74.667 0 140 -26.833 196 -80.5s84 -120.167 84 -199.5v-630z" />
    <glyph glyph-name="idieresis" unicode="&#x43f;" 
d="M840 70c0 -22 -6.66504 -39.667 -19.998 -53c-12.667 -11.333 -29.334 -17 -50.001 -17c-18.667 -0 -35 5.83301 -49 17.5s-21 29.167 -21 52.5v630c0 39.333 -13.167 72.5 -39.5 99.5s-59.833 40.5 -100.5 40.5h-280v-770c0 -22 -6.66699 -39.667 -20 -53
c-12.667 -11.333 -29.334 -17 -50.001 -17c-18.667 -0 -35 5.83301 -49 17.5s-21 29.167 -21 52.5v840c0 46.667 23.333 70 70 70h350c74.667 0 140 -26.833 196 -80.5s84 -120.167 84 -199.5v-630z" />
    <glyph glyph-name="eth" unicode="&#xf0;" 
d="M280 140h280c38.667 0 71.667 13 99 39s41 59.667 41 101v420c0 39.333 -13.167 72.5 -39.5 99.5s-59.833 40.5 -100.5 40.5h-280v-700zM280 0v-350c0 -19.333 -7.16699 -35.833 -21.5 -49.5s-30.5 -20.5 -48.5 -20.5c-16 0 -31.667 5.83301 -47 17.5
s-23 29.167 -23 52.5v1260c0 46.667 23.333 70 70 70h350c76 0 141.667 -27.167 197 -81.5s83 -120.5 83 -198.5v-420c0 -76.667 -27.333 -142.5 -82 -197.5s-120.667 -82.5 -198 -82.5h-280z" />
    <glyph glyph-name="eth" unicode="&#x440;" 
d="M280 140h280c38.667 0 71.667 13 99 39s41 59.667 41 101v420c0 39.333 -13.167 72.5 -39.5 99.5s-59.833 40.5 -100.5 40.5h-280v-700zM280 0v-350c0 -19.333 -7.16699 -35.833 -21.5 -49.5s-30.5 -20.5 -48.5 -20.5c-16 0 -31.667 5.83301 -47 17.5
s-23 29.167 -23 52.5v1260c0 46.667 23.333 70 70 70h350c76 0 141.667 -27.167 197 -81.5s83 -120.5 83 -198.5v-420c0 -76.667 -27.333 -142.5 -82 -197.5s-120.667 -82.5 -198 -82.5h-280z" />
    <glyph glyph-name="ntilde" unicode="&#xf1;" horiz-adv-x="840" 
d="M630 0l-210.001 -0.000976562c-75.333 0 -140.833 27 -196.5 81s-83.5 120.333 -83.5 199v420c0 77.333 27.333 143.333 82 198s120.667 82 198 82h210c19.333 0 35.833 -7.16699 49.5 -21.5s20.5 -30.5 20.5 -48.5c0 -16 -5.83301 -31.667 -17.5 -47
s-29.167 -23 -52.5 -23h-210c-39.333 0 -72.666 -13.333 -99.999 -40c-13.333 -13.333 -23.333 -28.5 -30 -45.5s-10 -35.167 -10 -54.5v-420c0 -39.333 13.333 -72.666 40 -99.999c14 -12 29 -22 45 -30c20 -6.66699 38.333 -10 55 -10h210
c19.333 0 35.833 -7.16699 49.5 -21.5s20.5 -30.5 20.5 -48.5c0 -16 -5.83301 -31.667 -17.5 -47s-29.167 -23 -52.5 -23z" />
    <glyph glyph-name="ntilde" unicode="&#x441;" horiz-adv-x="840" 
d="M630 0l-210.001 -0.000976562c-75.333 0 -140.833 27 -196.5 81s-83.5 120.333 -83.5 199v420c0 77.333 27.333 143.333 82 198s120.667 82 198 82h210c19.333 0 35.833 -7.16699 49.5 -21.5s20.5 -30.5 20.5 -48.5c0 -16 -5.83301 -31.667 -17.5 -47
s-29.167 -23 -52.5 -23h-210c-39.333 0 -72.666 -13.333 -99.999 -40c-13.333 -13.333 -23.333 -28.5 -30 -45.5s-10 -35.167 -10 -54.5v-420c0 -39.333 13.333 -72.666 40 -99.999c14 -12 29 -22 45 -30c20 -6.66699 38.333 -10 55 -10h210
c19.333 0 35.833 -7.16699 49.5 -21.5s20.5 -30.5 20.5 -48.5c0 -16 -5.83301 -31.667 -17.5 -47s-29.167 -23 -52.5 -23z" />
    <glyph glyph-name="ograve" unicode="&#xf2;" horiz-adv-x="1260" 
d="M560 840h-279.997v-770c0 -22 -6.66699 -39.667 -20 -53c-12.667 -11.333 -29.334 -17 -50.001 -17c-18.667 -0 -35 5.83301 -49 17.5s-21 29.167 -21 52.5v840c0 46.667 23.333 70 70 70h630c76 0 141.667 -27.167 197 -81.5s83 -120.5 83 -198.5v-630
c0 -22 -6.66699 -39.667 -20 -53c-12.667 -11.333 -29.334 -17 -50.001 -17c-18.667 -0 -35 5.83301 -49 17.5s-21 29.167 -21 52.5v630c0 39.333 -13.167 72.5 -39.5 99.5s-59.833 40.5 -100.5 40.5h-140v-770c0 -22 -6.66699 -39.667 -20 -53
c-12.667 -11.333 -29.334 -17 -50.001 -17c-18.667 -0 -35 5.83301 -49 17.5s-21 29.167 -21 52.5v770z" />
    <glyph glyph-name="ograve" unicode="&#x442;" horiz-adv-x="1260" 
d="M560 840h-279.997v-770c0 -22 -6.66699 -39.667 -20 -53c-12.667 -11.333 -29.334 -17 -50.001 -17c-18.667 -0 -35 5.83301 -49 17.5s-21 29.167 -21 52.5v840c0 46.667 23.333 70 70 70h630c76 0 141.667 -27.167 197 -81.5s83 -120.5 83 -198.5v-630
c0 -22 -6.66699 -39.667 -20 -53c-12.667 -11.333 -29.334 -17 -50.001 -17c-18.667 -0 -35 5.83301 -49 17.5s-21 29.167 -21 52.5v630c0 39.333 -13.167 72.5 -39.5 99.5s-59.833 40.5 -100.5 40.5h-140v-770c0 -22 -6.66699 -39.667 -20 -53
c-12.667 -11.333 -29.334 -17 -50.001 -17c-18.667 -0 -35 5.83301 -49 17.5s-21 29.167 -21 52.5v770z" />
    <glyph glyph-name="oacute" unicode="&#xf3;" 
d="M700 0l-280.001 -0.000976562c-75.333 0 -140.833 27 -196.5 81s-83.5 120.333 -83.5 199v630c0 18.667 7 36 21 52c14 12 30.333 18 49 18c18 0 34.167 -5.83301 48.5 -17.5s21.5 -29.167 21.5 -52.5v-630c0 -39.333 13.333 -72.666 40 -99.999c14 -12 29 -22 45 -30
c20 -6.66699 38.333 -10 55 -10h280v770c0 18.667 7 36 21 52c14 12 30.333 18 49 18c18 0 34.167 -5.83301 48.5 -17.5s21.5 -29.167 21.5 -52.5v-1050c0 -76 -27.167 -141.667 -81.5 -197s-120.5 -83 -198.5 -83h-280c-17.333 0 -34.666 7 -51.999 21
c-12 14 -18 30.333 -18 49s5.83301 35 17.5 49s29.167 21 52.5 21h280c39.333 0 72.5 13.167 99.5 39.5s40.5 59.833 40.5 100.5v140z" />
    <glyph glyph-name="oacute" unicode="&#x443;" 
d="M700 0l-280.001 -0.000976562c-75.333 0 -140.833 27 -196.5 81s-83.5 120.333 -83.5 199v630c0 18.667 7 36 21 52c14 12 30.333 18 49 18c18 0 34.167 -5.83301 48.5 -17.5s21.5 -29.167 21.5 -52.5v-630c0 -39.333 13.333 -72.666 40 -99.999c14 -12 29 -22 45 -30
c20 -6.66699 38.333 -10 55 -10h280v770c0 18.667 7 36 21 52c14 12 30.333 18 49 18c18 0 34.167 -5.83301 48.5 -17.5s21.5 -29.167 21.5 -52.5v-1050c0 -76 -27.167 -141.667 -81.5 -197s-120.5 -83 -198.5 -83h-280c-17.333 0 -34.666 7 -51.999 21
c-12 14 -18 30.333 -18 49s5.83301 35 17.5 49s29.167 21 52.5 21h280c39.333 0 72.5 13.167 99.5 39.5s40.5 59.833 40.5 100.5v140z" />
    <glyph glyph-name="ocircumflex" unicode="&#xf4;" horiz-adv-x="1260" 
d="M700 840v-700c75.333 0 140.833 27 196.5 81s83.5 120.333 83.5 199v140c0 74.667 -27 140 -81 196s-120.333 84 -199 84zM560 140v700c-76 0 -141.667 -27.167 -197 -81.5s-83 -120.5 -83 -198.5v-140c0 -76.667 27.333 -142.5 82 -197.5s120.667 -82.5 198 -82.5z
M700 980c117.333 0 216.669 -40.668 298.002 -122.001s122 -180.666 122 -297.999v-140c0 -113.333 -40.833 -211.666 -122.5 -294.999s-180.834 -125 -297.501 -125v-350c0 -19.333 -7.16699 -35.833 -21.5 -49.5s-30.5 -20.5 -48.5 -20.5c-16 0 -31.667 5.83301 -47 17.5
s-23 29.167 -23 52.5v350c-116.667 0 -215.834 40.667 -297.501 122s-122.5 180.666 -122.5 297.999v140c0 114 41 212.5 123 295.5s181 124.5 297 124.5v210c0 18.667 7 36 21 52c14 12 30.333 18 49 18c18 0 34.167 -5.83301 48.5 -17.5s21.5 -29.167 21.5 -52.5v-210z
" />
    <glyph glyph-name="ocircumflex" unicode="&#x444;" horiz-adv-x="1260" 
d="M700 840v-700c75.333 0 140.833 27 196.5 81s83.5 120.333 83.5 199v140c0 74.667 -27 140 -81 196s-120.333 84 -199 84zM560 140v700c-76 0 -141.667 -27.167 -197 -81.5s-83 -120.5 -83 -198.5v-140c0 -76.667 27.333 -142.5 82 -197.5s120.667 -82.5 198 -82.5z
M700 980c117.333 0 216.669 -40.668 298.002 -122.001s122 -180.666 122 -297.999v-140c0 -113.333 -40.833 -211.666 -122.5 -294.999s-180.834 -125 -297.501 -125v-350c0 -19.333 -7.16699 -35.833 -21.5 -49.5s-30.5 -20.5 -48.5 -20.5c-16 0 -31.667 5.83301 -47 17.5
s-23 29.167 -23 52.5v350c-116.667 0 -215.834 40.667 -297.501 122s-122.5 180.666 -122.5 297.999v140c0 114 41 212.5 123 295.5s181 124.5 297 124.5v210c0 18.667 7 36 21 52c14 12 30.333 18 49 18c18 0 34.167 -5.83301 48.5 -17.5s21.5 -29.167 21.5 -52.5v-210z
" />
    <glyph glyph-name="otilde" unicode="&#xf5;" 
d="M575 490l254 -380.999l10 -21l2 -19c0 -18 -7.33301 -34.333 -22 -49l-11 -9l-15 -7l-26 -4c-19.333 0 -38 10.333 -56 31l-221 332l-221 -332c-14 -21.333 -33.333 -32 -58 -32c-14.667 0 -31 7 -49 21c-15.333 14 -23 30.667 -23 50c0 12 4 25 12 39l254 381l-254 381
l-10 21l-2 19c0 18 7 34 21 48s31.667 21 53 21c19.333 0 38 -10.333 56 -31l221 -332l221 332c14 21.333 33.333 32 58 32c14 0 30.667 -7 50 -21c14.667 -14.667 22 -31.334 22 -50.001c0 -12 -4 -25 -12 -39z" />
    <glyph glyph-name="otilde" unicode="&#x445;" 
d="M575 490l254 -380.999l10 -21l2 -19c0 -18 -7.33301 -34.333 -22 -49l-11 -9l-15 -7l-26 -4c-19.333 0 -38 10.333 -56 31l-221 332l-221 -332c-14 -21.333 -33.333 -32 -58 -32c-14.667 0 -31 7 -49 21c-15.333 14 -23 30.667 -23 50c0 12 4 25 12 39l254 381l-254 381
l-10 21l-2 19c0 18 7 34 21 48s31.667 21 53 21c19.333 0 38 -10.333 56 -31l221 -332l221 332c14 21.333 33.333 32 58 32c14 0 30.667 -7 50 -21c14.667 -14.667 22 -31.334 22 -50.001c0 -12 -4 -25 -12 -39z" />
    <glyph glyph-name="odieresis" unicode="&#xf6;" horiz-adv-x="1120" 
d="M700 140v769.999c0 18.667 7 36 21 52c14 12 30.333 18 49 18c18 0 34.167 -5.83301 48.5 -17.5s21.5 -29.167 21.5 -52.5v-770h70c46.667 0 70 -23.333 70 -70v-126c0 -19.333 -7.16699 -35.833 -21.5 -49.5s-30.5 -20.5 -48.5 -20.5c-16 0 -31.667 5.83301 -47 17.5
s-23 29.167 -23 52.5v56h-420c-76 0 -141.667 27.167 -197 81.5s-83 120.5 -83 198.5v630c0 18.667 7 36 21 52c14 12 30.333 18 49 18c18 0 34.167 -5.83301 48.5 -17.5s21.5 -29.167 21.5 -52.5v-630c0 -39.333 13.333 -72.666 40 -99.999c14 -12 29 -22 45 -30
c20 -6.66699 38.333 -10 55 -10h280z" />
    <glyph glyph-name="odieresis" unicode="&#x446;" horiz-adv-x="1120" 
d="M700 140v769.999c0 18.667 7 36 21 52c14 12 30.333 18 49 18c18 0 34.167 -5.83301 48.5 -17.5s21.5 -29.167 21.5 -52.5v-770h70c46.667 0 70 -23.333 70 -70v-126c0 -19.333 -7.16699 -35.833 -21.5 -49.5s-30.5 -20.5 -48.5 -20.5c-16 0 -31.667 5.83301 -47 17.5
s-23 29.167 -23 52.5v56h-420c-76 0 -141.667 27.167 -197 81.5s-83 120.5 -83 198.5v630c0 18.667 7 36 21 52c14 12 30.333 18 49 18c18 0 34.167 -5.83301 48.5 -17.5s21.5 -29.167 21.5 -52.5v-630c0 -39.333 13.333 -72.666 40 -99.999c14 -12 29 -22 45 -30
c20 -6.66699 38.333 -10 55 -10h280z" />
    <glyph glyph-name="divide" unicode="&#xf7;" 
d="M700 560l0.000976562 349.999c0 18.667 7 36 21 52c14 12 30.333 18 49 18c18 0 34.167 -5.83301 48.5 -17.5s21.5 -29.167 21.5 -52.5v-840c0 -22 -6.66699 -39.667 -20 -53c-12.667 -11.333 -29.334 -17 -50.001 -17c-18.667 0 -35 5.83301 -49 17.5
s-21 29.167 -21 52.5v350h-280c-75.333 0 -140.833 27 -196.5 81s-83.5 120.333 -83.5 199v210c0 18.667 7 36 21 52c14 12 30.333 18 49 18c18 0 34.167 -5.83301 48.5 -17.5s21.5 -29.167 21.5 -52.5v-210c0 -39.333 13.333 -72.666 40 -99.999c14 -12 29 -22 45 -30
c20 -6.66699 38.333 -10 55 -10h280z" />
    <glyph glyph-name="divide" unicode="&#x447;" 
d="M700 560l0.000976562 349.999c0 18.667 7 36 21 52c14 12 30.333 18 49 18c18 0 34.167 -5.83301 48.5 -17.5s21.5 -29.167 21.5 -52.5v-840c0 -22 -6.66699 -39.667 -20 -53c-12.667 -11.333 -29.334 -17 -50.001 -17c-18.667 0 -35 5.83301 -49 17.5
s-21 29.167 -21 52.5v350h-280c-75.333 0 -140.833 27 -196.5 81s-83.5 120.333 -83.5 199v210c0 18.667 7 36 21 52c14 12 30.333 18 49 18c18 0 34.167 -5.83301 48.5 -17.5s21.5 -29.167 21.5 -52.5v-210c0 -39.333 13.333 -72.666 40 -99.999c14 -12 29 -22 45 -30
c20 -6.66699 38.333 -10 55 -10h280z" />
    <glyph glyph-name="oslash" unicode="&#xf8;" horiz-adv-x="1260" 
d="M700 140l280.001 -0.000976562v770c0 18.667 7 36 21 52c14 12 30.333 18 49 18c17.333 0 33.666 -5.66699 48.999 -17c14 -12 21 -29.667 21 -53v-840c0 -46.667 -23.333 -70 -70 -70h-630c-75.333 0 -140.833 27 -196.5 81s-83.5 120.333 -83.5 199v630
c0 18.667 7 36 21 52c14 12 30.333 18 49 18c18 0 34.167 -5.83301 48.5 -17.5s21.5 -29.167 21.5 -52.5v-630c0 -39.333 13.333 -72.666 40 -99.999c14 -12 29 -22 45 -30c20 -6.66699 38.333 -10 55 -10h140v770c0 18.667 7 36 21 52c14 12 30.333 18 49 18
c18 0 34.167 -5.83301 48.5 -17.5s21.5 -29.167 21.5 -52.5v-770z" />
    <glyph glyph-name="oslash" unicode="&#x448;" horiz-adv-x="1260" 
d="M700 140l280.001 -0.000976562v770c0 18.667 7 36 21 52c14 12 30.333 18 49 18c17.333 0 33.666 -5.66699 48.999 -17c14 -12 21 -29.667 21 -53v-840c0 -46.667 -23.333 -70 -70 -70h-630c-75.333 0 -140.833 27 -196.5 81s-83.5 120.333 -83.5 199v630
c0 18.667 7 36 21 52c14 12 30.333 18 49 18c18 0 34.167 -5.83301 48.5 -17.5s21.5 -29.167 21.5 -52.5v-630c0 -39.333 13.333 -72.666 40 -99.999c14 -12 29 -22 45 -30c20 -6.66699 38.333 -10 55 -10h140v770c0 18.667 7 36 21 52c14 12 30.333 18 49 18
c18 0 34.167 -5.83301 48.5 -17.5s21.5 -29.167 21.5 -52.5v-770z" />
    <glyph glyph-name="ugrave" unicode="&#xf9;" horiz-adv-x="1400" 
d="M700 140l280.001 -0.000976562v770c0 18.667 7 36 21 52c14 12 30.333 18 49 18c17.333 0 33.666 -5.66699 48.999 -17c14 -12 21 -29.667 21 -53v-770h70c46.667 0 70 -23.333 70 -70v-140c0 -19.333 -7.16699 -35.833 -21.5 -49.5s-30.5 -20.5 -48.5 -20.5
c-16 0 -31.667 5.83301 -47 17.5s-23 29.167 -23 52.5v70h-112h-588c-76 0 -141.667 27.167 -197 81.5s-83 120.5 -83 198.5v630c0 18.667 7 36 21 52c14 12 30.333 18 49 18c18 0 34.167 -5.83301 48.5 -17.5s21.5 -29.167 21.5 -52.5v-630
c0 -39.333 13.333 -72.666 40 -99.999c14 -12 29 -22 45 -30c20 -6.66699 38.333 -10 55 -10h140v770c0 18.667 7 36 21 52c14 12 30.333 18 49 18c18 0 34.167 -5.83301 48.5 -17.5s21.5 -29.167 21.5 -52.5v-770z" />
    <glyph glyph-name="ugrave" unicode="&#x449;" horiz-adv-x="1400" 
d="M700 140l280.001 -0.000976562v770c0 18.667 7 36 21 52c14 12 30.333 18 49 18c17.333 0 33.666 -5.66699 48.999 -17c14 -12 21 -29.667 21 -53v-770h70c46.667 0 70 -23.333 70 -70v-140c0 -19.333 -7.16699 -35.833 -21.5 -49.5s-30.5 -20.5 -48.5 -20.5
c-16 0 -31.667 5.83301 -47 17.5s-23 29.167 -23 52.5v70h-112h-588c-76 0 -141.667 27.167 -197 81.5s-83 120.5 -83 198.5v630c0 18.667 7 36 21 52c14 12 30.333 18 49 18c18 0 34.167 -5.83301 48.5 -17.5s21.5 -29.167 21.5 -52.5v-630
c0 -39.333 13.333 -72.666 40 -99.999c14 -12 29 -22 45 -30c20 -6.66699 38.333 -10 55 -10h140v770c0 18.667 7 36 21 52c14 12 30.333 18 49 18c18 0 34.167 -5.83301 48.5 -17.5s21.5 -29.167 21.5 -52.5v-770z" />
    <glyph glyph-name="uacute" unicode="&#xfa;" horiz-adv-x="1050" 
d="M350 420v-279.999h280c42.667 0 76.667 14.167 102 42.5s38 60.833 38 97.5c0 39.333 -11.333 71.666 -34 96.999c-11.333 12.667 -26 23 -44 31s-38.667 12 -62 12h-280zM350 560.001h279.999c88 0 158 -29 210 -87c46.667 -52.667 70 -117 70 -193
c0 -74 -23 -138 -69 -192c-52.667 -58.667 -123 -88 -211 -88h-350c-46.667 0 -70 23.333 -70 70v770h-70c-21.333 0 -38.666 6.66699 -51.999 20c-12 14 -18 30.667 -18 50c0 16.667 6.16699 32.5 18.5 47.5s29.5 22.5 51.5 22.5h140c46.667 0 70 -23.333 70 -70v-350z" />
    <glyph glyph-name="uacute" unicode="&#x44a;" horiz-adv-x="1050" 
d="M350 420v-279.999h280c42.667 0 76.667 14.167 102 42.5s38 60.833 38 97.5c0 39.333 -11.333 71.666 -34 96.999c-11.333 12.667 -26 23 -44 31s-38.667 12 -62 12h-280zM350 560.001h279.999c88 0 158 -29 210 -87c46.667 -52.667 70 -117 70 -193
c0 -74 -23 -138 -69 -192c-52.667 -58.667 -123 -88 -211 -88h-350c-46.667 0 -70 23.333 -70 70v770h-70c-21.333 0 -38.666 6.66699 -51.999 20c-12 14 -18 30.667 -18 50c0 16.667 6.16699 32.5 18.5 47.5s29.5 22.5 51.5 22.5h140c46.667 0 70 -23.333 70 -70v-350z" />
    <glyph glyph-name="ucircumflex" unicode="&#xfb;" horiz-adv-x="1120" 
d="M980 70c0 -22 -6.66602 -39.667 -19.999 -53c-12.667 -11.333 -29.334 -17 -50.001 -17c-18.667 -0 -35 5.83301 -49 17.5s-21 29.167 -21 52.5v840c0 18.667 7 36 21 52c14 12 30.333 18 49 18c18 0 34.167 -5.83301 48.5 -17.5s21.5 -29.167 21.5 -52.5v-840z
M280.001 420v-279.999h140c42.667 0 76.667 14.167 102 42.5s38 60.833 38 97.5c0 39.333 -11.333 71.666 -34 96.999c-11.333 12.667 -26 23 -44 31s-38.667 12 -62 12h-140zM280.001 560.001h140c88 0 158 -29 210 -87c46.667 -52.667 70 -117 70 -193
c0 -74 -23 -138 -69 -192c-52.667 -58.667 -123 -88 -211 -88h-210c-46.667 0 -70 23.333 -70 70v840c0 18.667 7 36 21 52c14 12 30.333 18 49 18c18 0 34.167 -5.83301 48.5 -17.5s21.5 -29.167 21.5 -52.5v-350z" />
    <glyph glyph-name="ucircumflex" unicode="&#x44b;" horiz-adv-x="1120" 
d="M980 70c0 -22 -6.66602 -39.667 -19.999 -53c-12.667 -11.333 -29.334 -17 -50.001 -17c-18.667 -0 -35 5.83301 -49 17.5s-21 29.167 -21 52.5v840c0 18.667 7 36 21 52c14 12 30.333 18 49 18c18 0 34.167 -5.83301 48.5 -17.5s21.5 -29.167 21.5 -52.5v-840z
M280.001 420v-279.999h140c42.667 0 76.667 14.167 102 42.5s38 60.833 38 97.5c0 39.333 -11.333 71.666 -34 96.999c-11.333 12.667 -26 23 -44 31s-38.667 12 -62 12h-140zM280.001 560.001h140c88 0 158 -29 210 -87c46.667 -52.667 70 -117 70 -193
c0 -74 -23 -138 -69 -192c-52.667 -58.667 -123 -88 -211 -88h-210c-46.667 0 -70 23.333 -70 70v840c0 18.667 7 36 21 52c14 12 30.333 18 49 18c18 0 34.167 -5.83301 48.5 -17.5s21.5 -29.167 21.5 -52.5v-350z" />
    <glyph glyph-name="udieresis" unicode="&#xfc;" 
d="M280 420v-279.999h280c42.667 0 76.667 14.167 102 42.5s38 60.833 38 97.5c0 39.333 -11.333 71.666 -34 96.999c-11.333 12.667 -26 23 -44 31s-38.667 12 -62 12h-280zM280 560.001h280c88 0 158 -29 210 -87c46.667 -52.667 70 -117 70 -193c0 -74 -23 -138 -69 -192
c-52.667 -58.667 -123 -88 -211 -88h-350c-46.667 0 -70 23.333 -70 70v840c0 18.667 7 36 21 52c14 12 30.333 18 49 18c18 0 34.167 -5.83301 48.5 -17.5s21.5 -29.167 21.5 -52.5v-350z" />
    <glyph glyph-name="udieresis" unicode="&#x44c;" 
d="M280 420v-279.999h280c42.667 0 76.667 14.167 102 42.5s38 60.833 38 97.5c0 39.333 -11.333 71.666 -34 96.999c-11.333 12.667 -26 23 -44 31s-38.667 12 -62 12h-280zM280 560.001h280c88 0 158 -29 210 -87c46.667 -52.667 70 -117 70 -193c0 -74 -23 -138 -69 -192
c-52.667 -58.667 -123 -88 -211 -88h-350c-46.667 0 -70 23.333 -70 70v840c0 18.667 7 36 21 52c14 12 30.333 18 49 18c18 0 34.167 -5.83301 48.5 -17.5s21.5 -29.167 21.5 -52.5v-350z" />
    <glyph glyph-name="yacute" unicode="&#xfd;" 
d="M700 420h-210.003c-21.333 0 -38.666 6.66699 -51.999 20c-12 14 -18 30.667 -18 50c0 16.667 6.16699 32.5 18.5 47.5s29.5 22.5 51.5 22.5h210v140c0 39.333 -13.167 72.5 -39.5 99.5s-59.833 40.5 -100.5 40.5h-350c-21.333 0 -38.666 6.66699 -51.999 20
c-12 14 -18 30.667 -18 50c0 16.667 6.16699 32.5 18.5 47.5s29.5 22.5 51.5 22.5h350c76 0 141.667 -27.167 197 -81.5s83 -120.5 83 -198.5v-420c0 -76.667 -27.333 -142.5 -82 -197.5s-120.667 -82.5 -198 -82.5h-350c-21.333 0 -38.666 6.66699 -51.999 20
c-12 14 -18 30.667 -18 50c0 16.667 6.16699 32.5 18.5 47.5s29.5 22.5 51.5 22.5h350c38.667 0 71.667 13 99 39s41 59.667 41 101v140z" />
    <glyph glyph-name="yacute" unicode="&#x44d;" 
d="M700 420h-210.003c-21.333 0 -38.666 6.66699 -51.999 20c-12 14 -18 30.667 -18 50c0 16.667 6.16699 32.5 18.5 47.5s29.5 22.5 51.5 22.5h210v140c0 39.333 -13.167 72.5 -39.5 99.5s-59.833 40.5 -100.5 40.5h-350c-21.333 0 -38.666 6.66699 -51.999 20
c-12 14 -18 30.667 -18 50c0 16.667 6.16699 32.5 18.5 47.5s29.5 22.5 51.5 22.5h350c76 0 141.667 -27.167 197 -81.5s83 -120.5 83 -198.5v-420c0 -76.667 -27.333 -142.5 -82 -197.5s-120.667 -82.5 -198 -82.5h-350c-21.333 0 -38.666 6.66699 -51.999 20
c-12 14 -18 30.667 -18 50c0 16.667 6.16699 32.5 18.5 47.5s29.5 22.5 51.5 22.5h350c38.667 0 71.667 13 99 39s41 59.667 41 101v140z" />
    <glyph glyph-name="thorn" unicode="&#xfe;" horiz-adv-x="1120" 
d="M840 238v503.999c0 26 -9.66699 48.667 -29 68c-18 20 -41 30 -69 30h-84c-25.333 0 -48 -9.66699 -68 -29c-20 -18 -30 -41 -30 -69v-504c0 -27.333 9.33301 -50.666 28 -69.999c10 -8.66699 21 -15.667 33 -21c14 -4.66699 26.333 -7 37 -7h84
c28 0 51.333 9.33301 70 28s28 42 28 70zM280 559.999h140.001v182c0 66 23.167 122.167 69.5 168.5s102.5 69.5 168.5 69.5h84c64.667 0 120.5 -22.833 167.5 -68.5s70.5 -102.167 70.5 -169.5v-504c0 -66 -23.167 -122.167 -69.5 -168.5s-102.5 -69.5 -168.5 -69.5h-84
c-64.667 0 -120.5 23.167 -167.5 69.5s-70.5 102.5 -70.5 168.5v182h-140v-350c0 -22 -6.66699 -39.667 -20 -53c-12.667 -11.333 -29.334 -17 -50.001 -17c-18.667 0 -35 5.83301 -49 17.5s-21 29.167 -21 52.5v840c0 18.667 7 36 21 52c14 12 30.333 18 49 18
c18 0 34.167 -5.83301 48.5 -17.5s21.5 -29.167 21.5 -52.5v-350z" />
    <glyph glyph-name="thorn" unicode="&#x44e;" horiz-adv-x="1120" 
d="M840 238v503.999c0 26 -9.66699 48.667 -29 68c-18 20 -41 30 -69 30h-84c-25.333 0 -48 -9.66699 -68 -29c-20 -18 -30 -41 -30 -69v-504c0 -27.333 9.33301 -50.666 28 -69.999c10 -8.66699 21 -15.667 33 -21c14 -4.66699 26.333 -7 37 -7h84
c28 0 51.333 9.33301 70 28s28 42 28 70zM280 559.999h140.001v182c0 66 23.167 122.167 69.5 168.5s102.5 69.5 168.5 69.5h84c64.667 0 120.5 -22.833 167.5 -68.5s70.5 -102.167 70.5 -169.5v-504c0 -66 -23.167 -122.167 -69.5 -168.5s-102.5 -69.5 -168.5 -69.5h-84
c-64.667 0 -120.5 23.167 -167.5 69.5s-70.5 102.5 -70.5 168.5v182h-140v-350c0 -22 -6.66699 -39.667 -20 -53c-12.667 -11.333 -29.334 -17 -50.001 -17c-18.667 0 -35 5.83301 -49 17.5s-21 29.167 -21 52.5v840c0 18.667 7 36 21 52c14 12 30.333 18 49 18
c18 0 34.167 -5.83301 48.5 -17.5s21.5 -29.167 21.5 -52.5v-350z" />
    <glyph glyph-name="ydieresis" unicode="&#xff;" 
d="M700 560v280h-280c-39.333 0 -74 -14 -104 -42c-24 -27.333 -36 -60 -36 -98c0 -35.333 12.167 -67.5 36.5 -96.5s58.833 -43.5 103.5 -43.5h280zM528 420l-258.999 -389.001c-5.33301 -8.66699 -14.333 -17 -27 -25l-31 -7c-14.667 0 -31 7 -49 21
c-15.333 14 -23 30.667 -23 50c0 12 4 25 12 39l210 315c-68.667 10 -122.667 42.333 -162 97s-59 114.334 -59 179.001c0 75.333 23.333 139.333 70 192c52.667 58.667 122.667 88 210 88h350c46.667 0 70 -23.333 70 -70v-840c0 -22 -6.66699 -39.667 -20 -53
c-12.667 -11.333 -29.334 -17 -50.001 -17c-18.667 -0 -35 5.83301 -49 17.5s-21 29.167 -21 52.5v350h-172z" />
    <glyph glyph-name="ydieresis" unicode="&#x44f;" 
d="M700 560v280h-280c-39.333 0 -74 -14 -104 -42c-24 -27.333 -36 -60 -36 -98c0 -35.333 12.167 -67.5 36.5 -96.5s58.833 -43.5 103.5 -43.5h280zM528 420l-258.999 -389.001c-5.33301 -8.66699 -14.333 -17 -27 -25l-31 -7c-14.667 0 -31 7 -49 21
c-15.333 14 -23 30.667 -23 50c0 12 4 25 12 39l210 315c-68.667 10 -122.667 42.333 -162 97s-59 114.334 -59 179.001c0 75.333 23.333 139.333 70 192c52.667 58.667 122.667 88 210 88h350c46.667 0 70 -23.333 70 -70v-840c0 -22 -6.66699 -39.667 -20 -53
c-12.667 -11.333 -29.334 -17 -50.001 -17c-18.667 -0 -35 5.83301 -49 17.5s-21 29.167 -21 52.5v350h-172z" />
    <glyph glyph-name="c274" unicode="&#x120;" horiz-adv-x="420" 
d="M279 53l-70 -282.999c-8 -35.333 -30.667 -53 -68 -53c-20.667 0 -37.667 6.66699 -51 20c-14 11.333 -21 27.666 -21 48.999l2 18l70 283c8 35.333 30.667 53 68 53c20 0 36.667 -6.66699 50 -20c14.667 -12.667 22 -29 22 -49z" />
    <glyph glyph-name="c275" unicode="&#x121;" horiz-adv-x="700" 
d="M557 53l-70 -278c-2 -13.333 -9.5 -25.333 -22.5 -36s-27.5 -16 -43.5 -16s-32.667 6 -50 18c-14 12 -21 28.333 -21 49l3 18l70 279c2 15.333 9.5 27.833 22.5 37.5s27.5 14.5 43.5 14.5c18 0 34.333 -6.33301 49 -19s22 -29 22 -49zM277 53l-70 -278
c-2 -13.333 -9.5 -25.333 -22.5 -36s-27.5 -16 -43.5 -16s-32.667 6 -50 18c-14 12 -21 28.333 -21 49l3 18l70 279c2 15.333 9.5 27.833 22.5 37.5s27.5 14.5 43.5 14.5c18 0 34.333 -6.33301 49 -19s22 -29 22 -49z" />
    <glyph glyph-name="c276" unicode="&#x122;" horiz-adv-x="1540" 
d="M441 111c0 33.333 -10.668 60.333 -32.001 81c-21.333 19.333 -47 29 -77 29c-28 0 -53.5 -9.5 -76.5 -28.5s-34.5 -46.167 -34.5 -81.5c0 -34 10.833 -61.167 32.5 -81.5s47.834 -30.5 78.501 -30.5c28 0 53.667 9.66699 77 29c21.333 19.333 32 47 32 83zM881.999 111
c0 33.333 -10.668 60.333 -32.001 81c-21.333 19.333 -47 29 -77 29c-28 0 -53.5 -9.5 -76.5 -28.5s-34.5 -46.167 -34.5 -81.5c0 -34 10.833 -61.167 32.5 -81.5s47.834 -30.5 78.501 -30.5c28 0 53.667 9.66699 77 29c21.333 19.333 32 47 32 83zM1323 111
c0 33.333 -10.665 60.333 -31.998 81c-22.667 19.333 -48.334 29 -77.001 29c-28 0 -53.5 -9.5 -76.5 -28.5s-34.5 -46.167 -34.5 -81.5c0 -34 10.667 -61.167 32 -81.5s47.666 -30.5 78.999 -30.5c28 0 53.667 9.66699 77 29c21.333 19.333 32 47 32 83z" />
    <glyph glyph-name="c277" unicode="&#x123;" horiz-adv-x="1400" 
d="M1258 517c0 -58.667 -25.334 -112.998 -76.001 -162.998s-107.667 -75 -171 -75c-21.333 0 -43.666 3 -66.999 9c-11.333 3.33301 -21.666 7.66602 -30.999 12.999c-6.66699 2 -12 4.66699 -16 8l-18 12l-437 291c-23.333 12.667 -43.666 19 -60.999 19
c-30 0 -55.333 -10.667 -76 -32c-16.667 -18.667 -25 -43.667 -25 -75c0 -12 2 -24 6 -36s11 -23 21 -33c9.33301 -11.333 29.333 -22 60 -32c36 -8 54 -30.333 54 -67c0 -18.667 -6.16699 -35.5 -18.5 -50.5s-29.5 -22.5 -51.5 -22.5l-18 3
c-54 12 -96.167 34.333 -126.5 67s-52.5 84.334 -66.5 155.001l-1 25c0 60.667 23.667 116 71 166s104.666 75 171.999 75c24.667 0 47 -3.33301 67 -10c26 -5.33301 50 -17 72 -35l437 -291c19.333 -12 38.666 -18 57.999 -18c28 0 52 10 72 30s30 42.333 30 67
c0 28.667 -5.16699 51.667 -15.5 69s-28.5 29.666 -54.5 36.999c-25.333 6 -43.333 15.667 -54 29c-9.33301 13.333 -14 27.333 -14 42c0 18.667 6.66699 35 20 49c12 15.333 28 23 48 23l16 -2c69.333 -14 121 -45 155 -93c11.333 -16.667 21 -39.334 29 -68.001l7 -39z
" />
    <glyph glyph-name="c278" unicode="&#x124;" horiz-adv-x="2940" 
d="M1960 322c0 -100 -33.666 -180.667 -100.999 -242c-58.667 -53.333 -132.334 -80 -221.001 -80c-86 0 -159.667 26.667 -221 80c-67.333 58 -101 138.667 -101 242c0 100 33.667 180.333 101 241c61.333 54 135 81 221 81s159.667 -26.667 221 -80
c67.333 -58 101 -138.667 101 -242zM1529 1291l-840 -1260c-5.33301 -8.66699 -14.333 -17 -27 -25l-31 -7c-14.667 0 -31 7 -49 21c-15.333 14 -23 30.667 -23 50c0 12 4 25 12 39l840 1260c6 9.33301 14.333 17.333 25 24l15 6l17 2c18 0 35 -7 51 -21
c14.667 -14.667 22 -31.334 22 -50.001c0 -12 -4 -25 -12 -39zM784.001 1078c0 -100 -33.666 -180.667 -100.999 -242c-58.667 -53.333 -132.334 -80 -221.001 -80c-86 0 -159.667 26.667 -221 80c-67.333 58 -101 138.667 -101 242c0 100 33.667 180.333 101 241
c61.333 54 135 81 221 81s159.667 -26.667 221 -80c67.333 -58 101 -138.667 101 -242zM1820 322.001c0 54 -18.333 97.833 -55 131.5s-79 50.5 -127 50.5c-46 0 -87.667 -15 -125 -45c-38 -33.333 -57 -79 -57 -137c0 -56 18.667 -101.333 56 -136
c34.667 -30.667 76.667 -46 126 -46c46.667 0 88 15 124 45c38.667 33.333 58 79 58 137zM644.002 1078c0 54 -17.667 98.333 -53 133c-36.667 32.667 -79.667 49 -129 49c-46 0 -87.667 -15 -125 -45c-38 -33.333 -57 -79 -57 -137c0 -56 18.667 -101.333 56 -136
c34.667 -30.667 76.667 -46 126 -46c48 0 90.333 15.833 127 47.5s55 76.5 55 134.5zM2800 322.001c0 -100 -33.667 -180.667 -101 -242c-58.667 -53.333 -132.334 -80 -221 -80c-86 0 -159.667 26.667 -221 80c-67.333 58 -101 138.667 -101 242
c0 100 33.667 180.333 101 241c61.333 54 135 81 221 81s159.667 -26.667 221 -80c67.333 -58 101 -138.667 101 -242zM2660 322.001c0 54 -18.333 97.833 -55 131.5s-79 50.5 -127 50.5c-46 0 -87.667 -15 -125 -45c-38 -33.333 -57 -79 -57 -137
c0 -56 18.667 -101.333 56 -136c34.667 -30.667 76.667 -46 126 -46c46.667 0 88 15 124 45c38.667 33.333 58 79 58 137z" />
    <glyph glyph-name="c279" unicode="&#x125;" 
d="M490 588l231 230.999c14 14 30 21 48 21c17.333 0 33.5 -7.16699 48.5 -21.5s22.5 -30.833 22.5 -49.5c0 -16 -7 -32 -21 -48l-231 -231l231 -231c14 -14 21 -30 21 -48c0 -17.333 -7.33301 -33.5 -22 -48.5s-31 -22.5 -49 -22.5c-16 0 -32 7 -48 21l-231 231l-231 -231
c-14 -14 -30 -21 -48 -21c-16.667 0 -33 7 -49 21c-14.667 14.667 -22 31.334 -22 50.001c0 16 7 32 21 48l231 231l-231 231c-14 14 -21 30 -21 48c0 16.667 7 32.667 21 48s30.667 23 50 23c16 0 32 -7 48 -21z" />
    <glyph glyph-name="c280" unicode="&#x126;" horiz-adv-x="420" 
d="M140 700c0 19.333 6.83301 35.833 20.5 49.5s30.167 20.5 49.5 20.5c15.333 0 30.833 -6.83301 46.5 -20.5s23.5 -30.167 23.5 -49.5c0 -16.667 -6.83301 -32.5 -20.5 -47.5s-30.167 -22.5 -49.5 -22.5c-20 0 -37 7 -51 21c-12.667 14.667 -19 31 -19 49z" />
    <glyph glyph-name="circumflex" unicode="&#x2c6;" horiz-adv-x="1400" 
d="M1258 517c0 -58.667 -25.334 -112.998 -76.001 -162.998s-107.667 -75 -171 -75c-21.333 0 -43.666 3 -66.999 9c-11.333 3.33301 -21.666 7.66602 -30.999 12.999c-6.66699 2 -12 4.66699 -16 8l-18 12l-437 291c-23.333 12.667 -43.666 19 -60.999 19
c-30 0 -55.333 -10.667 -76 -32c-16.667 -18.667 -25 -43.667 -25 -75c0 -12 2 -24 6 -36s11 -23 21 -33c9.33301 -11.333 29.333 -22 60 -32c36 -8 54 -30.333 54 -67c0 -18.667 -6.16699 -35.5 -18.5 -50.5s-29.5 -22.5 -51.5 -22.5l-18 3
c-54 12 -96.167 34.333 -126.5 67s-52.5 84.334 -66.5 155.001l-1 25c0 60.667 23.667 116 71 166s104.666 75 171.999 75c24.667 0 47 -3.33301 67 -10c26 -5.33301 50 -17 72 -35l437 -291c19.333 -12 38.666 -18 57.999 -18c28 0 52 10 72 30s30 42.333 30 67
c0 28.667 -5.16699 51.667 -15.5 69s-28.5 29.666 -54.5 36.999c-25.333 6 -43.333 15.667 -54 29c-9.33301 13.333 -14 27.333 -14 42c0 18.667 6.66699 35 20 49c12 15.333 28 23 48 23l16 -2c69.333 -14 121 -45 155 -93c11.333 -16.667 21 -39.334 29 -68.001l7 -39z
" />
    <glyph glyph-name="quotedblbase" unicode="&#x201e;" horiz-adv-x="700" 
d="M557 53l-70 -278c-2 -13.333 -9.5 -25.333 -22.5 -36s-27.5 -16 -43.5 -16s-32.667 6 -50 18c-14 12 -21 28.333 -21 49l3 18l70 279c2 15.333 9.5 27.833 22.5 37.5s27.5 14.5 43.5 14.5c18 0 34.333 -6.33301 49 -19s22 -29 22 -49zM277 53l-70 -278
c-2 -13.333 -9.5 -25.333 -22.5 -36s-27.5 -16 -43.5 -16s-32.667 6 -50 18c-14 12 -21 28.333 -21 49l3 18l70 279c2 15.333 9.5 27.833 22.5 37.5s27.5 14.5 43.5 14.5c18 0 34.333 -6.33301 49 -19s22 -29 22 -49z" />
    <glyph glyph-name="bullet" unicode="&#x2022;" 
d="M490 588l231 230.999c14 14 30 21 48 21c17.333 0 33.5 -7.16699 48.5 -21.5s22.5 -30.833 22.5 -49.5c0 -16 -7 -32 -21 -48l-231 -231l231 -231c14 -14 21 -30 21 -48c0 -17.333 -7.33301 -33.5 -22 -48.5s-31 -22.5 -49 -22.5c-16 0 -32 7 -48 21l-231 231l-231 -231
c-14 -14 -30 -21 -48 -21c-16.667 0 -33 7 -49 21c-14.667 14.667 -22 31.334 -22 50.001c0 16 7 32 21 48l231 231l-231 231c-14 14 -21 30 -21 48c0 16.667 7 32.667 21 48s30.667 23 50 23c16 0 32 -7 48 -21z" />
    <glyph glyph-name="ellipsis" unicode="&#x2026;" horiz-adv-x="1260" 
d="M140 70c0 19.333 6.83301 35.833 20.5 49.5s30.167 20.5 49.5 20.5c15.333 0 30.833 -6.83301 46.5 -20.5s23.5 -30.167 23.5 -49.5c0 -16.667 -6.83301 -32.5 -20.5 -47.5s-30.167 -22.5 -49.5 -22.5c-20 0 -37 7 -51 21c-12.667 14.667 -19 31 -19 49zM524 70
c0 19.333 6.83301 35.833 20.5 49.5s30.167 20.5 49.5 20.5c15.333 0 30.833 -6.83301 46.5 -20.5s23.5 -30.167 23.5 -49.5c0 -16.667 -6.83301 -32.5 -20.5 -47.5s-30.167 -22.5 -49.5 -22.5c-20 0 -37 7 -51 21c-12.667 14.667 -19 31 -19 49zM896 70
c0 19.333 6.83301 35.833 20.5 49.5s30.167 20.5 49.5 20.5c15.333 0 30.833 -6.83301 46.5 -20.5s23.5 -30.167 23.5 -49.5c0 -16.667 -6.83301 -32.5 -20.5 -47.5s-30.167 -22.5 -49.5 -22.5c-20 0 -37 7 -51 21c-12.667 14.667 -19 31 -19 49z" />
    <glyph glyph-name="perthousand" unicode="&#x2030;" horiz-adv-x="2940" 
d="M1960 322c0 -100 -33.666 -180.667 -100.999 -242c-58.667 -53.333 -132.334 -80 -221.001 -80c-86 0 -159.667 26.667 -221 80c-67.333 58 -101 138.667 -101 242c0 100 33.667 180.333 101 241c61.333 54 135 81 221 81s159.667 -26.667 221 -80
c67.333 -58 101 -138.667 101 -242zM1529 1291l-840 -1260c-5.33301 -8.66699 -14.333 -17 -27 -25l-31 -7c-14.667 0 -31 7 -49 21c-15.333 14 -23 30.667 -23 50c0 12 4 25 12 39l840 1260c6 9.33301 14.333 17.333 25 24l15 6l17 2c18 0 35 -7 51 -21
c14.667 -14.667 22 -31.334 22 -50.001c0 -12 -4 -25 -12 -39zM784.001 1078c0 -100 -33.666 -180.667 -100.999 -242c-58.667 -53.333 -132.334 -80 -221.001 -80c-86 0 -159.667 26.667 -221 80c-67.333 58 -101 138.667 -101 242c0 100 33.667 180.333 101 241
c61.333 54 135 81 221 81s159.667 -26.667 221 -80c67.333 -58 101 -138.667 101 -242zM1820 322.001c0 54 -18.333 97.833 -55 131.5s-79 50.5 -127 50.5c-46 0 -87.667 -15 -125 -45c-38 -33.333 -57 -79 -57 -137c0 -56 18.667 -101.333 56 -136
c34.667 -30.667 76.667 -46 126 -46c46.667 0 88 15 124 45c38.667 33.333 58 79 58 137zM644.002 1078c0 54 -17.667 98.333 -53 133c-36.667 32.667 -79.667 49 -129 49c-46 0 -87.667 -15 -125 -45c-38 -33.333 -57 -79 -57 -137c0 -56 18.667 -101.333 56 -136
c34.667 -30.667 76.667 -46 126 -46c48 0 90.333 15.833 127 47.5s55 76.5 55 134.5zM2800 322.001c0 -100 -33.667 -180.667 -101 -242c-58.667 -53.333 -132.334 -80 -221 -80c-86 0 -159.667 26.667 -221 80c-67.333 58 -101 138.667 -101 242
c0 100 33.667 180.333 101 241c61.333 54 135 81 221 81s159.667 -26.667 221 -80c67.333 -58 101 -138.667 101 -242zM2660 322.001c0 54 -18.333 97.833 -55 131.5s-79 50.5 -127 50.5c-46 0 -87.667 -15 -125 -45c-38 -33.333 -57 -79 -57 -137
c0 -56 18.667 -101.333 56 -136c34.667 -30.667 76.667 -46 126 -46c46.667 0 88 15 124 45c38.667 33.333 58 79 58 137z" />
    <glyph glyph-name="empty set" unicode="&#x2205;" horiz-adv-x="1259" 
d="M805 1004l-217 -651l42 -3c97.333 0 180 34 248 102s102 150.667 102 248c0 65.333 -15.667 124.333 -47 177s-74 95 -128 127zM455 396l217 651l-42 3c-97.333 0 -180 -34 -248 -102s-102 -150.667 -102 -248c0 -61.333 15.333 -119.833 46 -175.5
s73.667 -98.5 129 -128.5zM410 262c-76.667 39.333 -140.832 98.666 -192.499 177.999s-77.5 166 -77.5 260c0 130.667 47.667 245 143 343s211 147 347 147c22.667 0 51.667 -3 87 -9l57 171c4 9.33301 12.333 21 25 35c11.333 8.66699 24.666 13 39.999 13
c18.667 0 35.167 -6.33301 49.5 -19s21.5 -28.667 21.5 -48l-4 -26l-56 -169c78 -39.333 142.5 -98.833 193.5 -178.5s76.5 -166.167 76.5 -259.5c0 -133.333 -48 -248.333 -144 -345s-211.333 -145 -346 -145l-41 1l-46 6l-57 -169c-4 -9.33301 -13 -21.666 -27 -36.999
l-8 -4l-30 -7c-18.667 -0 -35.167 6.33301 -49.5 19s-21.5 28.667 -21.5 48l4 25z" />
    <glyph glyph-name=".null" horiz-adv-x="0" 
 />
    <glyph glyph-name="nonmarkingreturn" horiz-adv-x="840" 
 />
    </font>
</defs>
</svg>
